<svg width="390" height="86" viewBox="0 0 390 86" fill="none" xmlns="http://www.w3.org/2000/svg">
<g filter="url(#filter0_d_6635_71732)">
<rect width="390" height="72" transform="translate(0 14)" fill="white"/>
<path fill-rule="evenodd" clip-rule="evenodd" d="M50.3086 31.4425C49.3343 30.5765 47.8662 30.5765 46.8919 31.4425L41.1796 36.5201C40.4476 37.1707 40.0288 38.1033 40.0288 39.0826V46.4993C40.0288 47.9195 41.1801 49.0708 42.6002 49.0708H54.6002C56.0204 49.0708 57.1717 47.9195 57.1717 46.4993V39.0826C57.1717 38.1033 56.7529 37.1707 56.0209 36.5201L50.3086 31.4425ZM48.0308 32.7238C48.3555 32.4351 48.8449 32.4351 49.1697 32.7238L54.882 37.8014C55.248 38.1267 55.4574 38.593 55.4574 39.0826V46.4993C55.4574 46.9727 55.0736 47.3565 54.6002 47.3565H49.4574V44.7852C49.4574 44.3118 49.0736 43.928 48.6002 43.928C48.1268 43.928 47.7431 44.3118 47.7431 44.7852V47.3565H42.6002C42.1269 47.3565 41.7431 46.9727 41.7431 46.4993V39.0826C41.7431 38.593 41.9525 38.1267 42.3185 37.8014L48.0308 32.7238Z" fill="#272B2F"/>
<path d="M50.8387 60.112H46.7947V59.296H50.8387V60.112ZM52.9387 61.468H44.6707V60.652H52.9387V61.468ZM48.2707 64.588C47.4067 64.564 46.6867 64.48 46.1347 64.324C45.4387 64.108 45.1027 63.772 45.1027 63.316C45.1027 62.86 45.4507 62.512 46.1467 62.296C46.8187 62.104 47.6947 61.996 48.7867 61.996C49.8907 61.996 50.7667 62.104 51.4387 62.296C52.1587 62.512 52.5187 62.86 52.5187 63.316C52.5187 63.772 52.1587 64.12 51.4507 64.336C50.9227 64.48 50.2267 64.564 49.3627 64.588V65.284H53.9947V66.136H43.6387V65.284H48.2707V64.588ZM48.7867 63.808C49.5547 63.808 50.2027 63.772 50.7067 63.7C51.1987 63.628 51.4507 63.508 51.4507 63.316C51.4507 63.148 51.1987 63.028 50.7067 62.932C50.2027 62.848 49.5667 62.8 48.7867 62.8C47.9827 62.8 47.3467 62.848 46.8907 62.92C46.4107 63.016 46.1827 63.148 46.1827 63.316C46.1827 63.496 46.4227 63.616 46.9027 63.688C47.3707 63.772 47.9947 63.808 48.7867 63.808ZM46.0147 67.804V69.028H51.6187V67.804H46.0147ZM52.6867 66.988V69.832H44.9467V66.988H52.6867Z" fill="#333B48"/>
<path fill-rule="evenodd" clip-rule="evenodd" d="M121.8 31.0703C119.433 31.0703 117.515 32.9891 117.515 35.356C117.515 37.723 119.433 39.6417 121.8 39.6417C124.167 39.6417 126.086 37.723 126.086 35.356C126.086 32.9891 124.167 31.0703 121.8 31.0703ZM119.229 35.356C119.229 33.9359 120.38 32.7846 121.8 32.7846C123.221 32.7846 124.372 33.9359 124.372 35.356C124.372 36.7762 123.221 37.9275 121.8 37.9275C120.38 37.9275 119.229 36.7762 119.229 35.356Z" fill="#908F8E"/>
<path d="M121.8 40.4989C117.067 40.4989 113.229 44.3364 113.229 49.0703C113.229 49.5437 113.613 49.9275 114.086 49.9275C114.56 49.9275 114.943 49.5437 114.943 49.0703C114.943 45.2832 118.013 42.2132 121.8 42.2132C125.588 42.2132 128.658 45.2832 128.658 49.0703C128.658 49.5437 129.041 49.9275 129.515 49.9275C129.988 49.9275 130.372 49.5437 130.372 49.0703C130.372 44.3364 126.534 40.4989 121.8 40.4989Z" fill="#908F8E"/>
<path d="M117.206 67.828H112.106V60.256H117.206V67.828ZM116.15 66.892V61.18H113.162V66.892H116.15ZM120.182 59.332V63.316H121.874V64.3H120.182V69.82H119.114V59.332H120.182ZM122.772 64.024C122.772 62.944 123.036 62.02 123.576 61.228C124.128 60.448 124.788 60.052 125.58 60.052C126.348 60.052 127.02 60.448 127.596 61.228C128.148 61.996 128.424 62.932 128.424 64.024C128.424 65.104 128.148 66.028 127.596 66.808C127.056 67.576 126.384 67.96 125.58 67.96C124.788 67.96 124.128 67.576 123.576 66.808C123.036 66.04 122.772 65.116 122.772 64.024ZM123.828 64.024C123.828 64.804 123.972 65.488 124.284 66.088C124.644 66.724 125.076 67.036 125.58 67.036C126.084 67.036 126.516 66.724 126.876 66.088C127.2 65.476 127.368 64.792 127.368 64.024C127.368 63.22 127.2 62.536 126.888 61.96C126.504 61.312 126.072 60.976 125.58 60.976C125.052 60.976 124.62 61.312 124.284 61.96C123.972 62.56 123.828 63.256 123.828 64.024ZM131.436 59.32V69.832H130.392V59.32H131.436Z" fill="#908F8E"/>
<path d="M194.748 29.9404C195.087 29.8456 195.533 29.9154 195.751 30.2393H195.75C196.181 30.8118 196.723 31.3049 197.333 31.7051L197.599 31.8711L197.601 31.8721C198.792 32.6025 200.22 32.9467 201.634 32.9541H201.635C202.214 32.9619 202.786 32.8867 203.373 32.834C203.574 32.8142 203.756 32.8989 203.886 33.0273C204.014 33.1548 204.098 33.3333 204.095 33.5156L204.097 38.1611C204.116 39.2634 204.052 40.3765 203.791 41.4609L203.792 41.4619C203.342 43.5005 202.3 45.3936 200.893 46.9707L200.894 46.9717C200.232 47.7344 199.461 48.399 198.664 49.0186L198.661 49.0205C197.757 49.6812 196.802 50.282 195.804 50.8057L195.8 50.8076C195.739 50.8363 195.678 50.8692 195.613 50.9033C195.549 50.9369 195.482 50.9714 195.413 51.002C195.309 51.0479 195.196 51.0858 195.073 51.0967L194.947 51.0977C194.802 51.0869 194.673 51.0372 194.557 50.9795C194.499 50.9507 194.442 50.9186 194.389 50.8887C194.334 50.8584 194.282 50.8302 194.23 50.8047L194.228 50.8027C192.389 49.8368 190.64 48.6559 189.252 47.1279V47.127C187.835 45.6005 186.777 43.7546 186.28 41.7607L186.179 41.3242C185.962 40.3029 185.884 39.2577 185.907 38.2188L185.901 33.5723H185.902C185.887 33.3457 185.997 33.143 186.16 33.0088C186.325 32.8731 186.552 32.7996 186.778 32.8408H186.777C187.946 32.9965 189.146 33.0136 190.289 32.7441C191.873 32.3503 193.345 31.4747 194.322 30.2168C194.425 30.086 194.57 29.9932 194.728 29.9453L194.741 29.9404H194.748ZM195.01 31.8818C193.54 33.3731 191.492 34.3119 189.367 34.5215L189.321 34.5264L189.319 34.5244C188.745 34.5828 188.164 34.5593 187.6 34.5557C187.594 35.1043 187.595 35.6533 187.597 36.2031C187.599 36.7857 187.601 37.3695 187.596 37.9531V37.958C187.572 38.3993 187.577 38.8418 187.603 39.2842L187.634 39.7266V39.7275C187.733 41.0268 188.107 42.3028 188.689 43.4814C189.106 44.2975 189.634 45.0618 190.235 45.7676C191.543 47.2659 193.201 48.4688 195.017 49.3613C195.727 49.0025 196.41 48.595 197.069 48.1543C198.634 47.0938 200.013 45.7511 200.938 44.1436L200.939 44.1416C201.902 42.5694 202.376 40.7442 202.405 38.9258L202.401 36.6904C202.4 35.9791 202.4 35.2677 202.404 34.5566C201.831 34.5721 201.25 34.5804 200.672 34.5156V34.5166C198.533 34.3336 196.482 33.378 195.01 31.8818Z" fill="#908F8E" stroke="#908F8E" stroke-width="0.2"/>
<path d="M187.069 60.256V62.068H192.673V60.256H193.741V65.836H190.393V67.936H195.049V68.872H184.693V67.936H189.349V65.836H186.001V60.256H187.069ZM187.069 62.98V64.924H192.673V62.98H187.069ZM202.008 61.816H195.72V60.94H202.008V61.816ZM200.448 60.328H197.268V59.452H200.448V60.328ZM201.648 64.084C201.648 64.324 201.576 64.54 201.432 64.744C201.276 64.96 201.084 65.14 200.844 65.284C200.58 65.44 200.28 65.548 199.944 65.62C199.596 65.692 199.236 65.728 198.852 65.728C198.48 65.728 198.12 65.692 197.784 65.608C197.436 65.536 197.148 65.428 196.908 65.284C196.668 65.14 196.476 64.96 196.344 64.744C196.2 64.54 196.128 64.324 196.128 64.084C196.128 63.856 196.188 63.64 196.332 63.424C196.464 63.232 196.656 63.04 196.908 62.872C197.16 62.704 197.46 62.584 197.796 62.512C198.132 62.452 198.48 62.416 198.852 62.416C199.236 62.416 199.596 62.452 199.944 62.524C200.28 62.596 200.58 62.716 200.844 62.872C201.084 63.028 201.288 63.208 201.432 63.412C201.576 63.628 201.648 63.856 201.648 64.084ZM200.592 64.084C200.592 63.844 200.424 63.64 200.112 63.484C199.788 63.34 199.368 63.268 198.852 63.268C198.348 63.268 197.94 63.34 197.64 63.484C197.328 63.628 197.184 63.832 197.184 64.084C197.184 64.312 197.328 64.504 197.628 64.648C197.916 64.804 198.324 64.876 198.852 64.876C199.356 64.876 199.776 64.804 200.112 64.648C200.424 64.504 200.592 64.324 200.592 64.084ZM204.72 59.32V65.836H203.652V63.916H202.14V62.956H203.652V59.32H204.72ZM203.652 67.432H198.684V68.956H203.652V67.432ZM204.72 69.832H197.616V66.556H204.72V69.832Z" fill="#908F8E"/>
<path d="M278.951 40.9284C279.03 47.176 273.664 52.0375 267.859 51.951C261.886 51.8608 256.975 46.9678 257 41.0855C257.028 34.9057 261.966 29.941 268.029 30.0005C274.2 30.0619 279.011 34.875 278.95 40.9274L278.951 40.9284ZM267.989 31.8851C263.304 31.9371 258.974 35.418 258.937 40.9804C258.904 46.0167 262.941 50.0163 267.934 50.0228C272.968 50.0293 277.093 45.8986 277.073 40.8716C277.053 35.9284 272.963 31.8823 267.989 31.886V31.8851Z" fill="#908F8E"/>
<path d="M268.843 45.6455C268.724 46.0573 268.528 46.472 267.865 46.4642C267.264 46.4572 267.013 46.1131 266.932 45.6787C266.677 45.5656 266.44 45.4738 266.218 45.3622C265.319 44.9079 264.803 44.2523 264.66 43.3975C264.615 43.1277 264.645 42.8733 264.826 42.6451C265.059 42.3534 265.403 42.2587 265.816 42.3216C266.216 42.3816 266.419 42.5922 266.467 42.9079C266.499 43.1185 266.437 43.3417 266.566 43.5381C266.832 43.9457 267.247 44.1775 267.823 44.2057C268.411 44.2347 268.849 44.0249 269.125 43.6193C269.409 43.2004 269.454 42.7532 269.13 42.3343C268.915 42.0574 268.56 41.9309 268.157 41.9217C267.654 41.9097 267.18 41.8038 266.707 41.6724C265.475 41.3304 264.741 40.6621 264.645 39.5954C264.545 38.4771 264.949 37.529 266.192 36.9144C266.439 36.7922 266.708 36.6989 266.963 36.5936C267.113 35.7494 267.318 35.5015 267.869 35.4887C268.458 35.4753 268.707 35.7494 268.829 36.5802C269.259 36.7738 269.743 36.9433 270.127 37.2408C270.744 37.7176 271.125 38.2913 271.21 38.9815C271.266 39.4407 270.966 39.8087 270.484 39.9211C269.918 40.0532 269.473 39.8179 269.401 39.2831C269.34 38.8239 269.143 38.4629 268.654 38.2185C267.731 37.7572 266.53 38.215 266.377 39.0874C266.283 39.6222 266.618 40.0609 267.253 40.2552C267.505 40.3322 267.764 40.3492 268.027 40.3605C271.219 40.5011 271.652 42.7829 270.697 44.3654C270.328 44.9757 269.929 45.223 268.843 45.6448V45.6455Z" fill="#908F8E"/>
<path d="M266.941 59.776V61.336C266.941 62.296 266.833 63.136 266.617 63.832H268.249V64.744H257.893V63.832H265.585C265.777 63.148 265.885 62.368 265.885 61.492V60.676H259.165V59.776H266.941ZM260.269 67.024V68.932H265.873V67.024H260.269ZM266.941 66.124V69.832H259.201V66.124H266.941ZM277.656 61.612C277.656 61.924 277.548 62.2 277.356 62.464C277.14 62.74 276.864 62.968 276.516 63.148C276.168 63.328 275.748 63.46 275.268 63.532C274.764 63.628 274.26 63.664 273.732 63.664C273.204 63.664 272.7 63.628 272.232 63.532C271.752 63.46 271.332 63.328 270.984 63.148C270.624 62.968 270.348 62.74 270.156 62.464C269.964 62.2 269.868 61.924 269.868 61.612C269.868 61.276 269.964 60.988 270.156 60.736C270.348 60.496 270.612 60.268 270.972 60.076C271.32 59.896 271.74 59.752 272.22 59.656C272.7 59.56 273.204 59.512 273.732 59.512C274.26 59.512 274.764 59.56 275.256 59.656C275.736 59.764 276.144 59.896 276.504 60.064C276.864 60.256 277.14 60.484 277.356 60.748C277.548 61.024 277.656 61.312 277.656 61.612ZM276.576 61.6C276.576 61.42 276.504 61.252 276.372 61.108C276.228 60.964 276.036 60.844 275.784 60.724C275.52 60.604 275.22 60.52 274.884 60.46C274.548 60.412 274.164 60.388 273.732 60.388C273.3 60.388 272.916 60.424 272.58 60.472C272.232 60.532 271.944 60.616 271.704 60.724C271.452 60.844 271.26 60.964 271.14 61.108C271.008 61.264 270.948 61.432 270.948 61.6C270.948 61.756 271.008 61.912 271.14 62.068C271.26 62.236 271.44 62.38 271.704 62.476C271.944 62.572 272.244 62.656 272.592 62.704C272.928 62.764 273.3 62.788 273.732 62.788C274.14 62.788 274.524 62.764 274.884 62.704C275.232 62.656 275.532 62.584 275.784 62.476C276.048 62.368 276.24 62.236 276.384 62.08C276.504 61.936 276.576 61.768 276.576 61.6ZM278.94 64.48V65.368H276.444V66.616L276.72 66.736C277.44 67.096 277.812 67.564 277.812 68.14C277.812 68.728 277.44 69.208 276.72 69.568C275.976 69.94 274.992 70.12 273.744 70.12C272.532 70.12 271.56 69.94 270.84 69.58C270.096 69.22 269.736 68.74 269.736 68.14C269.736 67.564 270.096 67.096 270.828 66.736C270.9 66.7 270.984 66.664 271.08 66.628V65.368H268.584V64.48H278.94ZM275.4 66.328V65.368H272.112V66.34C272.592 66.256 273.144 66.208 273.744 66.208C274.368 66.208 274.92 66.256 275.4 66.328ZM273.744 67.084C272.88 67.084 272.184 67.18 271.632 67.36C271.068 67.552 270.792 67.816 270.792 68.14C270.792 68.476 271.068 68.74 271.62 68.932C272.172 69.136 272.88 69.232 273.744 69.232C274.608 69.232 275.328 69.136 275.904 68.932C276.468 68.74 276.756 68.476 276.756 68.14C276.756 67.816 276.468 67.552 275.904 67.36C275.328 67.18 274.608 67.084 273.744 67.084Z" fill="#908F8E"/>
<path d="M332.829 33.2154C332.829 32.5053 333.404 31.9297 334.114 31.9297H348.686C349.396 31.9297 349.971 32.5053 349.971 33.2154C349.971 33.9255 349.396 34.5011 348.686 34.5011H341.4H334.114C333.404 34.5011 332.829 33.9255 332.829 33.2154Z" fill="#908F8E"/>
<path d="M332.829 40.0725C332.829 39.3625 333.404 38.7868 334.114 38.7868H348.686C349.396 38.7868 349.971 39.3625 349.971 40.0725C349.971 40.7826 349.396 41.3583 348.686 41.3583H334.114C333.404 41.3583 332.829 40.7826 332.829 40.0725Z" fill="#908F8E"/>
<path d="M334.114 45.644C333.404 45.644 332.829 46.2196 332.829 46.9297C332.829 47.6398 333.404 48.2154 334.114 48.2154H348.686C349.396 48.2154 349.971 47.6398 349.971 46.9297C349.971 46.2196 349.396 45.644 348.686 45.644H334.114Z" fill="#908F8E"/>
<path d="M324.542 61.276C324.542 62.164 324.854 62.968 325.49 63.664C325.97 64.204 326.594 64.672 327.338 65.068L326.678 65.74C325.838 65.296 325.154 64.768 324.614 64.156C324.422 63.952 324.218 63.688 324.014 63.376C323.774 63.736 323.546 64.024 323.354 64.24C322.73 64.96 322.046 65.524 321.302 65.956L320.582 65.296C321.314 64.864 321.95 64.336 322.49 63.736C323.138 63.04 323.462 62.212 323.462 61.276V60.904H321.11V59.992H326.87V60.904H324.542V61.276ZM329.738 59.32V67.276H328.67V62.896H326.39V61.948H328.67V59.32H329.738ZM330.026 69.832H322.538V66.544H323.618V68.908H330.026V69.832ZM332.461 59.848H335.437V60.784H332.461V59.848ZM334.501 62.824C334.501 63.652 334.729 64.432 335.185 65.164C335.653 65.908 336.193 66.544 336.817 67.084L336.109 67.672C335.473 67.132 334.861 66.412 334.285 65.5C334.177 65.356 334.093 65.212 334.033 65.068C333.961 65.212 333.865 65.392 333.733 65.596C333.109 66.568 332.437 67.348 331.741 67.948L330.997 67.336C331.669 66.784 332.269 66.076 332.809 65.236C333.265 64.516 333.493 63.76 333.493 62.944V62.692H331.453V61.756H336.469V62.692H334.501V62.824ZM340.717 69.832H339.673V59.32H340.717V69.832ZM337.501 59.548H338.533V69.46H337.501V64.552H336.037V63.628H337.501V59.548ZM346.596 67.828H342.396V60.256H346.596V63.1H348.024V59.548H349.056V69.46H348.024V64.024H346.596V67.828ZM345.576 66.892V61.18H343.404V66.892H345.576ZM351.408 69.832H350.364V59.32H351.408V69.832ZM353.783 64.204V59.872H354.851V63.28H361.523V64.204H353.783ZM362.831 65.74V66.664H360.191V69.952H359.135V66.664H356.171V69.952H355.115V66.664H352.475V65.74H362.831Z" fill="#908F8E"/>
</g>
<defs>
<filter id="filter0_d_6635_71732" x="-16" y="0" width="422" height="104" filterUnits="userSpaceOnUse" color-interpolation-filters="sRGB">
<feFlood flood-opacity="0" result="BackgroundImageFix"/>
<feColorMatrix in="SourceAlpha" type="matrix" values="0 0 0 0 0 0 0 0 0 0 0 0 0 0 0 0 0 0 127 0" result="hardAlpha"/>
<feOffset dy="2"/>
<feGaussianBlur stdDeviation="8"/>
<feComposite in2="hardAlpha" operator="out"/>
<feColorMatrix type="matrix" values="0 0 0 0 0 0 0 0 0 0 0 0 0 0 0 0 0 0 0.1 0"/>
<feBlend mode="normal" in2="BackgroundImageFix" result="effect1_dropShadow_6635_71732"/>
<feBlend mode="normal" in="SourceGraphic" in2="effect1_dropShadow_6635_71732" result="shape"/>
</filter>
</defs>
</svg>
