<svg width="433" height="170" viewBox="0 0 433 170" fill="none" xmlns="http://www.w3.org/2000/svg">
<rect width="433" height="170" rx="20" fill="#1D2C39"/>
<path d="M318.435 60.0605C318.48 59.9242 318.503 59.7785 318.566 59.6494C318.898 58.9753 320.451 57.7257 321.227 57.4528C321.403 57.3912 321.591 57.3719 321.769 57.3176L330.6 54.6179L360.848 56.2122C361.502 56.2467 362.005 56.8057 361.971 57.4606L359.136 111.268C359.101 111.923 358.542 112.426 357.887 112.391L315.525 110.159C314.87 110.124 314.367 109.565 314.402 108.91L316.704 65.2223L318.435 60.0605Z" fill="#E2E5EB"/>
<path d="M346.829 55.529L344.246 55.3672L356.99 104.274L346.829 55.529Z" fill="#A5B3C4"/>
<rect width="44.7957" height="56.2571" rx="1.59017" transform="matrix(0.971188 -0.238315 0.238308 0.97119 300.07 60.418)" fill="#F1F2F5"/>
<rect width="13.4816" height="1.83847" rx="0.919234" transform="matrix(0.971188 -0.238315 0.238308 0.97119 316.09 60.9062)" fill="#E1E6EE"/>
<path fill-rule="evenodd" clip-rule="evenodd" d="M308.835 69.0165L317.343 103.692L348.289 96.0984L339.78 61.4229L308.835 69.0165ZM307.803 67.9752C307.533 68.0414 307.368 68.3137 307.434 68.5835L316.302 104.724C316.368 104.994 316.641 105.159 316.91 105.093L349.321 97.1397C349.591 97.0735 349.756 96.8012 349.69 96.5314L340.822 60.3906C340.756 60.1209 340.483 59.9559 340.213 60.0221L307.803 67.9752Z" fill="#E1E6EE"/>
<path fill-rule="evenodd" clip-rule="evenodd" d="M342.098 69.0722L310.481 76.8306L310.181 75.6095L341.799 67.8511L342.098 69.0722Z" fill="#E1E6EE"/>
<path fill-rule="evenodd" clip-rule="evenodd" d="M345.946 84.7547L314.328 92.513L314.029 91.292L345.646 83.5336L345.946 84.7547Z" fill="#E1E6EE"/>
<path fill-rule="evenodd" clip-rule="evenodd" d="M347.808 92.3429L316.191 100.101L315.891 98.8802L347.508 91.1218L347.808 92.3429Z" fill="#E1E6EE"/>
<path d="M346.165 104.463L346.211 79.5963L339.538 75.9648L339.492 100.832C339.474 110.084 345.099 116.396 351.155 119.689L357.828 123.32C351.777 120.027 346.147 113.715 346.165 104.463Z" fill="#69CDA8"/>
<path d="M387.407 69.073C387.452 69.073 387.498 69.073 387.544 69.0821C387.631 69.0867 387.718 69.0959 387.804 69.1096C387.846 69.1142 387.887 69.1187 387.923 69.1279C388.038 69.1462 388.147 69.169 388.257 69.1965C388.266 69.1965 388.28 69.1965 388.289 69.2056C388.408 69.2376 388.527 69.2742 388.641 69.3154C388.678 69.3291 388.71 69.3428 388.742 69.3566C388.824 69.3886 388.902 69.4206 388.98 69.4572C389.048 69.4892 389.112 69.5212 389.177 69.5532L382.504 65.9218C382.458 65.8943 382.412 65.8715 382.362 65.8486C382.344 65.8395 382.325 65.8349 382.307 65.8257C382.229 65.7891 382.151 65.7571 382.069 65.7251C382.037 65.7114 382 65.6977 381.968 65.6839C381.854 65.6428 381.735 65.6062 381.616 65.5742C381.607 65.5742 381.598 65.5742 381.589 65.5696C381.479 65.5422 381.369 65.5193 381.255 65.501C381.214 65.4964 381.173 65.4919 381.136 65.4827C381.049 65.469 380.962 65.4598 380.875 65.4553C380.83 65.4553 380.784 65.4507 380.738 65.4461C380.647 65.4461 380.56 65.4461 380.468 65.4461C380.427 65.4461 380.386 65.4461 380.345 65.4461C380.212 65.4553 380.08 65.4644 379.942 65.4827L376.951 65.9035C376.645 65.9446 376.338 65.9812 376.037 66.0087C375.936 66.0178 375.84 66.0224 375.739 66.027C375.533 66.0407 375.328 66.0544 375.122 66.0636C375.007 66.0636 374.893 66.0681 374.774 66.0727C374.587 66.0727 374.395 66.0727 374.207 66.0727C374.088 66.0727 373.969 66.0681 373.85 66.0636C373.663 66.0544 373.48 66.0453 373.292 66.0315C373.178 66.0224 373.059 66.0132 372.945 66.0041C372.748 65.9858 372.556 65.9629 372.364 65.9401C372.263 65.9263 372.158 65.9172 372.057 65.8989C371.815 65.8623 371.568 65.8212 371.33 65.7708C371.28 65.7617 371.234 65.7526 371.184 65.7434C370.896 65.6839 370.612 65.6199 370.333 65.5422C370.013 65.4598 369.697 65.3638 369.382 65.2632C369.08 65.1626 368.774 65.0757 368.463 64.9933C368.449 64.9933 368.44 64.9842 368.426 64.9842C368.165 64.9156 367.9 64.8561 367.63 64.8012C367.571 64.7875 367.511 64.7829 367.456 64.7692C367.232 64.7281 367.008 64.6869 366.784 64.6549C366.683 64.6412 366.583 64.6274 366.478 64.6183C366.295 64.5954 366.107 64.5726 365.924 64.5543C365.81 64.5451 365.7 64.536 365.586 64.5268C365.407 64.5131 365.229 64.504 365.051 64.4994C364.936 64.4994 364.822 64.4902 364.708 64.4902C364.525 64.4902 364.346 64.4902 364.163 64.4902C364.054 64.4902 363.939 64.4902 363.83 64.4994C363.633 64.5085 363.436 64.5177 363.235 64.536C363.139 64.5451 363.047 64.5451 362.951 64.5543C362.659 64.5817 362.366 64.6137 362.073 64.6549C361.794 64.696 361.515 64.7418 361.236 64.7967C361.154 64.8104 361.076 64.8287 360.994 64.847C360.779 64.8927 360.564 64.9385 360.349 64.9888C360.28 65.0071 360.207 65.0208 360.139 65.0391C359.864 65.1077 359.585 65.1854 359.311 65.2678C359.26 65.2815 359.21 65.2998 359.155 65.3181C358.927 65.3912 358.703 65.4644 358.474 65.5467C358.392 65.5742 358.309 65.6062 358.231 65.6336C358.003 65.716 357.779 65.8074 357.555 65.8989C357.504 65.9218 357.454 65.9401 357.404 65.9584C357.166 66.059 356.933 66.1642 356.695 66.2739C356.667 66.2877 356.644 66.3014 356.617 66.3105C356.407 66.4112 356.201 66.5163 355.99 66.6261C355.885 66.681 355.78 66.7313 355.679 66.7862C355.368 66.9554 355.062 67.1292 354.76 67.3167C354.449 67.5088 354.129 67.6918 353.809 67.8656C353.704 67.925 353.594 67.9753 353.489 68.0302C353.274 68.1446 353.059 68.2543 352.839 68.3595C352.574 68.4876 352.304 68.6111 352.034 68.7254C351.988 68.7437 351.943 68.762 351.897 68.7803C351.659 68.8809 351.421 68.9724 351.179 69.0638C351.097 69.0959 351.014 69.1233 350.927 69.1553C350.694 69.2376 350.461 69.3154 350.228 69.3931C350.173 69.4114 350.118 69.4297 350.058 69.448C349.775 69.5349 349.487 69.6127 349.199 69.6859C349.125 69.7042 349.052 69.7224 348.984 69.7362C348.759 69.7911 348.531 69.8414 348.307 69.8871C348.224 69.9054 348.142 69.9191 348.06 69.9374C347.767 69.9923 347.479 70.0426 347.186 70.0838L344.195 70.5045C344.049 70.5228 343.907 70.5548 343.765 70.5869C343.724 70.596 343.678 70.6097 343.637 70.6189C343.536 70.6463 343.436 70.6738 343.335 70.7103C343.289 70.7241 343.248 70.7378 343.203 70.7561C343.093 70.7973 342.983 70.843 342.878 70.8887C342.85 70.9024 342.823 70.9116 342.8 70.9207C342.791 70.9207 342.786 70.9253 342.777 70.9299C342.654 70.9893 342.535 71.0534 342.416 71.1174C342.407 71.122 342.393 71.1265 342.384 71.1357C342.256 71.2089 342.128 71.2912 342.004 71.3735C342.004 71.3735 342 71.3781 341.995 71.3827C341.821 71.5062 341.652 71.6388 341.492 71.7806C341.474 71.7943 341.455 71.808 341.437 71.8263C341.414 71.8492 341.391 71.872 341.369 71.8949C341.254 72.0001 341.144 72.1144 341.039 72.2288C341.016 72.2517 340.989 72.2745 340.971 72.302C340.961 72.3111 340.957 72.3248 340.948 72.334C340.82 72.4803 340.696 72.6358 340.582 72.7959C340.577 72.8051 340.568 72.8142 340.564 72.8188C340.545 72.8417 340.532 72.8691 340.518 72.892C340.422 73.0337 340.335 73.1755 340.248 73.3265C340.234 73.3539 340.211 73.3813 340.198 73.4088C340.179 73.4454 340.161 73.482 340.143 73.5185C340.115 73.5689 340.092 73.6192 340.07 73.6695C340.028 73.761 339.987 73.8524 339.951 73.9439C339.932 73.9942 339.91 74.0399 339.891 74.0902C339.882 74.1085 339.873 74.1268 339.868 74.1497C339.845 74.2183 339.827 74.2869 339.804 74.3555C339.781 74.4195 339.759 74.4836 339.74 74.5522C339.713 74.6437 339.695 74.7351 339.672 74.8312C339.658 74.8952 339.64 74.9547 339.631 75.0187C339.612 75.1239 339.599 75.2291 339.585 75.3343C339.576 75.3892 339.567 75.444 339.562 75.4943C339.548 75.6544 339.539 75.8145 339.539 75.9746L346.212 79.606C346.212 79.446 346.221 79.2813 346.235 79.1258C346.239 79.0709 346.249 79.0206 346.258 78.9703C346.271 78.8651 346.285 78.7599 346.303 78.6547C346.317 78.5907 346.331 78.5312 346.345 78.4718C346.367 78.3757 346.386 78.2843 346.413 78.1928C346.431 78.1288 346.454 78.0647 346.473 78.0007C346.5 77.9138 346.528 77.8223 346.564 77.7354C346.582 77.6851 346.605 77.6394 346.624 77.5936C346.66 77.5022 346.701 77.4061 346.747 77.3192C346.77 77.2689 346.797 77.2186 346.82 77.1683C346.852 77.1043 346.889 77.0402 346.925 76.9762C347.008 76.8298 347.099 76.6835 347.195 76.5417C347.218 76.5097 347.236 76.4731 347.259 76.4411C347.374 76.281 347.497 76.1255 347.625 75.9792C347.657 75.9426 347.689 75.9105 347.721 75.8785C347.826 75.7642 347.936 75.6499 348.051 75.5447C348.092 75.5081 348.133 75.4669 348.174 75.4303C348.334 75.2885 348.503 75.1559 348.677 75.0324C348.805 74.9455 348.933 74.8632 349.066 74.7854C349.075 74.7809 349.084 74.7763 349.098 74.7717C349.221 74.6985 349.349 74.6345 349.482 74.5751C349.51 74.5613 349.532 74.5522 349.56 74.543C349.67 74.4973 349.775 74.4516 349.889 74.4104C349.935 74.3921 349.976 74.3784 350.022 74.3647C350.122 74.3327 350.223 74.3006 350.324 74.2732C350.365 74.264 350.411 74.2503 350.452 74.2412C350.593 74.2092 350.74 74.1771 350.882 74.1589L353.873 73.7381C354.165 73.6969 354.458 73.6466 354.746 73.5917C354.829 73.578 354.911 73.5597 354.993 73.5414C355.222 73.4957 355.446 73.4454 355.67 73.3905C355.743 73.3722 355.817 73.3585 355.885 73.3402C356.173 73.267 356.457 73.1892 356.745 73.1024C356.8 73.0841 356.855 73.0658 356.914 73.0475C357.147 72.9743 357.381 72.8965 357.614 72.8142C357.696 72.7822 357.779 72.7548 357.866 72.7227C358.108 72.6313 358.346 72.5398 358.584 72.4392C358.629 72.4209 358.675 72.4026 358.721 72.3843C358.963 72.2837 359.201 72.1739 359.439 72.0641C359.466 72.0504 359.498 72.0321 359.526 72.0184C359.745 71.9132 359.96 71.8034 360.175 71.6891C360.28 71.6342 360.39 71.5793 360.495 71.5245C360.816 71.3507 361.131 71.1677 361.447 70.9756C361.749 70.7881 362.06 70.6143 362.366 70.4451C362.467 70.3902 362.572 70.3399 362.672 70.285C362.883 70.1752 363.089 70.07 363.299 69.9694C363.56 69.8459 363.82 69.727 364.081 69.6173C364.131 69.5944 364.182 69.5761 364.232 69.5578C364.456 69.4663 364.68 69.3749 364.909 69.2925C364.991 69.2605 365.074 69.2331 365.151 69.2056C365.375 69.1233 365.604 69.0501 365.833 68.9769C365.883 68.9587 365.933 68.9449 365.988 68.9266C366.263 68.8443 366.537 68.7666 366.816 68.698C366.885 68.6797 366.958 68.6659 367.026 68.6477C367.241 68.5973 367.456 68.547 367.671 68.5059C367.754 68.4876 367.831 68.4739 367.914 68.4556C368.193 68.4007 368.472 68.3549 368.751 68.3138C369.043 68.2726 369.336 68.2406 369.629 68.2132C369.725 68.204 369.816 68.1994 369.912 68.1949C370.109 68.1811 370.306 68.1674 370.507 68.1583C370.617 68.1583 370.731 68.1537 370.841 68.1491C371.024 68.1491 371.202 68.1491 371.385 68.1491C371.499 68.1491 371.614 68.1537 371.728 68.1583C371.907 68.1628 372.085 68.1766 372.263 68.1857C372.378 68.1949 372.487 68.1994 372.602 68.2132C372.789 68.2315 372.972 68.2497 373.16 68.2772C373.26 68.2909 373.361 68.3001 373.462 68.3138C373.686 68.3458 373.91 68.387 374.134 68.4281C374.193 68.4373 374.248 68.4464 374.308 68.4601C374.587 68.515 374.861 68.5836 375.14 68.6522C375.447 68.7345 375.753 68.8214 376.059 68.9221C376.37 69.0273 376.691 69.1187 377.011 69.2011C377.024 69.2011 377.038 69.2102 377.056 69.2148C377.322 69.2834 377.596 69.3474 377.866 69.4023C377.912 69.4114 377.962 69.4206 378.012 69.4297C378.255 69.4755 378.497 69.5212 378.744 69.5578C378.845 69.5715 378.95 69.5852 379.051 69.599C379.243 69.6218 379.435 69.6447 379.631 69.663C379.746 69.6721 379.865 69.6813 379.979 69.6904C380.162 69.7042 380.349 69.7133 380.537 69.7224C380.656 69.7224 380.775 69.7316 380.894 69.7316C381.081 69.7316 381.269 69.7316 381.461 69.7316C381.575 69.7316 381.694 69.7316 381.808 69.7224C382.014 69.7133 382.22 69.6996 382.426 69.6859C382.526 69.6767 382.623 69.6721 382.723 69.663C383.03 69.6355 383.331 69.6035 383.638 69.5578L386.629 69.137C386.766 69.1187 386.899 69.105 387.031 69.1004C387.073 69.1004 387.114 69.1004 387.155 69.1004C387.246 69.1004 387.338 69.1004 387.429 69.1004L387.407 69.073Z" fill="#8BE7C6"/>
<path d="M368.753 68.2801C371.246 67.9279 373.738 68.1246 376.053 68.8929C378.426 69.6796 381.01 69.8945 383.622 69.5287L386.613 69.1079C389.184 68.7466 391.269 70.6035 391.265 73.2653L391.219 98.132C391.191 113.33 375.952 124.879 368.648 125.903C361.344 126.928 346.137 119.66 346.164 104.462L346.21 79.5952C346.214 76.9333 348.309 74.491 350.879 74.1297L353.871 73.7089C356.482 73.3431 359.066 72.4009 361.445 70.9465C363.768 69.5287 366.261 68.6322 368.753 68.2801Z" fill="#47A985"/>
<path fill-rule="evenodd" clip-rule="evenodd" d="M380.464 87.0176C381.722 88.312 381.722 90.4112 380.464 91.7056L369.748 102.76C368.49 104.054 366.455 104.054 365.202 102.76L358.771 96.1283C357.514 94.8339 357.514 92.7346 358.771 91.4403C360.029 90.146 362.064 90.146 363.318 91.4403L367.475 95.7258L375.918 87.0176C377.176 85.7233 379.211 85.7233 380.464 87.0176Z" fill="white"/>
<path opacity="0.8" d="M35.92 44.008V46.424H43.392V44.008H44.816V51.448H40.352V54.248H46.56V55.496H32.752V54.248H38.96V51.448H34.496V44.008H35.92ZM35.92 47.64V50.232H43.392V47.64H35.92ZM56.3184 46.088H47.9344V44.92H56.3184V46.088ZM54.2384 44.104H49.9984V42.936H54.2384V44.104ZM55.8384 49.112C55.8384 49.432 55.7424 49.72 55.5504 49.992C55.3424 50.28 55.0864 50.52 54.7664 50.712C54.4144 50.92 54.0144 51.064 53.5664 51.16C53.1024 51.256 52.6224 51.304 52.1104 51.304C51.6144 51.304 51.1344 51.256 50.6864 51.144C50.2224 51.048 49.8384 50.904 49.5184 50.712C49.1984 50.52 48.9424 50.28 48.7664 49.992C48.5744 49.72 48.4784 49.432 48.4784 49.112C48.4784 48.808 48.5584 48.52 48.7504 48.232C48.9264 47.976 49.1824 47.72 49.5184 47.496C49.8544 47.272 50.2544 47.112 50.7024 47.016C51.1504 46.936 51.6144 46.888 52.1104 46.888C52.6224 46.888 53.1024 46.936 53.5664 47.032C54.0144 47.128 54.4144 47.288 54.7664 47.496C55.0864 47.704 55.3584 47.944 55.5504 48.216C55.7424 48.504 55.8384 48.808 55.8384 49.112ZM54.4304 49.112C54.4304 48.792 54.2064 48.52 53.7904 48.312C53.3584 48.12 52.7984 48.024 52.1104 48.024C51.4384 48.024 50.8944 48.12 50.4944 48.312C50.0784 48.504 49.8864 48.776 49.8864 49.112C49.8864 49.416 50.0784 49.672 50.4784 49.864C50.8624 50.072 51.4064 50.168 52.1104 50.168C52.7824 50.168 53.3424 50.072 53.7904 49.864C54.2064 49.672 54.4304 49.432 54.4304 49.112ZM59.9344 42.76V51.448H58.5104V48.888H56.4944V47.608H58.5104V42.76H59.9344ZM58.5104 53.576H51.8864V55.608H58.5104V53.576ZM59.9344 56.776H50.4624V52.408H59.9344V56.776ZM67.7408 45.368C67.7408 46.552 68.1568 47.624 69.0048 48.552C69.6448 49.272 70.4768 49.896 71.4688 50.424L70.5888 51.32C69.4688 50.728 68.5568 50.024 67.8368 49.208C67.5808 48.936 67.3088 48.584 67.0368 48.168C66.7168 48.648 66.4128 49.032 66.1568 49.32C65.3248 50.28 64.4128 51.032 63.4208 51.608L62.4608 50.728C63.4368 50.152 64.2848 49.448 65.0048 48.648C65.8688 47.72 66.3008 46.616 66.3008 45.368V44.872H63.1648V43.656H70.8448V44.872H67.7408V45.368ZM74.6688 42.76V53.368H73.2448V47.528H70.2048V46.264H73.2448V42.76H74.6688ZM75.0528 56.776H65.0688V52.392H66.5088V55.544H75.0528V56.776ZM80.1231 44.568V47.4H87.5951V44.568H80.1231ZM89.0191 43.336V48.632H78.6991V43.336H89.0191ZM90.7631 50.136V51.368H84.6831V54.024H83.2591V51.368H76.9551V50.136H90.7631ZM89.0511 56.776H78.6991V52.84H80.1231V55.544H89.0511V56.776ZM99.4815 44.008V45.512C99.4815 47.48 98.7615 49.272 97.3215 50.872C95.8975 52.392 94.3935 53.48 92.8095 54.12L91.8815 53.096C93.6095 52.312 95.0335 51.304 96.1375 50.056C97.3535 48.648 97.9775 47.288 97.9775 46.008V45.256H92.6175V44.008H99.4815ZM103.082 42.76V48.152H105.418V49.48H103.082V56.776H101.658V42.76H103.082ZM116.527 44.792C116.527 46.008 116.943 47.064 117.775 47.96C118.479 48.728 119.327 49.352 120.319 49.848L119.471 50.776C118.511 50.328 117.583 49.64 116.687 48.712C116.399 48.424 116.127 48.088 115.887 47.72C115.615 48.168 115.327 48.568 115.039 48.888C114.111 49.912 113.151 50.68 112.175 51.176L111.231 50.232C112.223 49.72 113.087 49.048 113.823 48.216C114.655 47.304 115.087 46.232 115.087 44.984V43.336H116.527V44.792ZM123.199 51.24H121.791V42.76H123.199V46.312H125.295V47.592H123.199V51.24ZM122.175 54.376C122.175 54.152 122.063 53.928 121.871 53.72C121.647 53.528 121.391 53.368 121.103 53.24C120.783 53.112 120.367 53.016 119.887 52.92C119.391 52.84 118.911 52.792 118.431 52.792C117.935 52.792 117.439 52.84 116.943 52.92C116.431 53.016 116.031 53.112 115.759 53.24C115.439 53.4 115.199 53.56 115.023 53.752C114.831 53.944 114.735 54.152 114.735 54.376C114.735 54.6 114.815 54.808 115.007 55.016C115.167 55.24 115.423 55.4 115.759 55.528C116.111 55.656 116.511 55.752 116.991 55.816C117.455 55.88 117.935 55.912 118.431 55.912C118.911 55.912 119.391 55.88 119.871 55.816C120.335 55.752 120.751 55.656 121.103 55.528C121.423 55.4 121.695 55.24 121.887 55.016C122.079 54.808 122.175 54.6 122.175 54.376ZM123.599 54.376C123.599 54.792 123.471 55.176 123.215 55.496C122.959 55.832 122.607 56.12 122.159 56.376C121.711 56.648 121.151 56.84 120.479 56.952C119.791 57.08 119.103 57.144 118.431 57.144C117.727 57.144 117.055 57.08 116.399 56.952C115.727 56.84 115.167 56.648 114.719 56.392C114.271 56.136 113.919 55.832 113.679 55.496C113.423 55.176 113.311 54.792 113.311 54.376C113.311 53.96 113.423 53.576 113.679 53.24C113.919 52.92 114.271 52.616 114.719 52.36C115.167 52.104 115.727 51.896 116.399 51.768C117.055 51.64 117.727 51.576 118.431 51.576C119.103 51.576 119.791 51.64 120.479 51.768C121.151 51.896 121.711 52.104 122.159 52.36C122.591 52.616 122.943 52.92 123.215 53.24C123.471 53.592 123.599 53.96 123.599 54.376ZM135.133 49.912C133.597 50.056 131.997 50.12 130.317 50.12H127.021V43.656H133.901V44.872H128.445V48.904H130.221C131.997 48.904 133.629 48.84 135.133 48.696V49.912ZM137.933 42.76V46.088H140.029V47.368H137.933V50.84H136.525V42.76H137.933ZM136.525 52.968H129.917V55.56H136.525V52.968ZM137.933 56.776H128.509V51.752H137.933V56.776Z" fill="white" fill-opacity="0.9"/>
<path d="M36.12 77.78V88.36H38.3C39.92 88.36 41.88 88.22 44.16 87.94V90.08C41.94 90.4 39.86 90.54 37.9 90.54H33.6V77.78H36.12ZM47.66 76.42V82.98H50.46V85.2H47.66V94.5H45.2V76.42H47.66ZM51.638 84.54C51.638 82.62 51.998 81.04 52.718 79.8C53.558 78.38 54.618 77.66 55.918 77.66C57.198 77.66 58.258 78.38 59.098 79.8C59.658 80.76 60.018 81.9 60.158 83.26H61.538V76.8H63.938V93.88H61.538V85.42H60.198C60.078 86.86 59.718 88.16 59.098 89.28C58.318 90.68 57.238 91.38 55.878 91.38C54.658 91.38 53.618 90.7 52.738 89.32C51.998 88.04 51.638 86.46 51.638 84.54ZM54.038 84.54C54.038 85.78 54.218 86.88 54.618 87.86C54.978 88.78 55.398 89.22 55.878 89.22C56.398 89.22 56.838 88.78 57.218 87.86C57.618 86.84 57.818 85.74 57.818 84.54C57.818 83.3 57.618 82.2 57.218 81.22C56.838 80.3 56.398 79.82 55.918 79.82C55.418 79.82 54.978 80.3 54.618 81.22C54.218 82.22 54.038 83.34 54.038 84.54ZM67.758 94.5H65.318V76.42H67.758V94.5ZM78.5159 77.96V79.7C78.5159 80.92 78.3759 82.06 78.1159 83.1H79.9159V76.8H82.3159V93.88H79.9159V85.34H77.6359V84.52C77.2759 85.44 76.7759 86.26 76.1559 86.98C74.6359 88.78 72.9359 90.22 71.0559 91.28L69.4159 89.64C71.2759 88.58 72.7959 87.34 73.9759 85.92C75.2959 84.26 75.9559 82.64 75.9559 81.06V80.1H70.5359V77.96H78.5159ZM86.1759 94.5H83.7159V76.42H86.1759V94.5ZM94.8025 83.64H96.7425L96.6625 80.04H99.1225L99.2025 83.64H100.263C100.763 83.64 101.223 83.64 101.643 83.62L101.723 80.04H104.183L104.103 83.56C104.943 83.52 105.863 83.44 106.903 83.34V85.4C104.723 85.6 102.463 85.68 100.123 85.68H94.8025V83.64ZM94.9025 77.4H105.923V79.46H94.9025V77.4ZM110.423 76.42V86.02H108.003V76.42H110.423ZM110.783 94.5H97.7625V89.66H107.943V88.54H97.7625V86.68H110.443V91.5H100.243V92.64H110.783V94.5ZM128.4 82.66C128.4 83.36 128.22 84.02 127.86 84.64C127.48 85.28 126.96 85.82 126.28 86.26C125.64 86.7 124.92 87.02 124.14 87.22C123.34 87.44 122.46 87.54 121.5 87.54C120.56 87.54 119.7 87.44 118.92 87.22C118.12 87.02 117.4 86.7 116.74 86.26C116.08 85.8 115.58 85.26 115.22 84.62C114.86 84.02 114.68 83.36 114.68 82.66C114.68 81.98 114.86 81.32 115.22 80.7C115.58 80.1 116.08 79.56 116.74 79.08C117.4 78.66 118.12 78.34 118.92 78.1C119.7 77.88 120.56 77.76 121.5 77.76C122.46 77.76 123.34 77.88 124.14 78.1C124.92 78.34 125.64 78.66 126.28 79.08C126.96 79.56 127.48 80.1 127.86 80.7C128.22 81.32 128.4 81.98 128.4 82.66ZM125.88 82.66C125.88 82.3 125.76 81.94 125.54 81.58C125.3 81.24 124.98 80.92 124.6 80.62C124.18 80.34 123.72 80.14 123.24 80.02C122.72 79.92 122.14 79.86 121.5 79.86C120.82 79.86 120.26 79.92 119.78 80.02C119.3 80.14 118.84 80.34 118.44 80.62C118.04 80.92 117.74 81.24 117.54 81.56C117.32 81.9 117.22 82.26 117.22 82.66C117.22 83.06 117.32 83.44 117.54 83.78C117.74 84.14 118.04 84.44 118.44 84.68C118.84 84.98 119.3 85.18 119.78 85.26C120.26 85.38 120.82 85.42 121.5 85.42C122.14 85.42 122.72 85.38 123.24 85.26C123.72 85.18 124.18 84.98 124.6 84.68C125 84.44 125.3 84.14 125.54 83.78C125.76 83.44 125.88 83.06 125.88 82.66ZM130.54 90.78V92.9H112.56V90.78H116.4V87.48H118.82V90.78H124.26V87.48H126.7V90.78H130.54ZM142.538 81.4H131.318V79.38H142.538V81.4ZM139.938 78.66H133.918V76.64H139.938V78.66ZM141.958 85.38C141.958 85.82 141.818 86.28 141.558 86.72C141.278 87.2 140.918 87.58 140.478 87.86C140.018 88.18 139.498 88.42 138.898 88.56C138.278 88.72 137.618 88.8 136.938 88.8C136.298 88.8 135.658 88.72 135.058 88.56C134.438 88.42 133.898 88.18 133.458 87.86C132.978 87.58 132.638 87.2 132.398 86.72C132.138 86.28 132.018 85.82 132.018 85.38C132.018 84.92 132.138 84.46 132.398 84C132.638 83.56 132.978 83.2 133.438 82.88C133.898 82.58 134.438 82.34 135.058 82.14C135.658 81.98 136.298 81.88 136.938 81.88C137.618 81.88 138.278 81.98 138.898 82.14C139.498 82.34 140.018 82.58 140.478 82.88C140.918 83.2 141.278 83.56 141.558 84C141.818 84.46 141.958 84.92 141.958 85.38ZM139.458 85.38C139.458 85 139.218 84.66 138.778 84.36C138.298 84.08 137.698 83.92 136.938 83.92C136.178 83.92 135.598 84.08 135.178 84.36C134.738 84.66 134.538 85 134.538 85.38C134.538 85.76 134.738 86.08 135.178 86.36C135.598 86.64 136.178 86.78 136.938 86.78C137.698 86.78 138.298 86.64 138.778 86.34C139.218 86.06 139.458 85.74 139.458 85.38ZM146.358 90.24H143.878V76.42H146.358V82.32H148.838V84.48H146.358V90.24ZM146.878 94.5H133.918V89.56H136.438V92.4H146.878V94.5ZM162.765 79C162.765 80.62 163.265 81.94 164.265 82.98C165.105 83.86 166.225 84.68 167.625 85.46L166.185 87.06C164.585 86.28 163.265 85.34 162.265 84.22C161.965 83.94 161.725 83.66 161.565 83.4C161.385 83.74 161.125 84.1 160.785 84.48C159.605 85.8 158.305 86.82 156.885 87.54L155.345 85.96C156.725 85.2 157.845 84.32 158.725 83.32C159.725 82.22 160.225 80.86 160.225 79.26V77.14H162.765V79ZM171.085 87.58H168.605V76.42H171.085V80.84H173.565V83.04H171.085V87.58ZM169.085 91.24C169.085 90.98 168.985 90.76 168.785 90.56C168.585 90.4 168.285 90.22 167.925 90.06C167.545 89.9 167.065 89.78 166.505 89.66C165.905 89.56 165.325 89.5 164.765 89.5C164.165 89.5 163.585 89.56 162.985 89.66C162.385 89.78 161.925 89.9 161.605 90.06C161.245 90.24 160.985 90.42 160.805 90.58C160.605 90.76 160.505 90.98 160.505 91.24C160.505 91.48 160.605 91.7 160.805 91.88C160.985 92.08 161.245 92.26 161.605 92.42C161.965 92.58 162.445 92.7 163.025 92.76C163.585 92.84 164.165 92.88 164.765 92.88C165.325 92.88 165.905 92.84 166.505 92.76C167.085 92.68 167.565 92.58 167.925 92.42C168.305 92.26 168.605 92.08 168.805 91.88C168.985 91.7 169.085 91.48 169.085 91.24ZM171.605 91.24C171.605 91.8 171.425 92.32 171.065 92.76C170.705 93.24 170.225 93.64 169.665 93.98C169.025 94.32 168.285 94.56 167.405 94.7C166.525 94.86 165.645 94.94 164.765 94.94C163.865 94.94 162.985 94.86 162.125 94.7C161.245 94.56 160.505 94.32 159.885 93.98C159.285 93.64 158.825 93.24 158.505 92.76C158.165 92.3 158.005 91.8 158.005 91.24C158.005 90.68 158.165 90.16 158.505 89.68C158.825 89.22 159.285 88.82 159.885 88.48C160.485 88.14 161.245 87.88 162.125 87.7C162.985 87.54 163.865 87.46 164.765 87.46C165.645 87.46 166.525 87.54 167.425 87.7C168.305 87.88 169.045 88.14 169.665 88.48C170.225 88.82 170.705 89.22 171.065 89.68C171.425 90.16 171.605 90.68 171.605 91.24ZM190.043 79.16H187.703L187.603 81.96H190.443V84H175.763V81.96H178.583L178.483 79.16H176.183V77.14H190.043V79.16ZM185.283 79.16H180.903L181.003 81.96H185.163L185.283 79.16ZM192.103 85.04V87.12H184.363V88.54H189.923V94.5H176.303V88.54H181.863V87.12H174.123V85.04H192.103ZM178.803 90.56V92.48H187.423V90.56H178.803ZM193.521 84.54C193.521 82.7 193.981 81.1 194.901 79.74C195.881 78.34 197.101 77.64 198.561 77.64C200.001 77.64 201.221 78.34 202.261 79.74C203.201 81.06 203.681 82.66 203.681 84.54C203.681 86.38 203.201 87.96 202.261 89.32C201.281 90.72 200.041 91.4 198.561 91.4C197.101 91.4 195.881 90.72 194.901 89.32C193.981 88 193.521 86.4 193.521 84.54ZM196.001 84.54C196.001 85.8 196.241 86.92 196.721 87.88C197.261 88.82 197.881 89.28 198.561 89.28C199.241 89.28 199.861 88.82 200.401 87.88C200.921 86.88 201.181 85.76 201.181 84.54C201.181 83.24 200.921 82.12 200.421 81.2C199.861 80.24 199.241 79.76 198.561 79.76C197.861 79.76 197.241 80.24 196.721 81.2C196.241 82.18 196.001 83.3 196.001 84.54ZM208.681 76.42V94.5H206.221V76.42H208.681ZM48.38 107.18V109.72C48.38 111.24 48.16 112.7 47.74 114.14H50.56V116.26H42.8V117.58C43.32 117.62 43.84 117.68 44.36 117.76C45.28 117.92 46.06 118.18 46.7 118.54C47.3 118.9 47.8 119.28 48.16 119.72C48.52 120.18 48.7 120.7 48.7 121.3C48.7 121.88 48.52 122.4 48.16 122.84C47.8 123.3 47.3 123.7 46.7 124.02C46.06 124.38 45.28 124.62 44.36 124.74C43.4 124.9 42.46 124.96 41.54 124.96C40.62 124.96 39.7 124.9 38.78 124.74C37.84 124.62 37.06 124.38 36.42 124.02C35.8 123.7 35.32 123.3 35 122.84C34.64 122.4 34.48 121.88 34.48 121.3C34.48 120.7 34.64 120.18 35 119.72C35.32 119.28 35.8 118.88 36.42 118.54C37.06 118.18 37.84 117.92 38.78 117.76C39.3 117.68 39.82 117.62 40.34 117.58V116.26H32.58V114.14H45.22C45.66 112.72 45.88 111.44 45.88 110.3V109.26H34.68V107.18H48.38ZM41.54 122.92C42.18 122.92 42.82 122.88 43.46 122.8C44.1 122.72 44.6 122.62 44.98 122.46C45.38 122.3 45.68 122.14 45.9 121.94C46.1 121.76 46.2 121.54 46.2 121.3C46.2 121.04 46.1 120.82 45.9 120.62C45.68 120.44 45.38 120.28 44.98 120.12C44.6 120 44.1 119.86 43.46 119.74C42.82 119.64 42.18 119.58 41.54 119.58C40.92 119.58 40.3 119.64 39.68 119.74C39.04 119.86 38.52 119.98 38.14 120.12C37.74 120.28 37.46 120.46 37.28 120.62C37.08 120.82 36.98 121.04 36.98 121.3C36.98 121.54 37.08 121.76 37.28 121.94C37.46 122.14 37.74 122.3 38.14 122.46C38.52 122.62 39.04 122.72 39.68 122.8C40.3 122.88 40.92 122.92 41.54 122.92ZM66.798 107.18V109.96C66.798 111.4 66.638 112.72 66.318 113.94H68.978V116.02H50.998V113.94H63.818C64.138 112.74 64.318 111.6 64.318 110.48V109.24H53.098V107.18H66.798ZM55.678 119.82V122.42H64.298V119.82H55.678ZM66.798 117.74V124.5H53.178V117.74H66.798ZM81.0359 112.36H69.6159V110.28H81.0359V112.36ZM78.3759 109.38H72.2759V107.3H78.3759V109.38ZM80.5159 117.26C80.5159 117.82 80.3759 118.34 80.1359 118.82C79.8559 119.34 79.4959 119.78 79.0359 120.16C78.5559 120.56 78.0159 120.84 77.3959 121.04C76.7559 121.24 76.0959 121.34 75.3959 121.34C74.6959 121.34 74.0359 121.24 73.4159 121.04C72.7759 120.84 72.2159 120.56 71.7559 120.16C71.2759 119.78 70.9359 119.34 70.6959 118.82C70.4359 118.34 70.3159 117.82 70.3159 117.26C70.3159 116.7 70.4359 116.18 70.6959 115.66C70.9359 115.16 71.2759 114.72 71.7559 114.32C72.2159 113.96 72.7759 113.66 73.4159 113.44C74.0359 113.24 74.6959 113.12 75.3959 113.12C76.0959 113.12 76.7559 113.24 77.3959 113.44C78.0159 113.66 78.5559 113.96 79.0359 114.32C79.4959 114.72 79.8559 115.16 80.1359 115.66C80.3759 116.18 80.5159 116.7 80.5159 117.26ZM78.0159 117.24C78.0159 116.66 77.7559 116.16 77.2559 115.74C76.7359 115.34 76.1159 115.14 75.3959 115.14C74.6559 115.14 74.0359 115.34 73.5559 115.74C73.0359 116.16 72.7959 116.66 72.7959 117.24C72.7959 117.8 73.0359 118.28 73.5559 118.68C74.0359 119.1 74.6559 119.3 75.3959 119.3C76.1159 119.3 76.7359 119.1 77.2559 118.68C77.7559 118.28 78.0159 117.8 78.0159 117.24ZM84.6559 106.42V113.86H87.2959V116.02H84.6559V124.5H82.1759V106.42H84.6559ZM92.7739 109.74V107.14H95.2939V109.7C95.2939 111.14 95.7739 112.4 96.7739 113.46C97.6939 114.46 98.8139 115.36 100.134 116.14L98.6339 117.76C97.0339 116.82 95.7139 115.76 94.6739 114.58C94.3939 114.26 94.1939 114 94.0539 113.78C93.9139 114.06 93.6739 114.4 93.3339 114.8C92.2139 116.12 90.9139 117.24 89.4539 118.12L87.8339 116.52C89.2539 115.64 90.3939 114.7 91.2539 113.72C92.2539 112.48 92.7739 111.16 92.7739 109.74ZM103.894 106.42V120.24H101.434V106.42H103.894ZM104.434 124.5H91.2139V118.52H93.7539V122.38H104.434V124.5ZM116.732 107.96V110C116.732 112.74 115.812 115.08 113.972 117C112.132 118.94 110.112 120.36 107.892 121.28L106.312 119.5C108.672 118.48 110.512 117.2 111.872 115.68C113.352 113.96 114.112 112.4 114.112 110.96V110.1H107.392V107.96H116.732ZM121.192 106.42V113.16H123.992V115.38H121.192V124.5H118.732V106.42H121.192ZM140.51 112.66C140.51 113.36 140.33 114.02 139.97 114.64C139.59 115.28 139.07 115.82 138.39 116.26C137.75 116.7 137.03 117.02 136.25 117.22C135.45 117.44 134.57 117.54 133.61 117.54C132.67 117.54 131.81 117.44 131.03 117.22C130.23 117.02 129.51 116.7 128.85 116.26C128.19 115.8 127.69 115.26 127.33 114.62C126.97 114.02 126.79 113.36 126.79 112.66C126.79 111.98 126.97 111.32 127.33 110.7C127.69 110.1 128.19 109.56 128.85 109.08C129.51 108.66 130.23 108.34 131.03 108.1C131.81 107.88 132.67 107.76 133.61 107.76C134.57 107.76 135.45 107.88 136.25 108.1C137.03 108.34 137.75 108.66 138.39 109.08C139.07 109.56 139.59 110.1 139.97 110.7C140.33 111.32 140.51 111.98 140.51 112.66ZM137.99 112.66C137.99 112.3 137.87 111.94 137.65 111.58C137.41 111.24 137.09 110.92 136.71 110.62C136.29 110.34 135.83 110.14 135.35 110.02C134.83 109.92 134.25 109.86 133.61 109.86C132.93 109.86 132.37 109.92 131.89 110.02C131.41 110.14 130.95 110.34 130.55 110.62C130.15 110.92 129.85 111.24 129.65 111.56C129.43 111.9 129.33 112.26 129.33 112.66C129.33 113.06 129.43 113.44 129.65 113.78C129.85 114.14 130.15 114.44 130.55 114.68C130.95 114.98 131.41 115.18 131.89 115.26C132.37 115.38 132.93 115.42 133.61 115.42C134.25 115.42 134.83 115.38 135.35 115.26C135.83 115.18 136.29 114.98 136.71 114.68C137.11 114.44 137.41 114.14 137.65 113.78C137.87 113.44 137.99 113.06 137.99 112.66ZM142.65 120.78V122.9H124.67V120.78H128.51V117.48H130.93V120.78H136.37V117.48H138.81V120.78H142.65ZM142.728 109.9C143.288 108.66 144.008 107.74 144.888 107.14C145.228 106.94 145.628 106.78 146.088 106.62C146.528 106.5 146.988 106.42 147.468 106.42C148.868 106.42 150.028 106.8 150.948 107.54C151.848 108.3 152.308 109.34 152.308 110.66C152.308 111.46 152.068 112.2 151.608 112.9C151.128 113.62 150.588 114.26 149.968 114.78C149.208 115.48 148.748 116 148.568 116.32C148.368 116.66 148.268 117.14 148.268 117.76V119.68H145.828V117.44C145.828 116.62 145.988 115.92 146.328 115.36C146.648 114.82 147.168 114.24 147.868 113.64C149.108 112.6 149.748 111.64 149.748 110.74C149.748 110.12 149.528 109.62 149.128 109.26C148.708 108.9 148.148 108.72 147.428 108.72C146.808 108.72 146.288 108.92 145.848 109.28C145.408 109.68 145.028 110.2 144.708 110.88L142.728 109.9ZM145.608 123.68V120.7H148.628V123.68H145.608Z" fill="white"/>
<g opacity="0.5">
<circle cx="317" cy="24" r="4" fill="white"/>
</g>
<g opacity="0.5">
<circle cx="333" cy="24" r="4" fill="white"/>
</g>
<g opacity="0.5">
<circle cx="349" cy="24" r="4" fill="white"/>
</g>
<g opacity="0.5">
<circle cx="365" cy="24" r="4" fill="white"/>
</g>
<circle cx="381" cy="24" r="4" fill="white"/>
<path d="M395.869 20.5708C395.706 20.4082 395.462 20.3596 395.249 20.4476C395.037 20.5356 394.898 20.7428 394.898 20.9727V27.0359C394.898 27.2658 395.037 27.473 395.249 27.561C395.462 27.649 395.706 27.6004 395.869 27.4378L398.9 24.4062C399.122 24.1842 399.122 23.8243 398.9 23.6024L395.869 20.5708Z" fill="white"/>
</svg>
