<svg width="433" height="170" viewBox="0 0 433 170" fill="none" xmlns="http://www.w3.org/2000/svg">
<rect width="433" height="170" rx="20" fill="#4931E2"/>
<path d="M300.699 70.0043C300.699 65.2299 304.441 61.3594 309.056 61.3594H380.921C385.536 61.3594 389.277 65.2299 389.277 70.0043L389.277 114.958C389.277 119.733 385.536 123.603 380.921 123.603H309.056C304.441 123.603 300.699 119.733 300.699 114.958L300.699 70.0043Z" fill="white"/>
<mask id="mask0_6614_226557" style="mask-type:alpha" maskUnits="userSpaceOnUse" x="300" y="61" width="90" height="63">
<path d="M300.699 70.0063C300.699 65.2318 304.441 61.3613 309.056 61.3613H380.921C385.536 61.3613 389.277 65.2318 389.277 70.0063L389.277 114.96C389.277 119.735 385.536 123.605 380.921 123.605H309.056C304.441 123.605 300.699 119.735 300.699 114.96L300.699 70.0063Z" fill="white"/>
</mask>
<g mask="url(#mask0_6614_226557)">
<rect x="299.504" y="61.3613" width="89.7747" height="17.9549" fill="#00C73C"/>
<path d="M344.434 67.5762H346.631C346.974 67.5762 347.28 67.6122 347.532 67.7023C347.784 67.7924 348.001 67.9185 348.163 68.0626C348.325 68.2247 348.451 68.4049 348.541 68.621C348.631 68.8372 348.667 69.0714 348.667 69.3236V69.5038C348.667 69.756 348.631 69.9902 348.541 70.2064C348.451 70.4225 348.325 70.6207 348.145 70.7828C347.982 70.945 347.766 71.0711 347.514 71.1792C347.262 71.2692 346.974 71.3233 346.631 71.3233H345.28V73.7373H344.434V67.5762V67.5762ZM345.28 68.3148V70.6027H346.487C347.37 70.6027 347.82 70.2424 347.82 69.5038V69.3416C347.82 68.9813 347.712 68.7291 347.496 68.567C347.28 68.4049 346.974 68.3148 346.577 68.3148H345.28V68.3148Z" fill="white"/>
<path d="M350.848 73.8109C350.379 73.8109 350.001 73.7028 349.731 73.4686C349.461 73.2344 349.316 72.9101 349.316 72.4958V72.2616C349.316 71.8653 349.443 71.541 349.713 71.2888C349.983 71.0366 350.415 70.9105 351.01 70.9105H352.199V70.6402C352.199 70.334 352.127 70.0998 351.965 69.9377C351.82 69.7935 351.568 69.7035 351.226 69.7035C350.956 69.7035 350.722 69.7395 350.505 69.8296C350.307 69.9196 350.091 70.0277 349.875 70.1718L349.461 69.5593C349.695 69.3972 349.947 69.2531 350.235 69.145C350.523 69.0369 350.848 68.9648 351.226 68.9648C351.496 68.9648 351.73 69.0009 351.947 69.0549C352.163 69.127 352.343 69.2171 352.505 69.3432C352.667 69.4693 352.775 69.6314 352.865 69.8115C352.955 69.9917 352.991 70.2079 352.991 70.4421V73.7388H352.199V73.1804C352.145 73.2704 352.091 73.3425 352.019 73.4145C351.947 73.4866 351.856 73.5407 351.766 73.5947C351.64 73.6668 351.514 73.7208 351.352 73.7568C351.226 73.7929 351.046 73.8109 350.848 73.8109ZM352.199 71.613H351.028C350.704 71.613 350.469 71.6671 350.325 71.7932C350.181 71.9193 350.109 72.0995 350.109 72.3156V72.4417C350.109 72.6759 350.181 72.8381 350.343 72.9462C350.505 73.0542 350.686 73.1083 350.92 73.1083C351.118 73.1083 351.298 73.0903 351.46 73.0362C351.604 72.9822 351.748 72.9101 351.874 72.8201C351.983 72.73 352.073 72.6399 352.127 72.5318C352.181 72.4237 352.199 72.2796 352.199 72.0995V71.613Z" fill="white"/>
<path d="M355.906 72.7994L357.131 69.0703H357.996L355.564 75.6818L354.807 75.4116L355.42 73.8083L353.727 69.0703H354.627L355.87 72.7994H355.906Z" fill="white"/>
<path d="M341.632 65.2715H330.859V76.0444H341.632V65.2715Z" fill="white"/>
<path d="M337.111 73.1256L335.364 70.5674V73.1256H333.562V68.1895H335.4L337.129 70.7476V68.1895H338.949V73.1256H337.111Z" fill="#00C73C"/>
</g>
<path d="M320.637 91.1769C320.42 91.1769 320.27 91.1351 320.184 91.0515C320.103 90.968 320.062 90.8171 320.062 90.5989L320.062 87.5416C320.062 87.4116 320.105 87.3164 320.191 87.2561C320.281 87.1957 320.382 87.1656 320.495 87.1656C320.612 87.1656 320.713 87.1957 320.799 87.2561C320.889 87.3164 320.934 87.4116 320.934 87.5416L320.934 90.2576C320.934 90.3644 320.986 90.4178 321.089 90.4178C321.175 90.4178 321.272 90.4155 321.38 90.4108C321.492 90.4062 321.607 90.4015 321.724 90.3969C321.846 90.3876 321.967 90.3783 322.089 90.369C322.21 90.3551 322.325 90.3412 322.433 90.3273C322.537 90.3133 322.618 90.3389 322.676 90.4039C322.735 90.4642 322.769 90.5478 322.778 90.6546C322.787 90.7614 322.773 90.8542 322.737 90.9331C322.701 91.0121 322.634 91.0608 322.535 91.0794C322.391 91.1026 322.156 91.1258 321.832 91.149C321.512 91.1676 321.114 91.1769 320.637 91.1769ZM324.473 87.0611C324.473 86.9404 324.514 86.8522 324.595 86.7965C324.676 86.7407 324.768 86.7129 324.872 86.7129C324.975 86.7129 325.068 86.7407 325.149 86.7965C325.23 86.8522 325.27 86.9404 325.27 87.0611L325.27 92.4513C325.27 92.572 325.23 92.6602 325.149 92.7159C325.068 92.7717 324.975 92.7995 324.872 92.7995C324.768 92.7995 324.676 92.7717 324.595 92.7159C324.514 92.6602 324.473 92.572 324.473 92.4513L324.473 87.0611ZM323.203 89.3384L322.264 89.3384C322.161 89.3384 322.084 89.3012 322.035 89.2269C321.985 89.1526 321.96 89.0644 321.96 88.9623C321.96 88.8555 321.985 88.765 322.035 88.6907C322.084 88.6164 322.161 88.5793 322.264 88.5793L323.203 88.5793L323.203 87.1307C323.203 87.01 323.244 86.9218 323.325 86.8661C323.406 86.8104 323.498 86.7825 323.602 86.7825C323.701 86.7825 323.791 86.8104 323.872 86.8661C323.953 86.9218 323.994 87.01 323.994 87.1307L323.994 92.1588C323.994 92.2795 323.953 92.3677 323.872 92.4234C323.791 92.4792 323.701 92.507 323.602 92.507C323.498 92.507 323.406 92.4792 323.325 92.4234C323.244 92.3677 323.203 92.2795 323.203 92.1588L323.203 89.3384Z" fill="#272B2F"/>
<path d="M326.251 89.1851C326.251 88.4934 326.386 87.9687 326.656 87.6113C326.926 87.2491 327.334 87.0681 327.878 87.0681C328.423 87.0681 328.831 87.2491 329.101 87.6113C329.371 87.9687 329.506 88.4934 329.506 89.1851C329.506 89.8769 329.371 90.4039 329.101 90.766C328.831 91.1235 328.423 91.3022 327.878 91.3022C327.334 91.3022 326.926 91.1235 326.656 90.766C326.386 90.4039 326.251 89.8769 326.251 89.1851ZM328.675 89.1851C328.675 88.7441 328.617 88.4098 328.5 88.1823C328.383 87.9548 328.176 87.8411 327.878 87.8411C327.581 87.8411 327.374 87.9548 327.257 88.1823C327.14 88.4098 327.081 88.7441 327.081 89.1851C327.081 89.6262 327.14 89.9605 327.257 90.188C327.374 90.4155 327.581 90.5292 327.878 90.5292C328.176 90.5292 328.383 90.4155 328.5 90.188C328.617 89.9605 328.675 89.6262 328.675 89.1851ZM331.222 92.4234C331.222 92.5534 331.177 92.6486 331.087 92.709C331.001 92.7693 330.9 92.7995 330.783 92.7995C330.67 92.7995 330.569 92.7693 330.479 92.709C330.393 92.6486 330.351 92.5534 330.351 92.4234L330.351 87.089C330.351 86.959 330.393 86.8638 330.479 86.8034C330.569 86.7431 330.67 86.7129 330.783 86.7129C330.9 86.7129 331.001 86.7431 331.087 86.8034C331.177 86.8638 331.222 86.959 331.222 87.089L331.222 92.4234Z" fill="#272B2F"/>
<path d="M333.337 88.5723L334.607 88.5723L334.607 87.4929C334.607 87.3675 334.65 87.2747 334.735 87.2143C334.825 87.154 334.924 87.1238 335.032 87.1238C335.14 87.1238 335.237 87.154 335.323 87.2143C335.413 87.2747 335.458 87.3675 335.458 87.4929L335.458 90.6267C335.458 90.8449 335.415 90.9958 335.33 91.0794C335.249 91.1629 335.1 91.2047 334.884 91.2047L333.06 91.2047C332.844 91.2047 332.693 91.1629 332.608 91.0794C332.527 90.9958 332.486 90.8449 332.486 90.6267L332.486 87.4929C332.486 87.3675 332.529 87.2747 332.614 87.2143C332.704 87.154 332.803 87.1238 332.912 87.1238C333.02 87.1238 333.116 87.154 333.202 87.2143C333.292 87.2747 333.337 87.3675 333.337 87.4929L333.337 88.5723ZM334.452 90.4596C334.555 90.4596 334.607 90.4062 334.607 90.2994L334.607 89.3175L333.337 89.3175L333.337 90.2994C333.337 90.4062 333.389 90.4596 333.492 90.4596L334.452 90.4596ZM336.552 89.5612L335.059 89.5612L335.059 88.8091L336.552 88.8091L336.552 87.089C336.552 86.959 336.595 86.8638 336.68 86.8034C336.771 86.7431 336.872 86.7129 336.984 86.7129C337.093 86.7129 337.189 86.7431 337.275 86.8034C337.365 86.8638 337.41 86.959 337.41 87.089L337.41 92.4234C337.41 92.5534 337.365 92.6486 337.275 92.709C337.189 92.7693 337.093 92.7995 336.984 92.7995C336.872 92.7995 336.771 92.7693 336.68 92.709C336.595 92.6486 336.552 92.5534 336.552 92.4234L336.552 89.5612Z" fill="#272B2F"/>
<path d="M338.357 87.6113C338.357 87.5184 338.381 87.4348 338.431 87.3606C338.48 87.2863 338.557 87.2491 338.661 87.2491L341.065 87.2491C341.169 87.2491 341.245 87.2863 341.295 87.3606C341.344 87.4348 341.369 87.5184 341.369 87.6113C341.369 87.7041 341.344 87.7877 341.295 87.862C341.245 87.9363 341.169 87.9734 341.065 87.9734L340.896 87.9734L340.896 90.4178C340.932 90.4131 340.968 90.4108 341.004 90.4108C341.045 90.4062 341.083 90.3992 341.119 90.3899C341.223 90.376 341.304 90.4015 341.362 90.4665C341.421 90.5269 341.455 90.6035 341.464 90.6964C341.473 90.7939 341.457 90.8844 341.416 90.968C341.376 91.0515 341.311 91.0979 341.221 91.1072C341.018 91.1304 340.82 91.149 340.626 91.1629C340.437 91.1769 340.239 91.1885 340.032 91.1978C339.829 91.2024 339.613 91.2047 339.383 91.2047C339.154 91.2047 338.899 91.2047 338.62 91.2047C338.517 91.2047 338.44 91.1676 338.39 91.0933C338.341 91.019 338.316 90.9355 338.316 90.8426C338.316 90.7497 338.341 90.6662 338.39 90.5919C338.44 90.5176 338.517 90.4805 338.62 90.4805L338.863 90.4805L338.863 87.9734L338.661 87.9734C338.557 87.9734 338.48 87.9363 338.431 87.862C338.381 87.7877 338.357 87.7041 338.357 87.6113ZM339.626 90.4805C339.712 90.4805 339.795 90.4805 339.876 90.4805C339.962 90.4805 340.048 90.4758 340.133 90.4665L340.133 87.9734L339.626 87.9734L339.626 90.4805ZM342.923 87.0611C342.923 86.9404 342.963 86.8522 343.044 86.7965C343.125 86.7407 343.215 86.7129 343.314 86.7129C343.418 86.7129 343.51 86.7407 343.591 86.7965C343.672 86.8522 343.713 86.9404 343.713 87.0611L343.713 92.4513C343.713 92.572 343.672 92.6602 343.591 92.7159C343.51 92.7717 343.418 92.7995 343.314 92.7995C343.215 92.7995 343.125 92.7717 343.044 92.7159C342.963 92.6602 342.923 92.572 342.923 92.4513L342.923 87.0611ZM341.754 89.5542L341.443 89.5542C341.34 89.5542 341.263 89.5171 341.214 89.4428C341.164 89.3685 341.139 89.2803 341.139 89.1782C341.139 89.0714 341.164 88.9809 341.214 88.9066C341.263 88.8323 341.34 88.7952 341.443 88.7952L341.754 88.7952L341.754 87.1307C341.754 87.01 341.795 86.9218 341.876 86.8661C341.957 86.8104 342.047 86.7825 342.146 86.7825C342.245 86.7825 342.335 86.8104 342.416 86.8661C342.497 86.9218 342.538 87.01 342.538 87.1307L342.538 92.1588C342.538 92.2795 342.497 92.3677 342.416 92.4234C342.335 92.4792 342.245 92.507 342.146 92.507C342.047 92.507 341.957 92.4792 341.876 92.4234C341.795 92.3677 341.754 92.2795 341.754 92.1588L341.754 89.5542Z" fill="#272B2F"/>
<path d="M344.693 89.1851C344.693 88.4934 344.828 87.9687 345.099 87.6113C345.369 87.2491 345.776 87.0681 346.321 87.0681C346.866 87.0681 347.274 87.2491 347.544 87.6113C347.814 87.9687 347.949 88.4934 347.949 89.1851C347.949 89.8769 347.814 90.4039 347.544 90.766C347.274 91.1235 346.866 91.3022 346.321 91.3022C345.776 91.3022 345.369 91.1235 345.099 90.766C344.828 90.4039 344.693 89.8769 344.693 89.1851ZM347.118 89.1851C347.118 88.7441 347.06 88.4098 346.943 88.1823C346.826 87.9548 346.618 87.8411 346.321 87.8411C346.024 87.8411 345.817 87.9548 345.7 88.1823C345.583 88.4098 345.524 88.7441 345.524 89.1851C345.524 89.6262 345.583 89.9605 345.7 90.188C345.817 90.4155 346.024 90.5292 346.321 90.5292C346.618 90.5292 346.826 90.4155 346.943 90.188C347.06 89.9605 347.118 89.6262 347.118 89.1851ZM349.665 92.4234C349.665 92.5534 349.62 92.6486 349.53 92.709C349.444 92.7693 349.343 92.7995 349.226 92.7995C349.113 92.7995 349.012 92.7693 348.922 92.709C348.836 92.6486 348.793 92.5534 348.793 92.4234L348.793 87.089C348.793 86.959 348.836 86.8638 348.922 86.8034C349.012 86.7431 349.113 86.7129 349.226 86.7129C349.343 86.7129 349.444 86.7431 349.53 86.8034C349.62 86.8638 349.665 86.959 349.665 87.089L349.665 92.4234Z" fill="#272B2F"/>
<path d="M357.15 87.1307C357.253 87.1307 357.327 87.1679 357.372 87.2422C357.422 87.3118 357.447 87.3977 357.447 87.4998C357.447 87.602 357.422 87.6902 357.372 87.7645C357.327 87.8341 357.253 87.8689 357.15 87.8689L356.602 87.8689L356.602 89.603L357.177 89.603C357.28 89.603 357.354 89.6401 357.399 89.7144C357.449 89.7841 357.474 89.8699 357.474 89.9721C357.474 90.0742 357.449 90.1624 357.399 90.2367C357.354 90.3064 357.28 90.3412 357.177 90.3412L353.191 90.3412C353.088 90.3412 353.011 90.3064 352.962 90.2367C352.917 90.1624 352.894 90.0742 352.894 89.9721C352.894 89.8699 352.917 89.7841 352.962 89.7144C353.011 89.6401 353.088 89.603 353.191 89.603L353.766 89.603L353.766 87.8689L353.218 87.8689C353.115 87.8689 353.038 87.8341 352.989 87.7645C352.944 87.6902 352.921 87.602 352.921 87.4998C352.921 87.3977 352.944 87.3118 352.989 87.2422C353.038 87.1679 353.115 87.1307 353.218 87.1307L357.15 87.1307ZM354.603 89.603L355.765 89.603L355.765 87.8689L354.603 87.8689L354.603 89.603ZM352.631 92.2285C352.527 92.2285 352.451 92.1913 352.401 92.117C352.352 92.0427 352.327 91.9545 352.327 91.8524C352.327 91.7503 352.352 91.662 352.401 91.5878C352.451 91.5135 352.527 91.4763 352.631 91.4763L354.752 91.4763L354.752 89.9442L355.616 89.9442L355.616 91.4763L357.737 91.4763C357.841 91.4763 357.917 91.5135 357.967 91.5878C358.016 91.662 358.041 91.7503 358.041 91.8524C358.041 91.9545 358.016 92.0427 357.967 92.117C357.917 92.1913 357.841 92.2285 357.737 92.2285L352.631 92.2285Z" fill="#272B2F"/>
<path d="M358.677 88.6837C358.677 88.447 358.711 88.2264 358.778 88.0221C358.846 87.8179 358.947 87.6438 359.082 87.4998C359.217 87.3513 359.386 87.2352 359.589 87.1516C359.792 87.0681 360.028 87.0263 360.298 87.0263C360.568 87.0263 360.805 87.0681 361.007 87.1516C361.21 87.2352 361.379 87.3513 361.514 87.4998C361.649 87.6438 361.75 87.8179 361.818 88.0221C361.885 88.2264 361.919 88.447 361.919 88.6837C361.919 88.9205 361.885 89.141 361.818 89.3453C361.75 89.5496 361.649 89.726 361.514 89.8746C361.379 90.0185 361.21 90.1323 361.007 90.2158C360.805 90.2994 360.568 90.3412 360.298 90.3412C360.028 90.3412 359.792 90.2994 359.589 90.2158C359.386 90.1323 359.217 90.0185 359.082 89.8746C358.947 89.726 358.846 89.5496 358.778 89.3453C358.711 89.141 358.677 88.9205 358.677 88.6837ZM361.095 88.6837C361.095 88.5584 361.079 88.44 361.048 88.3286C361.021 88.2171 360.976 88.122 360.913 88.043C360.85 87.9595 360.766 87.8945 360.663 87.848C360.564 87.797 360.442 87.7714 360.298 87.7714C360.154 87.7714 360.03 87.797 359.927 87.848C359.828 87.8945 359.747 87.9595 359.684 88.043C359.62 88.122 359.573 88.2171 359.542 88.3286C359.515 88.44 359.501 88.5584 359.501 88.6837C359.501 88.8091 359.515 88.9275 359.542 89.0389C359.573 89.1503 359.62 89.2478 359.684 89.3314C359.747 89.4103 359.828 89.4753 359.927 89.5264C360.03 89.5728 360.154 89.596 360.298 89.596C360.442 89.596 360.564 89.5728 360.663 89.5264C360.766 89.4753 360.85 89.4103 360.913 89.3314C360.976 89.2478 361.021 89.1503 361.048 89.0389C361.079 88.9275 361.095 88.8091 361.095 88.6837ZM363.648 91.0863C363.648 91.2163 363.603 91.3115 363.513 91.3719C363.428 91.4322 363.329 91.4624 363.216 91.4624C363.104 91.4624 363.002 91.4322 362.912 91.3719C362.827 91.3115 362.784 91.2163 362.784 91.0863L362.784 87.089C362.784 86.959 362.827 86.8638 362.912 86.8034C363.002 86.7431 363.104 86.7129 363.216 86.7129C363.329 86.7129 363.428 86.7431 363.513 86.8034C363.603 86.8638 363.648 86.959 363.648 87.089L363.648 91.0863ZM360.156 93.1199C359.94 93.1199 359.789 93.0781 359.704 92.9945C359.623 92.9109 359.582 92.76 359.582 92.5418L359.582 91.2256C359.582 91.0956 359.625 91.0005 359.711 90.9401C359.801 90.8797 359.904 90.8496 360.021 90.8496C360.134 90.8496 360.233 90.8797 360.318 90.9401C360.409 91.0005 360.454 91.0956 360.454 91.2256L360.454 92.2006C360.454 92.3074 360.505 92.3608 360.609 92.3608L363.493 92.3608C363.597 92.3608 363.673 92.3979 363.723 92.4722C363.772 92.5465 363.797 92.637 363.797 92.7438C363.797 92.8459 363.772 92.9341 363.723 93.0084C363.673 93.0827 363.597 93.1199 363.493 93.1199L360.156 93.1199Z" fill="#272B2F"/>
<path d="M366.196 88.4887L369.215 88.4887C369.319 88.4887 369.395 88.5259 369.445 88.6002C369.494 88.6744 369.519 88.758 369.519 88.8509C369.519 88.9437 369.494 89.0273 369.445 89.1016C369.395 89.1759 369.319 89.213 369.215 89.213L366.196 89.213L366.196 89.6935C366.196 89.8003 366.248 89.8537 366.351 89.8537L369.384 89.8537C369.488 89.8537 369.564 89.8908 369.614 89.9651C369.663 90.0394 369.688 90.1276 369.688 90.2298C369.688 90.3319 369.663 90.4201 369.614 90.4944C369.564 90.5687 369.488 90.6058 369.384 90.6058L365.926 90.6058C365.71 90.6058 365.559 90.564 365.473 90.4805C365.392 90.3969 365.352 90.246 365.352 90.0278L365.352 87.6809C365.352 87.4627 365.392 87.3118 365.473 87.2282C365.559 87.1447 365.71 87.1029 365.926 87.1029L369.283 87.1029C369.386 87.1029 369.463 87.14 369.512 87.2143C369.562 87.2886 369.587 87.3768 369.587 87.4789C369.587 87.5811 369.562 87.6693 369.512 87.7436C369.463 87.8179 369.386 87.855 369.283 87.855L366.351 87.855C366.248 87.855 366.196 87.9084 366.196 88.0152L366.196 88.4887ZM364.926 92.2285C364.822 92.2285 364.746 92.1913 364.696 92.117C364.647 92.0427 364.622 91.9545 364.622 91.8524C364.622 91.7456 364.647 91.6551 364.696 91.5808C364.746 91.5065 364.822 91.4694 364.926 91.4694L370.032 91.4694C370.136 91.4694 370.212 91.5065 370.262 91.5808C370.312 91.6551 370.336 91.7456 370.336 91.8524C370.336 91.9545 370.312 92.0427 370.262 92.117C370.212 92.1913 370.136 92.2285 370.032 92.2285L364.926 92.2285Z" fill="#272B2F"/>
<path d="M323.033 99.5246C323.284 99.5246 323.469 99.6076 323.588 99.7736C323.708 99.9395 323.768 100.137 323.768 100.365C323.768 100.603 323.708 100.805 323.588 100.971C323.469 101.127 323.284 101.205 323.033 101.205L318.884 101.205L318.754 104.021C319.026 103.865 319.336 103.73 319.685 103.616C320.033 103.502 320.452 103.445 320.942 103.445C321.509 103.445 322.009 103.538 322.445 103.725C322.881 103.912 323.245 104.166 323.539 104.487C323.844 104.798 324.073 105.161 324.225 105.576C324.378 105.991 324.454 106.421 324.454 106.867L324.454 107.023C324.454 107.469 324.372 107.915 324.209 108.361C324.057 108.807 323.806 109.206 323.458 109.559C323.12 109.911 322.685 110.202 322.151 110.43C321.628 110.648 320.991 110.757 320.24 110.757C319.467 110.757 318.797 110.689 318.231 110.554C317.665 110.409 317.158 110.202 316.712 109.932C316.461 109.776 316.314 109.579 316.271 109.341C316.238 109.092 316.293 108.859 316.434 108.641C316.587 108.402 316.772 108.257 316.99 108.205C317.207 108.153 317.441 108.2 317.692 108.345C318.04 108.542 318.405 108.693 318.786 108.796C319.178 108.9 319.657 108.952 320.224 108.952C320.942 108.952 321.476 108.776 321.824 108.423C322.173 108.06 322.347 107.588 322.347 107.007L322.347 106.914C322.347 106.313 322.162 105.851 321.792 105.53C321.432 105.208 320.926 105.047 320.273 105.047C319.892 105.047 319.538 105.104 319.211 105.218C318.884 105.332 318.596 105.488 318.345 105.685C318.182 105.81 318.04 105.898 317.921 105.95C317.812 106.001 317.665 106.027 317.48 106.027C317.229 106.027 317.028 105.97 316.875 105.856C316.723 105.732 316.652 105.566 316.663 105.358L316.924 100.878C316.935 100.608 316.962 100.385 317.006 100.209C317.06 100.033 317.137 99.898 317.235 99.8047C317.343 99.701 317.485 99.6284 317.659 99.5869C317.834 99.5454 318.051 99.5246 318.313 99.5246L323.033 99.5246Z" fill="#272B2F"/>
<path d="M327.788 108.936C328.093 108.988 328.327 109.123 328.49 109.341C328.654 109.548 328.676 109.802 328.556 110.103L327.723 112.25C327.625 112.499 327.478 112.665 327.282 112.748C327.097 112.831 326.895 112.851 326.677 112.81C326.46 112.769 326.285 112.68 326.155 112.546C326.035 112.411 325.997 112.234 326.04 112.017L326.449 109.652C326.503 109.341 326.667 109.133 326.939 109.03C327.211 108.916 327.494 108.885 327.788 108.936Z" fill="#272B2F"/>
<path d="M334.707 99.3535C336.22 99.3535 337.32 99.8202 338.006 100.754C338.703 101.687 339.052 103.009 339.052 104.721L339.052 105.389C339.052 107.101 338.703 108.423 338.006 109.356C337.32 110.29 336.22 110.757 334.707 110.757C333.193 110.757 332.088 110.29 331.391 109.356C330.705 108.423 330.362 107.101 330.362 105.389L330.362 104.721C330.362 103.009 330.705 101.687 331.391 100.754C332.088 99.8202 333.193 99.3535 334.707 99.3535ZM334.707 101.236C334.282 101.236 333.923 101.303 333.629 101.438C333.346 101.573 333.117 101.791 332.943 102.091C332.779 102.382 332.66 102.755 332.583 103.212C332.507 103.668 332.469 104.218 332.469 104.861L332.469 105.249C332.469 105.892 332.507 106.442 332.583 106.898C332.66 107.355 332.779 107.733 332.943 108.034C333.117 108.325 333.346 108.537 333.629 108.672C333.923 108.807 334.282 108.874 334.707 108.874C335.131 108.874 335.485 108.807 335.768 108.672C336.062 108.537 336.291 108.325 336.454 108.034C336.629 107.733 336.754 107.355 336.83 106.898C336.906 106.442 336.944 105.892 336.944 105.249L336.944 104.861C336.944 104.218 336.906 103.668 336.83 103.212C336.754 102.755 336.629 102.382 336.454 102.091C336.291 101.791 336.062 101.573 335.768 101.438C335.485 101.303 335.131 101.236 334.707 101.236Z" fill="#272B2F"/>
<path d="M344.836 99.3535C346.349 99.3535 347.449 99.8202 348.135 100.754C348.832 101.687 349.18 103.009 349.18 104.721L349.18 105.389C349.18 107.101 348.832 108.423 348.135 109.356C347.449 110.29 346.349 110.757 344.836 110.757C343.322 110.757 342.217 110.29 341.52 109.356C340.834 108.423 340.491 107.101 340.491 105.389L340.491 104.721C340.491 103.009 340.834 101.687 341.52 100.754C342.217 99.8202 343.322 99.3535 344.836 99.3535ZM344.836 101.236C344.411 101.236 344.052 101.303 343.758 101.438C343.474 101.573 343.246 101.791 343.072 102.091C342.908 102.382 342.788 102.755 342.712 103.212C342.636 103.668 342.598 104.218 342.598 104.861L342.598 105.249C342.598 105.892 342.636 106.442 342.712 106.898C342.788 107.355 342.908 107.733 343.072 108.034C343.246 108.325 343.474 108.537 343.758 108.672C344.052 108.807 344.411 108.874 344.836 108.874C345.26 108.874 345.614 108.807 345.897 108.672C346.191 108.537 346.42 108.325 346.583 108.034C346.758 107.733 346.883 107.355 346.959 106.898C347.035 106.442 347.073 105.892 347.073 105.249L347.073 104.861C347.073 104.218 347.035 103.668 346.959 103.212C346.883 102.755 346.758 102.382 346.583 102.091C346.42 101.791 346.191 101.573 345.897 101.438C345.614 101.303 345.26 101.236 344.836 101.236Z" fill="#272B2F"/>
<path d="M354.964 99.3535C356.478 99.3535 357.578 99.8202 358.264 100.754C358.961 101.687 359.309 103.009 359.309 104.721L359.309 105.389C359.309 107.101 358.961 108.423 358.264 109.356C357.578 110.29 356.478 110.757 354.964 110.757C353.451 110.757 352.346 110.29 351.649 109.356C350.963 108.423 350.62 107.101 350.62 105.389L350.62 104.721C350.62 103.009 350.963 101.687 351.649 100.754C352.346 99.8202 353.451 99.3535 354.964 99.3535ZM354.964 101.236C354.54 101.236 354.18 101.303 353.886 101.438C353.603 101.573 353.375 101.791 353.2 102.091C353.037 102.382 352.917 102.755 352.841 103.212C352.765 103.668 352.727 104.218 352.727 104.861L352.727 105.249C352.727 105.892 352.765 106.442 352.841 106.898C352.917 107.355 353.037 107.733 353.2 108.034C353.375 108.325 353.603 108.537 353.886 108.672C354.18 108.807 354.54 108.874 354.964 108.874C355.389 108.874 355.743 108.807 356.026 108.672C356.32 108.537 356.549 108.325 356.712 108.034C356.886 107.733 357.012 107.355 357.088 106.898C357.164 106.442 357.202 105.892 357.202 105.249L357.202 104.861C357.202 104.218 357.164 103.668 357.088 103.212C357.012 102.755 356.886 102.382 356.712 102.091C356.549 101.791 356.32 101.573 356.026 101.438C355.743 101.303 355.389 101.236 354.964 101.236Z" fill="#272B2F"/>
<path d="M365.698 104.083C364.369 104.083 363.373 103.839 362.709 103.352C362.044 102.864 361.712 102.211 361.712 101.391C361.712 100.572 362.044 99.9187 362.709 99.4313C363.373 98.9439 364.369 98.7001 365.698 98.7001C367.026 98.7001 368.022 98.9439 368.687 99.4313C369.351 99.9187 369.683 100.572 369.683 101.391C369.683 102.211 369.351 102.864 368.687 103.352C368.022 103.839 367.026 104.083 365.698 104.083ZM365.698 102.527C366.395 102.527 366.906 102.429 367.233 102.232C367.56 102.024 367.723 101.744 367.723 101.391C367.723 101.039 367.56 100.764 367.233 100.567C366.906 100.36 366.395 100.256 365.698 100.256C365.001 100.256 364.489 100.36 364.162 100.567C363.836 100.764 363.672 101.039 363.672 101.391C363.672 101.744 363.836 102.024 364.162 102.232C364.489 102.429 365.001 102.527 365.698 102.527ZM371.284 108.376L369.079 108.376C368.839 108.376 368.66 108.299 368.54 108.143C368.431 107.987 368.376 107.801 368.376 107.583C368.376 107.365 368.431 107.179 368.54 107.023C368.66 106.867 368.839 106.79 369.079 106.79L371.284 106.79L371.284 99.3069C371.284 99.0165 371.387 98.8039 371.594 98.669C371.812 98.5342 372.057 98.4668 372.329 98.4668C372.591 98.4668 372.825 98.5342 373.032 98.669C373.249 98.8039 373.358 99.0165 373.358 99.3069L373.358 108.703C373.358 108.993 373.249 109.206 373.032 109.341C372.825 109.476 372.591 109.543 372.329 109.543C372.057 109.543 371.812 109.476 371.594 109.341C371.387 109.206 371.284 108.993 371.284 108.703L371.284 108.376ZM361.451 106.478C361.2 106.478 361.015 106.401 360.896 106.245C360.787 106.079 360.732 105.882 360.732 105.654C360.732 105.426 360.787 105.234 360.896 105.078C361.015 104.912 361.2 104.829 361.451 104.829C362.768 104.829 364.151 104.809 365.6 104.767C367.048 104.726 368.464 104.627 369.846 104.472C370.097 104.441 370.287 104.498 370.418 104.643C370.549 104.788 370.625 104.975 370.647 105.203C370.669 105.421 370.63 105.618 370.532 105.794C370.434 105.96 370.26 106.058 370.01 106.09C369.531 106.152 369.003 106.209 368.425 106.261C367.848 106.302 367.238 106.338 366.596 106.37L366.596 107.879C366.596 108.148 366.493 108.345 366.286 108.47C366.09 108.584 365.845 108.641 365.551 108.641C365.268 108.641 365.023 108.584 364.816 108.47C364.62 108.345 364.522 108.148 364.522 107.879L364.522 106.447C363.999 106.468 363.482 106.478 362.97 106.478C362.458 106.478 361.952 106.478 361.451 106.478ZM372.983 111.13C373.233 111.13 373.418 111.213 373.538 111.379C373.658 111.545 373.718 111.742 373.718 111.97C373.718 112.198 373.658 112.395 373.538 112.561C373.418 112.727 373.233 112.81 372.983 112.81L364.44 112.81C363.917 112.81 363.552 112.717 363.346 112.53C363.15 112.343 363.052 112.006 363.052 111.519L363.052 109.699C363.052 109.408 363.155 109.196 363.362 109.061C363.58 108.926 363.83 108.859 364.113 108.859C364.386 108.859 364.625 108.926 364.832 109.061C365.05 109.196 365.159 109.408 365.159 109.699L365.159 110.772C365.159 111.011 365.284 111.13 365.534 111.13L372.983 111.13Z" fill="#272B2F"/>
<g opacity="0.5" filter="url(#filter0_f_6614_226557)">
<path d="M293.781 87.819C289.12 84.6497 286.305 80.6636 287.494 78.9159C288.682 77.1682 293.424 78.3206 298.085 81.4899C302.745 84.6593 305.56 88.6453 304.371 90.393C303.183 92.1408 298.441 90.9883 293.781 87.819Z" fill="black" fill-opacity="0.3"/>
</g>
<path d="M294.221 77.9525C289.884 72.1042 288.15 66.0421 290.349 64.4125C292.547 62.7829 297.845 66.2029 302.182 72.0513C306.519 77.8996 308.253 83.9617 306.055 85.5913C303.856 87.2209 298.558 83.8009 294.221 77.9525Z" fill="#EBC154"/>
<path d="M292.332 62.9336L308.043 84.122L306.052 85.5981L290.341 64.4097L292.332 62.9336Z" fill="#EBC154"/>
<path d="M296.206 76.4799C291.868 70.6315 290.135 64.5695 292.333 62.9399C294.531 61.3103 299.829 64.7303 304.166 70.5786C308.504 76.4269 310.237 82.489 308.039 84.1186C305.841 85.7482 300.543 82.3282 296.206 76.4799Z" fill="#FFEA6B"/>
<g opacity="0.5" filter="url(#filter1_f_6614_226557)">
<path d="M390.517 114.088C386.3 116.197 382.24 116.624 381.449 115.043C380.659 113.462 383.436 110.47 387.653 108.361C391.87 106.252 395.93 105.825 396.721 107.406C397.512 108.988 394.734 111.979 390.517 114.088Z" fill="black" fill-opacity="0.2"/>
</g>
<path d="M391.206 105.148C388.277 108.838 384.778 110.938 383.391 109.836C382.004 108.735 383.255 104.85 386.184 101.159C389.113 97.4686 392.613 95.3693 394 96.4706C395.386 97.5718 394.136 101.457 391.206 105.148Z" fill="#EBC154"/>
<path d="M382.137 108.844L392.75 95.473L394.007 96.4704L383.393 109.841L382.137 108.844Z" fill="#EBC154"/>
<path d="M389.956 104.153C387.027 107.844 383.528 109.944 382.141 108.842C380.754 107.741 382.005 103.856 384.934 100.165C387.863 96.4745 391.363 94.3752 392.75 95.4764C394.136 96.5777 392.886 100.462 389.956 104.153Z" fill="#FFEA6B"/>
<path opacity="0.8" d="M40.544 52.232H34.272C34.272 53.112 34.576 53.752 35.216 54.152C35.84 54.568 36.592 54.776 37.472 54.776C38.32 54.776 39.12 54.616 39.888 54.28L40.24 55.368C39.504 55.816 38.496 56.04 37.232 56.04C35.856 56.04 34.784 55.656 34.016 54.888C33.216 54.12 32.832 53.096 32.832 51.784C32.832 50.376 33.184 49.288 33.904 48.552C34.608 47.832 35.6 47.464 36.848 47.464C37.856 47.464 38.736 47.8 39.472 48.472C40.208 49.16 40.576 50.12 40.576 51.336C40.576 51.72 40.56 52.024 40.544 52.232ZM34.272 51.016H39.152C39.152 50.312 38.944 49.736 38.528 49.32C38.112 48.92 37.504 48.712 36.72 48.712C36.032 48.712 35.456 48.92 34.992 49.304C34.512 49.704 34.272 50.28 34.272 51.016ZM47.5503 45.832C47.5503 47.512 47.9343 48.936 48.7023 50.12C49.4383 51.208 50.3183 52.152 51.3743 52.92L50.3983 53.784C49.3743 53.048 48.4143 52.024 47.5023 50.744C47.2783 50.456 47.0383 50.088 46.8143 49.624C46.5903 50.136 46.3503 50.568 46.1263 50.92C45.3743 52.072 44.4143 53.128 43.2463 54.104L42.1903 53.208C43.2463 52.424 44.1423 51.448 44.9103 50.296C45.7103 49.096 46.1102 47.56 46.1102 45.704V43.816H47.5503V45.832ZM54.4943 42.76V56.776H53.1023V42.76H54.4943ZM68.9566 44.008V46.968C68.9566 49.432 68.6206 51.864 67.9646 54.248H70.7006V55.496H56.8926V54.248H66.5246C67.1966 51.848 67.5326 49.448 67.5326 47.016V45.24H58.5886V44.008H68.9566ZM74.203 43.848V52.328H76.091C77.515 52.328 79.035 52.232 80.635 52.008V53.256C79.035 53.48 77.515 53.592 76.043 53.592H72.779V43.848H74.203ZM83.979 42.76V56.776H82.587V42.76H83.979ZM88.5854 43.464H93.4334V44.712H88.5854V43.464ZM91.7374 47.256V47.736C91.7374 48.76 92.0734 49.704 92.7614 50.6C93.4494 51.512 94.3294 52.36 95.3854 53.144L94.4734 53.992C93.3854 53.24 92.4094 52.312 91.5454 51.192C91.3374 50.936 91.1614 50.68 91.0174 50.424C90.8254 50.792 90.6654 51.08 90.5054 51.272C89.5614 52.552 88.5534 53.544 87.4974 54.264L86.5054 53.384C87.5774 52.632 88.4894 51.736 89.2574 50.696C89.9614 49.736 90.3134 48.744 90.3134 47.704V47.256H87.0654V46.008H94.8734V47.256H91.7374ZM98.6494 42.76V56.776H97.2574V49.784H94.4254V48.552H97.2574V42.76H98.6494ZM108.872 46.872C108.872 47.352 108.76 47.8 108.568 48.216C108.344 48.648 108.072 49.016 107.72 49.32C107.368 49.656 106.984 49.912 106.536 50.072C106.072 50.248 105.576 50.328 105.048 50.328C104.536 50.328 104.04 50.248 103.592 50.056C103.112 49.896 102.712 49.64 102.376 49.32C102.024 49.016 101.768 48.648 101.576 48.216C101.368 47.8 101.272 47.352 101.272 46.872C101.272 46.392 101.368 45.944 101.576 45.496C101.768 45.064 102.024 44.696 102.376 44.376C102.712 44.056 103.112 43.8 103.592 43.608C104.04 43.448 104.536 43.352 105.048 43.352C105.576 43.352 106.072 43.448 106.536 43.608C106.984 43.8 107.368 44.056 107.72 44.376C108.072 44.696 108.344 45.064 108.568 45.496C108.76 45.944 108.872 46.392 108.872 46.872ZM107.448 46.872C107.448 46.552 107.384 46.248 107.272 45.976C107.144 45.72 106.968 45.496 106.76 45.272C106.536 45.048 106.28 44.888 105.992 44.76C105.672 44.664 105.368 44.6 105.048 44.6C104.728 44.6 104.408 44.664 104.12 44.776C103.816 44.904 103.56 45.08 103.368 45.272C103.144 45.496 102.984 45.736 102.872 45.992C102.744 46.264 102.68 46.552 102.68 46.872C102.68 47.176 102.728 47.464 102.856 47.72C102.968 47.992 103.144 48.232 103.368 48.44C103.576 48.632 103.832 48.792 104.136 48.904C104.424 49.032 104.728 49.096 105.048 49.096C105.368 49.096 105.672 49.048 105.992 48.92C106.28 48.808 106.536 48.648 106.76 48.44C106.968 48.248 107.144 48.008 107.272 47.736C107.384 47.48 107.448 47.192 107.448 46.872ZM112.824 42.76V46.168H114.92V47.432H112.824V50.84H111.416V42.76H112.824ZM111.416 52.968H104.808V55.56H111.416V52.968ZM112.824 56.776H103.4V51.752H112.824V56.776ZM118.998 44.008V46.424H126.47V44.008H127.894V51.448H123.43V54.248H129.638V55.496H115.83V54.248H122.038V51.448H117.574V44.008H118.998ZM118.998 47.64V50.232H126.47V47.64H118.998ZM139.397 46.088H131.013V44.92H139.397V46.088ZM137.317 44.104H133.077V42.936H137.317V44.104ZM138.917 49.112C138.917 49.432 138.821 49.72 138.628 49.992C138.421 50.28 138.165 50.52 137.845 50.712C137.493 50.92 137.093 51.064 136.645 51.16C136.181 51.256 135.701 51.304 135.189 51.304C134.693 51.304 134.213 51.256 133.765 51.144C133.301 51.048 132.917 50.904 132.597 50.712C132.277 50.52 132.021 50.28 131.845 49.992C131.653 49.72 131.557 49.432 131.557 49.112C131.557 48.808 131.637 48.52 131.829 48.232C132.005 47.976 132.261 47.72 132.597 47.496C132.933 47.272 133.333 47.112 133.781 47.016C134.229 46.936 134.693 46.888 135.189 46.888C135.701 46.888 136.181 46.936 136.645 47.032C137.093 47.128 137.493 47.288 137.845 47.496C138.165 47.704 138.437 47.944 138.628 48.216C138.821 48.504 138.917 48.808 138.917 49.112ZM137.509 49.112C137.509 48.792 137.285 48.52 136.869 48.312C136.437 48.12 135.877 48.024 135.189 48.024C134.516 48.024 133.973 48.12 133.573 48.312C133.157 48.504 132.965 48.776 132.965 49.112C132.965 49.416 133.157 49.672 133.557 49.864C133.941 50.072 134.485 50.168 135.189 50.168C135.861 50.168 136.421 50.072 136.869 49.864C137.285 49.672 137.509 49.432 137.509 49.112ZM143.013 42.76V51.448H141.589V48.888H139.573V47.608H141.589V42.76H143.013ZM141.589 53.576H134.965V55.608H141.589V53.576ZM143.013 56.776H133.541V52.408H143.013V56.776ZM149.379 57.128H148.323C146.643 55.048 145.811 52.52 145.811 49.56C145.811 46.68 146.643 44.168 148.323 42.024H149.379C148.627 43.224 148.083 44.456 147.747 45.736C147.395 47.016 147.219 48.296 147.219 49.56C147.219 50.84 147.379 52.104 147.715 53.368C148.035 54.648 148.579 55.912 149.379 57.128ZM154.092 44.936V48.088H161.564V44.936H154.092ZM162.988 43.704V49.32H152.668V43.704H162.988ZM164.732 51.048V52.296H158.54V56.936H157.116V52.296H150.924V51.048H164.732ZM165.642 57.128C166.426 55.912 166.986 54.648 167.322 53.368C167.642 52.104 167.818 50.84 167.818 49.56C167.818 48.296 167.642 47.016 167.29 45.736C166.938 44.456 166.378 43.224 165.642 42.024H166.698C168.378 44.168 169.226 46.68 169.226 49.56C169.226 52.52 168.378 55.048 166.698 57.128H165.642Z" fill="white" fill-opacity="0.9"/>
<path d="M38.8 81.02C38.8 82.64 39.14 84.12 39.82 85.44C40.56 86.92 41.54 88.28 42.74 89.56L41.04 90.88C39.64 89.48 38.54 88 37.74 86.44L37.6 86.14L37.56 86.22C36.6 88.16 35.46 89.84 34.14 91.26L32.2 89.9C33.48 88.58 34.52 87.12 35.32 85.5C35.98 84.2 36.32 82.7 36.32 81.02V77.74H38.8V81.02ZM49.34 94.5H46.88V76.42H49.34V94.5ZM43.02 76.8H45.42V93.88H43.02V84.62H40.06V82.46H43.02V76.8ZM58.058 79C58.058 80.62 58.558 81.94 59.558 82.98C60.398 83.86 61.518 84.68 62.918 85.46L61.478 87.06C59.878 86.28 58.558 85.34 57.558 84.22C57.258 83.94 57.018 83.66 56.858 83.4C56.678 83.74 56.418 84.1 56.078 84.48C54.898 85.8 53.598 86.82 52.178 87.54L50.638 85.96C52.018 85.2 53.138 84.32 54.018 83.32C55.018 82.22 55.518 80.86 55.518 79.26V77.14H58.058V79ZM66.378 87.58H63.898V76.42H66.378V80.84H68.858V83.04H66.378V87.58ZM64.378 91.24C64.378 90.98 64.278 90.76 64.078 90.56C63.878 90.4 63.578 90.22 63.218 90.06C62.838 89.9 62.358 89.78 61.798 89.66C61.198 89.56 60.618 89.5 60.058 89.5C59.458 89.5 58.878 89.56 58.278 89.66C57.678 89.78 57.218 89.9 56.898 90.06C56.538 90.24 56.278 90.42 56.098 90.58C55.898 90.76 55.798 90.98 55.798 91.24C55.798 91.48 55.898 91.7 56.098 91.88C56.278 92.08 56.538 92.26 56.898 92.42C57.258 92.58 57.738 92.7 58.318 92.76C58.878 92.84 59.458 92.88 60.058 92.88C60.618 92.88 61.198 92.84 61.798 92.76C62.378 92.68 62.858 92.58 63.218 92.42C63.598 92.26 63.898 92.08 64.098 91.88C64.278 91.7 64.378 91.48 64.378 91.24ZM66.898 91.24C66.898 91.8 66.718 92.32 66.358 92.76C65.998 93.24 65.518 93.64 64.958 93.98C64.318 94.32 63.578 94.56 62.698 94.7C61.818 94.86 60.938 94.94 60.058 94.94C59.158 94.94 58.278 94.86 57.418 94.7C56.538 94.56 55.798 94.32 55.178 93.98C54.578 93.64 54.118 93.24 53.798 92.76C53.458 92.3 53.298 91.8 53.298 91.24C53.298 90.68 53.458 90.16 53.798 89.68C54.118 89.22 54.578 88.82 55.178 88.48C55.778 88.14 56.538 87.88 57.418 87.7C58.278 87.54 59.158 87.46 60.058 87.46C60.938 87.46 61.818 87.54 62.718 87.7C63.598 87.88 64.338 88.14 64.958 88.48C65.518 88.82 65.998 89.22 66.358 89.68C66.718 90.16 66.898 90.68 66.898 91.24ZM70.0559 84.54C70.0559 82.62 70.4159 81.04 71.1359 79.8C71.9759 78.38 73.0359 77.66 74.3359 77.66C75.6159 77.66 76.6759 78.38 77.5159 79.8C78.0759 80.76 78.4359 81.9 78.5759 83.26H79.9559V76.8H82.3559V93.88H79.9559V85.42H78.6159C78.4959 86.86 78.1359 88.16 77.5159 89.28C76.7359 90.68 75.6559 91.38 74.2959 91.38C73.0759 91.38 72.0359 90.7 71.1559 89.32C70.4159 88.04 70.0559 86.46 70.0559 84.54ZM72.4559 84.54C72.4559 85.78 72.6359 86.88 73.0359 87.86C73.3959 88.78 73.8159 89.22 74.2959 89.22C74.8159 89.22 75.2559 88.78 75.6359 87.86C76.0359 86.84 76.2359 85.74 76.2359 84.54C76.2359 83.3 76.0359 82.2 75.6359 81.22C75.2559 80.3 74.8159 79.82 74.3359 79.82C73.8359 79.82 73.3959 80.3 73.0359 81.22C72.6359 82.22 72.4559 83.34 72.4559 84.54ZM86.1759 94.5H83.7359V76.42H86.1759V94.5ZM105.763 82.36H94.3425V80.28H105.763V82.36ZM103.103 79.38H97.0025V77.3H103.103V79.38ZM105.243 87.26C105.243 87.82 105.103 88.34 104.862 88.82C104.582 89.34 104.223 89.78 103.763 90.16C103.283 90.56 102.743 90.84 102.123 91.04C101.483 91.24 100.823 91.34 100.123 91.34C99.4225 91.34 98.7625 91.24 98.1425 91.04C97.5025 90.84 96.9425 90.56 96.4825 90.16C96.0025 89.78 95.6625 89.34 95.4225 88.82C95.1625 88.34 95.0425 87.82 95.0425 87.26C95.0425 86.7 95.1625 86.18 95.4225 85.66C95.6625 85.16 96.0025 84.72 96.4825 84.32C96.9425 83.96 97.5025 83.66 98.1425 83.44C98.7625 83.24 99.4225 83.12 100.123 83.12C100.823 83.12 101.483 83.24 102.123 83.44C102.743 83.66 103.283 83.96 103.763 84.32C104.223 84.72 104.582 85.16 104.862 85.66C105.103 86.18 105.243 86.7 105.243 87.26ZM102.743 87.24C102.743 86.66 102.483 86.16 101.983 85.74C101.463 85.34 100.843 85.14 100.123 85.14C99.3825 85.14 98.7625 85.34 98.2825 85.74C97.7625 86.16 97.5225 86.66 97.5225 87.24C97.5225 87.8 97.7625 88.28 98.2825 88.68C98.7625 89.1 99.3825 89.3 100.123 89.3C100.843 89.3 101.463 89.1 101.983 88.68C102.483 88.28 102.743 87.8 102.743 87.24ZM109.383 76.42V83.86H112.023V86.02H109.383V94.5H106.903V76.42H109.383ZM116.1 77.78V88.36H118.28C119.9 88.36 121.86 88.22 124.14 87.94V90.08C121.92 90.4 119.84 90.54 117.88 90.54H113.58V77.78H116.1ZM127.64 76.42V82.98H130.44V85.2H127.64V94.5H125.18V76.42H127.64ZM132.958 84.92V77.14H135.298V79.04H137.338V77.14H139.578V84.92H132.958ZM137.338 82.82V81.08H135.298V82.82H137.338ZM140.358 84.92V77.14H142.598V79.04H144.638V77.14H146.978V84.92H140.358ZM144.638 82.82V81.08H142.598V82.82H144.638ZM148.958 85.86V87.96H141.298V91.14H138.838V87.96H130.978V85.86H148.958ZM146.818 94.5H133.158V89.18H135.658V92.4H146.818V94.5ZM160.316 82.2C160.316 82.88 160.156 83.52 159.876 84.12C159.576 84.74 159.196 85.28 158.736 85.74C158.256 86.18 157.716 86.52 157.076 86.76C156.436 87.04 155.736 87.16 155.016 87.16C154.296 87.16 153.616 87.04 152.976 86.76C152.336 86.52 151.776 86.18 151.316 85.74C150.856 85.28 150.496 84.74 150.216 84.12C149.936 83.52 149.796 82.88 149.796 82.2C149.796 81.52 149.936 80.88 150.216 80.28C150.496 79.68 150.856 79.16 151.316 78.7C151.776 78.24 152.336 77.88 152.976 77.6C153.616 77.36 154.296 77.22 155.016 77.22C155.736 77.22 156.436 77.36 157.076 77.6C157.716 77.88 158.256 78.24 158.736 78.7C159.196 79.16 159.576 79.68 159.876 80.28C160.156 80.88 160.316 81.52 160.316 82.2ZM157.816 82.2C157.816 81.82 157.736 81.46 157.596 81.1C157.436 80.76 157.216 80.46 156.976 80.18C156.736 79.94 156.436 79.74 156.116 79.58C155.756 79.42 155.396 79.34 155.036 79.34C154.676 79.34 154.316 79.42 153.996 79.58C153.636 79.74 153.356 79.94 153.116 80.18C152.856 80.46 152.656 80.76 152.536 81.1C152.376 81.46 152.316 81.82 152.316 82.2C152.316 82.6 152.376 82.98 152.536 83.32C152.656 83.68 152.856 83.96 153.116 84.2C153.356 84.48 153.636 84.68 153.996 84.82C154.316 84.98 154.676 85.04 155.036 85.04C155.396 85.04 155.756 84.98 156.116 84.82C156.436 84.68 156.736 84.48 156.976 84.2C157.216 83.96 157.436 83.68 157.596 83.32C157.736 82.98 157.816 82.6 157.816 82.2ZM165.456 76.42V90.24H162.996V76.42H165.456ZM165.996 94.5H152.776V88.52H155.316V92.38H165.996V94.5ZM43.04 111.84C43.04 112.46 42.9 113.06 42.62 113.62C42.34 114.2 41.96 114.7 41.5 115.1C41.02 115.54 40.48 115.88 39.88 116.1C39.26 116.34 38.6 116.46 37.88 116.46C37.18 116.46 36.52 116.34 35.9 116.1C35.26 115.88 34.72 115.54 34.26 115.1C33.8 114.7 33.44 114.2 33.2 113.62C32.92 113.06 32.8 112.46 32.8 111.84C32.8 111.2 32.92 110.6 33.2 110.02C33.44 109.46 33.8 108.96 34.26 108.54C34.72 108.1 35.26 107.76 35.9 107.52C36.52 107.28 37.18 107.16 37.88 107.16C38.6 107.16 39.26 107.28 39.88 107.52C40.48 107.76 41.02 108.1 41.5 108.54C41.96 108.96 42.34 109.46 42.62 110.02C42.9 110.6 43.04 111.2 43.04 111.84ZM40.52 111.84C40.52 111.48 40.44 111.14 40.3 110.82C40.14 110.54 39.94 110.26 39.74 110.02C39.48 109.82 39.2 109.64 38.88 109.48C38.56 109.36 38.22 109.28 37.88 109.28C37.52 109.28 37.2 109.36 36.88 109.48C36.56 109.64 36.28 109.82 36.06 110.02C35.82 110.26 35.62 110.54 35.5 110.82C35.34 111.14 35.28 111.48 35.28 111.84C35.28 112.2 35.34 112.52 35.5 112.8C35.62 113.12 35.82 113.38 36.06 113.6C36.28 113.84 36.56 114 36.88 114.12C37.2 114.26 37.52 114.32 37.88 114.32C38.22 114.32 38.56 114.26 38.88 114.12C39.2 114 39.48 113.84 39.74 113.6C39.94 113.38 40.14 113.12 40.3 112.8C40.44 112.52 40.52 112.2 40.52 111.84ZM47.96 106.42V110.66H50.44V112.82H47.96V117.1H45.48V106.42H47.96ZM45.46 119.74H37.94V122.4H45.46V119.74ZM47.98 124.5H35.46V117.64H47.98V124.5ZM55.678 107.96V111H64.298V107.96H66.798V117.86H61.198V120.78H68.978V122.9H50.998V120.78H58.778V117.86H53.178V107.96H55.678ZM55.678 113.1V115.76H64.298V113.1H55.678ZM81.1959 111.12H69.9559V109.16H81.1959V111.12ZM78.5959 108.6H72.5559V106.64H78.5959V108.6ZM80.5959 114.66C80.5959 115.08 80.4559 115.48 80.1759 115.86C79.8959 116.26 79.5359 116.6 79.0959 116.86C78.6359 117.14 78.0959 117.34 77.4959 117.46C76.8559 117.58 76.2159 117.64 75.5559 117.64C74.9159 117.64 74.2759 117.58 73.6759 117.44C73.0359 117.32 72.5159 117.14 72.0759 116.86C71.6359 116.6 71.2759 116.26 71.0359 115.86C70.7559 115.48 70.6359 115.08 70.6359 114.66C70.6359 114.24 70.7559 113.84 71.0159 113.44C71.2559 113.06 71.6159 112.72 72.0759 112.42C72.5159 112.14 73.0559 111.92 73.6759 111.78C74.2759 111.66 74.9159 111.58 75.5559 111.58C76.2159 111.58 76.8559 111.66 77.4759 111.78C78.0759 111.94 78.6159 112.14 79.0959 112.42C79.5359 112.7 79.9159 113.02 80.1959 113.42C80.4559 113.82 80.5959 114.24 80.5959 114.66ZM78.0759 114.66C78.0759 114.34 77.8559 114.08 77.4159 113.86C76.9759 113.66 76.3559 113.54 75.5559 113.54C74.7959 113.54 74.1959 113.64 73.7959 113.84C73.3559 114.06 73.1559 114.34 73.1559 114.66C73.1559 114.94 73.3559 115.18 73.7759 115.38C74.1759 115.58 74.7559 115.68 75.5559 115.68C76.3359 115.68 76.9559 115.58 77.4159 115.38C77.8559 115.18 78.0759 114.94 78.0759 114.66ZM85.6759 106.42V117.86H83.1959V114.64H80.8359V112.48H83.1959V106.42H85.6759ZM83.1759 120.5H75.6359V122.46H83.1759V120.5ZM85.6959 124.5H73.1359V118.48H85.6959V124.5ZM104.383 116.92H95.1625V107.6H104.383V116.92ZM101.903 114.82V109.7H97.6425V114.82H101.903ZM109.523 120.24H107.043V106.42H109.523V111.38H112.003V113.52H109.523V120.24ZM110.043 124.5H97.2825V118.52H99.8025V122.38H110.043V124.5ZM114.74 113.12V107.04H128.36V109.06H117.24V111.1H128.56V113.12H114.74ZM130.54 113.98V116.02H112.56V113.98H130.54ZM128.58 124.5H114.74V119.88H125.86V118.9H114.74V117.06H128.36V121.68H117.24V122.66H128.58V124.5ZM146.778 107.96V111.86C146.778 114.26 146.458 116.58 145.818 118.86H143.278C143.938 116.84 144.278 114.66 144.278 112.3V110.08H133.078V107.96H146.778ZM148.958 122.9H130.978V120.78H137.598V114.32H140.078V120.78H148.958V122.9ZM163.705 114.94C161.865 116.52 159.645 117.62 157.085 118.26L155.785 116.42C158.225 115.78 160.185 114.84 161.685 113.58C163.205 112.34 163.965 111.18 163.965 110.1V109.62H157.265V107.5H166.585V109.18H169.345V106.42H171.805V117.5H169.345V115.38H165.325V113.36H169.345V111.2H166.325C165.905 112.56 165.025 113.8 163.705 114.94ZM172.245 121.18C172.245 121.78 172.065 122.3 171.745 122.74C171.385 123.2 170.925 123.6 170.325 123.92C169.725 124.28 168.985 124.52 168.125 124.68C167.245 124.86 166.325 124.94 165.385 124.94C164.465 124.94 163.585 124.86 162.725 124.7C161.845 124.54 161.105 124.28 160.505 123.92C159.905 123.6 159.445 123.2 159.125 122.72C158.805 122.28 158.645 121.76 158.645 121.18C158.645 120.62 158.805 120.1 159.125 119.62C159.445 119.18 159.905 118.78 160.505 118.42C161.105 118.1 161.845 117.84 162.725 117.64C163.585 117.48 164.465 117.38 165.385 117.38C166.325 117.38 167.245 117.48 168.125 117.64C168.985 117.84 169.725 118.1 170.325 118.42C170.925 118.78 171.385 119.18 171.745 119.62C172.065 120.08 172.245 120.6 172.245 121.18ZM169.725 121.18C169.725 120.94 169.625 120.72 169.445 120.54C169.245 120.38 168.965 120.2 168.605 120.02C168.205 119.86 167.725 119.72 167.165 119.6C166.565 119.5 165.985 119.44 165.385 119.44C164.825 119.44 164.245 119.5 163.685 119.6C163.085 119.72 162.605 119.86 162.245 120.02C161.865 120.18 161.585 120.36 161.425 120.52C161.245 120.72 161.165 120.94 161.165 121.18C161.165 121.44 161.265 121.66 161.465 121.86C161.665 122.08 161.925 122.24 162.245 122.36C162.625 122.5 163.105 122.62 163.685 122.7C164.245 122.82 164.825 122.86 165.385 122.86C165.985 122.86 166.565 122.82 167.165 122.72C167.725 122.64 168.205 122.52 168.605 122.36C169.005 122.22 169.285 122.04 169.465 121.84C169.625 121.66 169.725 121.44 169.725 121.18ZM190.043 109.16H187.703L187.603 111.96H190.443V114H175.763V111.96H178.583L178.483 109.16H176.183V107.14H190.043V109.16ZM185.283 109.16H180.903L181.003 111.96H185.163L185.283 109.16ZM192.103 115.04V117.12H184.363V118.54H189.923V124.5H176.303V118.54H181.863V117.12H174.123V115.04H192.103ZM178.803 120.56V122.48H187.423V120.56H178.803ZM196.001 107.2V109.84H200.401V107.2H202.881V116.28H193.521V107.2H196.001ZM196.001 111.9V114.22H200.401V111.9H196.001ZM207.921 116.98H205.441V106.42H207.921V110.62H210.401V112.78H207.921V116.98ZM195.621 117.72H207.941V119.82H198.101V122.4H208.161V124.5H195.621V117.72ZM221.839 107.96V110C221.839 112.74 220.919 115.08 219.079 117C217.239 118.94 215.219 120.36 212.999 121.28L211.439 119.5C213.779 118.48 215.619 117.2 216.979 115.68C218.459 113.96 219.219 112.4 219.219 110.96V110.1H212.519V107.96H221.839ZM227.119 106.42V124.5H224.659V106.42H227.119ZM233.357 106.82V110.38L233.077 119.64H231.037L230.797 110.38V106.82H233.357ZM233.537 123.68H230.597V120.74H233.537V123.68Z" fill="white"/>
<defs>
<filter id="filter0_f_6614_226557" x="282.939" y="73.8157" width="25.9897" height="21.6772" filterUnits="userSpaceOnUse" color-interpolation-filters="sRGB">
<feFlood flood-opacity="0" result="BackgroundImageFix"/>
<feBlend mode="normal" in="SourceGraphic" in2="BackgroundImageFix" result="shape"/>
<feGaussianBlur stdDeviation="2.14196" result="effect1_foregroundBlur_6614_226557"/>
</filter>
<filter id="filter1_f_6614_226557" x="378.196" y="103.33" width="21.7808" height="15.7886" filterUnits="userSpaceOnUse" color-interpolation-filters="sRGB">
<feFlood flood-opacity="0" result="BackgroundImageFix"/>
<feBlend mode="normal" in="SourceGraphic" in2="BackgroundImageFix" result="shape"/>
<feGaussianBlur stdDeviation="1.56044" result="effect1_foregroundBlur_6614_226557"/>
</filter>
</defs>
</svg>
