<svg width="24" height="24" viewBox="0 0 24 24" fill="none" xmlns="http://www.w3.org/2000/svg">
<path d="M3.75 6.75C3.75 5.09315 5.09315 3.75 6.75 3.75H17.25C18.9069 3.75 20.25 5.09315 20.25 6.75V17.25C20.25 18.9069 18.9069 20.25 17.25 20.25H6.75C5.09315 20.25 3.75 18.9069 3.75 17.25V6.75Z" fill="#FF8740"/>
<path d="M12 12H20.25V17.25C20.25 18.9069 18.9069 20.25 17.25 20.25H12V12Z" fill="#E56C26"/>
<g opacity="0.9">
<path d="M8.25 6.1875C8.56066 6.1875 8.8125 6.43934 8.8125 6.75V7.6875L9.75 7.6875C10.0607 7.6875 10.3125 7.93934 10.3125 8.25C10.3125 8.56066 10.0607 8.8125 9.75 8.8125H8.8125V9.75C8.8125 10.0607 8.56066 10.3125 8.25 10.3125C7.93934 10.3125 7.6875 10.0607 7.6875 9.75V8.8125H6.75C6.43934 8.8125 6.1875 8.56066 6.1875 8.25C6.1875 7.93934 6.43934 7.6875 6.75 7.6875H7.6875V6.75C7.6875 6.43934 7.93934 6.1875 8.25 6.1875Z" fill="white"/>
<path d="M9.70815 14.6669C9.92782 14.8866 9.92782 15.2428 9.70815 15.4624L9.04536 16.1252L9.70816 16.788C9.92783 17.0077 9.92783 17.3639 9.70816 17.5835C9.48849 17.8032 9.13234 17.8032 8.91267 17.5835L8.24986 16.9207L7.58683 17.5837C7.36716 17.8034 7.01101 17.8034 6.79134 17.5837C6.57167 17.3641 6.57167 17.0079 6.79134 16.7882L7.45437 16.1252L6.79135 15.4622C6.57168 15.2425 6.57168 14.8864 6.79135 14.6667C7.01102 14.447 7.36717 14.447 7.58684 14.6667L8.24986 15.3297L8.91266 14.6669C9.13233 14.4473 9.48849 14.4473 9.70815 14.6669Z" fill="white"/>
<path d="M17.8125 8.25C17.8125 8.56066 17.5607 8.8125 17.25 8.8125L14.25 8.8125C13.9393 8.8125 13.6875 8.56066 13.6875 8.25C13.6875 7.93934 13.9393 7.6875 14.25 7.6875L17.25 7.6875C17.5607 7.6875 17.8125 7.93934 17.8125 8.25Z" fill="white"/>
<path d="M17.8125 15C17.8125 15.3107 17.5607 15.5625 17.25 15.5625H15C14.6893 15.5625 14.4375 15.3107 14.4375 15C14.4375 14.6893 14.6893 14.4375 15 14.4375H17.25C17.5607 14.4375 17.8125 14.6893 17.8125 15Z" fill="white"/>
<path d="M17.8125 17.25C17.8125 17.5607 17.5607 17.8125 17.25 17.8125H15C14.6893 17.8125 14.4375 17.5607 14.4375 17.25C14.4375 16.9393 14.6893 16.6875 15 16.6875H17.25C17.5607 16.6875 17.8125 16.9393 17.8125 17.25Z" fill="white"/>
</g>
</svg>
