<svg width="420" height="346" viewBox="0 0 420 346" fill="none" xmlns="http://www.w3.org/2000/svg">
<path d="M0 24C0 10.7452 10.7452 0 24 0H396C409.255 0 420 10.7452 420 24V322C420 335.255 409.255 346 396 346H24C10.7452 346 0 335.255 0 322V24Z" fill="#FF5C21"/>
<path d="M24 42C24 32.0589 32.0589 24 42 24H69C78.9411 24 87 32.0589 87 42C87 51.9411 78.9411 60 69 60H42C32.0589 60 24 51.9411 24 42Z" fill="black" fill-opacity="0.5"/>
<path d="M37.5051 40.778C37.5051 39.518 37.8131 38.44 38.4431 37.516C39.0871 36.606 39.8571 36.144 40.7811 36.144C41.6771 36.144 42.4611 36.606 43.1331 37.516C43.7771 38.412 44.0991 39.504 44.0991 40.778C44.0991 42.038 43.7771 43.116 43.1331 44.026C42.5031 44.922 41.7191 45.37 40.7811 45.37C39.8571 45.37 39.0871 44.922 38.4431 44.026C37.8131 43.13 37.5051 42.052 37.5051 40.778ZM38.7371 40.778C38.7371 41.688 38.9051 42.486 39.2691 43.186C39.6891 43.928 40.1931 44.292 40.7811 44.292C41.3691 44.292 41.8731 43.928 42.2931 43.186C42.6711 42.472 42.8671 41.674 42.8671 40.778C42.8671 39.84 42.6711 39.042 42.3071 38.37C41.8591 37.614 41.3551 37.222 40.7811 37.222C40.1651 37.222 39.6611 37.614 39.2691 38.37C38.9051 39.07 38.7371 39.882 38.7371 40.778ZM47.6131 35.29V47.554H46.3951V35.29H47.6131ZM51.6297 35.878V38.104H54.0937V35.878H55.2837V38.58H57.0477V35.486H58.2377V44.278H57.0477V39.686H55.2837V42.668H50.4257V35.878H51.6297ZM51.6297 39.14V41.59H54.0937V39.14H51.6297ZM59.6517 35.29H60.8697V44.572H59.6517V35.29ZM61.2057 47.554H52.1477V43.844H53.3797V46.49H61.2057V47.554ZM64.1303 43.214V36.396H73.1603V37.46H65.3763V39.252H73.0763V40.316H65.3763V42.136H73.3003V43.214H64.1303ZM74.6863 45.342V46.434H62.6043V45.342H74.6863Z" fill="white"/>
<g clip-path="url(#clip0_7755_82930)">
<path d="M279 104.764L272.622 105.824L269.747 100.011C262.739 85.7513 257.319 83.334 243.165 85.8057L239.442 86.4575L220.854 128.422L248.038 123.696L241.824 137.711L214.722 142.274L209.603 153.818C203.58 167.317 195.724 176.932 182.912 183.098L221.566 176.362C236.705 173.754 242.07 169.3 251.269 155.04L254.472 150.097L265.449 148.06L260.33 159.576C250.119 182.826 241.468 189.671 218.938 193.474L141 207L147.433 192.414C165.501 182.881 170.538 176.471 178.997 157.458L207.988 91.9441L203.471 92.7318C176.944 97.3493 163.667 114.352 162.818 131.763C162.545 137.249 163.64 143.361 165.966 148.195C153.812 142.329 145.188 132.496 145.709 121.74C146.612 102.945 165.118 84.2303 214.558 75.6201L275.797 65L279 104.764Z" fill="white"/>
</g>
<path d="M101.366 256.34H89.0237V254.118H101.366V256.34ZM98.5057 253.326H91.8837V251.104H98.5057V253.326ZM100.728 260.718C100.728 261.202 100.574 261.708 100.288 262.192C99.9797 262.72 99.5837 263.138 99.0997 263.446C98.5937 263.798 98.0217 264.062 97.3617 264.216C96.6797 264.392 95.9537 264.48 95.2057 264.48C94.5017 264.48 93.7977 264.392 93.1377 264.216C92.4557 264.062 91.8617 263.798 91.3777 263.446C90.8497 263.138 90.4757 262.72 90.2117 262.192C89.9257 261.708 89.7937 261.202 89.7937 260.718C89.7937 260.212 89.9257 259.706 90.2117 259.2C90.4757 258.716 90.8497 258.32 91.3557 257.968C91.8617 257.638 92.4557 257.374 93.1377 257.154C93.7977 256.978 94.5017 256.868 95.2057 256.868C95.9537 256.868 96.6797 256.978 97.3617 257.154C98.0217 257.374 98.5937 257.638 99.0997 257.968C99.5837 258.32 99.9797 258.716 100.288 259.2C100.574 259.706 100.728 260.212 100.728 260.718ZM97.9777 260.718C97.9777 260.3 97.7137 259.926 97.2297 259.596C96.7017 259.288 96.0417 259.112 95.2057 259.112C94.3697 259.112 93.7317 259.288 93.2697 259.596C92.7857 259.926 92.5657 260.3 92.5657 260.718C92.5657 261.136 92.7857 261.488 93.2697 261.796C93.7317 262.104 94.3697 262.258 95.2057 262.258C96.0417 262.258 96.7017 262.104 97.2297 261.774C97.7137 261.466 97.9777 261.114 97.9777 260.718ZM105.568 266.064H102.84V250.862H105.568V257.352H108.296V259.728H105.568V266.064ZM106.14 270.75H91.8837V265.316H94.6557V268.44H106.14V270.75ZM121.955 256.758H109.239V254.58H121.955V256.758ZM119.029 253.876H112.165V251.676H119.029V253.876ZM121.273 260.96C121.273 261.444 121.119 261.906 120.833 262.368C120.525 262.852 120.107 263.248 119.623 263.578C119.073 263.886 118.457 264.128 117.797 264.282C117.533 264.348 117.269 264.392 117.005 264.414V265.844C118.655 265.778 120.569 265.646 122.769 265.426V267.736C119.579 268.044 116.521 268.198 113.573 268.198H108.909V265.888H114.321V264.414C114.013 264.392 113.727 264.348 113.463 264.282C112.781 264.128 112.187 263.886 111.659 263.578C111.131 263.248 110.735 262.852 110.471 262.368C110.185 261.906 110.053 261.444 110.053 260.96C110.053 260.476 110.185 259.992 110.471 259.53C110.735 259.09 111.131 258.694 111.659 258.32C112.187 258.012 112.781 257.77 113.485 257.594C114.145 257.44 114.849 257.352 115.597 257.352C116.389 257.352 117.115 257.44 117.797 257.594C118.457 257.77 119.073 258.012 119.623 258.342C120.129 258.694 120.525 259.09 120.833 259.53C121.119 259.992 121.273 260.476 121.273 260.96ZM118.523 260.96C118.523 260.52 118.237 260.146 117.709 259.882C117.159 259.618 116.455 259.486 115.597 259.486C114.783 259.486 114.123 259.618 113.595 259.882C113.067 260.146 112.803 260.52 112.803 260.96C112.803 261.4 113.067 261.752 113.595 261.972C114.123 262.236 114.783 262.346 115.597 262.346C116.455 262.346 117.159 262.236 117.709 261.994C118.237 261.774 118.523 261.422 118.523 260.96ZM125.981 270.75H123.253V250.862H125.981V259.134H128.621V261.554H125.981V270.75ZM130.247 259.794C130.247 257.77 130.753 256.01 131.765 254.514C132.843 252.974 134.185 252.204 135.791 252.204C137.375 252.204 138.717 252.974 139.861 254.514C140.895 255.966 141.423 257.726 141.423 259.794C141.423 261.818 140.895 263.556 139.861 265.052C138.783 266.592 137.419 267.34 135.791 267.34C134.185 267.34 132.843 266.592 131.765 265.052C130.753 263.6 130.247 261.84 130.247 259.794ZM132.975 259.794C132.975 261.18 133.239 262.412 133.767 263.468C134.361 264.502 135.043 265.008 135.791 265.008C136.539 265.008 137.221 264.502 137.815 263.468C138.387 262.368 138.673 261.136 138.673 259.794C138.673 258.364 138.387 257.132 137.837 256.12C137.221 255.064 136.539 254.536 135.791 254.536C135.021 254.536 134.339 255.064 133.767 256.12C133.239 257.198 132.975 258.43 132.975 259.794ZM146.923 250.862V270.75H144.217V250.862H146.923ZM166.809 251.588V254.382C166.809 255.702 166.633 257.022 166.281 258.364H169.207V260.63H149.429V258.364H163.487C163.861 257 164.059 255.856 164.059 254.954V253.832H151.739V251.588H166.809ZM167.051 270.75H151.827V265.338H164.059V263.996H151.827V261.972H166.809V267.362H154.577V268.704H167.051V270.75ZM180.975 253.634C180.975 255.834 181.745 257.594 183.285 258.958C184.605 260.146 186.387 261.092 188.587 261.774L186.981 263.886C184.693 263.138 182.713 261.994 181.063 260.432C180.381 259.794 179.875 259.2 179.545 258.628C179.215 259.156 178.709 259.75 178.027 260.41C176.333 262.016 174.375 263.182 172.131 263.886L170.569 261.774C172.725 261.092 174.507 260.146 175.871 258.958C177.411 257.594 178.181 255.834 178.181 253.634V252.094H180.975V253.634ZM189.467 266.658V268.99H169.689V266.658H189.467ZM206.722 259.618C205.71 259.618 204.764 259.53 203.862 259.354C202.938 259.2 202.102 258.936 201.398 258.54C200.694 258.166 200.166 257.704 199.792 257.154C199.396 256.626 199.22 256.054 199.22 255.438C199.22 254.778 199.418 254.184 199.814 253.656C200.188 253.172 200.716 252.732 201.376 252.336C202.08 251.918 202.916 251.61 203.84 251.434C204.764 251.28 205.71 251.192 206.722 251.192C207.734 251.192 208.702 251.28 209.648 251.434C210.572 251.61 211.408 251.918 212.112 252.336C212.772 252.732 213.322 253.172 213.718 253.656C214.114 254.184 214.312 254.778 214.312 255.438C214.312 256.076 214.114 256.648 213.718 257.154C213.322 257.682 212.772 258.144 212.112 258.496C211.364 258.914 210.55 259.2 209.626 259.354C208.702 259.53 207.734 259.618 206.722 259.618ZM206.722 257.374C207.426 257.374 208.108 257.33 208.724 257.22C209.318 257.132 209.824 257.022 210.264 256.846C210.682 256.67 211.012 256.472 211.232 256.208C211.43 255.966 211.54 255.702 211.54 255.438C211.54 255.13 211.43 254.866 211.232 254.624C211.012 254.404 210.682 254.184 210.264 254.008C209.824 253.854 209.318 253.722 208.724 253.59C208.108 253.502 207.426 253.436 206.722 253.436C206.018 253.436 205.38 253.502 204.786 253.59C204.17 253.722 203.664 253.854 203.246 254.008C202.806 254.184 202.498 254.404 202.322 254.624C202.102 254.866 202.014 255.13 202.014 255.438C202.014 255.702 202.124 255.966 202.344 256.208C202.542 256.472 202.85 256.67 203.246 256.846C203.642 257.022 204.17 257.154 204.786 257.242C205.38 257.33 206.018 257.374 206.722 257.374ZM216.666 260.432V262.72H196.888V260.432H216.666ZM214.62 267.384C214.62 268.55 213.894 269.474 212.442 270.178C210.968 270.904 209.076 271.256 206.744 271.256C204.456 271.256 202.608 270.904 201.156 270.2C199.704 269.518 198.978 268.572 198.978 267.384C198.978 266.24 199.704 265.294 201.156 264.59C202.586 263.908 204.456 263.556 206.744 263.556C209.076 263.556 210.968 263.908 212.442 264.59C213.894 265.294 214.62 266.24 214.62 267.384ZM206.744 265.778C205.226 265.778 204.016 265.932 203.114 266.196C202.19 266.504 201.75 266.9 201.75 267.384C201.75 267.868 202.19 268.264 203.114 268.572C203.994 268.902 205.204 269.056 206.744 269.056C208.262 269.056 209.494 268.902 210.44 268.572C211.364 268.264 211.848 267.868 211.848 267.384C211.848 266.9 211.364 266.526 210.44 266.218C209.494 265.932 208.262 265.778 206.744 265.778ZM229.776 255.284C229.776 255.812 229.622 256.318 229.314 256.802C229.006 257.308 228.588 257.748 228.104 258.122C227.576 258.474 226.982 258.738 226.322 258.914C225.662 259.09 224.936 259.178 224.188 259.178C223.462 259.178 222.78 259.09 222.12 258.914C221.46 258.738 220.866 258.474 220.36 258.122C219.832 257.748 219.436 257.308 219.15 256.802C218.842 256.318 218.71 255.812 218.71 255.284C218.71 254.756 218.842 254.25 219.15 253.722C219.436 253.238 219.854 252.798 220.382 252.446C220.866 252.094 221.46 251.83 222.12 251.632C222.758 251.456 223.44 251.346 224.188 251.346C224.958 251.346 225.684 251.456 226.344 251.632C226.982 251.83 227.554 252.094 228.082 252.446C228.588 252.798 229.006 253.238 229.314 253.722C229.622 254.25 229.776 254.756 229.776 255.284ZM226.96 255.284C226.96 254.844 226.696 254.448 226.168 254.096C225.64 253.788 224.98 253.612 224.188 253.612C223.396 253.612 222.758 253.788 222.274 254.096C221.768 254.426 221.526 254.822 221.526 255.284C221.526 255.746 221.768 256.12 222.296 256.428C222.78 256.758 223.418 256.912 224.188 256.912C224.98 256.912 225.64 256.758 226.168 256.428C226.696 256.12 226.96 255.746 226.96 255.284ZM235.034 250.862V266.856H232.328V264.832H227.026V262.72H232.328V250.862H235.034ZM223.55 259.728C226.454 259.728 229.116 259.574 231.492 259.244V261.532C229.556 261.84 227.4 261.994 225.002 262.038V265.03H222.252V262.016H217.148V259.728H223.55ZM235.518 270.75H220.514V265.69H223.264V268.44H235.518V270.75ZM257.063 256.032H244.721V253.876H257.063V256.032ZM254.203 253.26H247.581V251.104H254.203V253.26ZM256.403 259.926C256.403 260.388 256.249 260.828 255.963 261.246C255.655 261.686 255.259 262.06 254.775 262.346C254.291 262.654 253.697 262.874 253.015 263.006C252.311 263.138 251.585 263.204 250.881 263.204C250.177 263.204 249.473 263.138 248.813 262.984C248.109 262.852 247.537 262.654 247.053 262.346C246.547 262.06 246.151 261.686 245.887 261.246C245.601 260.828 245.469 260.388 245.469 259.926C245.469 259.464 245.601 259.002 245.909 258.562C246.173 258.122 246.569 257.77 247.053 257.462C247.537 257.154 248.131 256.912 248.813 256.758C249.473 256.626 250.177 256.538 250.881 256.538C251.585 256.538 252.289 256.626 252.993 256.758C253.675 256.912 254.269 257.154 254.775 257.462C255.259 257.77 255.655 258.122 255.963 258.562C256.249 259.002 256.403 259.464 256.403 259.926ZM253.653 259.926C253.653 259.574 253.411 259.288 252.927 259.046C252.443 258.826 251.761 258.694 250.881 258.694C250.023 258.694 249.363 258.804 248.923 259.024C248.461 259.266 248.241 259.574 248.241 259.926C248.241 260.234 248.461 260.498 248.901 260.718C249.341 260.938 250.001 261.048 250.881 261.048C251.739 261.048 252.421 260.938 252.927 260.718C253.411 260.498 253.653 260.234 253.653 259.926ZM261.265 250.862V256.45H263.993V258.848H261.265V263.446H258.537V250.862H261.265ZM258.515 266.35H250.265V268.506H258.515V266.35ZM261.287 270.75H247.515V264.128H261.287V270.75ZM271.031 252.556V254.36C271.031 256.296 270.547 258.452 269.623 260.828C268.721 263.006 267.665 264.92 266.477 266.57L264.233 265.404C265.487 263.578 266.521 261.664 267.335 259.684C268.039 257.99 268.391 256.582 268.391 255.482V254.888H265.817V252.556H271.031ZM275.959 252.556V254.36C275.959 255.46 275.827 256.67 275.563 257.968H276.949V251.28H279.501V270.068H276.949V260.3H274.947C274.903 260.41 274.881 260.52 274.859 260.608C273.979 263.248 272.857 265.536 271.449 267.494L269.095 266.416C270.503 264.392 271.603 262.214 272.395 259.882C273.011 258.012 273.341 256.538 273.341 255.482V254.888H271.317V252.556H275.959ZM283.109 270.75H280.469V250.862H283.109V270.75ZM295.779 257.396H285.109V255.108H295.779V257.396ZM293.535 254.118H287.353V251.83H293.535V254.118ZM295.603 262.764C295.603 263.38 295.471 263.952 295.207 264.48C294.943 265.052 294.569 265.536 294.129 265.954C293.667 266.394 293.139 266.702 292.523 266.922C291.907 267.164 291.247 267.274 290.565 267.274C289.861 267.274 289.223 267.164 288.607 266.922C287.991 266.702 287.441 266.394 287.001 265.954C286.539 265.536 286.187 265.052 285.923 264.48C285.659 263.952 285.527 263.38 285.527 262.764C285.527 262.148 285.659 261.554 285.923 261.004C286.187 260.476 286.539 259.992 287.001 259.552C287.441 259.156 287.991 258.826 288.607 258.584C289.223 258.364 289.861 258.232 290.565 258.232C291.247 258.232 291.907 258.364 292.523 258.584C293.139 258.826 293.667 259.156 294.129 259.552C294.569 259.992 294.943 260.476 295.207 261.004C295.471 261.554 295.603 262.148 295.603 262.764ZM292.875 262.764C292.875 262.104 292.633 261.554 292.193 261.114C291.709 260.674 291.181 260.454 290.565 260.454C289.949 260.454 289.399 260.674 288.959 261.114C288.475 261.554 288.255 262.104 288.255 262.764C288.255 263.402 288.475 263.93 288.959 264.37C289.399 264.81 289.949 265.03 290.565 265.03C291.181 265.03 291.709 264.81 292.193 264.37C292.633 263.93 292.875 263.402 292.875 262.764ZM303.347 270.75H300.663V261.158H299.255V270.068H296.615V251.28H299.255V258.694H300.663V250.862H303.347V270.75ZM322.55 257.726C322.55 258.496 322.352 259.222 321.956 259.904C321.538 260.608 320.966 261.202 320.218 261.686C319.514 262.17 318.722 262.522 317.864 262.742C316.984 262.984 316.016 263.094 314.96 263.094C313.926 263.094 312.98 262.984 312.122 262.742C311.242 262.522 310.45 262.17 309.724 261.686C308.998 261.18 308.448 260.586 308.052 259.882C307.656 259.222 307.458 258.496 307.458 257.726C307.458 256.978 307.656 256.252 308.052 255.57C308.448 254.91 308.998 254.316 309.724 253.788C310.45 253.326 311.242 252.974 312.122 252.71C312.98 252.468 313.926 252.336 314.96 252.336C316.016 252.336 316.984 252.468 317.864 252.71C318.722 252.974 319.514 253.326 320.218 253.788C320.966 254.316 321.538 254.91 321.956 255.57C322.352 256.252 322.55 256.978 322.55 257.726ZM319.778 257.726C319.778 257.33 319.646 256.934 319.404 256.538C319.14 256.164 318.788 255.812 318.37 255.482C317.908 255.174 317.402 254.954 316.874 254.822C316.302 254.712 315.664 254.646 314.96 254.646C314.212 254.646 313.596 254.712 313.068 254.822C312.54 254.954 312.034 255.174 311.594 255.482C311.154 255.812 310.824 256.164 310.604 256.516C310.362 256.89 310.252 257.286 310.252 257.726C310.252 258.166 310.362 258.584 310.604 258.958C310.824 259.354 311.154 259.684 311.594 259.948C312.034 260.278 312.54 260.498 313.068 260.586C313.596 260.718 314.212 260.762 314.96 260.762C315.664 260.762 316.302 260.718 316.874 260.586C317.402 260.498 317.908 260.278 318.37 259.948C318.81 259.684 319.14 259.354 319.404 258.958C319.646 258.584 319.778 258.166 319.778 257.726ZM324.904 266.658V268.99H305.126V266.658H309.35V263.028H312.012V266.658H317.996V263.028H320.68V266.658H324.904ZM329.764 251.302V255.218L329.456 265.404H327.212L326.948 255.218V251.302H329.764ZM329.962 269.848H326.728V266.614H329.962V269.848Z" fill="white"/>
<path d="M111.628 298.816V288.72L110.46 289.52L109.74 288.544L111.74 287.04H113.02V298.816H111.628ZM125.128 298.816H117.624V297.68L118.904 296.432C120.408 295.008 121.528 293.872 122.232 293.04C122.936 292.224 123.288 291.424 123.288 290.624C123.288 289.952 123.08 289.376 122.664 288.912C122.248 288.464 121.624 288.224 120.824 288.224C120.056 288.224 119.272 288.592 118.472 289.312L118.024 288.048C118.936 287.248 119.976 286.832 121.144 286.832C122.2 286.832 123.08 287.168 123.784 287.84C124.472 288.512 124.824 289.376 124.824 290.4C124.824 291.36 124.52 292.24 123.912 293.024C123.304 293.824 122.376 294.832 121.144 296.08L119.592 297.536H125.128V298.816ZM130.869 286.896C133.493 286.896 134.805 288.928 134.805 292.96C134.805 297.024 133.493 299.04 130.885 299.04C128.261 299.04 126.965 297.024 126.965 292.96C126.965 288.928 128.277 286.896 130.869 286.896ZM130.885 288.224C129.285 288.224 128.501 289.808 128.501 292.96C128.501 296.128 129.285 297.712 130.869 297.712C132.437 297.712 133.237 296.128 133.237 292.96C133.237 289.808 132.453 288.224 130.885 288.224ZM144.305 293.328H137.521V286.704H144.305V287.824H147.393V285.76H148.817V294.272H147.393V292.192H144.305V293.328ZM144.305 288.976V291.04H147.393V288.976H144.305ZM142.913 292.112V287.92H138.929V292.112H142.913ZM147.777 297.328C147.777 297.088 147.681 296.864 147.505 296.672C147.313 296.496 147.057 296.336 146.721 296.176C146.369 296.048 145.969 295.936 145.489 295.856C144.993 295.792 144.497 295.744 144.017 295.744C143.537 295.744 143.057 295.792 142.577 295.856C142.081 295.936 141.681 296.048 141.361 296.176C141.025 296.336 140.769 296.496 140.593 296.672C140.401 296.864 140.321 297.088 140.321 297.328C140.321 297.584 140.417 297.808 140.609 298C140.785 298.192 141.041 298.368 141.361 298.512C141.681 298.672 142.097 298.768 142.609 298.816C143.105 298.88 143.569 298.912 144.017 298.912C144.497 298.912 144.993 298.88 145.473 298.816C145.953 298.752 146.369 298.656 146.721 298.512C147.057 298.368 147.313 298.192 147.505 298C147.681 297.808 147.777 297.584 147.777 297.328ZM149.185 297.328C149.185 297.76 149.057 298.144 148.801 298.464C148.545 298.816 148.193 299.12 147.761 299.376C147.313 299.632 146.753 299.824 146.081 299.952C145.409 300.08 144.721 300.144 144.017 300.144C143.329 300.144 142.657 300.08 141.985 299.952C141.313 299.824 140.753 299.632 140.321 299.36C139.873 299.104 139.521 298.816 139.281 298.464C139.025 298.144 138.913 297.76 138.913 297.328C138.913 296.912 139.025 296.544 139.281 296.192C139.521 295.856 139.873 295.568 140.321 295.312C140.753 295.056 141.313 294.848 141.985 294.704C142.657 294.576 143.329 294.512 144.017 294.512C144.721 294.512 145.409 294.576 146.081 294.704C146.753 294.848 147.313 295.04 147.761 295.296C148.209 295.552 148.561 295.856 148.817 296.192C149.057 296.544 149.185 296.928 149.185 297.328ZM151.632 292.032C151.632 290.528 151.904 289.296 152.448 288.32C153.056 287.28 153.824 286.752 154.752 286.752C155.664 286.752 156.432 287.28 157.04 288.32C157.504 289.104 157.776 290.08 157.856 291.232H159.52V286.064H160.896V299.28H159.52V292.512H157.872C157.808 293.728 157.536 294.816 157.04 295.744C156.464 296.768 155.68 297.264 154.72 297.264C153.856 297.264 153.104 296.768 152.464 295.776C151.904 294.784 151.632 293.536 151.632 292.032ZM152.944 292.032C152.944 293.056 153.088 293.952 153.408 294.752C153.76 295.584 154.208 296 154.72 296C155.264 296 155.728 295.584 156.096 294.752C156.416 293.92 156.576 293.008 156.576 292.032C156.576 291.024 156.416 290.112 156.096 289.312C155.728 288.448 155.28 288.016 154.752 288.016C154.208 288.016 153.76 288.448 153.408 289.312C153.088 290.144 152.944 291.04 152.944 292.032ZM163.936 299.776H162.56V285.76H163.936V299.776ZM172.526 287.008V288.304C172.526 290.56 171.918 292.416 170.702 293.872C169.502 295.28 168.238 296.368 166.926 297.104L165.966 296.16C167.326 295.392 168.478 294.416 169.438 293.248C170.526 291.888 171.07 290.496 171.07 289.088V288.256H166.75V287.008H172.526ZM178.67 299.776H177.278V285.76H178.67V299.776ZM174.222 286.064H175.598V299.28H174.222V292.448H172.414V291.104H174.222V286.064ZM187.363 294.048V287.008H197.683V288.24H188.787V292.816H197.827V294.048H187.363ZM199.427 297.248V298.496H185.619V297.248H199.427ZM209.458 296.768C207.954 296.992 206.226 297.104 204.274 297.104H201.458V291.264H206.434V288.224H201.458V287.008H207.858V292.48H202.866V295.888H204.194C206.178 295.888 207.938 295.792 209.458 295.568V296.768ZM212.69 285.76V299.776H211.298V285.76H212.69ZM216.832 291.552V286.064H218.256V290.336H227.152V291.552H216.832ZM228.896 293.248V294.48H215.088V293.248H228.896ZM227.184 299.776H216.832V295.776H218.256V298.544H227.184V299.776ZM243.797 293.072C242.261 293.216 240.661 293.28 238.981 293.28H235.685V286.656H242.565V287.872H237.109V292.064H238.885C240.661 292.064 242.293 291.984 243.797 291.824V293.072ZM246.597 294.24H245.189V285.76H246.597V289.28H248.693V290.56H246.597V294.24ZM245.573 297.376C245.573 297.152 245.461 296.928 245.269 296.72C245.045 296.528 244.789 296.368 244.501 296.24C244.181 296.112 243.765 296.016 243.285 295.92C242.789 295.84 242.309 295.792 241.829 295.792C241.333 295.792 240.837 295.84 240.341 295.92C239.829 296.016 239.429 296.112 239.157 296.24C238.837 296.4 238.597 296.56 238.421 296.752C238.229 296.944 238.133 297.152 238.133 297.376C238.133 297.6 238.213 297.808 238.405 298.016C238.565 298.24 238.821 298.4 239.157 298.528C239.509 298.656 239.909 298.752 240.389 298.816C240.853 298.88 241.333 298.912 241.829 298.912C242.309 298.912 242.789 298.88 243.269 298.816C243.733 298.752 244.149 298.656 244.501 298.528C244.821 298.4 245.093 298.24 245.285 298.016C245.477 297.808 245.573 297.6 245.573 297.376ZM246.997 297.376C246.997 297.792 246.869 298.176 246.613 298.496C246.357 298.832 246.005 299.12 245.557 299.376C245.109 299.648 244.549 299.84 243.877 299.952C243.189 300.08 242.501 300.144 241.829 300.144C241.125 300.144 240.453 300.08 239.797 299.952C239.125 299.84 238.565 299.648 238.117 299.392C237.669 299.136 237.317 298.832 237.077 298.496C236.821 298.176 236.709 297.792 236.709 297.376C236.709 296.96 236.821 296.576 237.077 296.24C237.317 295.92 237.669 295.616 238.117 295.36C238.565 295.104 239.125 294.896 239.797 294.768C240.453 294.64 241.125 294.576 241.829 294.576C242.501 294.576 243.189 294.64 243.877 294.768C244.549 294.896 245.109 295.104 245.557 295.36C245.989 295.616 246.341 295.92 246.613 296.24C246.869 296.592 246.997 296.96 246.997 297.376ZM258.116 289.344H254.964C255.06 290.144 255.444 290.816 256.1 291.392C256.852 292.032 257.7 292.576 258.66 293.008L257.86 293.936C256.932 293.584 256.004 292.992 255.06 292.16C254.788 291.936 254.532 291.664 254.276 291.36C253.988 291.744 253.716 292.064 253.46 292.304C252.516 293.232 251.556 293.888 250.564 294.272L249.636 293.36C250.676 292.896 251.572 292.32 252.308 291.632C253.044 290.944 253.46 290.176 253.556 289.344H250.308V288.176H258.116V289.344ZM256.676 287.104H251.828V285.92H256.676V287.104ZM262.052 285.76V294.176H260.628V291.344H258.1V290.144H260.628V285.76H262.052ZM260.628 296.24H254.164V298.592H260.628V296.24ZM262.052 299.776H252.756V295.04H262.052V299.776ZM273.234 290.208C273.234 290.72 273.122 291.184 272.914 291.632C272.69 292.08 272.386 292.48 272.034 292.816C271.682 293.12 271.25 293.36 270.77 293.552C270.258 293.76 269.746 293.856 269.202 293.856C268.658 293.856 268.162 293.76 267.682 293.568C267.186 293.376 266.77 293.136 266.434 292.816C266.05 292.48 265.762 292.08 265.57 291.632C265.362 291.184 265.266 290.72 265.266 290.208C265.266 289.696 265.362 289.216 265.57 288.768C265.762 288.336 266.066 287.952 266.45 287.6C266.77 287.28 267.186 287.024 267.682 286.832C268.162 286.656 268.658 286.56 269.202 286.56C269.746 286.56 270.258 286.656 270.77 286.848C271.25 287.04 271.666 287.296 272.018 287.6C272.386 287.952 272.69 288.336 272.914 288.784C273.122 289.232 273.234 289.712 273.234 290.208ZM271.842 290.208C271.842 289.888 271.762 289.584 271.634 289.296C271.474 289.008 271.282 288.752 271.058 288.528C270.802 288.336 270.53 288.16 270.226 288.016C269.906 287.888 269.57 287.824 269.218 287.824C268.866 287.824 268.53 287.888 268.226 288.016C267.906 288.16 267.618 288.336 267.378 288.528C267.154 288.752 266.962 289.008 266.834 289.296C266.69 289.6 266.626 289.904 266.626 290.208C266.626 290.528 266.69 290.832 266.834 291.12C266.962 291.424 267.154 291.68 267.378 291.888C267.618 292.112 267.906 292.272 268.226 292.4C268.53 292.528 268.866 292.592 269.218 292.592C269.57 292.592 269.906 292.528 270.226 292.4C270.53 292.272 270.802 292.112 271.058 291.888C271.282 291.68 271.474 291.424 271.634 291.136C271.762 290.848 271.842 290.544 271.842 290.208ZM268.066 296.192C270.514 296.192 272.722 296.08 274.69 295.856V297.088C272.77 297.328 270.53 297.44 267.938 297.44H264.338V296.192H268.066ZM277.122 299.776H275.714V285.76H277.122V299.776ZM292.247 287.008V288.512C292.247 290.48 291.527 292.272 290.087 293.872C288.663 295.392 287.159 296.48 285.575 297.12L284.647 296.096C286.375 295.312 287.799 294.304 288.903 293.056C290.119 291.648 290.743 290.288 290.743 289.008V288.256H285.367V287.008H292.247ZM296.471 285.76V299.776H295.079V285.76H296.471ZM308.166 289.616H299.526V288.448H308.166V289.616ZM306.054 287.536H301.654V286.336H306.054V287.536ZM307.686 292.864C307.686 293.184 307.59 293.504 307.398 293.808C307.19 294.128 306.918 294.384 306.582 294.592C306.23 294.816 305.83 294.976 305.382 295.072C305.126 295.152 304.854 295.2 304.598 295.216V296.656C306.326 296.592 307.878 296.48 309.27 296.304V297.504C307.238 297.776 304.95 297.904 302.406 297.904H298.854V296.688H303.222V295.216C302.934 295.2 302.646 295.152 302.39 295.072C301.926 294.976 301.526 294.816 301.174 294.592C300.822 294.4 300.55 294.128 300.374 293.808C300.182 293.504 300.102 293.184 300.102 292.864C300.102 292.544 300.182 292.224 300.374 291.92C300.55 291.632 300.822 291.36 301.174 291.12C301.526 290.896 301.926 290.736 302.406 290.624C302.854 290.528 303.35 290.464 303.862 290.464C304.406 290.464 304.918 290.528 305.382 290.624C305.83 290.752 306.23 290.912 306.582 291.12C306.934 291.36 307.206 291.632 307.398 291.92C307.59 292.224 307.686 292.544 307.686 292.864ZM306.278 292.864C306.278 292.464 306.038 292.144 305.574 291.92C305.094 291.712 304.534 291.6 303.862 291.6C303.206 291.6 302.646 291.712 302.198 291.92C301.734 292.144 301.51 292.464 301.51 292.864C301.51 293.28 301.734 293.584 302.198 293.792C302.646 294.016 303.206 294.112 303.862 294.112C304.534 294.112 305.094 294.016 305.574 293.792C306.038 293.6 306.278 293.28 306.278 292.864ZM311.638 299.776H310.23V285.76H311.638V299.776Z" fill="#F5F5F5"/>
<defs>
<clipPath id="clip0_7755_82930">
<rect width="138" height="142" fill="white" transform="translate(141 65)"/>
</clipPath>
</defs>
</svg>
