<svg width="420" height="347" viewBox="0 0 420 347" fill="none" xmlns="http://www.w3.org/2000/svg">
<path d="M0 24C0 10.7452 10.7452 0 24 0H396C409.255 0 420 10.7452 420 24V323C420 336.255 409.255 347 396 347H24C10.7452 347 0 336.255 0 323V24Z" fill="#3C4559"/>
<path d="M220.254 157.066C224.379 153.352 231.013 147.551 235.5 144.486H253.054L278.176 155.398L255.338 175.953L238.002 159C230.745 165.501 224.59 166.201 220.268 163.863C217.454 162.341 217.877 159.207 220.254 157.066Z" fill="#FFAA99"/>
<rect width="55.6018" height="69.5019" rx="5.56018" transform="matrix(0.857167 0.515038 -0.515036 0.857168 282.875 95.4512)" fill="#FFBD3C"/>
<ellipse cx="17.3472" cy="17.3653" rx="17.3472" ry="17.3653" transform="matrix(0.856661 0.51588 -0.514195 0.857673 282.43 115.707)" fill="white"/>
<path d="M286.071 130.617C286.664 129.63 287.945 129.311 288.932 129.904L296.081 134.2C297.068 134.793 297.387 136.074 296.794 137.061L289.277 149.571L278.553 143.128L286.071 130.617Z" fill="#D3DCE8"/>
<path d="M284.275 137.648C284.473 137.319 284.9 137.213 285.229 137.411L291.186 140.99C291.515 141.188 291.622 141.615 291.424 141.944C291.226 142.273 290.799 142.38 290.47 142.182L284.513 138.602C284.184 138.405 284.077 137.978 284.275 137.648Z" fill="#AEBED3"/>
<path d="M282.845 140.031C283.043 139.702 283.47 139.596 283.799 139.794L289.756 143.373C290.085 143.571 290.192 143.998 289.994 144.327C289.796 144.656 289.369 144.762 289.04 144.565L283.083 140.985C282.754 140.787 282.647 140.36 282.845 140.031Z" fill="#AEBED3"/>
<path d="M294.4 147.786C293.213 149.76 290.652 150.399 288.677 149.213C286.703 148.027 286.064 145.465 287.251 143.491C288.437 141.516 290.999 140.878 292.973 142.064C294.947 143.25 295.586 145.812 294.4 147.786Z" fill="#FFC960"/>
<path d="M291.789 144.902L291.744 144.891L291.789 144.903L291.44 146.168L292.407 145.225C292.484 145.15 292.572 145.118 292.66 145.12C292.752 145.122 292.841 145.161 292.915 145.23C292.994 145.301 293.032 145.388 293.033 145.477C293.034 145.564 292.998 145.653 292.922 145.729L292.889 145.696L292.921 145.73L292.419 146.203L292.727 146.388C292.81 146.438 292.865 146.517 292.887 146.603C292.909 146.69 292.897 146.785 292.848 146.868C292.798 146.95 292.72 147.005 292.633 147.026C292.546 147.047 292.451 147.035 292.368 146.986L291.892 146.699L291.253 147.3C291.175 147.375 291.091 147.412 291.009 147.424C290.91 147.438 290.816 147.414 290.738 147.37L290.737 147.369C290.654 147.32 290.585 147.25 290.547 147.158C290.515 147.078 290.506 146.985 290.534 146.877L290.579 146.888L290.534 146.876L290.915 145.539L289.905 146.491C289.825 146.567 289.737 146.604 289.652 146.614C289.551 146.626 289.453 146.599 289.375 146.551C289.297 146.504 289.229 146.435 289.192 146.343C289.16 146.265 289.151 146.173 289.177 146.067L289.222 146.078L289.178 146.066L289.414 145.211L288.918 144.913C288.835 144.863 288.78 144.784 288.758 144.698C288.736 144.611 288.747 144.516 288.797 144.433C288.846 144.351 288.925 144.296 289.012 144.275C289.099 144.254 289.194 144.265 289.277 144.315L289.607 144.514L289.781 143.883C289.81 143.775 289.87 143.7 289.947 143.655C290.027 143.609 290.125 143.598 290.229 143.626L290.23 143.626C290.331 143.658 290.418 143.709 290.472 143.784C290.523 143.857 290.546 143.95 290.516 144.064L290.471 144.052L290.516 144.066L290.122 145.372L291.062 144.484C291.143 144.407 291.23 144.37 291.316 144.36C291.416 144.348 291.513 144.375 291.593 144.423C291.669 144.469 291.736 144.538 291.773 144.629C291.805 144.706 291.815 144.798 291.789 144.902Z" fill="#E59119"/>
<path d="M291.134 133.659C290.969 133.56 290.756 133.613 290.657 133.777L290.12 134.671L289.226 134.134C289.062 134.035 288.848 134.089 288.75 134.253L288.392 134.849C288.293 135.013 288.346 135.227 288.511 135.326L289.404 135.863L288.867 136.756C288.768 136.921 288.822 137.134 288.986 137.233L289.582 137.591C289.746 137.69 289.96 137.637 290.059 137.472L290.596 136.579L291.489 137.115C291.654 137.214 291.867 137.161 291.966 136.997L292.324 136.401C292.423 136.236 292.37 136.023 292.205 135.924L291.312 135.387L291.849 134.493C291.947 134.329 291.894 134.115 291.73 134.017L291.134 133.659Z" fill="#47A985"/>
<path d="M199.746 157.066C195.621 153.352 188.987 147.551 184.5 144.486H166.946L141.824 155.398L164.662 175.953L181.998 159C189.255 165.501 195.41 166.201 199.732 163.863C202.546 162.341 202.123 159.207 199.746 157.066Z" fill="#FFAA99"/>
<rect width="55.6018" height="69.5019" rx="5.56018" transform="matrix(0.951056 0.309017 -0.309015 0.951057 244.312 83.0234)" fill="#1EA467"/>
<ellipse cx="17.3415" cy="17.371" rx="17.3415" ry="17.371" transform="matrix(0.950835 0.309698 -0.308335 0.951278 248.551 102.592)" fill="white"/>
<path d="M253.881 118.24C254.659 116.343 256.666 115.286 258.656 115.779C259.804 116.063 261.148 116.429 262.535 116.88C263.922 117.331 265.225 117.824 266.321 118.269C268.22 119.04 269.223 121.075 268.737 123.067C268.423 124.352 268.046 125.784 267.667 126.952C267.287 128.119 266.751 129.5 266.249 130.723C265.471 132.62 263.464 133.677 261.474 133.185C260.326 132.901 258.982 132.534 257.595 132.083C256.209 131.633 254.906 131.139 253.81 130.694C251.91 129.923 250.908 127.888 251.394 125.896C251.707 124.612 252.084 123.179 252.464 122.012C252.843 120.844 253.38 119.464 253.881 118.24Z" fill="#47A985"/>
<path fill-rule="evenodd" clip-rule="evenodd" d="M262.09 121.419L260.106 120.775L259.355 123.089L257.041 122.337L256.397 124.32L258.71 125.072L257.959 127.385L259.942 128.03L260.693 125.716L263.007 126.468L263.651 124.485L261.338 123.733L262.09 121.419Z" fill="white"/>
<rect width="55.6018" height="69.5019" rx="5.56018" transform="matrix(0.984808 0.173648 -0.173646 0.984808 209.797 74.4766)" fill="#9F95EA"/>
<ellipse cx="17.3381" cy="17.3743" rx="17.3381" ry="17.3743" transform="matrix(0.984742 0.174024 -0.173272 0.984874 216.766 93.3984)" fill="white"/>
<g clip-path="url(#clip0_6653_65928)">
<path d="M231.992 105.081C231.941 105.058 231.879 105.081 231.854 105.131L229.573 109.746C229.428 110.04 229.515 110.377 229.762 110.566L225.992 118.192C225.854 118.087 225.7 117.993 225.532 117.919C224.451 117.443 223.182 117.852 222.697 118.833C222.212 119.813 222.695 120.995 223.776 121.472C224.788 121.918 225.967 121.586 226.51 120.735L226.61 120.558L231.22 111.232L231.221 111.232L232.953 107.728C233.451 106.72 233.021 105.535 231.992 105.081ZM225.092 118.807C225.632 119.045 225.873 119.636 225.631 120.126C225.389 120.617 224.754 120.822 224.213 120.583C223.674 120.345 223.433 119.754 223.675 119.264C223.918 118.774 224.552 118.57 225.092 118.807Z" fill="#819EDE"/>
<path fill-rule="evenodd" clip-rule="evenodd" d="M228.006 106.563C227.884 105.51 228.726 104.598 229.886 104.526C229.944 104.522 229.996 104.562 230.002 104.615L230.604 109.82C230.641 110.139 230.44 110.422 230.131 110.53L231.126 119.134C231.298 119.082 231.48 119.049 231.671 119.037C232.889 118.961 233.981 119.797 234.109 120.903C234.236 122.009 233.352 122.966 232.134 123.042C230.916 123.117 229.824 122.282 229.696 121.176L228.006 106.563ZM233.006 120.971C233.07 121.524 232.628 122.003 232.018 122.041C231.409 122.078 230.864 121.661 230.8 121.108C230.736 120.555 231.178 120.076 231.787 120.038C232.396 120 232.942 120.418 233.006 120.971Z" fill="#5979C9"/>
<ellipse cx="229.528" cy="112.742" rx="0.492255" ry="0.492255" transform="rotate(10 229.528 112.742)" fill="#4B67B2"/>
<path d="M236.021 111.355L235.487 105.728C235.478 105.639 235.38 105.588 235.304 105.633L235.042 105.784C234.43 106.139 234.013 106.748 233.902 107.448C233.797 108.112 233.835 108.792 234.012 109.444L234.563 111.472L236.021 111.355Z" fill="#C9D0D6"/>
<path d="M236.106 111.347C236.228 111.337 236.338 111.424 236.356 111.546L237.868 121.893C237.999 122.788 237.353 123.599 236.453 123.671C235.552 123.743 234.763 123.047 234.723 122.145L234.264 111.714C234.258 111.591 234.35 111.488 234.472 111.478L236.106 111.347Z" fill="#8C98AA"/>
<rect width="0.648101" height="1.32905" rx="0.32405" transform="matrix(0.0944798 0.995527 -0.996794 0.0800091 235.996 112.637)" fill="#74859C"/>
<rect width="0.648101" height="1.32905" rx="0.32405" transform="matrix(0.0944798 0.995527 -0.996794 0.0800091 236.117 113.926)" fill="#74859C"/>
<rect width="0.648101" height="1.32905" rx="0.32405" transform="matrix(0.0944798 0.995527 -0.996794 0.0800091 236.242 115.217)" fill="#74859C"/>
</g>
<rect width="55.6018" height="69.5019" rx="5.56018" transform="matrix(0.984808 -0.173648 0.17365 0.984807 160.895 81.6562)" fill="#FF7D7D"/>
<ellipse cx="17.3381" cy="17.3743" rx="17.3381" ry="17.3743" transform="matrix(0.984742 -0.174022 0.173277 0.984873 173.984 96.957)" fill="white"/>
<path d="M200.645 105.002C198.484 103.489 195.505 104.014 193.992 106.175L193.848 106.381C193.689 106.609 193.375 106.664 193.148 106.505L192.941 106.36C190.78 104.847 187.802 105.372 186.289 107.533C184.776 109.694 185.301 112.673 187.462 114.186L195.222 119.618C195.599 119.882 196.119 119.791 196.383 119.413L201.818 111.655C203.331 109.494 202.806 106.515 200.645 105.002Z" fill="#F53F3F"/>
<path fill-rule="evenodd" clip-rule="evenodd" d="M194.005 108.916C194.182 108.885 194.36 108.971 194.445 109.13L196.185 112.385L196.795 109.741C196.836 109.566 196.984 109.436 197.163 109.42C197.342 109.403 197.512 109.503 197.584 109.669L198.165 111.006L199.21 110.821C199.437 110.781 199.653 110.933 199.693 111.16C199.733 111.387 199.582 111.603 199.355 111.643L197.986 111.884C197.796 111.918 197.608 111.817 197.531 111.64L197.323 111.161L196.748 113.656C196.709 113.825 196.569 113.953 196.396 113.976C196.224 113.999 196.055 113.912 195.974 113.759L194.31 110.647L193.811 114.14C193.786 114.312 193.658 114.451 193.488 114.488C193.318 114.526 193.143 114.454 193.048 114.308L191.577 112.042L191.482 112.737C191.458 112.916 191.32 113.06 191.142 113.091L189.773 113.332C189.546 113.372 189.33 113.221 189.29 112.994C189.25 112.767 189.401 112.551 189.628 112.511L190.697 112.323L190.902 110.817C190.925 110.644 191.054 110.504 191.224 110.466C191.394 110.428 191.57 110.499 191.665 110.646L193.142 112.922L193.664 109.268C193.69 109.09 193.827 108.948 194.005 108.916Z" fill="#FFFBE0"/>
<rect width="55.6018" height="69.5019" rx="5.56018" transform="matrix(0.939693 -0.34202 0.342022 0.939692 122.969 94.1035)" fill="#5CADD6"/>
<ellipse cx="17.3415" cy="17.371" rx="17.3415" ry="17.371" transform="matrix(0.939448 -0.342692 0.341352 0.939936 138.594 106.865)" fill="white"/>
<g clip-path="url(#clip1_6653_65928)">
<path d="M159.174 110.978C159.402 110.491 159.981 110.28 160.469 110.507L166.942 113.526C167.429 113.753 167.64 114.332 167.413 114.82C167.185 115.307 166.606 115.518 166.118 115.291L159.645 112.273C159.158 112.045 158.947 111.466 159.174 110.978Z" fill="#908F8E"/>
<path d="M161.999 107.998C162.226 107.51 162.805 107.3 163.293 107.527L167.412 109.448C167.899 109.675 168.11 110.254 167.883 110.742C167.656 111.229 167.076 111.44 166.589 111.213L162.47 109.292C161.982 109.065 161.771 108.485 161.999 107.998Z" fill="#908F8E"/>
<path d="M162.766 109.428L166.296 111.074L165.473 112.839L161.942 111.193L162.766 109.428Z" fill="#D0CFCE"/>
<path d="M157.629 123.512L158.806 124.061L157.159 127.591C157.008 127.916 156.622 128.057 156.297 127.905Lnan nanL156.297 127.905C155.972 127.754 155.831 127.367 155.982 127.042L157.629 123.512Z" fill="#908F8E"/>
<path d="M159.941 112.41L165.826 115.154L162.259 122.804C161.501 124.429 159.569 125.132 157.944 124.374Lnan nanL157.944 124.374C156.319 123.617 155.616 121.685 156.374 120.06L159.941 112.41Z" fill="#E5E4E3"/>
<mask id="mask0_6653_65928" style="mask-type:alpha" maskUnits="userSpaceOnUse" x="156" y="112" width="10" height="13">
<path d="M159.941 112.41L165.826 115.154L162.259 122.804C161.501 124.429 159.569 125.132 157.944 124.374Lnan nanL157.944 124.374C156.319 123.617 155.616 121.685 156.374 120.06L159.941 112.41Z" fill="#F0F0F0"/>
</mask>
<g mask="url(#mask0_6653_65928)">
<path d="M158.922 114.605L164.813 117.353L160.9 125.745L155.009 122.997L158.922 114.605Z" fill="#6AAFCE"/>
</g>
</g>
<rect width="55.6018" height="69.5019" rx="5.56018" transform="matrix(0.857167 -0.515038 0.51504 0.857166 90 123.65)" fill="#FF8F4C"/>
<ellipse cx="17.3472" cy="17.3653" rx="17.3472" ry="17.3653" transform="matrix(0.856661 -0.515879 0.514199 0.857671 107.844 133.172)" fill="white"/>
<g clip-path="url(#clip2_6653_65928)">
<path fill-rule="evenodd" clip-rule="evenodd" d="M135.245 131.52L139.537 138.664C140.961 141.034 140.194 144.109 137.825 145.533C135.455 146.956 132.38 146.19 130.957 143.82L130.003 142.232L131.439 141.37L132.393 142.957C133.34 144.533 135.386 145.043 136.962 144.096C138.538 143.149 139.048 141.104 138.101 139.527L133.808 132.383L135.245 131.52Z" fill="#908F8E"/>
<path d="M136.035 131.315C136.496 132.083 136.248 133.078 135.48 133.539C134.713 134 133.718 133.752 133.257 132.985C132.796 132.218 133.044 131.222 133.811 130.761C134.578 130.3 135.574 130.548 136.035 131.315Z" fill="#E5E4E3"/>
<path fill-rule="evenodd" clip-rule="evenodd" d="M134.244 131.479C133.873 131.701 133.753 132.182 133.976 132.553C134.198 132.924 134.679 133.043 135.05 132.821C135.421 132.598 135.541 132.117 135.318 131.746C135.095 131.376 134.614 131.256 134.244 131.479ZM132.54 133.416C131.84 132.252 132.217 130.742 133.381 130.042C134.545 129.343 136.055 129.72 136.754 130.884C137.453 132.047 137.077 133.558 135.913 134.257C134.749 134.956 133.239 134.58 132.54 133.416Z" fill="#5E5C5A"/>
<path fill-rule="evenodd" clip-rule="evenodd" d="M124.717 137.201C124.456 137.358 124.372 137.697 124.528 137.958L125.959 140.339C126.906 141.916 128.952 142.426 130.528 141.479C132.105 140.531 132.615 138.486 131.667 136.91L130.237 134.528C130.08 134.267 129.741 134.183 129.48 134.34L128.686 134.817C128.29 135.055 127.775 134.926 127.537 134.53C127.298 134.133 127.427 133.619 127.823 133.38L128.617 132.903C129.671 132.27 131.039 132.611 131.673 133.665L133.104 136.047C134.527 138.416 133.761 141.491 131.391 142.915C129.022 144.338 125.947 143.572 124.523 141.202L123.092 138.821C122.459 137.767 122.8 136.399 123.854 135.765L124.251 135.527C124.648 135.288 125.162 135.417 125.401 135.813C125.639 136.21 125.511 136.725 125.114 136.963L124.717 137.201Z" fill="#B4B3B2"/>
<ellipse cx="124.881" cy="136.127" rx="1.15761" ry="1.15761" transform="rotate(-31 124.881 136.127)" fill="#7E7C7A"/>
<ellipse cx="128.057" cy="134.218" rx="1.15761" ry="1.15761" transform="rotate(-31 128.057 134.218)" fill="#7E7C7A"/>
</g>
<path d="M191.185 182.643C189.07 175.976 183.625 165.015 183.219 156.305C182.521 141.34 168.219 137.349 168.219 144.334V172.301C168.219 172.805 167.563 173.001 167.287 172.58L160.573 162.346L139.003 175.301L147.284 197.073C148.089 199.984 150.737 202 153.757 202H188.14C194.23 198.759 192.708 187.284 191.185 182.643Z" fill="#FFC8BD"/>
<path d="M228.823 182.643C230.937 175.976 236.383 165.015 236.789 156.305C237.487 141.34 251.789 137.349 251.789 144.334V172.325C251.789 172.827 252.44 173.024 252.719 172.606L259.461 162.5L281.005 175.301L272.724 197.073C271.919 199.984 269.27 202 266.25 202H231.868C225.778 198.759 227.3 187.284 228.823 182.643Z" fill="#FFC8BD"/>
<path d="M30 46C30 34.9543 38.9543 26 50 26H93C104.046 26 113 34.9543 113 46C113 57.0457 104.046 66 93 66H50C38.9543 66 30 57.0457 30 46Z" fill="black" fill-opacity="0.5"/>
<path d="M55.144 40.832C55.144 42.512 55.528 43.936 56.296 45.12C57.032 46.208 57.912 47.152 58.968 47.92L57.992 48.784C56.968 48.048 56.008 47.024 55.096 45.744C54.872 45.456 54.632 45.088 54.408 44.624C54.184 45.136 53.944 45.568 53.72 45.92C52.968 47.072 52.008 48.128 50.84 49.104L49.784 48.208C50.84 47.424 51.736 46.448 52.504 45.296C53.304 44.096 53.704 42.56 53.704 40.704V38.816H55.144V40.832ZM62.04 37.76V51.776H60.648V43.552H57.08V42.32H60.648V37.76H62.04ZM66.9984 39.008V42.448H71.1104V39.008H72.5024V49.04H65.6064V39.008H66.9984ZM66.9984 43.664V47.808H71.1104V43.664H66.9984ZM76.8224 37.76V51.776H75.4304V37.76H76.8224ZM86.8528 39.728C86.8528 41.216 87.4288 42.48 88.6128 43.504C89.6048 44.4 90.8368 45.104 92.2768 45.6L91.4128 46.704C89.9728 46.224 88.6448 45.44 87.4288 44.352C86.8688 43.856 86.4208 43.344 86.0848 42.8C85.6688 43.44 85.2368 43.952 84.8048 44.352C83.6368 45.408 82.3088 46.192 80.8207 46.704L79.9568 45.6C81.3488 45.12 82.5648 44.448 83.6208 43.584C84.8048 42.592 85.3968 41.36 85.3968 39.888V38.656H86.8528V39.728ZM93.0288 49.248V50.496H79.2208V49.248H93.0288Z" fill="white"/>
<path d="M163.015 255.042C161.211 255.284 159.451 255.394 157.735 255.394H154.061V241.358H156.789V253.04H158.087C159.429 253.04 161.079 252.93 163.015 252.71V255.042ZM171.419 259.75H168.735V249.234H166.667V259.068H164.027V240.28H166.667V246.792H168.735V239.862H171.419V259.75ZM185.396 241.556V244.9H194.878V241.556H197.628V252.446H191.468V255.658H200.026V257.99H180.248V255.658H188.806V252.446H182.646V241.556H185.396ZM185.396 247.21V250.136H194.878V247.21H185.396ZM213.466 245.032H201.102V242.876H213.466V245.032ZM210.606 242.26H203.962V240.104H210.606V242.26ZM212.806 248.926C212.806 249.388 212.652 249.828 212.344 250.246C212.036 250.686 211.64 251.06 211.156 251.346C210.65 251.654 210.056 251.874 209.396 252.006C208.692 252.138 207.988 252.204 207.262 252.204C206.558 252.204 205.854 252.138 205.194 251.984C204.49 251.852 203.918 251.654 203.434 251.346C202.95 251.06 202.554 250.686 202.29 250.246C201.982 249.828 201.85 249.388 201.85 248.926C201.85 248.464 201.982 248.024 202.268 247.584C202.532 247.166 202.928 246.792 203.434 246.462C203.918 246.154 204.512 245.912 205.194 245.758C205.854 245.626 206.558 245.538 207.262 245.538C207.988 245.538 208.692 245.626 209.374 245.758C210.034 245.934 210.628 246.154 211.156 246.462C211.64 246.77 212.058 247.122 212.366 247.562C212.652 248.002 212.806 248.464 212.806 248.926ZM210.034 248.926C210.034 248.574 209.792 248.288 209.308 248.046C208.824 247.826 208.142 247.694 207.262 247.694C206.426 247.694 205.766 247.804 205.326 248.024C204.842 248.266 204.622 248.574 204.622 248.926C204.622 249.234 204.842 249.498 205.304 249.718C205.744 249.938 206.382 250.048 207.262 250.048C208.12 250.048 208.802 249.938 209.308 249.718C209.792 249.498 210.034 249.234 210.034 248.926ZM218.394 239.862V252.446H215.666V248.904H213.07V246.528H215.666V239.862H218.394ZM215.644 255.35H207.35V257.506H215.644V255.35ZM218.416 259.75H204.6V253.128H218.416V259.75ZM230.105 249.168V240.456H232.855V242.766H242.337V240.456H245.087V249.168H230.105ZM242.337 246.902V245.01H232.855V246.902H242.337ZM247.485 250.246V252.556H239.059V256.054H236.353V252.556H227.707V250.246H247.485ZM245.131 259.75H230.105V253.898H232.855V257.44H245.131V259.75ZM256.173 242.766C256.173 244.482 256.723 245.89 257.823 247.012C258.725 247.936 259.957 248.838 261.519 249.718L259.891 251.456C258.131 250.532 256.701 249.498 255.645 248.398C255.271 248.046 254.985 247.738 254.809 247.474C254.589 247.848 254.303 248.244 253.929 248.662C252.719 250.048 251.311 251.17 249.727 252.006L248.011 250.268C249.529 249.432 250.761 248.464 251.729 247.364C252.829 246.132 253.401 244.702 253.401 243.03V240.654H256.173V242.766ZM265.853 239.862V251.962H263.125V246.682H258.769V244.35H263.125V239.862H265.853ZM251.817 252.622H265.875V260.168H263.103V254.932H251.817V252.622Z" fill="white"/>
<path d="M153.424 285.384C152.304 285.528 151.152 285.592 150 285.592H147.504V275.848H148.912V284.36H149.968C151.088 284.36 152.24 284.296 153.424 284.136V285.384ZM159.552 288.776H158.176V281.128H156.112V288.28H154.736V275.064H156.112V279.816H158.176V274.76H159.552V288.776ZM169.717 276.008V278.424H177.189V276.008H178.613V283.448H174.149V286.248H180.357V287.496H166.549V286.248H172.757V283.448H168.293V276.008H169.717ZM169.717 279.64V282.232H177.189V279.64H169.717ZM190.115 278.088H181.731V276.92H190.115V278.088ZM188.035 276.104H183.795V274.936H188.035V276.104ZM189.635 281.112C189.635 281.432 189.539 281.72 189.347 281.992C189.139 282.28 188.883 282.52 188.563 282.712C188.211 282.92 187.811 283.064 187.363 283.16C186.899 283.256 186.419 283.304 185.907 283.304C185.411 283.304 184.931 283.256 184.483 283.144C184.019 283.048 183.635 282.904 183.315 282.712C182.995 282.52 182.739 282.28 182.563 281.992C182.371 281.72 182.275 281.432 182.275 281.112C182.275 280.808 182.355 280.52 182.547 280.232C182.723 279.976 182.979 279.72 183.315 279.496C183.651 279.272 184.051 279.112 184.499 279.016C184.947 278.936 185.411 278.888 185.907 278.888C186.419 278.888 186.899 278.936 187.363 279.032C187.811 279.128 188.211 279.288 188.563 279.496C188.883 279.704 189.155 279.944 189.347 280.216C189.539 280.504 189.635 280.808 189.635 281.112ZM188.227 281.112C188.227 280.792 188.003 280.52 187.587 280.312C187.155 280.12 186.595 280.024 185.907 280.024C185.235 280.024 184.691 280.12 184.291 280.312C183.875 280.504 183.683 280.776 183.683 281.112C183.683 281.416 183.875 281.672 184.275 281.864C184.659 282.072 185.203 282.168 185.907 282.168C186.579 282.168 187.139 282.072 187.587 281.864C188.003 281.672 188.227 281.432 188.227 281.112ZM193.731 274.76V283.448H192.307V280.888H190.291V279.608H192.307V274.76H193.731ZM192.307 285.576H185.683V287.608H192.307V285.576ZM193.731 288.776H184.259V284.408H193.731V288.776ZM202.809 281.08V275.192H204.233V276.872H211.705V275.192H213.129V281.08H202.809ZM211.705 279.896V278.04H204.233V279.896H211.705ZM214.873 282.312V283.528H208.793V286.088H207.369V283.528H201.065V282.312H214.873ZM213.161 288.776H202.809V284.968H204.233V287.56H213.161V288.776ZM221.191 276.808C221.191 278.024 221.607 279.048 222.439 279.896C223.143 280.6 224.007 281.208 225.015 281.752L224.135 282.664C223.095 282.136 222.167 281.464 221.335 280.632C221.047 280.36 220.759 280.024 220.503 279.608C220.183 280.104 219.895 280.488 219.639 280.776C218.743 281.768 217.799 282.536 216.839 283.048L215.927 282.152C216.919 281.608 217.767 280.936 218.487 280.12C219.319 279.208 219.751 278.168 219.751 276.984V275.336H221.191V276.808ZM228.247 274.76V283.112H226.823V279.272H223.639V278.024H226.823V274.76H228.247ZM218.615 284.04H228.247V289.064H226.823V285.256H218.615V284.04ZM237.877 279.08H230.709V277.816H237.877V279.08ZM236.245 276.728H232.341V275.464H236.245V276.728ZM237.749 283.176C237.749 283.608 237.653 284.008 237.477 284.376C237.285 284.76 237.045 285.08 236.757 285.368C236.437 285.656 236.085 285.864 235.685 286.008C235.269 286.168 234.837 286.248 234.389 286.248C233.925 286.248 233.493 286.168 233.093 286.008C232.677 285.864 232.309 285.656 232.021 285.368C231.717 285.08 231.477 284.76 231.301 284.376C231.109 284.008 231.029 283.608 231.029 283.176C231.029 282.76 231.109 282.36 231.301 281.976C231.477 281.624 231.717 281.288 232.021 281C232.309 280.712 232.677 280.488 233.093 280.328C233.493 280.184 233.925 280.104 234.389 280.104C234.837 280.104 235.269 280.184 235.685 280.328C236.085 280.488 236.437 280.712 236.757 281C237.045 281.288 237.285 281.624 237.477 281.976C237.653 282.36 237.749 282.76 237.749 283.176ZM236.373 283.176C236.373 282.664 236.181 282.216 235.797 281.832C235.397 281.48 234.933 281.288 234.389 281.288C233.829 281.288 233.365 281.48 232.981 281.832C232.597 282.216 232.405 282.664 232.405 283.176C232.405 283.688 232.597 284.136 232.981 284.488C233.365 284.872 233.829 285.048 234.389 285.048C234.933 285.048 235.397 284.872 235.797 284.488C236.181 284.136 236.373 283.688 236.373 283.176ZM243.397 288.776H242.021V281.784H240.437V288.28H239.061V275.064H240.437V280.472H242.021V274.76H243.397V288.776ZM248.436 276.008V278.424H255.908V276.008H257.332V283.448H252.868V286.248H259.076V287.496H245.268V286.248H251.476V283.448H247.012V276.008H248.436ZM248.436 279.64V282.232H255.908V279.64H248.436ZM272.066 276.008V278.984C272.066 280.808 271.826 282.568 271.362 284.264H269.938C270.402 282.824 270.642 281.096 270.642 279.112V277.24H261.698V276.008H272.066ZM273.81 287.496H260.002V286.248H265.298V281.096H266.706V286.248H273.81V287.496ZM126.41 305.784V299.352H127.834V301.256H135.306V299.352H136.73V305.784H126.41ZM135.306 304.552V302.472H127.834V304.552H135.306ZM138.474 307.448V308.696H132.282V312.936H130.858V308.696H124.666V307.448H138.474ZM151.48 300.536H147.016C147.192 301.24 147.72 301.864 148.6 302.408C149.544 303.016 150.712 303.496 152.088 303.832L151.32 304.808C149.912 304.52 148.664 304.008 147.608 303.272C147.128 302.968 146.696 302.584 146.28 302.104C145.928 302.536 145.496 302.92 144.968 303.272C143.912 303.96 142.68 304.472 141.256 304.808L140.472 303.8C141.768 303.496 142.92 303.032 143.944 302.424C144.84 301.912 145.368 301.272 145.56 300.536H141.128V299.336H151.48V300.536ZM153.208 307.192H139.4V305.96H145.592V303.928H147.016V305.96H153.208V307.192ZM151.464 313.064H150.04V309.8H141.032V308.6H151.464V313.064ZM162.807 302.328H154.407V301.112H162.807V302.328ZM160.727 300.152H156.487V298.936H160.727V300.152ZM162.343 305.688C162.343 306.024 162.247 306.36 162.055 306.68C161.847 307.032 161.575 307.304 161.255 307.512C160.919 307.768 160.519 307.944 160.071 308.056C159.607 308.184 159.127 308.232 158.615 308.232C158.135 308.232 157.655 308.184 157.207 308.056C156.743 307.944 156.343 307.768 156.023 307.512C155.671 307.304 155.415 307.032 155.239 306.68C155.047 306.36 154.967 306.024 154.967 305.688C154.967 305.352 155.047 305.016 155.239 304.68C155.415 304.36 155.671 304.088 156.023 303.864C156.343 303.64 156.743 303.448 157.207 303.304C157.655 303.176 158.135 303.112 158.615 303.112C159.127 303.112 159.607 303.176 160.071 303.304C160.519 303.448 160.919 303.64 161.255 303.864C161.575 304.088 161.847 304.36 162.055 304.68C162.247 305.016 162.343 305.352 162.343 305.688ZM160.919 305.688C160.919 305.32 160.695 305 160.279 304.712C159.831 304.456 159.287 304.312 158.615 304.312C157.943 304.312 157.399 304.456 156.999 304.712C156.583 305 156.391 305.32 156.391 305.688C156.391 306.072 156.583 306.376 156.999 306.632C157.399 306.904 157.943 307.032 158.615 307.032C159.287 307.032 159.831 306.904 160.279 306.632C160.695 306.376 160.919 306.056 160.919 305.688ZM165.863 309.368H164.455V298.76H165.863V303.464H167.959V304.76H165.863V309.368ZM166.263 312.776H156.487V309.224H157.927V311.56H166.263V312.776ZM177.084 300.008V302.424H184.556V300.008H185.98V307.448H181.516V310.248H187.724V311.496H173.916V310.248H180.124V307.448H175.66V300.008H177.084ZM177.084 303.64V306.232H184.556V303.64H177.084ZM193.834 301.272C193.834 302.296 194.25 303.24 195.098 304.104C195.722 304.776 196.538 305.352 197.562 305.848L196.73 306.776C195.738 306.328 194.81 305.656 193.946 304.76C193.69 304.552 193.418 304.232 193.13 303.816C192.97 304.168 192.65 304.584 192.202 305.032C191.338 305.928 190.442 306.632 189.498 307.176L188.57 306.248C189.562 305.688 190.394 305.064 191.034 304.376C191.946 303.448 192.41 302.408 192.41 301.272V300.856H189.258V299.656H196.938V300.856H193.834V301.272ZM200.378 307.24H198.97V298.76H200.378V302.312H202.474V303.592H200.378V307.24ZM199.354 310.376C199.354 310.152 199.242 309.928 199.05 309.72C198.826 309.528 198.57 309.368 198.282 309.24C197.962 309.112 197.546 309.016 197.066 308.92C196.57 308.84 196.09 308.792 195.61 308.792C195.114 308.792 194.618 308.84 194.122 308.92C193.61 309.016 193.21 309.112 192.938 309.24C192.618 309.4 192.378 309.56 192.202 309.752C192.01 309.944 191.914 310.152 191.914 310.376C191.914 310.6 191.994 310.808 192.186 311.016C192.346 311.24 192.602 311.4 192.938 311.528C193.29 311.656 193.69 311.752 194.17 311.816C194.634 311.88 195.114 311.912 195.61 311.912C196.09 311.912 196.57 311.88 197.05 311.816C197.514 311.752 197.93 311.656 198.282 311.528C198.602 311.4 198.874 311.24 199.066 311.016C199.258 310.808 199.354 310.6 199.354 310.376ZM200.778 310.376C200.778 310.792 200.65 311.176 200.394 311.496C200.138 311.832 199.786 312.12 199.338 312.376C198.89 312.648 198.33 312.84 197.658 312.952C196.97 313.08 196.282 313.144 195.61 313.144C194.906 313.144 194.234 313.08 193.578 312.952C192.906 312.84 192.346 312.648 191.898 312.392C191.45 312.136 191.098 311.832 190.858 311.496C190.602 311.176 190.49 310.792 190.49 310.376C190.49 309.96 190.602 309.576 190.858 309.24C191.098 308.92 191.45 308.616 191.898 308.36C192.346 308.104 192.906 307.896 193.578 307.768C194.234 307.64 194.906 307.576 195.61 307.576C196.282 307.576 196.97 307.64 197.658 307.768C198.33 307.896 198.89 308.104 199.338 308.36C199.77 308.616 200.122 308.92 200.394 309.24C200.65 309.592 200.778 309.96 200.778 310.376ZM215.497 301.496C215.497 302.264 215.033 302.872 214.121 303.304C213.193 303.752 211.913 303.96 210.265 303.96C208.633 303.96 207.353 303.752 206.457 303.304C205.529 302.872 205.081 302.264 205.081 301.496C205.081 300.728 205.529 300.104 206.441 299.64C207.337 299.192 208.617 298.968 210.265 298.968C211.897 298.968 213.177 299.192 214.105 299.64C215.033 300.088 215.497 300.712 215.497 301.496ZM210.265 300.12C209.033 300.12 208.105 300.248 207.481 300.504C206.841 300.776 206.521 301.112 206.521 301.496C206.521 301.896 206.841 302.216 207.481 302.44C208.121 302.696 209.049 302.808 210.265 302.808C211.497 302.808 212.441 302.696 213.097 302.44C213.737 302.216 214.057 301.896 214.057 301.496C214.057 301.096 213.737 300.76 213.097 300.504C212.457 300.248 211.513 300.12 210.265 300.12ZM217.193 304.808V305.992H203.385V304.808H217.193ZM215.625 312.776H205.113V309.432H214.009V308.296H205.113V307.192H215.465V310.52H206.569V311.656H215.625V312.776ZM230.734 302.504C230.734 302.952 230.638 303.368 230.446 303.768C230.238 304.184 229.966 304.536 229.63 304.824C229.278 305.128 228.894 305.368 228.446 305.528C227.998 305.704 227.518 305.784 227.022 305.784C226.526 305.784 226.062 305.704 225.614 305.528C225.15 305.368 224.75 305.128 224.414 304.824C224.094 304.536 223.838 304.184 223.646 303.768C223.438 303.368 223.342 302.952 223.342 302.504C223.342 302.056 223.438 301.624 223.646 301.208C223.838 300.808 224.094 300.456 224.414 300.168C224.734 299.88 225.134 299.64 225.598 299.448C226.046 299.288 226.526 299.192 227.022 299.192C227.518 299.192 227.998 299.288 228.446 299.448C228.894 299.64 229.278 299.88 229.63 300.168C229.966 300.488 230.238 300.84 230.446 301.224C230.638 301.64 230.734 302.056 230.734 302.504ZM229.31 302.504C229.31 301.944 229.086 301.448 228.654 301.016C228.206 300.6 227.662 300.392 227.022 300.392C226.382 300.392 225.854 300.6 225.422 301.016C224.974 301.448 224.766 301.944 224.766 302.504C224.766 303.08 224.974 303.56 225.422 303.96C225.854 304.376 226.382 304.584 227.022 304.584C227.662 304.584 228.206 304.376 228.654 303.96C229.086 303.56 229.31 303.08 229.31 302.504ZM234.894 306.04H233.486V298.76H234.894V301.848H236.99V303.128H234.894V306.04ZM235.182 312.776H225.63V309.208H233.47V307.944H225.63V306.808H234.91V310.328H227.07V311.624H235.182V312.776ZM238.364 305.032C238.364 303.592 238.716 302.36 239.436 301.304C240.172 300.264 241.052 299.736 242.108 299.736C243.132 299.736 244.012 300.264 244.78 301.304C245.516 302.328 245.884 303.576 245.884 305.032C245.884 306.472 245.516 307.704 244.78 308.744C244.06 309.768 243.164 310.28 242.108 310.28C241.052 310.28 240.172 309.768 239.436 308.744C238.716 307.72 238.364 306.488 238.364 305.032ZM239.756 305.032C239.756 306.072 239.948 306.984 240.364 307.784C240.844 308.632 241.436 309.048 242.108 309.048C242.764 309.048 243.34 308.632 243.836 307.784C244.268 306.968 244.492 306.056 244.492 305.032C244.492 303.96 244.268 303.048 243.852 302.28C243.34 301.416 242.748 300.968 242.108 300.968C241.404 300.968 240.828 301.416 240.364 302.28C239.948 303.08 239.756 304.008 239.756 305.032ZM249.42 298.76V303.896H251.74V305.224H249.42V312.776H247.996V298.76H249.42ZM255.803 300.008V302.424H263.275V300.008H264.699V307.448H260.235V310.248H266.443V311.496H252.635V310.248H258.843V307.448H254.379V300.008H255.803ZM255.803 303.64V306.232H263.275V303.64H255.803ZM271.769 302.216C271.769 303.528 272.041 304.744 272.585 305.832C273.225 307.048 273.993 308.104 274.921 309.016L273.913 309.768C272.889 308.76 272.041 307.592 271.385 306.28L271.113 305.688L270.809 306.296C270.041 307.832 269.209 309.08 268.281 310.056L267.145 309.288C268.073 308.328 268.873 307.192 269.529 305.88C270.073 304.824 270.361 303.64 270.361 302.328V299.816H271.769V302.216ZM280.201 312.776H278.809V298.76H280.201V312.776ZM275.705 299.064H277.081V312.28H275.705V304.856H273.353V303.592H275.705V299.064ZM294.2 303.528C294.2 304.04 294.056 304.536 293.784 305C293.496 305.48 293.096 305.896 292.6 306.248C292.12 306.6 291.576 306.84 290.984 306.984C290.376 307.144 289.704 307.208 288.968 307.208C288.248 307.208 287.592 307.128 287.016 306.968C286.408 306.824 285.864 306.584 285.368 306.248C284.888 305.928 284.504 305.528 284.232 305.032C283.944 304.552 283.816 304.04 283.816 303.528C283.816 303.016 283.944 302.52 284.2 302.04C284.456 301.592 284.84 301.176 285.368 300.824C285.848 300.504 286.392 300.248 287 300.072C287.592 299.912 288.248 299.832 288.968 299.832C289.704 299.832 290.376 299.912 290.984 300.072C291.576 300.248 292.12 300.504 292.6 300.824C293.112 301.176 293.496 301.592 293.784 302.04C294.056 302.52 294.2 303.016 294.2 303.528ZM292.76 303.528C292.76 303.208 292.648 302.872 292.456 302.552C292.248 302.248 291.976 301.976 291.64 301.736C291.272 301.496 290.872 301.32 290.44 301.208C289.992 301.112 289.512 301.064 288.968 301.064C288.392 301.064 287.912 301.112 287.496 301.208C287.08 301.32 286.68 301.496 286.328 301.736C285.976 301.976 285.72 302.248 285.544 302.536C285.352 302.856 285.256 303.176 285.256 303.528C285.256 303.88 285.352 304.216 285.544 304.52C285.72 304.84 285.992 305.112 286.344 305.32C286.696 305.544 287.08 305.704 287.512 305.8C287.928 305.912 288.408 305.96 288.968 305.96C289.512 305.96 290.008 305.912 290.456 305.8C290.904 305.704 291.288 305.544 291.624 305.32C291.96 305.096 292.232 304.84 292.456 304.52C292.648 304.216 292.76 303.88 292.76 303.528ZM295.912 310.248V311.496H282.104V310.248H285.16V307.56H286.552V310.248H291.464V307.56H292.84V310.248H295.912Z" fill="#F5F5F5"/>
<defs>
<clipPath id="clip0_6653_65928">
<rect width="22.2407" height="22.2407" fill="white" transform="translate(222.805 100.766) rotate(10)"/>
</clipPath>
<clipPath id="clip1_6653_65928">
<rect width="22.2407" height="22.2407" fill="white" transform="translate(147.379 110.365) rotate(-20)"/>
</clipPath>
<clipPath id="clip2_6653_65928">
<rect width="22.2407" height="22.2407" fill="white" transform="translate(117.422 135.553) rotate(-31)"/>
</clipPath>
</defs>
</svg>
