<svg width="420" height="346" viewBox="0 0 420 346" fill="none" xmlns="http://www.w3.org/2000/svg">
<path d="M0 24C0 10.7452 10.7452 0 24 0H396C409.255 0 420 10.7452 420 24V322C420 335.255 409.255 346 396 346H24C10.7452 346 0 335.255 0 322V24Z" fill="#181A21"/>
<g clip-path="url(#clip0_7755_82931)">
<path d="M218.317 196.961V185.385H314.289C313.911 187.117 313.411 188.81 312.793 190.461H260.533V196.961H218.317ZM218.317 177.368V165.793H313.347C313.922 167.419 314.359 169.114 314.665 170.868H260.531V177.368H218.315H218.317ZM218.317 157.78V146.202H291.778C295.796 147.448 299.318 149.139 302.341 151.278H260.534V157.78H218.319H218.317ZM218.317 138.187V126.612H307.833C307.347 128.336 306.694 130.029 305.877 131.685H260.533V138.187H218.317ZM218.317 99.0077V86H266.418C276.203 86 284.055 87.2834 289.991 89.8804C291.71 90.6362 293.319 91.5106 294.821 92.5019H260.533V99.0058H218.317V99.0077ZM218.317 118.598V107.021H306.54C307.233 108.687 307.772 110.379 308.163 112.094H260.534V118.598H218.319H218.317ZM218.317 214.19V204.974H302.893C302.584 205.231 302.271 205.476 301.955 205.715C299.682 207.407 297.055 208.855 294.081 210.051H260.533V214.19H218.317Z" fill="white"/>
<path d="M105 190.461V185.385H200.973C200.336 188.299 199.357 191.098 198.038 193.78C197.49 194.895 196.913 195.954 196.31 196.961H149.228V190.461H105ZM105 170.868V165.793H200.03C201.248 169.242 201.858 172.983 201.858 177.008V177.368H149.227V170.868H105ZM105 151.278V146.202H178.461C185.858 148.496 191.578 152.301 195.59 157.614L195.714 157.778H149.227V151.276H105V151.278ZM105 131.685V126.612H194.516C193.775 129.241 192.65 131.789 191.146 134.25C190.298 135.639 189.324 136.953 188.221 138.187H149.227V131.685H105ZM105 92.5019V86H153.099C162.884 86 170.736 87.2834 176.672 89.8804C181.482 91.995 185.439 95.0368 188.549 99.0077H149.227V92.5038H105V92.5019ZM105 112.094V107.021H193.223C194.778 110.756 195.564 114.616 195.588 118.598H149.227V112.094H105ZM105 210.051V204.974H189.576C189.267 205.231 188.956 205.476 188.638 205.715C184.906 208.491 180.223 210.611 174.612 212.042C168.974 213.474 162.08 214.19 153.904 214.19H149.225V210.051H105Z" fill="white"/>
</g>
<path d="M96.7229 259.794C96.7229 257.682 97.1189 255.944 97.9109 254.58C98.8349 253.018 100.001 252.226 101.431 252.226C102.839 252.226 104.005 253.018 104.929 254.58C105.061 254.822 105.193 255.064 105.325 255.328H107.745V251.28H110.363V270.068H107.745V264.238H105.325C105.193 264.502 105.061 264.744 104.929 265.008C104.071 266.548 102.883 267.318 101.387 267.318C100.045 267.318 98.9009 266.57 97.9329 265.052C97.1189 263.644 96.7229 261.906 96.7229 259.794ZM106.007 257.638C106.095 258.298 106.161 259.024 106.161 259.794C106.161 260.542 106.095 261.246 105.985 261.928H107.745V257.638H106.007ZM99.3629 259.794C99.3629 261.158 99.5609 262.368 100.001 263.446C100.397 264.458 100.859 264.942 101.387 264.942C101.959 264.942 102.443 264.458 102.861 263.446C103.301 262.324 103.521 261.114 103.521 259.794C103.521 258.43 103.301 257.22 102.861 256.142C102.443 255.13 101.959 254.602 101.431 254.602C100.881 254.602 100.397 255.13 100.001 256.142C99.5609 257.242 99.3629 258.474 99.3629 259.794ZM114.455 270.75H111.771V250.862H114.455V270.75ZM127.565 251.698C127.565 252.842 128.291 253.876 129.743 254.844C130.953 255.636 132.691 256.23 134.979 256.626L133.549 258.518C131.459 258.298 129.523 257.616 127.741 256.472C127.037 256.054 126.487 255.636 126.135 255.196C125.827 255.592 125.299 256.01 124.551 256.494C122.835 257.638 120.899 258.32 118.743 258.496L117.313 256.626C119.601 256.208 121.361 255.614 122.549 254.844C124.023 253.898 124.771 252.842 124.771 251.698V250.928H127.565V251.698ZM136.057 259.134V261.378H127.521V262.5H133.659V267.626H121.427V268.726H133.901V270.75H118.677V265.668H130.909V264.546H118.677V262.5H124.815V261.378H116.279V259.134H136.057ZM149.584 257.286C149.584 258.012 149.408 258.694 149.1 259.354C148.77 260.014 148.33 260.586 147.802 261.07C147.274 261.532 146.658 261.906 145.932 262.192C145.184 262.5 144.414 262.632 143.622 262.632C142.83 262.632 142.06 262.5 141.356 262.192C140.608 261.906 139.992 261.532 139.508 261.07C138.936 260.586 138.518 260.014 138.232 259.354C137.924 258.694 137.792 258.012 137.792 257.286C137.792 256.56 137.924 255.856 138.232 255.196C138.518 254.558 138.936 253.986 139.508 253.48C139.992 253.04 140.608 252.666 141.356 252.358C142.06 252.094 142.83 251.94 143.622 251.94C144.414 251.94 145.184 252.094 145.932 252.358C146.658 252.666 147.274 253.04 147.802 253.48C148.33 253.986 148.77 254.558 149.1 255.196C149.408 255.856 149.584 256.56 149.584 257.286ZM146.834 257.286C146.834 256.89 146.746 256.516 146.57 256.142C146.372 255.79 146.13 255.46 145.866 255.196C145.558 254.932 145.228 254.734 144.876 254.558C144.48 254.426 144.084 254.338 143.644 254.338C143.204 254.338 142.808 254.426 142.434 254.558C142.038 254.734 141.708 254.932 141.444 255.196C141.136 255.46 140.916 255.79 140.762 256.142C140.586 256.516 140.498 256.89 140.498 257.286C140.498 257.704 140.586 258.1 140.762 258.452C140.916 258.826 141.136 259.134 141.444 259.376C141.708 259.662 142.038 259.882 142.434 260.014C142.808 260.168 143.204 260.234 143.644 260.234C144.084 260.234 144.48 260.168 144.876 260.014C145.228 259.882 145.558 259.662 145.866 259.376C146.13 259.134 146.372 258.826 146.57 258.452C146.746 258.1 146.834 257.704 146.834 257.286ZM141.84 265.206C145.316 265.206 148.55 265.03 151.542 264.678V267.01C148.682 267.362 145.382 267.538 141.686 267.538H136.538V265.206H141.84ZM154.908 270.75H152.18V250.862H154.908V270.75ZM172.12 254.976C172.12 256.384 172.67 257.726 173.814 258.958C174.65 259.926 175.86 260.806 177.422 261.642L175.728 263.38C173.924 262.412 172.538 261.334 171.548 260.168C171.196 259.772 170.932 259.442 170.756 259.2C170.558 259.508 170.272 259.904 169.898 260.366C168.71 261.708 167.324 262.852 165.718 263.776L163.914 262.082C165.432 261.158 166.664 260.168 167.632 259.09C168.776 257.836 169.348 256.472 169.348 254.976V254.404H165.014V252.094H176.388V254.404H172.12V254.976ZM181.624 250.862V266.064H178.896V258.034H174.738V255.658H178.896V250.862H181.624ZM182.196 270.75H167.654V264.172H170.426V268.418H182.196V270.75ZM197.087 261.488C194.733 261.708 192.335 261.818 189.893 261.818H185.119V252.094H195.371V254.404H187.891V259.508H190.179C192.423 259.508 194.711 259.398 197.087 259.156V261.488ZM200.915 263.138H198.187V250.862H200.915V255.68H203.643V258.1H200.915V263.138ZM198.715 267.164C198.715 266.878 198.605 266.636 198.385 266.416C198.165 266.24 197.835 266.042 197.439 265.866C197.021 265.69 196.493 265.558 195.877 265.426C195.217 265.316 194.579 265.25 193.963 265.25C193.303 265.25 192.665 265.316 192.005 265.426C191.345 265.558 190.839 265.69 190.487 265.866C190.091 266.064 189.805 266.262 189.607 266.438C189.387 266.636 189.277 266.878 189.277 267.164C189.277 267.428 189.387 267.67 189.607 267.868C189.805 268.088 190.091 268.286 190.487 268.462C190.883 268.638 191.411 268.77 192.049 268.836C192.665 268.924 193.303 268.968 193.963 268.968C194.579 268.968 195.217 268.924 195.877 268.836C196.515 268.748 197.043 268.638 197.439 268.462C197.857 268.286 198.187 268.088 198.407 267.868C198.605 267.67 198.715 267.428 198.715 267.164ZM201.487 267.164C201.487 267.78 201.289 268.352 200.893 268.836C200.497 269.364 199.969 269.804 199.353 270.178C198.649 270.552 197.835 270.816 196.867 270.97C195.899 271.146 194.931 271.234 193.963 271.234C192.973 271.234 192.005 271.146 191.059 270.97C190.091 270.816 189.277 270.552 188.595 270.178C187.935 269.804 187.429 269.364 187.077 268.836C186.703 268.33 186.527 267.78 186.527 267.164C186.527 266.548 186.703 265.976 187.077 265.448C187.429 264.942 187.935 264.502 188.595 264.128C189.255 263.754 190.091 263.468 191.059 263.27C192.005 263.094 192.973 263.006 193.963 263.006C194.931 263.006 195.899 263.094 196.889 263.27C197.857 263.468 198.671 263.754 199.353 264.128C199.969 264.502 200.497 264.942 200.893 265.448C201.289 265.976 201.487 266.548 201.487 267.164ZM216.257 269.452V255.922L214.937 256.868L213.617 254.976L216.675 252.644H219.073V269.452H216.257ZM229.298 269.452V255.922L227.978 256.868L226.658 254.976L229.716 252.644H232.114V269.452H229.298ZM245.485 255.174C245.485 257.704 245.991 259.684 247.047 261.136C247.927 262.544 249.203 263.864 250.853 265.14L249.027 266.812C247.355 265.58 245.925 264.084 244.715 262.302C244.451 261.884 244.253 261.576 244.121 261.356C243.989 261.664 243.769 262.038 243.461 262.522C242.185 264.458 240.755 266.02 239.193 267.23L237.235 265.536C238.863 264.26 240.139 262.874 241.107 261.378C242.163 259.794 242.713 257.66 242.713 254.976V252.314H245.485V255.174ZM255.033 250.862V270.75H252.327V250.862H255.033ZM281.858 251.698V254.756C281.858 256.824 281.528 258.826 280.912 260.784H278.162C278.514 259.684 278.756 258.672 278.91 257.792C277.062 257.924 274.576 257.99 271.496 257.99H266.722V255.724H271.452C274.642 255.724 277.216 255.68 279.152 255.548V253.986H267.008V251.698H281.858ZM284.256 263.798H264.478V261.488H271.76V258.672H274.488V261.488H284.256V263.798ZM281.902 270.75H266.876V265.052H269.626V268.418H281.902V270.75ZM292.944 255.174C292.944 257.704 293.45 259.684 294.506 261.136C295.386 262.544 296.662 263.864 298.312 265.14L296.486 266.812C294.814 265.58 293.384 264.084 292.174 262.302C291.91 261.884 291.712 261.576 291.58 261.356C291.448 261.664 291.228 262.038 290.92 262.522C289.644 264.458 288.214 266.02 286.652 267.23L284.694 265.536C286.322 264.26 287.598 262.874 288.566 261.378C289.622 259.794 290.172 257.66 290.172 254.976V252.314H292.944V255.174ZM302.426 250.862V270.75H299.72V259.442H294.836V257.11H299.72V250.862H302.426ZM307.395 263.93V252.578H322.377V254.888H310.145V257.066H322.245V259.376H310.145V261.598H322.619V263.93H307.395ZM324.775 266.658V268.99H304.997V266.658H324.775Z" fill="white"/>
<path d="M114.832 286.368V288.464C114.832 289.872 114.624 291.232 114.208 292.528H112.816C113.008 291.904 113.184 291.168 113.328 290.32C111.744 290.448 109.872 290.496 107.728 290.496H104.416V289.312H107.696C109.92 289.312 111.84 289.264 113.44 289.168V287.584H104.608V286.368H114.832ZM116.576 294.72H102.768V293.488H108.064V291.36H109.472V293.488H116.576V294.72ZM114.864 299.776H104.512V296.08H105.936V298.544H114.864V299.776ZM122.894 288.832C122.894 290.512 123.278 291.936 124.046 293.12C124.782 294.208 125.662 295.152 126.718 295.92L125.742 296.784C124.718 296.048 123.758 295.024 122.846 293.744C122.622 293.456 122.382 293.088 122.158 292.624C121.934 293.136 121.694 293.568 121.47 293.92C120.718 295.072 119.758 296.128 118.59 297.104L117.534 296.208C118.59 295.424 119.486 294.448 120.254 293.296C121.054 292.096 121.454 290.56 121.454 288.704V286.816H122.894V288.832ZM129.79 285.76V299.776H128.398V291.552H124.83V290.32H128.398V285.76H129.79ZM133.98 294.816V287.024H144.3V288.24H135.404V290.288H144.204V291.504H135.404V293.584H144.46V294.816H133.98ZM146.044 297.248V298.496H132.236V297.248H146.044ZM164.146 289.952H159.65C159.858 290.816 160.386 291.552 161.234 292.16C162.21 292.864 163.394 293.408 164.802 293.792L164.018 294.816C162.642 294.448 161.394 293.856 160.29 293.04C159.762 292.688 159.298 292.256 158.898 291.744C158.498 292.256 158.05 292.688 157.554 293.04C156.434 293.888 155.17 294.48 153.794 294.832L152.994 293.792C154.37 293.408 155.554 292.864 156.578 292.16C157.442 291.552 157.97 290.816 158.178 289.952H153.698V288.736H164.146V289.952ZM161.73 287.488H156.114V286.224H161.73V287.488ZM165.826 298.496H152.018V297.248H158.21V294.288H159.634V297.248H165.826V298.496ZM173.744 296.48C172.576 296.624 171.376 296.688 170.16 296.688H167.568V287.008H173.056V288.256H168.976V295.456H170.144C171.328 295.456 172.528 295.392 173.744 295.232V296.48ZM179.584 299.776H178.208V292.16H176.08V299.28H174.704V286.064H176.08V290.864H178.208V285.76H179.584V299.776ZM189.758 286.624V288.416C189.758 289.488 189.646 290.448 189.422 291.28C190.094 291.232 190.734 291.168 191.358 291.072V292.304C190.03 292.528 188.446 292.64 186.622 292.656V295.616H185.198V292.656H181.486V291.424H185.934C186.654 291.424 187.342 291.408 188.014 291.376C188.238 290.512 188.366 289.552 188.366 288.528V287.856H182.718V286.624H189.758ZM193.934 285.76V297.024H192.526V295.04H188.622V293.872H192.526V285.76H193.934ZM194.254 299.776H183.934V296.304H185.358V298.544H194.254V299.776ZM204.98 298.816V288.72L203.812 289.52L203.092 288.544L205.092 287.04H206.372V298.816H204.98ZM214.736 286.896C217.36 286.896 218.672 288.928 218.672 292.96C218.672 297.024 217.36 299.04 214.752 299.04C212.128 299.04 210.832 297.024 210.832 292.96C210.832 288.928 212.144 286.896 214.736 286.896ZM214.752 288.224C213.152 288.224 212.368 289.808 212.368 292.96C212.368 296.128 213.152 297.712 214.736 297.712C216.304 297.712 217.104 296.128 217.104 292.96C217.104 289.808 216.32 288.224 214.752 288.224ZM228.172 293.328H221.388V286.704H228.172V287.824H231.26V285.76H232.684V294.272H231.26V292.192H228.172V293.328ZM228.172 288.976V291.04H231.26V288.976H228.172ZM226.78 292.112V287.92H222.796V292.112H226.78ZM231.644 297.328C231.644 297.088 231.548 296.864 231.372 296.672C231.18 296.496 230.924 296.336 230.588 296.176C230.236 296.048 229.836 295.936 229.356 295.856C228.86 295.792 228.364 295.744 227.884 295.744C227.404 295.744 226.924 295.792 226.444 295.856C225.948 295.936 225.548 296.048 225.228 296.176C224.892 296.336 224.636 296.496 224.46 296.672C224.268 296.864 224.188 297.088 224.188 297.328C224.188 297.584 224.284 297.808 224.476 298C224.652 298.192 224.908 298.368 225.228 298.512C225.548 298.672 225.964 298.768 226.476 298.816C226.972 298.88 227.436 298.912 227.884 298.912C228.364 298.912 228.86 298.88 229.34 298.816C229.82 298.752 230.236 298.656 230.588 298.512C230.924 298.368 231.18 298.192 231.372 298C231.548 297.808 231.644 297.584 231.644 297.328ZM233.052 297.328C233.052 297.76 232.924 298.144 232.668 298.464C232.412 298.816 232.06 299.12 231.628 299.376C231.18 299.632 230.62 299.824 229.948 299.952C229.276 300.08 228.588 300.144 227.884 300.144C227.196 300.144 226.524 300.08 225.852 299.952C225.18 299.824 224.62 299.632 224.188 299.36C223.74 299.104 223.388 298.816 223.148 298.464C222.892 298.144 222.78 297.76 222.78 297.328C222.78 296.912 222.892 296.544 223.148 296.192C223.388 295.856 223.74 295.568 224.188 295.312C224.62 295.056 225.18 294.848 225.852 294.704C226.524 294.576 227.196 294.512 227.884 294.512C228.588 294.512 229.276 294.576 229.948 294.704C230.62 294.848 231.18 295.04 231.628 295.296C232.076 295.552 232.428 295.856 232.684 296.192C232.924 296.544 233.052 296.928 233.052 297.328ZM246.898 290.864C246.498 291.312 246.082 291.68 245.65 291.984C244.578 292.736 243.33 293.232 241.906 293.488L241.09 292.4C242.338 292.16 243.49 291.728 244.53 291.104C245.362 290.608 245.922 290.016 246.178 289.328H241.698V288.128H252.146V289.328H247.65C247.906 290 248.45 290.576 249.282 291.072C250.242 291.68 251.378 292.128 252.722 292.432L251.922 293.488C250.578 293.248 249.33 292.736 248.178 291.968C247.698 291.648 247.266 291.28 246.898 290.864ZM249.65 287.056H244.178V285.84H249.65V287.056ZM240.018 295.984V294.752H253.826V295.984H247.634V299.936H246.21V295.984H240.018ZM263.264 289.344H260.112C260.208 290.144 260.592 290.816 261.248 291.392C262 292.032 262.848 292.576 263.808 293.008L263.008 293.936C262.08 293.584 261.152 292.992 260.208 292.16C259.936 291.936 259.68 291.664 259.424 291.36C259.136 291.744 258.864 292.064 258.608 292.304C257.664 293.232 256.704 293.888 255.712 294.272L254.784 293.36C255.824 292.896 256.72 292.32 257.456 291.632C258.192 290.944 258.608 290.176 258.704 289.344H255.456V288.176H263.264V289.344ZM261.824 287.104H256.976V285.92H261.824V287.104ZM267.2 285.76V294.176H265.776V291.344H263.248V290.144H265.776V285.76H267.2ZM265.776 296.24H259.312V298.592H265.776V296.24ZM267.2 299.776H257.904V295.04H267.2V299.776ZM278.382 290.208C278.382 290.72 278.27 291.184 278.062 291.632C277.838 292.08 277.534 292.48 277.182 292.816C276.83 293.12 276.398 293.36 275.918 293.552C275.406 293.76 274.894 293.856 274.35 293.856C273.806 293.856 273.31 293.76 272.83 293.568C272.334 293.376 271.918 293.136 271.582 292.816C271.198 292.48 270.91 292.08 270.718 291.632C270.51 291.184 270.414 290.72 270.414 290.208C270.414 289.696 270.51 289.216 270.718 288.768C270.91 288.336 271.214 287.952 271.598 287.6C271.918 287.28 272.334 287.024 272.83 286.832C273.31 286.656 273.806 286.56 274.35 286.56C274.894 286.56 275.406 286.656 275.918 286.848C276.398 287.04 276.814 287.296 277.166 287.6C277.534 287.952 277.838 288.336 278.062 288.784C278.27 289.232 278.382 289.712 278.382 290.208ZM276.99 290.208C276.99 289.888 276.91 289.584 276.782 289.296C276.622 289.008 276.43 288.752 276.206 288.528C275.95 288.336 275.678 288.16 275.374 288.016C275.054 287.888 274.718 287.824 274.366 287.824C274.014 287.824 273.678 287.888 273.374 288.016C273.054 288.16 272.766 288.336 272.526 288.528C272.302 288.752 272.11 289.008 271.982 289.296C271.838 289.6 271.774 289.904 271.774 290.208C271.774 290.528 271.838 290.832 271.982 291.12C272.11 291.424 272.302 291.68 272.526 291.888C272.766 292.112 273.054 292.272 273.374 292.4C273.678 292.528 274.014 292.592 274.366 292.592C274.718 292.592 275.054 292.528 275.374 292.4C275.678 292.272 275.95 292.112 276.206 291.888C276.43 291.68 276.622 291.424 276.782 291.136C276.91 290.848 276.99 290.544 276.99 290.208ZM273.214 296.192C275.662 296.192 277.87 296.08 279.838 295.856V297.088C277.918 297.328 275.678 297.44 273.086 297.44H269.486V296.192H273.214ZM282.27 299.776H280.862V285.76H282.27V299.776ZM297.396 287.008V288.512C297.396 290.48 296.676 292.272 295.236 293.872C293.812 295.392 292.308 296.48 290.724 297.12L289.796 296.096C291.524 295.312 292.948 294.304 294.052 293.056C295.268 291.648 295.892 290.288 295.892 289.008V288.256H290.516V287.008H297.396ZM301.62 285.76V299.776H300.228V285.76H301.62ZM313.314 289.616H304.674V288.448H313.314V289.616ZM311.202 287.536H306.802V286.336H311.202V287.536ZM312.834 292.864C312.834 293.184 312.738 293.504 312.546 293.808C312.338 294.128 312.066 294.384 311.73 294.592C311.378 294.816 310.978 294.976 310.53 295.072C310.274 295.152 310.002 295.2 309.746 295.216V296.656C311.474 296.592 313.026 296.48 314.418 296.304V297.504C312.386 297.776 310.098 297.904 307.554 297.904H304.002V296.688H308.37V295.216C308.082 295.2 307.794 295.152 307.538 295.072C307.074 294.976 306.674 294.816 306.322 294.592C305.97 294.4 305.698 294.128 305.522 293.808C305.33 293.504 305.25 293.184 305.25 292.864C305.25 292.544 305.33 292.224 305.522 291.92C305.698 291.632 305.97 291.36 306.322 291.12C306.674 290.896 307.074 290.736 307.554 290.624C308.002 290.528 308.498 290.464 309.01 290.464C309.554 290.464 310.066 290.528 310.53 290.624C310.978 290.752 311.378 290.912 311.73 291.12C312.082 291.36 312.354 291.632 312.546 291.92C312.738 292.224 312.834 292.544 312.834 292.864ZM311.426 292.864C311.426 292.464 311.186 292.144 310.722 291.92C310.242 291.712 309.682 291.6 309.01 291.6C308.354 291.6 307.794 291.712 307.346 291.92C306.882 292.144 306.658 292.464 306.658 292.864C306.658 293.28 306.882 293.584 307.346 293.792C307.794 294.016 308.354 294.112 309.01 294.112C309.682 294.112 310.242 294.016 310.722 293.792C311.186 293.6 311.426 293.28 311.426 292.864ZM316.786 299.776H315.378V285.76H316.786V299.776Z" fill="#F5F5F5"/>
<path d="M24 42.5C24 32.5589 32.0589 24.5 42 24.5H69C78.9411 24.5 87 32.5589 87 42.5V42.5C87 52.4411 78.9411 60.5 69 60.5H42C32.0589 60.5 24 52.4411 24 42.5V42.5Z" fill="black" fill-opacity="0.5"/>
<path d="M37.5051 41.278C37.5051 40.018 37.8131 38.94 38.4431 38.016C39.0871 37.106 39.8571 36.644 40.7811 36.644C41.6771 36.644 42.4611 37.106 43.1331 38.016C43.7771 38.912 44.0991 40.004 44.0991 41.278C44.0991 42.538 43.7771 43.616 43.1331 44.526C42.5031 45.422 41.7191 45.87 40.7811 45.87C39.8571 45.87 39.0871 45.422 38.4431 44.526C37.8131 43.63 37.5051 42.552 37.5051 41.278ZM38.7371 41.278C38.7371 42.188 38.9051 42.986 39.2691 43.686C39.6891 44.428 40.1931 44.792 40.7811 44.792C41.3691 44.792 41.8731 44.428 42.2931 43.686C42.6711 42.972 42.8671 42.174 42.8671 41.278C42.8671 40.34 42.6711 39.542 42.3071 38.87C41.8591 38.114 41.3551 37.722 40.7811 37.722C40.1651 37.722 39.6611 38.114 39.2691 38.87C38.9051 39.57 38.7371 40.382 38.7371 41.278ZM47.6131 35.79V48.054H46.3951V35.79H47.6131ZM51.6297 36.378V38.604H54.0937V36.378H55.2837V39.08H57.0477V35.986H58.2377V44.778H57.0477V40.186H55.2837V43.168H50.4257V36.378H51.6297ZM51.6297 39.64V42.09H54.0937V39.64H51.6297ZM59.6517 35.79H60.8697V45.072H59.6517V35.79ZM61.2057 48.054H52.1477V44.344H53.3797V46.99H61.2057V48.054ZM64.1303 43.714V36.896H73.1603V37.96H65.3763V39.752H73.0763V40.816H65.3763V42.636H73.3003V43.714H64.1303ZM74.6863 45.842V46.934H62.6043V45.842H74.6863Z" fill="white"/>
<defs>
<clipPath id="clip0_7755_82931">
<rect width="209.666" height="128.19" fill="white" transform="translate(105 86)"/>
</clipPath>
</defs>
</svg>
