<svg width="420" height="346" viewBox="0 0 420 346" fill="none" xmlns="http://www.w3.org/2000/svg">
<path d="M0 24C0 10.7452 10.7452 0 24 0H396C409.255 0 420 10.7452 420 24V322C420 335.255 409.255 346 396 346H24C10.7452 346 0 335.255 0 322V24Z" fill="#FC5F40"/>
<path d="M24 42C24 32.0589 32.0589 24 42 24H66C75.9411 24 84 32.0589 84 42C84 51.9411 75.9411 60 66 60H42C32.0589 60 24 51.9411 24 42Z" fill="black" fill-opacity="0.5"/>
<path d="M55.0157 38.888C55.0157 39.308 54.9177 39.7 54.7497 40.064C54.5537 40.442 54.3157 40.764 54.0077 41.03C53.6997 41.324 53.3637 41.548 52.9717 41.688C52.5657 41.842 52.1317 41.912 51.6697 41.912C51.2217 41.912 50.7877 41.842 50.3957 41.674C49.9757 41.534 49.6257 41.31 49.3317 41.03C49.0237 40.764 48.7997 40.442 48.6317 40.064C48.4497 39.7 48.3657 39.308 48.3657 38.888C48.3657 38.468 48.4497 38.076 48.6317 37.684C48.7997 37.306 49.0237 36.984 49.3317 36.704C49.6257 36.424 49.9757 36.2 50.3957 36.032C50.7877 35.892 51.2217 35.808 51.6697 35.808C52.1317 35.808 52.5657 35.892 52.9717 36.032C53.3637 36.2 53.6997 36.424 54.0077 36.704C54.3157 36.984 54.5537 37.306 54.7497 37.684C54.9177 38.076 55.0157 38.468 55.0157 38.888ZM53.7697 38.888C53.7697 38.608 53.7137 38.342 53.6157 38.104C53.5037 37.88 53.3497 37.684 53.1677 37.488C52.9717 37.292 52.7477 37.152 52.4957 37.04C52.2157 36.956 51.9497 36.9 51.6697 36.9C51.3897 36.9 51.1097 36.956 50.8577 37.054C50.5917 37.166 50.3677 37.32 50.1997 37.488C50.0037 37.684 49.8637 37.894 49.7657 38.118C49.6537 38.356 49.5977 38.608 49.5977 38.888C49.5977 39.154 49.6397 39.406 49.7517 39.63C49.8497 39.868 50.0037 40.078 50.1997 40.26C50.3817 40.428 50.6057 40.568 50.8717 40.666C51.1237 40.778 51.3897 40.834 51.6697 40.834C51.9497 40.834 52.2157 40.792 52.4957 40.68C52.7477 40.582 52.9717 40.442 53.1677 40.26C53.3497 40.092 53.5037 39.882 53.6157 39.644C53.7137 39.42 53.7697 39.168 53.7697 38.888ZM58.4737 35.29V38.272H60.3077V39.378H58.4737V42.36H57.2417V35.29H58.4737ZM57.2417 44.222H51.4597V46.49H57.2417V44.222ZM58.4737 47.554H50.2277V43.158H58.4737V47.554Z" fill="white"/>
<ellipse cx="150.254" cy="185.593" rx="53.2302" ry="8.14748" fill="#E24728"/>
<ellipse cx="217.605" cy="212.749" rx="63.0072" ry="9.23381" fill="#E24728"/>
<path d="M292.336 149.671L303.175 145.985L294.368 104.777L284.206 109.133L292.336 149.671Z" fill="#E5E4E3"/>
<path d="M248.552 102.356C248.552 93.6661 255.597 86.6211 264.288 86.6211H278.813C287.503 86.6211 294.548 93.6661 294.548 102.356V159.246C294.548 167.936 287.503 174.981 278.813 174.981H264.288C255.597 174.981 248.552 167.936 248.552 159.246V102.356Z" fill="#5D39EA"/>
<rect x="249.761" y="85.3906" width="43.5747" height="6.08497" fill="#E5E4E3"/>
<ellipse cx="271.549" cy="91.7108" rx="21.7873" ry="8.19131" fill="#E5E4E3"/>
<ellipse cx="271.549" cy="86.0937" rx="21.7873" ry="8.19131" fill="#F5F5F5"/>
<rect x="264.991" y="76.7266" width="13.2782" height="8.85221" fill="#E5E4E3"/>
<ellipse cx="271.523" cy="85.8123" rx="6.52847" ry="2.92946" fill="#E5E4E3"/>
<ellipse cx="271.523" cy="75.7732" rx="6.52847" ry="2.92946" fill="#F5F5F5"/>
<path d="M294.081 103.828C300.362 116.343 311.039 142.163 303.502 145.325C295.965 148.487 294.081 118.978 294.081 103.828Z" fill="#ADBCBC"/>
<path d="M128.283 142.057L136.08 105.472C136.838 106.708 138.611 110.752 139.636 117.033C140.662 123.315 132.786 136.809 128.283 142.057Z" fill="#FF8F4C"/>
<path d="M158.321 89.8706C156.867 93.9031 154.063 96.8005 152.477 96.9881L160.486 111.33L175.221 97.5821L171.59 78.2142C169.625 76.932 165.252 75.804 161.365 78.1878C156.799 80.9876 160.329 84.2998 158.321 89.8706Z" fill="#DE6B26"/>
<path d="M116.596 164.612C114.255 169.503 115.156 174.003 115.899 175.641L128.072 187.808L159.782 172.289L205.566 116.334L194.516 101.515C186.64 89.6972 179.11 81.5152 171.265 77.6875C169.384 82.3019 172.501 86.7456 172.843 92.4255C173.185 98.1054 166.143 100.068 163.142 98.3748C160.741 97.0203 157.072 95.946 155.537 95.5781C151.863 89.5861 144.562 88.566 139.647 90.795C134.732 93.024 137.467 96.8438 138.216 108.949C138.964 121.054 130.894 135.427 130.057 137.903C129.22 140.38 119.522 158.499 116.596 164.612Z" fill="#FF8F4C"/>
<path d="M135.25 144.068C132.635 144.415 129.308 142.869 128.001 142.231L121.183 155.443C119.637 157.831 118.437 162.624 124.189 163.808C131.379 165.288 148.849 155.36 150.174 149.836C151.233 145.417 146.778 143.019 144.418 142.372C142.451 142.793 137.864 143.721 135.25 144.068Z" fill="#FFE0CC"/>
<path d="M135.662 144.486C133.504 144.553 129.649 142.791 127.998 142.233C132.811 135.356 136.77 113.426 137.774 102.471C136.472 98.4273 131.825 92.77 142.751 88.8181C150.071 86.1706 156.712 93.2294 157.753 95.994C156.796 95.9267 154.24 96.028 151.677 96.9713C148.474 98.1504 145.613 105.009 146.176 109.769C146.738 114.528 143.298 126.846 141.799 132.084C140.6 136.275 143.204 140.777 144.655 142.505C142.557 143.137 137.82 144.419 135.662 144.486Z" fill="#DE6B26"/>
<path d="M155.815 138.527C160.55 139.078 167.694 142.105 170.674 143.549L183.643 120.283C176.599 104.185 179.127 89.6782 181.817 84.8875C178.42 80.3738 172.661 78.0683 170.206 77.4797C167.041 82.5621 173.614 85.5983 170.818 93.203C168.58 99.2867 163.522 98.5932 161.273 97.486C162.117 99.7166 165.993 105.585 162.569 107.685C159.145 109.785 155.987 109.758 155.85 113.376C155.667 118.2 153.581 128.117 152.927 131.659C152.109 136.087 149.895 137.838 155.815 138.527Z" fill="#FFE0CC"/>
<path d="M163.575 105.888C168.039 105.889 173.905 106.209 179.584 106.628C180.254 110.773 181.484 115.237 183.494 119.83L179.413 127.151L178.525 128.374C171.186 124.748 159.282 123.754 154.145 124.037C154.87 120.095 155.596 115.678 155.701 112.923C155.838 109.305 158.995 109.332 162.419 107.232C162.995 106.879 163.363 106.419 163.575 105.888Z" fill="#DE6B26"/>
<path d="M148.564 173.204C136.341 181.956 124.49 180.9 120.093 179.277L121.816 185.288C133.316 193.156 161.814 183.925 171.367 174.533C180.921 165.141 181.682 154.858 183.817 150.015C185.524 146.141 191.069 144.128 193.628 143.605L205.122 127.134L208.387 114.53C208.132 113.901 206.691 111.251 202.963 105.685C199.235 100.118 195.026 100.212 193.388 100.955C195.717 102.406 198.325 106.958 190.123 113.559C179.87 121.81 175.619 133.447 173.926 136.448C172.233 139.45 163.843 162.264 148.564 173.204Z" fill="#FDEBE0"/>
<path d="M117.114 182.672C114.953 178.145 116.718 175.011 117.933 173.942C117.981 173.9 118.034 173.862 118.088 173.83C122.027 171.502 123.982 176.558 129.504 181.749C135.066 186.976 150.128 180.88 154.013 178.891C157.897 176.902 158.417 173.834 162.347 170.638C166.278 167.443 167.723 168.52 170.401 166.485C173.08 164.45 172.057 159.58 175.352 155.989C177.56 153.582 180.513 153.768 182.306 154.345C182.857 154.522 183.149 155.091 183.022 155.656C182.068 159.891 178.449 168.548 169.861 175.847C158.245 185.718 143.508 187.296 136.686 188.338C129.865 189.38 119.868 188.444 117.114 182.672Z" fill="#FFC299"/>
<path d="M192.79 131.924C191.024 134.129 190.957 139.801 191.213 143.442C191.271 144.272 192.074 144.774 192.815 144.397C194.923 143.325 198.822 140.872 204.456 136.179C213.719 128.461 211.21 118.999 210.484 117.814C209.757 116.63 208.294 112.231 206.499 113.331C203.807 114.983 204.692 123.81 203.624 126.095C202.555 128.381 195.355 128.722 192.79 131.924Z" fill="#FFC299"/>
<path d="M184.303 146.971C183.377 145.462 182.917 143.869 182.988 142.091C183.059 140.336 183.643 138.464 184.692 136.374C186.779 132.218 190.84 126.941 196.996 119.616C200.684 115.228 201.821 112.37 202.033 110.49C202.242 108.642 201.601 107.64 201.175 106.59C200.967 106.076 201.216 105.49 201.729 105.282C202.243 105.074 202.829 105.322 203.037 105.836C203.376 106.673 204.309 108.239 204.029 110.716C203.753 113.16 202.336 116.384 198.533 120.908C192.356 128.258 188.451 133.362 186.487 137.275C185.512 139.218 185.05 140.802 184.995 142.172C184.941 143.518 185.279 144.721 186.015 145.921C186.305 146.394 186.157 147.012 185.684 147.302C185.211 147.592 184.593 147.444 184.303 146.971Z" fill="#FFC299"/>
<path d="M129.429 132.345C130.604 131.423 132.869 129.665 136.015 128.908C139.283 128.122 143.218 128.476 147.609 131.211C148.864 131.993 149.248 133.644 148.466 134.899C147.685 136.155 146.033 136.539 144.777 135.757C141.545 133.744 139.074 133.681 137.266 134.115C135.336 134.579 133.857 135.679 132.734 136.559C131.57 137.471 129.887 137.268 128.974 136.104C128.062 134.94 128.265 133.257 129.429 132.345Z" fill="#803300"/>
<path d="M130.935 121.997C132.111 121.076 134.376 119.317 137.521 118.56C140.789 117.775 144.725 118.128 149.116 120.863C150.371 121.645 150.755 123.297 149.973 124.552C149.191 125.807 147.539 126.191 146.284 125.409C143.052 123.396 140.58 123.333 138.773 123.768C136.843 124.232 135.363 125.331 134.24 126.211C133.077 127.124 131.393 126.92 130.481 125.756C129.568 124.592 129.772 122.91 130.935 121.997Z" fill="#803300"/>
<path d="M133.363 111.872C134.538 110.951 136.803 109.192 139.948 108.435C143.216 107.65 147.152 108.003 151.543 110.738C152.798 111.52 153.182 113.172 152.4 114.427C151.618 115.682 149.966 116.066 148.711 115.284C145.479 113.271 143.008 113.208 141.2 113.643C139.27 114.107 137.79 115.206 136.668 116.086C135.504 116.999 133.82 116.795 132.908 115.631C131.996 114.467 132.199 112.785 133.363 111.872Z" fill="#803300"/>
<path d="M135.573 102.665C136.749 101.744 139.014 99.9848 142.159 99.2284C145.427 98.4427 149.363 98.7963 153.754 101.531C155.009 102.313 155.393 103.965 154.611 105.22C153.829 106.475 152.177 106.859 150.922 106.077C147.69 104.064 145.218 104.001 143.411 104.436C141.481 104.9 140.001 105.999 138.879 106.879C137.715 107.792 136.031 107.588 135.119 106.424C134.206 105.26 134.41 103.578 135.573 102.665Z" fill="#803300"/>
<path d="M205.775 168.858L231.548 141.746C231.548 143.197 230.946 147.57 228.536 153.461C226.126 159.352 212.358 166.738 205.775 168.858Z" fill="#FF8F4C"/>
<path d="M258.66 140.071C255.313 142.749 251.408 143.753 249.958 143.083L249.288 159.497L269.036 155.48L276.065 137.071C275.061 134.951 271.923 131.703 267.363 131.703C262.007 131.703 263.284 136.372 258.66 140.071Z" fill="#DE6B26"/>
<path d="M184.018 181.974C179.466 184.92 177.881 189.227 177.658 191.012L181.675 207.747L216.819 211.095L285.101 187.33L283.427 168.92C282.892 154.729 280.75 143.817 276.064 136.453C272.047 139.403 272.382 144.821 269.704 149.842C267.026 154.862 259.997 152.854 258.324 149.842C256.985 147.432 254.419 144.598 253.303 143.482C253.303 136.453 247.613 131.767 242.258 131.098C236.902 130.428 237.237 135.114 231.547 145.825C225.857 156.536 211.464 164.569 209.456 166.243C207.448 167.916 189.708 178.292 184.018 181.974Z" fill="#FF8F4C"/>
<path d="M210.657 174.211C208.247 173.14 206.219 170.083 205.438 168.855L192.719 176.554C190.153 177.781 186.625 181.24 190.909 185.256C196.264 190.277 216.347 190.947 220.364 186.93C223.577 183.717 221.033 179.343 219.359 177.558C217.463 176.889 213.067 175.282 210.657 174.211Z" fill="#FFE0CC"/>
<path d="M210.796 174.783C208.921 173.712 206.556 170.195 205.44 168.856C213.139 165.509 227.978 148.885 234.56 140.071C235.564 135.943 234.56 128.691 245.94 131.034C253.564 132.603 255.536 142.093 254.978 144.994C254.197 144.436 251.965 143.186 249.288 142.651C245.94 141.981 239.916 146.332 237.907 150.684C235.899 155.035 226.527 163.738 222.511 167.419C219.297 170.365 219.163 175.564 219.498 177.796C217.378 177.238 212.67 175.854 210.796 174.783Z" fill="#DE6B26"/>
<path d="M231.091 180.236C234.839 183.181 239.347 189.496 241.132 192.285L264.351 179.232C266.761 161.826 276.5 150.781 281.297 148.103C280.762 142.48 277.058 137.504 275.273 135.719C269.917 138.396 273.934 144.421 267.574 149.442C262.487 153.459 258.537 150.223 257.198 148.103C256.752 150.446 256.988 157.475 252.971 157.475C248.955 157.475 246.277 155.802 244.269 158.814C241.591 162.831 234.629 170.194 232.219 172.872C229.207 176.219 226.405 176.554 231.091 180.236Z" fill="#FFE0CC"/>
<path d="M254.763 156.473C258.568 158.807 263.401 162.147 268.024 165.472C266.428 169.356 265.143 173.804 264.456 178.77L257.149 182.878L255.753 183.456C251.391 176.529 241.764 169.458 237.237 167.014C239.915 164.033 242.843 160.647 244.373 158.353C246.381 155.34 249.059 157.014 253.075 157.014C253.751 157.014 254.305 156.814 254.763 156.473Z" fill="#DE6B26"/>
<path d="M206.778 206.009C191.783 207.08 182.232 199.984 179.332 196.302L177.658 202.327C183.348 215.046 212.468 222.075 225.522 219.063C238.576 216.05 244.601 207.683 248.952 204.67C252.433 202.26 258.212 203.443 260.667 204.335L279.076 196.302L288.448 187.265C288.56 186.596 288.716 183.583 288.448 176.889C288.18 170.195 284.543 168.075 282.758 167.852C283.985 170.306 283.829 175.55 273.386 176.889C260.332 178.562 250.625 186.261 247.613 187.934C244.601 189.608 225.522 204.67 206.778 206.009Z" fill="#FDEBE0"/>
<path d="M175.02 197.642C175.545 192.653 178.688 190.904 180.282 190.627C180.345 190.617 180.41 190.612 180.473 190.613C185.047 190.688 184.071 196.02 186.065 203.332C188.073 210.696 204.1 213.373 208.452 213.708C212.803 214.043 214.851 211.7 219.871 211.03C224.892 210.361 225.561 212.034 228.908 211.7C232.256 211.365 233.929 206.679 238.615 205.34C241.756 204.443 244.176 206.145 245.403 207.574C245.78 208.013 245.731 208.651 245.328 209.066C242.301 212.178 234.69 217.666 223.553 219.398C208.491 221.741 195.102 215.382 188.743 212.704C182.383 210.026 174.35 204.001 175.02 197.642Z" fill="#FFC299"/>
<path d="M266.058 193.941C263.496 194.863 260.596 199.355 258.881 202.578C258.391 203.498 258.924 204.551 259.964 204.615C262.425 204.766 266.917 204.665 273.779 203.666C285.71 201.929 288.518 192.552 288.518 191.162C288.518 189.773 289.57 185.258 287.465 185.258C284.306 185.258 280.446 193.246 278.341 194.636C276.235 196.025 269.919 192.552 266.058 193.941Z" fill="#FFC299"/>
<path d="M250.96 202.329C250.96 200.558 251.4 198.961 252.39 197.482C253.368 196.022 254.844 194.732 256.832 193.499C260.783 191.046 267.003 188.671 276.08 185.645C281.519 183.832 283.982 181.99 285.146 180.499C286.29 179.033 286.267 177.844 286.453 176.726C286.545 176.179 287.062 175.809 287.609 175.901C288.156 175.992 288.525 176.509 288.434 177.056C288.286 177.947 288.262 179.77 286.729 181.735C285.215 183.674 282.322 185.681 276.716 187.55C267.607 190.586 261.61 192.896 257.891 195.205C256.043 196.351 254.821 197.461 254.059 198.6C253.309 199.719 252.968 200.921 252.968 202.329C252.968 202.884 252.519 203.333 251.964 203.333C251.41 203.333 250.96 202.884 250.96 202.329Z" fill="#FFC299"/>
<path d="M211.829 161.174C213.313 161.003 216.163 160.688 219.24 161.687C222.437 162.726 225.607 165.085 227.92 169.712C228.582 171.034 228.045 172.643 226.723 173.304C225.4 173.966 223.791 173.429 223.13 172.106C221.427 168.701 219.353 167.355 217.585 166.78C215.697 166.167 213.861 166.331 212.444 166.494C210.975 166.664 209.646 165.61 209.477 164.141C209.307 162.672 210.361 161.344 211.829 161.174Z" fill="#803300"/>
<path d="M218.517 153.143C220.001 152.972 222.851 152.656 225.928 153.656C229.124 154.694 232.295 157.053 234.608 161.681C235.269 163.003 234.733 164.612 233.411 165.273C232.088 165.934 230.479 165.398 229.818 164.075C228.115 160.67 226.041 159.324 224.273 158.749C222.385 158.136 220.549 158.299 219.132 158.463C217.663 158.632 216.334 157.579 216.164 156.109C215.995 154.641 217.048 153.312 218.517 153.143Z" fill="#803300"/>
<path d="M225.884 145.779C227.368 145.608 230.218 145.293 233.295 146.293C236.491 147.331 239.661 149.69 241.975 154.317C242.636 155.64 242.1 157.248 240.777 157.91C239.455 158.571 237.846 158.035 237.184 156.712C235.481 153.306 233.408 151.96 231.639 151.386C229.752 150.773 227.915 150.936 226.498 151.1C225.029 151.269 223.701 150.215 223.531 148.746C223.362 147.277 224.415 145.949 225.884 145.779Z" fill="#803300"/>
<path d="M232.576 139.084C234.059 138.913 236.909 138.598 239.986 139.597C243.183 140.636 246.353 142.995 248.667 147.622C249.328 148.945 248.792 150.553 247.469 151.214C246.146 151.876 244.538 151.339 243.876 150.017C242.173 146.611 240.099 145.265 238.331 144.691C236.444 144.077 234.607 144.241 233.19 144.404C231.721 144.574 230.392 143.52 230.223 142.051C230.054 140.582 231.107 139.254 232.576 139.084Z" fill="#803300"/>
<path d="M155.36 251.83V253.502C155.36 254.25 155.25 254.954 155.03 255.592H158.396V250.862H161.102V261.422H158.396V257.88H154.964V255.746C154.436 257.11 153.402 258.254 151.862 259.178C150.014 260.278 147.748 261.114 145.02 261.686L143.678 259.706C146.252 259.178 148.32 258.452 149.882 257.528C151.62 256.516 152.478 255.548 152.478 254.624V254.14H145.108V251.83H155.36ZM161.476 270.75H147.374V265.36H158.374V264.084H147.374V262.038H161.124V267.406H150.124V268.682H161.476V270.75ZM173.486 259.464C172.518 259.464 171.572 259.398 170.648 259.222C169.702 259.09 168.888 258.826 168.184 258.452C167.524 258.122 166.996 257.682 166.6 257.154C166.182 256.626 165.984 256.032 165.984 255.372C165.984 254.712 166.182 254.118 166.578 253.59C166.974 253.084 167.502 252.644 168.162 252.292C168.866 251.918 169.702 251.632 170.648 251.456C171.572 251.28 172.518 251.192 173.486 251.192C174.454 251.192 175.422 251.28 176.39 251.456C177.314 251.632 178.128 251.918 178.832 252.292C179.514 252.644 180.064 253.084 180.482 253.59C180.878 254.118 181.076 254.712 181.076 255.372C181.076 256.032 180.856 256.626 180.46 257.154C180.02 257.682 179.47 258.122 178.81 258.452C178.128 258.826 177.314 259.09 176.39 259.222C175.422 259.398 174.454 259.464 173.486 259.464ZM173.508 257.242C174.19 257.264 174.85 257.22 175.466 257.11C176.082 257.022 176.588 256.89 177.006 256.736C177.446 256.538 177.776 256.318 177.996 256.076C178.194 255.856 178.304 255.636 178.304 255.372C178.304 255.064 178.194 254.8 177.996 254.58C177.776 254.382 177.446 254.184 177.006 253.986C176.588 253.832 176.082 253.7 175.466 253.59C174.85 253.502 174.19 253.436 173.486 253.436C172.826 253.436 172.188 253.502 171.572 253.59C170.956 253.7 170.428 253.832 170.032 253.986C169.592 254.184 169.284 254.382 169.086 254.58C168.866 254.8 168.778 255.064 168.778 255.372C168.778 255.636 168.866 255.856 169.086 256.076C169.262 256.318 169.592 256.538 170.032 256.736C170.428 256.89 170.956 257.022 171.572 257.11C172.188 257.22 172.826 257.264 173.508 257.242ZM183.43 260.212V262.544H163.652V260.212H183.43ZM168.8 266.174V268.506H178.282V266.174H168.8ZM181.032 263.93V270.75H166.05V263.93H181.032ZM195.395 264.326H186.881C186.881 265.338 187.255 266.086 188.025 266.592C188.773 267.12 189.763 267.362 190.995 267.362C192.095 267.362 193.195 267.098 194.251 266.57L195.021 268.594C193.767 269.298 192.271 269.672 190.533 269.672C188.641 269.672 187.079 269.166 185.847 268.154C184.571 267.164 183.955 265.646 183.955 263.578C183.955 261.708 184.461 260.19 185.473 259.046C186.485 257.924 187.959 257.352 189.895 257.352C191.413 257.352 192.733 257.858 193.855 258.826C194.955 259.816 195.527 261.202 195.527 262.962C195.527 263.534 195.483 263.974 195.395 264.326ZM186.859 262.236H192.667C192.667 261.51 192.403 260.85 191.897 260.278C191.369 259.706 190.665 259.42 189.763 259.42C188.839 259.42 188.135 259.706 187.629 260.278C187.101 260.85 186.859 261.51 186.859 262.236ZM208.813 252.05V254.228C208.813 256.472 207.801 258.474 205.777 260.234C203.753 261.972 201.289 263.182 198.363 263.886L197.021 261.884C199.661 261.158 201.795 260.168 203.423 258.892C205.095 257.616 205.931 256.296 205.931 254.976V254.382H198.561V252.05H208.813ZM214.555 250.862V266.064H211.849V259.112H208.417V256.802H211.849V250.862H214.555ZM215.127 270.75H200.849V264.084H203.621V268.418H215.127V270.75ZM225.443 260.234C223.419 261.972 220.999 263.182 218.183 263.886L216.753 261.862C219.415 261.158 221.571 260.124 223.221 258.738C224.893 257.374 225.751 256.098 225.751 254.91V254.382H218.359V252.05H228.633V254.074C228.633 256.362 227.555 258.43 225.443 260.234ZM233.737 250.862V255.966H236.751V258.342H233.737V263.138H231.031V250.862H233.737ZM234.419 267.098C234.419 267.758 234.221 268.33 233.847 268.814C233.451 269.32 232.945 269.76 232.285 270.112C231.625 270.508 230.811 270.794 229.843 270.97C228.875 271.146 227.885 271.234 226.873 271.234C225.861 271.234 224.893 271.146 223.947 270.97C222.979 270.794 222.165 270.508 221.483 270.112C220.823 269.76 220.317 269.32 219.965 268.814C219.591 268.33 219.415 267.758 219.415 267.098C219.415 266.46 219.591 265.888 219.965 265.382C220.317 264.898 220.823 264.458 221.483 264.062C222.165 263.71 222.979 263.424 223.947 263.204C224.893 263.028 225.861 262.918 226.873 262.918C227.885 262.918 228.875 263.028 229.843 263.204C230.811 263.424 231.625 263.71 232.285 264.062C232.945 264.458 233.451 264.898 233.847 265.382C234.221 265.888 234.419 266.46 234.419 267.098ZM231.647 267.098C231.647 266.834 231.537 266.592 231.339 266.372C231.119 266.196 230.789 265.998 230.393 265.822C229.975 265.646 229.447 265.492 228.809 265.36C228.149 265.25 227.511 265.184 226.873 265.184C226.235 265.184 225.597 265.25 224.959 265.338C224.299 265.47 223.793 265.624 223.397 265.822C223.001 266.02 222.693 266.218 222.517 266.394C222.297 266.592 222.209 266.834 222.209 267.098C222.209 267.384 222.297 267.626 222.517 267.824C222.693 268.044 223.001 268.22 223.397 268.396C223.793 268.572 224.299 268.704 224.959 268.792C225.597 268.902 226.235 268.946 226.873 268.946C227.511 268.946 228.149 268.902 228.809 268.792C229.447 268.704 229.975 268.572 230.393 268.396C230.811 268.22 231.119 268.022 231.339 267.802C231.537 267.626 231.647 267.384 231.647 267.098ZM242.513 252.556V255.9H251.995V252.556H254.745V263.446H248.585V266.658H257.143V268.99H237.365V266.658H245.923V263.446H239.763V252.556H242.513ZM242.513 258.21V261.136H251.995V258.21H242.513ZM270.582 256.032H258.218V253.876H270.582V256.032ZM267.722 253.26H261.078V251.104H267.722V253.26ZM269.922 259.926C269.922 260.388 269.768 260.828 269.46 261.246C269.152 261.686 268.756 262.06 268.272 262.346C267.766 262.654 267.172 262.874 266.512 263.006C265.808 263.138 265.104 263.204 264.378 263.204C263.674 263.204 262.97 263.138 262.31 262.984C261.606 262.852 261.034 262.654 260.55 262.346C260.066 262.06 259.67 261.686 259.406 261.246C259.098 260.828 258.966 260.388 258.966 259.926C258.966 259.464 259.098 259.024 259.384 258.584C259.648 258.166 260.044 257.792 260.55 257.462C261.034 257.154 261.628 256.912 262.31 256.758C262.97 256.626 263.674 256.538 264.378 256.538C265.104 256.538 265.808 256.626 266.49 256.758C267.15 256.934 267.744 257.154 268.272 257.462C268.756 257.77 269.174 258.122 269.482 258.562C269.768 259.002 269.922 259.464 269.922 259.926ZM267.15 259.926C267.15 259.574 266.908 259.288 266.424 259.046C265.94 258.826 265.258 258.694 264.378 258.694C263.542 258.694 262.882 258.804 262.442 259.024C261.958 259.266 261.738 259.574 261.738 259.926C261.738 260.234 261.958 260.498 262.42 260.718C262.86 260.938 263.498 261.048 264.378 261.048C265.236 261.048 265.918 260.938 266.424 260.718C266.908 260.498 267.15 260.234 267.15 259.926ZM275.51 250.862V263.446H272.782V259.904H270.186V257.528H272.782V250.862H275.51ZM272.76 266.35H264.466V268.506H272.76V266.35ZM275.532 270.75H261.716V264.128H275.532V270.75Z" fill="white"/>
<path d="M115.536 286.48V287.584C115.536 289.152 114.72 290.416 113.088 291.408C111.792 292.192 110.24 292.768 108.448 293.152L107.728 292.08C109.472 291.728 110.896 291.216 112.016 290.56C113.36 289.792 114.032 288.976 114.032 288.128V287.696H108.656V286.48H115.536ZM119.712 285.76V293.12H118.32V290.4H115.68V289.184H118.32V285.76H119.712ZM120 299.776H110.288V296.16H118.304V294.88H110.288V293.728H119.728V297.296H111.744V298.608H120V299.776ZM129.007 291.568C128.335 291.568 127.663 291.52 127.023 291.392C126.351 291.28 125.791 291.104 125.327 290.864C124.879 290.64 124.511 290.352 124.255 290C123.983 289.648 123.855 289.264 123.855 288.816C123.855 288.384 123.983 288 124.255 287.648C124.511 287.312 124.863 287.024 125.311 286.768C125.791 286.512 126.351 286.32 127.023 286.192C127.663 286.08 128.335 286.016 129.007 286.016C129.695 286.016 130.367 286.08 131.039 286.208C131.679 286.336 132.255 286.528 132.735 286.768C133.183 287.024 133.551 287.312 133.839 287.648C134.095 288 134.239 288.384 134.239 288.816C134.239 289.264 134.095 289.648 133.823 290C133.535 290.352 133.167 290.64 132.719 290.864C132.255 291.104 131.695 291.28 131.039 291.392C130.367 291.52 129.695 291.568 129.007 291.568ZM129.023 290.416C129.535 290.432 130.031 290.4 130.511 290.304C130.975 290.24 131.375 290.128 131.711 290C132.063 289.84 132.335 289.664 132.527 289.472C132.703 289.28 132.799 289.072 132.799 288.816C132.799 288.544 132.703 288.304 132.527 288.112C132.335 287.936 132.063 287.776 131.711 287.616C131.375 287.472 130.975 287.36 130.511 287.28C130.031 287.216 129.535 287.184 129.007 287.184C128.495 287.184 128.015 287.216 127.551 287.28C127.071 287.36 126.671 287.472 126.351 287.616C125.999 287.776 125.727 287.936 125.567 288.112C125.375 288.304 125.295 288.544 125.295 288.816C125.295 289.072 125.375 289.28 125.551 289.472C125.711 289.664 125.983 289.84 126.351 290C126.671 290.128 127.071 290.24 127.551 290.304C128.015 290.4 128.511 290.432 129.023 290.416ZM135.951 292.576V293.808H122.143V292.576H135.951ZM125.311 296.448V298.608H132.783V296.448H125.311ZM134.207 295.28V299.776H123.887V295.28H134.207ZM144.509 286.768C144.509 287.792 145.085 288.752 146.269 289.664C147.245 290.432 148.445 291.024 149.885 291.408L149.037 292.448C147.661 292.112 146.333 291.456 145.069 290.464C144.621 290.128 144.173 289.68 143.757 289.136C143.357 289.664 142.925 290.096 142.477 290.448C141.229 291.408 139.901 292.08 138.509 292.448L137.629 291.392C139.021 290.992 140.237 290.416 141.261 289.648C142.445 288.784 143.053 287.824 143.053 286.784V286.016H144.509V286.768ZM150.685 294.048V295.296H144.493V299.936H143.069V295.296H136.877V294.048H150.685ZM163.538 290.112C163.266 290.448 162.914 290.736 162.466 290.992C161.282 291.68 159.938 292.096 158.466 292.224L157.81 291.2C159.25 291.056 160.45 290.72 161.378 290.192C161.954 289.888 162.434 289.488 162.818 289.008H158.402V287.856H168.722V289.008H164.29C164.642 289.488 165.122 289.888 165.73 290.208C166.674 290.704 167.858 291.04 169.298 291.2L168.642 292.224C167.25 292.128 165.906 291.712 164.626 290.976C164.242 290.752 163.874 290.464 163.538 290.112ZM166.226 286.88H160.898V285.728H166.226V286.88ZM170.466 293.152V294.32H164.274V295.472C165.554 295.536 166.626 295.744 167.49 296.096C168.482 296.544 168.978 297.088 168.978 297.76C168.978 298.528 168.482 299.104 167.506 299.52C166.514 299.952 165.186 300.16 163.538 300.16C161.906 300.16 160.61 299.952 159.65 299.52C158.658 299.104 158.178 298.528 158.178 297.76C158.178 297.104 158.658 296.56 159.634 296.112C160.466 295.744 161.538 295.536 162.85 295.472V294.32H156.658V293.152H170.466ZM163.538 296.592C162.418 296.592 161.474 296.704 160.738 296.912C159.97 297.136 159.602 297.424 159.602 297.776C159.602 298.192 159.97 298.496 160.738 298.704C161.49 298.928 162.418 299.024 163.538 299.024C164.658 299.024 165.602 298.928 166.386 298.704C167.154 298.496 167.554 298.192 167.554 297.792C167.554 297.44 167.17 297.136 166.418 296.912C165.65 296.704 164.69 296.592 163.538 296.592ZM183.473 287.536H179.009C179.185 288.24 179.713 288.864 180.593 289.408C181.537 290.016 182.705 290.496 184.081 290.832L183.313 291.808C181.905 291.52 180.657 291.008 179.601 290.272C179.121 289.968 178.689 289.584 178.273 289.104C177.921 289.536 177.489 289.92 176.961 290.272C175.905 290.96 174.673 291.472 173.249 291.808L172.465 290.8C173.761 290.496 174.913 290.032 175.937 289.424C176.833 288.912 177.361 288.272 177.553 287.536H173.121V286.336H183.473V287.536ZM185.201 294.192H171.393V292.96H177.585V290.928H179.009V292.96H185.201V294.192ZM183.457 300.064H182.033V296.8H173.025V295.6H183.457V300.064ZM194.847 290.08H186.287V288.816H194.847V290.08ZM192.719 287.728H188.415V286.464H192.719V287.728ZM194.415 294.192C194.415 294.608 194.319 295.008 194.127 295.376C193.935 295.76 193.663 296.096 193.327 296.368C192.975 296.656 192.559 296.864 192.095 297.008C191.615 297.168 191.135 297.248 190.623 297.248C190.111 297.248 189.615 297.168 189.151 297.008C188.671 296.864 188.271 296.656 187.919 296.368C187.567 296.096 187.311 295.76 187.135 295.376C186.943 295.008 186.847 294.608 186.847 294.192C186.847 293.776 186.943 293.376 187.135 292.992C187.311 292.624 187.567 292.304 187.919 292.016C188.271 291.728 188.671 291.504 189.151 291.344C189.615 291.184 190.111 291.104 190.623 291.104C191.135 291.104 191.615 291.184 192.095 291.344C192.559 291.504 192.975 291.728 193.327 292.016C193.663 292.304 193.935 292.624 194.127 292.992C194.319 293.376 194.415 293.776 194.415 294.192ZM193.007 294.176C193.007 293.664 192.767 293.232 192.319 292.848C191.839 292.48 191.279 292.288 190.623 292.288C189.951 292.288 189.391 292.48 188.943 292.848C188.479 293.232 188.255 293.664 188.255 294.176C188.255 294.688 188.479 295.12 188.943 295.488C189.391 295.872 189.951 296.048 190.623 296.048C191.279 296.048 191.839 295.872 192.319 295.488C192.767 295.12 193.007 294.688 193.007 294.176ZM197.743 285.76V291.696H199.967V293.008H197.743V299.776H196.319V285.76H197.743ZM208.797 293.712H202.013V286.704H208.797V288.048H211.885V285.76H213.309V296.368H211.885V292.576H208.797V293.712ZM208.797 289.2V291.424H211.885V289.2H208.797ZM207.405 292.496V287.92H203.421V292.496H207.405ZM213.693 299.776H203.709V295.392H205.149V298.544H213.693V299.776ZM229.315 288.8H220.915V287.696H229.315V288.8ZM227.235 286.96H222.995V285.856H227.235V286.96ZM228.851 291.568C228.851 291.856 228.755 292.112 228.563 292.368C228.371 292.624 228.115 292.848 227.795 293.008C227.443 293.2 227.027 293.328 226.579 293.408C226.099 293.504 225.619 293.552 225.123 293.552C224.627 293.552 224.163 293.52 223.715 293.424C223.251 293.36 222.835 293.216 222.483 293.008C222.131 292.816 221.891 292.608 221.731 292.368C221.555 292.144 221.475 291.872 221.475 291.568C221.475 291.28 221.555 290.992 221.747 290.736C221.907 290.496 222.163 290.272 222.483 290.08C222.835 289.888 223.235 289.744 223.699 289.648C224.147 289.568 224.627 289.52 225.123 289.52C225.619 289.52 226.099 289.568 226.563 289.664C227.011 289.76 227.411 289.904 227.779 290.08C228.099 290.256 228.371 290.464 228.563 290.72C228.755 290.992 228.851 291.28 228.851 291.568ZM227.427 291.568C227.427 291.28 227.219 291.04 226.803 290.848C226.371 290.672 225.811 290.576 225.123 290.576C224.451 290.576 223.907 290.672 223.507 290.832C223.091 291.024 222.899 291.264 222.899 291.568C222.899 291.84 223.091 292.064 223.491 292.24C223.875 292.432 224.419 292.512 225.123 292.512C225.795 292.512 226.339 292.432 226.787 292.24C227.203 292.064 227.427 291.84 227.427 291.568ZM232.371 293.648H230.963V285.76H232.371V289.392H234.467V290.672H232.371V293.648ZM232.659 299.776H222.947V296.528H230.947V295.408H222.947V294.336H232.387V297.568H224.403V298.688H232.659V299.776ZM243.553 290.16C243.553 290.672 243.425 291.168 243.201 291.632C242.945 292.112 242.657 292.512 242.337 292.832C242.017 293.152 241.617 293.408 241.137 293.6C240.657 293.792 240.145 293.888 239.601 293.888C239.057 293.888 238.561 293.792 238.097 293.6C237.617 293.408 237.201 293.152 236.865 292.832C236.497 292.512 236.225 292.112 236.033 291.632C235.825 291.184 235.729 290.688 235.729 290.16C235.729 289.648 235.825 289.152 236.049 288.688C236.241 288.24 236.513 287.856 236.865 287.52C237.201 287.168 237.617 286.896 238.097 286.704C238.561 286.512 239.057 286.416 239.601 286.416C240.145 286.416 240.641 286.512 241.121 286.704C241.585 286.896 241.985 287.168 242.337 287.52C242.689 287.856 242.977 288.256 243.217 288.704C243.441 289.168 243.553 289.648 243.553 290.16ZM242.129 290.16C242.129 289.824 242.049 289.504 241.921 289.2C241.777 288.912 241.601 288.64 241.409 288.4C241.169 288.192 240.897 288.016 240.609 287.856C240.289 287.728 239.969 287.648 239.617 287.648C239.265 287.648 238.929 287.728 238.625 287.856C238.305 288.016 238.049 288.192 237.841 288.4C237.617 288.64 237.441 288.912 237.313 289.2C237.185 289.504 237.121 289.824 237.121 290.16C237.121 290.512 237.185 290.832 237.329 291.12C237.457 291.424 237.617 291.696 237.841 291.92C238.065 292.16 238.321 292.336 238.641 292.464C238.945 292.592 239.265 292.656 239.617 292.656C239.953 292.656 240.273 292.592 240.593 292.448C240.897 292.32 241.169 292.144 241.409 291.92C241.601 291.696 241.777 291.44 241.921 291.12C242.049 290.832 242.129 290.512 242.129 290.16ZM247.649 285.76V296.368H246.257V285.76H247.649ZM248.065 299.776H238.097V295.392H239.521V298.544H248.065V299.776ZM252.303 286.4V288.496H256.399V286.4H257.807V293.2H250.895V286.4H252.303ZM252.303 289.696V292.016H256.399V289.696H252.303ZM261.839 293.76H260.431V285.76H261.839V289.136H263.935V290.4H261.839V293.76ZM252.575 294.816H261.839V296.032H253.983V298.56H262.031V299.776H252.575V294.816ZM266.59 291.552V286.064H268.014V290.336H276.91V291.552H266.59ZM278.654 293.248V294.48H264.846V293.248H278.654ZM276.942 299.776H266.59V295.776H268.014V298.544H276.942V299.776ZM287.795 287.008V289.424H295.267V287.008H296.691V294.448H292.227V297.248H298.435V298.496H284.627V297.248H290.835V294.448H286.371V287.008H287.795ZM287.795 290.64V293.232H295.267V290.64H287.795ZM308.193 289.088H299.809V287.92H308.193V289.088ZM306.113 287.104H301.873V285.936H306.113V287.104ZM307.713 292.112C307.713 292.432 307.617 292.72 307.425 292.992C307.217 293.28 306.961 293.52 306.641 293.712C306.289 293.92 305.889 294.064 305.441 294.16C304.977 294.256 304.497 294.304 303.985 294.304C303.489 294.304 303.009 294.256 302.561 294.144C302.097 294.048 301.713 293.904 301.393 293.712C301.073 293.52 300.817 293.28 300.641 292.992C300.449 292.72 300.353 292.432 300.353 292.112C300.353 291.808 300.433 291.52 300.625 291.232C300.801 290.976 301.057 290.72 301.393 290.496C301.729 290.272 302.129 290.112 302.577 290.016C303.025 289.936 303.489 289.888 303.985 289.888C304.497 289.888 304.977 289.936 305.441 290.032C305.889 290.128 306.289 290.288 306.641 290.496C306.961 290.704 307.233 290.944 307.425 291.216C307.617 291.504 307.713 291.808 307.713 292.112ZM306.305 292.112C306.305 291.792 306.081 291.52 305.665 291.312C305.233 291.12 304.673 291.024 303.985 291.024C303.313 291.024 302.769 291.12 302.369 291.312C301.953 291.504 301.761 291.776 301.761 292.112C301.761 292.416 301.953 292.672 302.353 292.864C302.737 293.072 303.281 293.168 303.985 293.168C304.657 293.168 305.217 293.072 305.665 292.864C306.081 292.672 306.305 292.432 306.305 292.112ZM311.809 285.76V294.448H310.385V291.888H308.369V290.608H310.385V285.76H311.809ZM310.385 296.576H303.761V298.608H310.385V296.576ZM311.809 299.776H302.337V295.408H311.809V299.776Z" fill="#F5F5F5"/>
</svg>
