<svg width="420" height="346" viewBox="0 0 420 346" fill="none" xmlns="http://www.w3.org/2000/svg">
<path d="M0 24C0 10.7452 10.7452 0 24 0H396C409.255 0 420 10.7452 420 24V322C420 335.255 409.255 346 396 346H24C10.7452 346 0 335.255 0 322V24Z" fill="#5D39EA"/>
<path d="M24 42C24 32.0589 32.0589 24 42 24H69C78.9411 24 87 32.0589 87 42C87 51.9411 78.9411 60 69 60H42C32.0589 60 24 51.9411 24 42Z" fill="black" fill-opacity="0.5"/>
<path d="M50.3774 36.046V37.348C50.3774 38.65 49.7474 39.84 48.5154 40.932C47.2554 41.996 45.7994 42.738 44.1194 43.144L43.4754 42.22C45.0154 41.8 46.3174 41.17 47.3814 40.344C48.5014 39.476 49.0614 38.566 49.0614 37.586V37.124H44.3574V36.046H50.3774ZM54.0314 35.29V44.572H52.8134V40.134H50.5034V39.07H52.8134V35.29H54.0314ZM54.3814 47.554H45.8134V43.676H47.0734V46.476H54.3814V47.554ZM61.03 40.932C59.77 41.996 58.328 42.738 56.718 43.144L56.06 42.206C57.6 41.8 58.916 41.156 59.994 40.26C61.1 39.336 61.66 38.426 61.66 37.544V37.124H56.97V36.046H62.976V37.236C62.976 38.58 62.318 39.812 61.03 40.932ZM66.252 35.29V38.538H68.254V39.644H66.252V42.71H65.006V35.29H66.252ZM66.672 45.412C66.672 45.804 66.56 46.126 66.336 46.406C66.112 46.7 65.804 46.966 65.412 47.19C65.02 47.428 64.53 47.596 63.942 47.708C63.354 47.82 62.738 47.876 62.122 47.876C61.506 47.876 60.904 47.82 60.33 47.708C59.742 47.596 59.252 47.428 58.846 47.176C58.454 46.966 58.16 46.714 57.964 46.42C57.74 46.14 57.642 45.804 57.642 45.412C57.642 45.048 57.74 44.712 57.964 44.404C58.16 44.124 58.454 43.872 58.846 43.662C59.252 43.424 59.742 43.242 60.33 43.116C60.904 43.004 61.506 42.948 62.122 42.948C62.738 42.948 63.354 43.004 63.942 43.116C64.53 43.242 65.02 43.424 65.412 43.648C65.804 43.872 66.112 44.138 66.336 44.418C66.56 44.712 66.672 45.048 66.672 45.412ZM65.412 45.412C65.412 45.202 65.328 45.006 65.16 44.838C64.978 44.67 64.754 44.53 64.488 44.418C64.208 44.32 63.858 44.236 63.424 44.152C62.976 44.082 62.542 44.04 62.122 44.04C61.702 44.04 61.254 44.082 60.806 44.166C60.33 44.25 59.994 44.348 59.77 44.432C59.518 44.544 59.322 44.684 59.154 44.838C58.986 45.006 58.902 45.202 58.902 45.412C58.902 45.636 58.986 45.832 59.154 46C59.322 46.168 59.518 46.308 59.77 46.42C59.994 46.518 60.344 46.602 60.806 46.658C61.254 46.742 61.702 46.77 62.122 46.77C62.542 46.77 62.976 46.742 63.41 46.686C63.83 46.644 64.18 46.56 64.488 46.434C64.726 46.336 64.936 46.196 65.132 46.014C65.314 45.846 65.412 45.636 65.412 45.412Z" fill="white"/>
<g clip-path="url(#clip0_7755_82926)">
<path d="M167.09 220.26C140.489 222.116 115.279 207.63 106 192.422L167.09 194.742C171.729 201.701 200.341 217.94 167.09 220.26Z" fill="#3C20AF"/>
<path d="M115.194 143.242C118.528 142.858 122.769 143.267 125.628 143.741L125.137 147.637C125.007 147.615 124.874 147.596 124.739 147.575L126.102 150.962C124.029 152.061 120.76 153.401 117.675 153.798C116.136 153.997 114.513 153.979 113.07 153.469C111.578 152.942 110.232 151.863 109.489 149.992C109.123 149.071 108.959 148.044 109.211 147.013C109.464 145.983 110.057 145.251 110.693 144.754C111.882 143.825 113.583 143.427 115.194 143.242ZM124.4 147.523C121.718 147.126 118.212 146.851 115.536 147.159C114.015 147.334 113.059 147.669 112.624 148.009C112.58 148.043 112.549 148.07 112.528 148.091C112.538 148.144 112.559 148.231 112.61 148.359C112.863 148.997 113.314 149.436 114.079 149.706C114.894 149.994 115.991 150.054 117.293 149.887C119.771 149.567 122.525 148.485 124.4 147.523Z" fill="#303543"/>
<path d="M132.277 116.821C121.983 117.281 124.79 136.608 125.258 138.449L152.397 122.343C149.122 120.349 140.512 116.453 132.277 116.821Z" fill="#FA6600"/>
<path d="M124.35 21.6003L123.75 -34.7098L187.718 -37.9446L166.658 22.4629C166.194 26.0965 171.269 45.6465 171.776 55.6778C172.748 74.8989 164.155 124.062 162.499 155.349L145.351 154.282C142.408 142.182 135.319 114.174 130.509 98.9451C124.495 79.9087 121.457 47.7181 122.56 40.9611C124.145 31.2458 124.39 24.9506 124.35 21.6003Z" fill="#FFD0C3"/>
<path d="M138.302 131.872L138.454 134.886L165.591 133.514C165.942 122.012 172.624 85.919 171.719 74.3597C171.248 68.3392 159.474 67.9405 149.406 66.6363C139.338 65.3321 128.99 69.4572 125.92 72.0302C123.463 74.0886 126.466 82.8423 128.519 92.804L138.302 131.872Z" fill="#F0F0F0"/>
<path d="M177.041 131.375C178.284 138.103 180.025 154.1 177.041 164.267C179.777 169.5 176.727 174.231 170.16 179.015C172.896 182.255 172.785 195.182 167.413 198.771L115.832 197.697C110.858 197.198 104.962 196.561 106.156 188.188C107.648 177.723 116.602 170.247 118.094 164.267C119.288 159.483 124.461 146.178 126.202 137.207C127.564 133.267 133.664 129.37 140.397 124.343L147.812 117.708C150.61 113.802 153.159 109.632 157.339 109.182C170.16 107.804 166.441 119.527 170.16 123.425C174.837 128.326 175.24 127.766 177.041 131.375Z" fill="#FA4B00"/>
<path d="M123.903 176.272C121.037 182.792 113.715 193.21 110.645 196.775C116.376 202.072 151.501 200.136 168.219 199.117C168.219 199.117 169.147 198.649 171.005 195.118C174.529 188.42 169.847 184.771 175.648 180.381C181.697 175.803 180.709 158.954 178.662 156.407C176.615 153.861 173.545 147.239 152.05 146.22C130.556 145.202 127.485 168.123 123.903 176.272Z" fill="#302A29"/>
<path d="M125.508 180.341C123.669 184.975 114.497 193.951 110.818 197.218C109.346 197.218 108.011 196.033 107.551 195.587C121.809 181.774 124.128 169.202 128.268 160.29C132.407 151.379 147.498 137.599 162.216 138.49C176.934 139.382 178.247 152.567 180.24 155.389V162.518C177.633 159.547 169.845 153.428 159.543 152.715C146.665 151.824 134.707 158.953 131.947 164.3C129.188 169.647 127.808 174.549 125.508 180.341Z" fill="#FDEBE0"/>
<path d="M118.086 152.317C118.454 151.377 119.516 150.912 120.457 151.281C121.397 151.65 121.861 152.711 121.492 153.652C121.251 154.266 120.909 155.404 120.732 156.675C120.553 157.972 120.573 159.216 120.886 160.153C121.207 161.111 120.69 162.148 119.731 162.468C118.773 162.789 117.737 162.272 117.416 161.314C116.846 159.609 116.894 157.719 117.109 156.173C117.327 154.601 117.746 153.185 118.086 152.317Z" fill="#303543"/>
<path d="M228.778 -1.43236L225.086 -60.668C225.086 -60.668 226.349 -60.6749 227.3 -60.6802L284.174 -60.9938C285.204 -60.9995 286.429 -61.1117 286.401 -61.0061L278.083 -5.17359C278.05 -4.87989 278.094 -4.58031 278.206 -4.30699C286.544 16.0716 282.289 36.1403 278.748 44.6436C278.49 45.2629 277.884 45.6467 277.217 45.6504L249.76 45.8018C249.299 45.8043 248.853 45.6255 248.559 45.267C243.57 39.1693 231.152 10.3983 228.81 -1.11035C228.788 -1.2186 228.778 -1.32186 228.778 -1.43236Z" fill="#FFD0C3"/>
<path d="M249.048 49.2552L237.827 25.8403C237.798 20.6992 241.899 9.36582 258.53 5.1611C275.161 0.956384 282.026 8.92644 283.38 13.4371L285.236 28.8506L249.048 49.2552Z" fill="#F0F0F0"/>
<path d="M125.388 182.036C141.647 177.965 163.571 181.644 172.501 183.992C171.392 185.558 171.423 189.341 171.577 191.037C159.568 184.775 116.15 191.428 118.46 190.254C120.307 189.315 123.849 184.384 125.388 182.036Z" fill="#393939"/>
<path d="M143.816 183.275C144.25 180.787 146.62 179.122 149.108 179.556C151.596 179.99 153.261 182.359 152.827 184.848C152.722 185.453 152.611 186.235 152.472 187.212C152.338 188.157 152.183 189.243 152.002 190.339C151.661 192.4 151.151 195.012 150.265 197.008C149.24 199.317 146.538 200.357 144.23 199.333C141.921 198.308 140.88 195.606 141.905 193.297C142.264 192.489 142.631 190.939 142.976 188.848C143.138 187.869 143.279 186.88 143.415 185.925C143.546 185.001 143.68 184.055 143.816 183.275Z" fill="#393939"/>
<path d="M234.659 133.339C232.279 124.303 244.394 104.45 249.647 77.3597L255.105 94.3192L234.659 133.339Z" fill="#FF8F4C"/>
<path d="M288.944 22.3328C298.357 26.537 301.942 43.0841 302.893 51.6357C283.601 66.3955 245.71 89.358 248.481 63.1306C251.945 30.3463 262.712 23.1038 266.587 20.9095C270.461 18.7152 277.178 17.0774 288.944 22.3328Z" fill="#FA4B00"/>
<path d="M248.48 68.1705C248.118 34.5039 270.291 26.1673 281.423 26.2074C298.819 26.1125 306.895 46.3173 303.699 62.6465C299.571 83.74 301.465 89.0552 302.217 112.533C302.969 136.01 290.095 173.136 257.265 166.711C224.436 160.286 234.227 125.021 238.805 117.604C244.657 108.122 248.932 110.254 248.48 68.1705Z" fill="#302A29"/>
<path d="M264.46 34.2671C271.327 27.3439 279.933 27.2895 283.377 28.1277C288.469 28.2628 296.447 34.2635 299.8 37.247C294.048 28.0837 279.43 12.5923 264.337 27.3537C249.244 42.1151 247.716 61.9918 248.416 70.9864C249.375 50.9984 255.877 42.9212 264.46 34.2671Z" fill="#FFE0CC"/>
<path d="M278.675 96.4175C284.176 97.0383 286.924 101.038 288.064 104.539C289.16 107.903 289.108 111.532 288.786 113.864L288.785 113.864C287.849 121.122 285.506 131.875 281.369 140.48C279.306 144.771 276.611 148.926 273.077 151.752C269.362 154.724 264.68 156.22 259.379 154.801C253.987 153.357 250.826 149.64 249.651 144.964C248.578 140.693 249.186 135.827 250.349 131.32C252.695 122.234 257.929 112.296 261.975 105.918C263.038 104.086 264.949 101.647 267.564 99.6907C270.27 97.6666 274.098 95.9012 278.675 96.4175ZM278.423 106.053C278.278 105.91 278.087 105.77 277.625 105.718C276.15 105.552 274.657 106.073 273.171 107.185C271.656 108.318 270.534 109.794 270.041 110.663L269.983 110.766L269.919 110.866C266.119 116.843 261.42 125.88 259.412 133.66C258.394 137.603 258.22 140.659 258.729 142.684C259.136 144.303 259.92 145.256 261.8 145.76C263.771 146.288 265.446 145.872 267.232 144.444C269.198 142.871 271.148 140.138 272.934 136.425C276.484 129.039 278.646 119.343 279.508 112.627L279.511 112.604L279.515 112.581C279.713 111.146 279.687 109.039 279.166 107.438C278.917 106.676 278.63 106.258 278.423 106.053Z" fill="#393939"/>
<path d="M271.533 84.2085C259.5 84.7571 249.849 91.7527 247.129 96.93L249.097 70.9066C269.224 62.9561 292.46 71.4006 301.563 76.6167L301.389 92.2022C299.425 86.4658 283.174 83.6777 271.533 84.2085Z" fill="#393939"/>
<path d="M249.152 158.425L254.016 147.729C255.086 145.376 257.86 144.336 260.213 145.406C262.566 146.476 263.606 149.25 262.536 151.603L257.673 162.299C256.603 164.652 253.828 165.692 251.476 164.622C249.123 163.552 248.083 160.778 249.152 158.425Z" fill="#393939"/>
<path d="M274.628 100.449L276.693 89.004C277.151 86.4604 279.585 84.7704 282.129 85.2292C284.673 85.688 286.363 88.122 285.904 90.6655L283.839 102.111C283.38 104.655 280.946 106.345 278.403 105.886C275.859 105.427 274.169 102.993 274.628 100.449Z" fill="#393939"/>
<path d="M272.928 144.102C275.491 143.776 277.835 145.59 278.161 148.154L279.612 159.541C279.938 162.105 278.125 164.447 275.561 164.774C272.997 165.101 270.654 163.287 270.327 160.724L268.876 149.336C268.55 146.772 270.364 144.429 272.928 144.102Z" fill="#393939"/>
<path d="M278.484 132.48C280.14 130.495 283.091 130.229 285.076 131.885L293.89 139.239C295.874 140.894 296.141 143.845 294.486 145.829C292.83 147.814 289.879 148.081 287.894 146.425L279.079 139.071C277.095 137.416 276.829 134.464 278.484 132.48Z" fill="#393939"/>
<path d="M281.573 112.539C281.505 109.956 283.545 107.806 286.129 107.738L297.206 107.448C299.79 107.38 301.939 109.419 302.007 112.003C302.075 114.587 300.035 116.736 297.452 116.804L286.375 117.095C283.791 117.163 281.641 115.123 281.573 112.539Z" fill="#393939"/>
<path d="M248.778 97.35C250.315 95.2716 253.245 94.8318 255.323 96.3679L266.912 104.933C268.99 106.469 269.43 109.399 267.894 111.478C266.357 113.556 263.427 113.996 261.348 112.46L249.761 103.895C247.682 102.359 247.242 99.4285 248.778 97.35Z" fill="#393939"/>
<path d="M258.485 124.661C258.742 122.09 256.866 119.796 254.295 119.538L242.873 118.392C240.301 118.135 238.008 120.01 237.75 122.581C237.492 125.153 239.367 127.447 241.939 127.705L253.361 128.851C255.933 129.109 258.227 127.233 258.485 124.661Z" fill="#393939"/>
<path d="M254.294 136.392C252.978 134.168 250.108 133.432 247.883 134.748L238.004 140.593C235.78 141.909 235.044 144.778 236.359 147.003C237.675 149.227 240.545 149.964 242.77 148.648L252.65 142.803C254.874 141.487 255.61 138.616 254.294 136.392Z" fill="#393939"/>
<path d="M282.954 54.5931C284.004 53.2944 285.985 53.2944 287.035 54.5931L288.779 56.7484C289.541 57.6899 290.848 57.9882 291.942 57.4704L294.448 56.285C295.958 55.5708 297.743 56.43 298.126 58.056L298.762 60.7543C299.039 61.9331 300.087 62.7689 301.298 62.7773L304.07 62.7967C305.741 62.8083 306.976 64.3567 306.615 65.9879L306.017 68.6948C305.756 69.8773 306.338 71.085 307.425 71.6181L309.914 72.8383C311.414 73.5736 311.855 75.5044 310.823 76.8177L309.109 78.997C308.361 79.9491 308.361 81.2896 309.109 82.2417L310.823 84.421C311.855 85.7343 311.414 87.6651 309.914 88.4004L307.425 89.6206C306.338 90.1537 305.756 91.3614 306.017 92.544L306.615 95.2508C306.976 96.882 305.741 98.4304 304.07 98.442L301.298 98.4614C300.087 98.4698 299.039 99.3056 298.762 100.484L298.126 103.183C297.743 104.809 295.958 105.668 294.448 104.954L291.942 103.768C290.848 103.25 289.541 103.549 288.779 104.49L287.035 106.646C285.985 107.944 284.004 107.944 282.954 106.646L281.21 104.49C280.449 103.549 279.142 103.25 278.047 103.768L275.541 104.954C274.031 105.668 272.246 104.809 271.863 103.183L271.228 100.484C270.95 99.3056 269.902 98.4698 268.691 98.4614L265.919 98.442C264.248 98.4304 263.014 96.882 263.374 95.2508L263.972 92.544C264.233 91.3614 263.651 90.1537 262.564 89.6206L260.075 88.4004C258.575 87.6651 258.134 85.7343 259.167 84.421L260.88 82.2417C261.628 81.2896 261.628 79.9491 260.88 78.997L259.167 76.8177C258.134 75.5044 258.575 73.5736 260.075 72.8383L262.564 71.6181C263.651 71.085 264.233 69.8773 263.972 68.6948L263.374 65.9879C263.014 64.3567 264.248 62.8083 265.919 62.7967L268.691 62.7773C269.902 62.7689 270.95 61.9331 271.228 60.7543L271.863 58.056C272.246 56.43 274.031 55.5708 275.541 56.285L278.047 57.4704C279.142 57.9882 280.449 57.6899 281.21 56.7484L282.954 54.5931Z" fill="#FC9F8B"/>
<path d="M284.992 62.7773L288.168 66.7039L292.734 64.5444L293.892 69.4603L298.942 69.4955L297.853 74.4271L302.388 76.6501L299.266 80.6206L302.388 84.5911L297.853 86.8141L298.942 91.7457L293.892 91.7809L292.734 96.6968L288.168 94.5373L284.992 98.4638L281.815 94.5373L277.25 96.6968L276.092 91.7809L271.041 91.7457L272.131 86.8141L267.596 84.5911L270.717 80.6206L267.596 76.6501L272.131 74.4271L271.041 69.4955L276.092 69.4603L277.25 64.5444L281.815 66.7039L284.992 62.7773Z" fill="#FA4B00"/>
</g>
<path d="M141.127 252.05V254.228C141.127 256.472 140.115 258.474 138.091 260.234C136.067 261.972 133.603 263.182 130.677 263.886L129.313 261.884C131.953 261.158 134.087 260.168 135.715 258.892C137.387 257.616 138.245 256.296 138.245 254.976V254.382H130.853V252.05H141.127ZM146.231 250.862V257H149.245V259.376H146.231V266.064H143.525V250.862H146.231ZM146.803 270.75H132.811V264.04H135.583V268.418H146.803V270.75ZM150.585 261.158H152.741L152.631 255.174H155.337L155.447 261.158H156.173C156.833 261.158 157.471 261.158 158.087 261.136L158.197 255.174H160.903L160.793 261.026C161.761 260.982 162.795 260.894 163.895 260.784V263.072C161.497 263.336 158.879 263.446 156.019 263.446H150.585V261.158ZM150.695 252.094H162.817V254.404H150.695V252.094ZM167.965 250.862V266.064H165.325V260.476H162.927V258.166H165.325V256.604H162.927V254.272H165.325V250.862H167.965ZM168.581 270.75H153.995V264.48H156.679V268.418H168.581V270.75ZM187.63 255.086H172.384V252.732H187.63V255.086ZM188.07 260.41V262.698H181.338V266.658H189.896V268.99H170.118V266.658H178.676V262.698H171.922V260.41H175.046L174.936 255.878H177.598L177.708 260.41H182.24L182.372 255.878H185.034L184.924 260.41H188.07ZM191.5 256.34H197.33C197.462 255.878 197.55 255.416 197.55 254.954V254.382H191.61V252.05H200.256V254.008C200.256 254.8 200.168 255.526 200.014 256.208H202.038V251.148H204.678V262.874H202.038V258.518H199.42V257.924C198.98 258.848 198.364 259.684 197.616 260.454C195.944 262.082 193.964 263.248 191.676 263.952L190.092 262.082C192.182 261.466 193.964 260.498 195.46 259.134C195.68 258.958 195.856 258.738 196.032 258.518H191.5V256.34ZM205.998 250.862H208.704V264.326H205.998V250.862ZM201.972 263.16C201.972 264.546 202.61 265.734 203.908 266.702C205.272 267.736 207.032 268.484 209.232 268.946L207.692 271.036C205.69 270.596 203.82 269.76 202.06 268.506C201.4 268.022 200.894 267.538 200.564 267.054C200.19 267.538 199.662 268.022 199.002 268.506C197.22 269.76 195.35 270.596 193.37 271.036L191.764 268.946C193.986 268.484 195.768 267.736 197.132 266.702C198.452 265.734 199.134 264.546 199.134 263.16V263.05H201.972V263.16ZM221.132 266.68C219.328 266.944 217.414 267.076 215.39 267.076H211.826V258.43H216.842V254.866H211.826V252.556H219.57V260.718H214.576V264.766H215.786C217.48 264.766 219.262 264.634 221.132 264.37V266.68ZM229.074 270.75H226.368V250.862H229.074V270.75ZM222.364 251.28H225.004V270.068H222.364V260.674H220.164V258.364H222.364V251.28ZM239.28 255.02V256.12C239.28 257.88 239.852 259.596 240.996 261.224C241.81 262.456 243.042 263.82 244.692 265.272L242.756 266.9C241.084 265.448 239.742 263.952 238.686 262.412C238.378 261.972 238.136 261.62 237.982 261.334C237.806 261.642 237.542 262.082 237.212 262.61C235.826 264.634 234.44 266.174 233.032 267.23L231.052 265.668C232.592 264.348 233.868 262.918 234.836 261.422C235.958 259.772 236.53 258.012 236.53 256.12V255.02H232.174V252.666H243.548V255.02H239.28ZM248.586 250.862V270.75H245.88V260.036H241.458V257.704H245.88V250.862H248.586ZM256.306 252.556V255.9H265.788V252.556H268.538V263.446H262.378V266.658H270.936V268.99H251.158V266.658H259.716V263.446H253.556V252.556H256.306ZM256.306 258.21V261.136H265.788V258.21H256.306ZM284.375 256.032H272.011V253.876H284.375V256.032ZM281.515 253.26H274.871V251.104H281.515V253.26ZM283.715 259.926C283.715 260.388 283.561 260.828 283.253 261.246C282.945 261.686 282.549 262.06 282.065 262.346C281.559 262.654 280.965 262.874 280.305 263.006C279.601 263.138 278.897 263.204 278.171 263.204C277.467 263.204 276.763 263.138 276.103 262.984C275.399 262.852 274.827 262.654 274.343 262.346C273.859 262.06 273.463 261.686 273.199 261.246C272.891 260.828 272.759 260.388 272.759 259.926C272.759 259.464 272.891 259.024 273.177 258.584C273.441 258.166 273.837 257.792 274.343 257.462C274.827 257.154 275.421 256.912 276.103 256.758C276.763 256.626 277.467 256.538 278.171 256.538C278.897 256.538 279.601 256.626 280.283 256.758C280.943 256.934 281.537 257.154 282.065 257.462C282.549 257.77 282.967 258.122 283.275 258.562C283.561 259.002 283.715 259.464 283.715 259.926ZM280.943 259.926C280.943 259.574 280.701 259.288 280.217 259.046C279.733 258.826 279.051 258.694 278.171 258.694C277.335 258.694 276.675 258.804 276.235 259.024C275.751 259.266 275.531 259.574 275.531 259.926C275.531 260.234 275.751 260.498 276.213 260.718C276.653 260.938 277.291 261.048 278.171 261.048C279.029 261.048 279.711 260.938 280.217 260.718C280.701 260.498 280.943 260.234 280.943 259.926ZM289.303 250.862V263.446H286.575V259.904H283.979V257.528H286.575V250.862H289.303ZM286.553 266.35H278.259V268.506H286.553V266.35ZM289.325 270.75H275.509V264.128H289.325V270.75Z" fill="white"/>
<path d="M82.9387 287.728C82.9387 289.216 83.5147 290.48 84.6987 291.504C85.6907 292.4 86.9227 293.104 88.3627 293.6L87.4987 294.704C86.0587 294.224 84.7307 293.44 83.5147 292.352C82.9547 291.856 82.5067 291.344 82.1707 290.8C81.7547 291.44 81.3227 291.952 80.8907 292.352C79.7227 293.408 78.3947 294.192 76.9067 294.704L76.0427 293.6C77.4347 293.12 78.6507 292.448 79.7067 291.584C80.8907 290.592 81.4827 289.36 81.4827 287.888V286.656H82.9387V287.728ZM89.1147 297.248V298.496H75.3067V297.248H89.1147ZM102.185 288.368H91.7051V287.136H102.185V288.368ZM102.521 292.704V293.904H97.6411V297.248H103.849V298.496H90.0411V297.248H96.2491V293.904H91.3531V292.704H93.6251L93.5451 289.28H94.9051L94.9851 292.704H98.8731L98.9531 289.28H100.313L100.217 292.704H102.521ZM116.903 290.016H112.407C112.599 290.88 113.111 291.616 113.975 292.224C114.967 292.992 116.167 293.568 117.543 293.952L116.759 294.976C115.351 294.64 114.103 294.032 113.015 293.168C112.519 292.8 112.071 292.352 111.655 291.824C111.239 292.4 110.791 292.848 110.311 293.184C109.191 294.048 107.943 294.64 106.567 294.976L105.783 293.936C107.143 293.536 108.327 292.976 109.335 292.256C110.199 291.632 110.727 290.88 110.935 290.016H106.455V288.8H116.903V290.016ZM114.487 287.52H108.871V286.272H114.487V287.52ZM118.583 297.248V298.496H104.775V297.248H118.583ZM127.302 287.008V288.512C127.302 290.48 126.582 292.272 125.142 293.872C123.718 295.392 122.214 296.48 120.63 297.12L119.702 296.096C121.43 295.312 122.854 294.304 123.958 293.056C125.174 291.648 125.798 290.288 125.798 289.008V288.256H120.438V287.008H127.302ZM130.902 285.76V291.152H133.238V292.48H130.902V299.776H129.478V285.76H130.902ZM146.939 289.504C146.939 289.952 146.843 290.368 146.651 290.768C146.443 291.184 146.171 291.536 145.835 291.824C145.483 292.128 145.099 292.368 144.651 292.528C144.203 292.704 143.723 292.784 143.227 292.784C142.715 292.784 142.251 292.704 141.803 292.528C141.355 292.368 140.955 292.128 140.619 291.824C140.299 291.536 140.043 291.184 139.851 290.768C139.643 290.368 139.547 289.952 139.547 289.504C139.547 289.056 139.643 288.64 139.851 288.224C140.043 287.84 140.299 287.488 140.619 287.168C140.955 286.88 141.355 286.64 141.803 286.448C142.251 286.288 142.715 286.192 143.227 286.192C143.723 286.192 144.203 286.288 144.651 286.448C145.099 286.64 145.483 286.88 145.835 287.168C146.171 287.488 146.443 287.84 146.651 288.224C146.843 288.64 146.939 289.056 146.939 289.504ZM145.515 289.504C145.515 288.944 145.291 288.448 144.843 288.016C144.395 287.6 143.851 287.392 143.227 287.392C142.587 287.392 142.059 287.6 141.627 288.016C141.179 288.448 140.971 288.944 140.971 289.504C140.971 290.08 141.179 290.56 141.627 290.96C142.059 291.376 142.587 291.584 143.227 291.584C143.851 291.584 144.395 291.376 144.843 290.96C145.291 290.56 145.515 290.08 145.515 289.504ZM151.563 285.76V293.04H150.171V285.76H151.563ZM151.851 299.776H142.139V296.208H150.155V294.944H142.139V293.808H151.579V297.328H143.595V298.624H151.851V299.776ZM159.081 287.792C159.081 289.008 159.497 290.064 160.329 290.96C161.033 291.728 161.881 292.352 162.873 292.848L162.025 293.776C161.065 293.328 160.137 292.64 159.241 291.712C158.953 291.424 158.681 291.088 158.441 290.72C158.169 291.168 157.881 291.568 157.593 291.888C156.665 292.912 155.705 293.68 154.729 294.176L153.785 293.232C154.777 292.72 155.641 292.048 156.377 291.216C157.209 290.304 157.641 289.232 157.641 287.984V286.336H159.081V287.792ZM165.753 294.24H164.345V285.76H165.753V289.312H167.849V290.592H165.753V294.24ZM164.729 297.376C164.729 297.152 164.617 296.928 164.425 296.72C164.201 296.528 163.945 296.368 163.657 296.24C163.337 296.112 162.921 296.016 162.441 295.92C161.945 295.84 161.465 295.792 160.985 295.792C160.489 295.792 159.993 295.84 159.497 295.92C158.985 296.016 158.585 296.112 158.313 296.24C157.993 296.4 157.753 296.56 157.577 296.752C157.385 296.944 157.289 297.152 157.289 297.376C157.289 297.6 157.369 297.808 157.561 298.016C157.721 298.24 157.977 298.4 158.313 298.528C158.665 298.656 159.065 298.752 159.545 298.816C160.009 298.88 160.489 298.912 160.985 298.912C161.465 298.912 161.945 298.88 162.425 298.816C162.889 298.752 163.305 298.656 163.657 298.528C163.977 298.4 164.249 298.24 164.441 298.016C164.633 297.808 164.729 297.6 164.729 297.376ZM166.153 297.376C166.153 297.792 166.025 298.176 165.769 298.496C165.513 298.832 165.161 299.12 164.713 299.376C164.265 299.648 163.705 299.84 163.033 299.952C162.345 300.08 161.657 300.144 160.985 300.144C160.281 300.144 159.609 300.08 158.953 299.952C158.281 299.84 157.721 299.648 157.273 299.392C156.825 299.136 156.473 298.832 156.233 298.496C155.977 298.176 155.865 297.792 155.865 297.376C155.865 296.96 155.977 296.576 156.233 296.24C156.473 295.92 156.825 295.616 157.273 295.36C157.721 295.104 158.281 294.896 158.953 294.768C159.609 294.64 160.281 294.576 160.985 294.576C161.657 294.576 162.345 294.64 163.033 294.768C163.705 294.896 164.265 295.104 164.713 295.36C165.145 295.616 165.497 295.92 165.769 296.24C166.025 296.592 166.153 296.96 166.153 297.376ZM169.544 292.032C169.544 290.592 169.896 289.36 170.616 288.304C171.352 287.264 172.232 286.736 173.288 286.736C174.312 286.736 175.208 287.264 175.976 288.304C176.712 289.328 177.08 290.576 177.08 292.032C177.08 293.472 176.712 294.704 175.976 295.744C175.256 296.768 174.36 297.28 173.288 297.28C172.232 297.28 171.352 296.768 170.616 295.744C169.896 294.72 169.544 293.488 169.544 292.032ZM170.952 292.032C170.952 293.072 171.144 293.984 171.56 294.784C172.04 295.632 172.616 296.048 173.288 296.048C173.96 296.048 174.536 295.632 175.016 294.784C175.448 293.968 175.672 293.056 175.672 292.032C175.672 290.96 175.448 290.048 175.032 289.28C174.52 288.416 173.944 287.968 173.288 287.968C172.584 287.968 172.008 288.416 171.56 289.28C171.144 290.08 170.952 291.008 170.952 292.032ZM181.096 285.76V299.776H179.704V285.76H181.096ZM192.278 296.768C190.774 296.992 189.03 297.104 187.078 297.104H184.262V291.264H189.238V288.224H184.262V287.008H190.662V292.48H185.686V295.888H186.998C188.998 295.888 190.758 295.792 192.278 295.568V296.768ZM195.078 285.76V291.168H197.334V292.496H195.078V299.776H193.654V285.76H195.078ZM206.165 293.712H199.381V286.704H206.165V288.048H209.253V285.76H210.677V296.368H209.253V292.576H206.165V293.712ZM206.165 289.2V291.424H209.253V289.2H206.165ZM204.773 292.496V287.92H200.789V292.496H204.773ZM211.061 299.776H201.077V295.392H202.517V298.544H211.061V299.776ZM223.066 288.832C223.066 290.512 223.45 291.936 224.218 293.12C224.954 294.208 225.834 295.152 226.89 295.92L225.914 296.784C224.922 296.048 223.962 295.024 223.034 293.744C222.81 293.456 222.586 293.088 222.362 292.624C222.106 293.136 221.882 293.568 221.674 293.92C220.906 295.136 219.93 296.192 218.762 297.104L217.706 296.208C218.762 295.424 219.658 294.448 220.426 293.296C221.226 292.096 221.626 290.56 221.626 288.704V286.816H223.066V288.832ZM229.514 285.76V290.864H231.85V292.192H229.514V299.776H228.09V285.76H229.514ZM244.808 287.008V289.984C244.808 291.808 244.568 293.568 244.104 295.264H242.68C243.144 293.824 243.384 292.096 243.384 290.112V288.24H234.44V287.008H244.808ZM246.552 298.496H232.744V297.248H238.04V292.096H239.448V297.248H246.552V298.496ZM249.671 286.304V288.304H253.767V286.304H255.175V292.656H248.263V286.304H249.671ZM249.671 289.456V291.488H253.767V289.456H249.671ZM259.207 293.152H257.799V285.76H259.207V288.88H261.303V290.16H259.207V293.152ZM259.479 299.776H249.943V296.208H257.783V294.944H249.943V293.808H259.223V297.328H251.383V298.624H259.479V299.776ZM265.205 288.064V286.336H266.613V287.744C266.613 289.024 266.917 290.064 267.541 290.848C268.213 291.712 268.965 292.416 269.781 292.96L268.853 293.792C268.197 293.344 267.605 292.816 267.077 292.24C266.725 291.856 266.357 291.376 265.973 290.816C265.685 291.328 265.397 291.744 265.125 292.08C264.453 292.944 263.733 293.648 262.949 294.192L261.941 293.328C262.997 292.56 263.813 291.712 264.405 290.784C264.933 289.936 265.205 289.024 265.205 288.064ZM274.965 294.272H273.589V290.592H271.861V293.872H270.501V285.984H271.861V289.392H273.589V285.76H274.965V294.272ZM269.813 300.144C269.125 300.144 268.437 300.08 267.749 299.952C267.045 299.84 266.485 299.664 266.037 299.424C265.573 299.2 265.221 298.912 264.965 298.56C264.693 298.24 264.565 297.856 264.565 297.44C264.565 297.04 264.693 296.672 264.949 296.32C265.205 296 265.557 295.696 266.037 295.44C266.485 295.184 267.045 295.008 267.749 294.88C268.437 294.768 269.125 294.704 269.813 294.704C270.517 294.704 271.205 294.768 271.909 294.88C272.581 295.008 273.157 295.184 273.637 295.44C274.117 295.696 274.485 296 274.741 296.32C274.997 296.672 275.125 297.04 275.125 297.44C275.125 297.856 274.997 298.24 274.741 298.56C274.469 298.896 274.101 299.184 273.637 299.408C273.157 299.664 272.581 299.84 271.909 299.952C271.205 300.08 270.517 300.144 269.813 300.144ZM269.813 298.912C270.357 298.912 270.885 298.88 271.413 298.8C271.925 298.736 272.357 298.64 272.693 298.512C272.981 298.384 273.237 298.224 273.429 298.032C273.605 297.856 273.701 297.664 273.701 297.44C273.701 297.216 273.605 297.008 273.445 296.832C273.253 296.672 272.997 296.512 272.677 296.352C272.325 296.208 271.909 296.096 271.413 296.016C270.901 295.952 270.373 295.92 269.813 295.92C269.269 295.92 268.741 295.952 268.245 296.016C267.733 296.096 267.317 296.208 266.997 296.352C266.645 296.512 266.405 296.672 266.245 296.832C266.085 297.008 266.005 297.216 266.005 297.44C266.005 297.664 266.085 297.856 266.245 298.016C266.405 298.208 266.645 298.368 266.997 298.512C267.317 298.656 267.733 298.752 268.261 298.816C268.773 298.88 269.285 298.912 269.813 298.912ZM294.074 287.552H289.61C289.834 288.32 290.362 288.96 291.226 289.472C292.154 290.08 293.322 290.528 294.698 290.848L293.93 291.856C292.602 291.6 291.354 291.088 290.186 290.304C289.738 290.016 289.306 289.632 288.89 289.168C288.474 289.648 288.026 290.032 287.578 290.32C286.394 291.088 285.162 291.6 283.85 291.856L283.05 290.832C284.458 290.512 285.61 290.064 286.522 289.488C287.37 288.976 287.914 288.32 288.154 287.552H283.722V286.336H294.074V287.552ZM295.802 292.832V294.048H281.994V292.832H295.802ZM294.058 300.064H292.634V296.656H283.626V295.456H294.058V300.064ZM302.121 288.832C302.121 290.512 302.505 291.936 303.273 293.12C304.009 294.208 304.889 295.152 305.945 295.92L304.969 296.784C303.945 296.048 302.985 295.024 302.073 293.744C301.849 293.456 301.609 293.088 301.385 292.624C301.161 293.136 300.921 293.568 300.697 293.92C299.945 295.072 298.985 296.128 297.817 297.104L296.761 296.208C297.817 295.424 298.713 294.448 299.481 293.296C300.281 292.096 300.681 290.56 300.681 288.704V286.816H302.121V288.832ZM309.065 285.76V299.776H307.673V285.76H309.065ZM314.631 287.008V289.424H322.103V287.008H323.527V294.448H319.063V297.248H325.271V298.496H311.463V297.248H317.671V294.448H313.207V287.008H314.631ZM314.631 290.64V293.232H322.103V290.64H314.631ZM331.381 288.272C331.381 289.296 331.797 290.24 332.645 291.104C333.269 291.776 334.085 292.352 335.109 292.848L334.277 293.776C333.285 293.328 332.357 292.656 331.493 291.76C331.237 291.552 330.965 291.232 330.677 290.816C330.517 291.168 330.197 291.584 329.749 292.032C328.885 292.928 327.989 293.632 327.045 294.176L326.117 293.248C327.109 292.688 327.941 292.064 328.581 291.376C329.493 290.448 329.957 289.408 329.957 288.272V287.856H326.805V286.656H334.485V287.856H331.381V288.272ZM337.925 294.24H336.517V285.76H337.925V289.312H340.021V290.592H337.925V294.24ZM336.901 297.376C336.901 297.152 336.789 296.928 336.597 296.72C336.373 296.528 336.117 296.368 335.829 296.24C335.509 296.112 335.093 296.016 334.613 295.92C334.117 295.84 333.637 295.792 333.157 295.792C332.661 295.792 332.165 295.84 331.669 295.92C331.157 296.016 330.757 296.112 330.485 296.24C330.165 296.4 329.925 296.56 329.749 296.752C329.557 296.944 329.461 297.152 329.461 297.376C329.461 297.6 329.541 297.808 329.733 298.016C329.893 298.24 330.149 298.4 330.485 298.528C330.837 298.656 331.237 298.752 331.717 298.816C332.181 298.88 332.661 298.912 333.157 298.912C333.637 298.912 334.117 298.88 334.597 298.816C335.061 298.752 335.477 298.656 335.829 298.528C336.149 298.4 336.421 298.24 336.613 298.016C336.805 297.808 336.901 297.6 336.901 297.376ZM338.325 297.376C338.325 297.792 338.197 298.176 337.941 298.496C337.685 298.832 337.333 299.12 336.885 299.376C336.437 299.648 335.877 299.84 335.205 299.952C334.517 300.08 333.829 300.144 333.157 300.144C332.453 300.144 331.781 300.08 331.125 299.952C330.453 299.84 329.893 299.648 329.445 299.392C328.997 299.136 328.645 298.832 328.405 298.496C328.149 298.176 328.037 297.792 328.037 297.376C328.037 296.96 328.149 296.576 328.405 296.24C328.645 295.92 328.997 295.616 329.445 295.36C329.893 295.104 330.453 294.896 331.125 294.768C331.781 294.64 332.453 294.576 333.157 294.576C333.829 294.576 334.517 294.64 335.205 294.768C335.877 294.896 336.437 295.104 336.885 295.36C337.317 295.616 337.669 295.92 337.941 296.24C338.197 296.592 338.325 296.96 338.325 297.376ZM343.556 286.064V288.704L343.316 295.904H342.228L342.068 288.704V286.064H343.556ZM343.716 299.104H341.892V297.232H343.716V299.104Z" fill="#F5F5F5"/>
<defs>
<clipPath id="clip0_7755_82926">
<rect width="207.754" height="219.774" fill="white" transform="translate(106)"/>
</clipPath>
</defs>
</svg>
