<svg width="420" height="346" viewBox="0 0 420 346" fill="none" xmlns="http://www.w3.org/2000/svg">
<path d="M0 24C0 10.7452 10.7452 0 24 0H396C409.255 0 420 10.7452 420 24V322C420 335.255 409.255 346 396 346H24C10.7452 346 0 335.255 0 322V24Z" fill="#EF5A5A"/>
<path d="M24 42C24 32.0589 32.0589 24 42 24H69C78.9411 24 87 32.0589 87 42C87 51.9411 78.9411 60 69 60H42C32.0589 60 24 51.9411 24 42Z" fill="black" fill-opacity="0.5"/>
<path d="M46.7234 37.544V35.794H47.9834V37.516C47.9834 38.496 48.3334 39.364 49.0474 40.134C49.7194 40.876 50.4754 41.478 51.3154 41.94L50.5174 42.752C49.5654 42.206 48.7394 41.534 48.0254 40.722C47.8154 40.498 47.6054 40.204 47.3814 39.826C47.1574 40.232 46.9194 40.582 46.6674 40.862C45.8974 41.758 45.0714 42.472 44.1754 42.99L43.3494 42.192C44.2454 41.646 45.0014 41.016 45.6174 40.302C46.3454 39.406 46.7234 38.496 46.7234 37.544ZM54.0034 35.29V44.572H52.7854V35.29H54.0034ZM54.3674 47.554H45.6454V43.718H46.8914V46.476H54.3674V47.554ZM63.704 42.136C62.402 42.276 61.002 42.332 59.504 42.332H56.816V36.046H62.654V37.068H58.062V38.58H62.584V39.588H58.062V41.296H59.448C60.988 41.296 62.416 41.24 63.704 41.1V42.136ZM66.42 35.29V38.482H68.254V39.588H66.42V42.822H65.188V35.29H66.42ZM58.146 43.592H66.42V47.806H65.188V44.67H58.146V43.592Z" fill="white"/>
<ellipse cx="203.171" cy="207.686" rx="89.8895" ry="22.092" fill="#DD3E3E"/>
<path d="M186.314 155.307C186.314 160.578 176.954 164.851 165.408 164.851C153.862 164.851 144.502 160.578 144.502 155.307C144.502 150.035 153.862 145.762 165.408 145.762C176.954 145.762 186.314 150.035 186.314 155.307Z" fill="#FACD5F"/>
<path d="M144.502 95.7695H186.314V154.852H144.502V95.7695Z" fill="#FACD5F"/>
<ellipse cx="165.408" cy="96.2238" rx="20.9061" ry="9.5441" fill="#FFD686"/>
<path d="M144.527 102.133C144.511 102.283 144.502 102.435 144.502 102.587C144.502 107.858 153.862 112.132 165.408 112.132C176.955 112.132 186.315 107.858 186.315 102.587C186.315 102.435 186.306 102.283 186.29 102.133H186.315V108.495H186.29C186.306 108.646 186.315 108.798 186.315 108.95C186.314 114.221 176.954 118.494 165.408 118.494C153.862 118.494 144.502 114.221 144.502 108.95C144.502 108.798 144.511 108.646 144.527 108.495H144.502V102.133H144.527Z" fill="#F8B62B"/>
<path d="M144.527 113.949C144.511 114.1 144.502 114.251 144.502 114.403C144.502 119.674 153.862 123.948 165.408 123.948C176.955 123.948 186.315 119.674 186.315 114.403C186.315 114.251 186.306 114.1 186.29 113.949H186.315V120.312H186.29C186.306 120.462 186.315 120.614 186.315 120.767C186.314 126.038 176.954 130.311 165.408 130.311C153.862 130.311 144.502 126.038 144.502 120.767C144.502 120.614 144.511 120.462 144.527 120.312H144.502V113.949H144.527Z" fill="#FFD686"/>
<path d="M144.527 126.676C144.511 126.826 144.502 126.978 144.502 127.13C144.502 132.401 153.862 136.675 165.408 136.675C176.955 136.675 186.315 132.401 186.315 127.13C186.315 126.978 186.306 126.826 186.29 126.676H186.315V133.038H186.29C186.306 133.189 186.315 133.341 186.315 133.493C186.314 138.764 176.954 143.037 165.408 143.037C153.862 143.037 144.502 138.764 144.502 133.493C144.502 133.341 144.511 133.189 144.527 133.038H144.502V126.676H144.527Z" fill="#F8B62B"/>
<path d="M144.527 138.492C144.511 138.643 144.502 138.794 144.502 138.946C144.502 144.217 153.862 148.491 165.408 148.491C176.955 148.491 186.315 144.217 186.315 138.946C186.315 138.794 186.306 138.643 186.29 138.492H186.315V144.854H186.29C186.306 145.005 186.315 145.157 186.315 145.31C186.314 150.581 176.954 154.853 165.408 154.854C153.862 154.854 144.502 150.581 144.502 145.31C144.502 145.157 144.511 145.005 144.527 144.854H144.502V138.492H144.527Z" fill="#FFD686"/>
<path d="M228.127 122.584C228.127 127.855 218.767 132.128 207.221 132.128C195.674 132.128 186.314 127.855 186.314 122.584C186.314 117.313 195.674 113.04 207.221 113.04C218.767 113.04 228.127 117.313 228.127 122.584Z" fill="#FACD5F"/>
<path d="M186.314 63.0469H228.127V122.129H186.314V63.0469Z" fill="#FACD5F"/>
<ellipse cx="207.221" cy="63.5011" rx="20.9061" ry="9.5441" fill="#FFD686"/>
<path d="M186.339 69.4102C186.323 69.5607 186.314 69.712 186.314 69.8643C186.314 75.1353 195.675 79.4092 207.221 79.4092C218.767 79.4092 228.127 75.1353 228.127 69.8643C228.127 69.712 228.118 69.5607 228.103 69.4102H228.127V75.7725H228.103C228.118 75.9232 228.127 76.075 228.127 76.2275C228.127 81.4985 218.767 85.7715 207.221 85.7715C195.675 85.7715 186.315 81.4985 186.314 76.2275C186.314 76.075 186.323 75.9232 186.339 75.7725H186.314V69.4102H186.339Z" fill="#F8B62B"/>
<path d="M186.339 81.2266C186.323 81.3771 186.314 81.5284 186.314 81.6807C186.314 86.9517 195.675 91.2256 207.221 91.2256C218.767 91.2256 228.127 86.9517 228.127 81.6807C228.127 81.5284 228.118 81.3771 228.103 81.2266H228.127V87.5889H228.103C228.118 87.7396 228.127 87.8914 228.127 88.0439C228.127 93.3149 218.767 97.5879 207.221 97.5879C195.675 97.5879 186.315 93.3149 186.314 88.0439C186.314 87.8914 186.323 87.7397 186.339 87.5889H186.314V81.2266H186.339Z" fill="#FFD686"/>
<path d="M186.339 93.9531C186.323 94.1036 186.314 94.255 186.314 94.4072C186.314 99.6783 195.675 103.952 207.221 103.952C218.767 103.952 228.127 99.6783 228.127 94.4072C228.127 94.255 228.118 94.1036 228.103 93.9531H228.127V100.315H228.103C228.118 100.466 228.127 100.618 228.127 100.771C228.127 106.041 218.767 110.314 207.221 110.314C195.675 110.314 186.315 106.041 186.314 100.771C186.314 100.618 186.323 100.466 186.339 100.315H186.314V93.9531H186.339Z" fill="#FCDC7F"/>
<path d="M186.339 105.77C186.323 105.92 186.314 106.071 186.314 106.224C186.314 111.495 195.675 115.769 207.221 115.769C218.767 115.769 228.127 111.495 228.127 106.224C228.127 106.071 228.118 105.92 228.103 105.77H228.127V112.132H228.103C228.118 112.283 228.127 112.434 228.127 112.587C228.127 117.858 218.767 122.131 207.221 122.131C195.675 122.131 186.315 117.858 186.314 112.587C186.314 112.434 186.323 112.283 186.339 112.132H186.314V105.77H186.339Z" fill="#F8B62B"/>
<path d="M165.408 177.122C165.408 182.393 156.048 186.666 144.502 186.666C132.956 186.666 123.596 182.393 123.596 177.122C123.596 171.851 132.956 167.578 144.502 167.578C156.048 167.578 165.408 171.851 165.408 177.122Z" fill="#FACD5F"/>
<path d="M123.596 170.305H144.502H165.408V176.668H123.596V170.305Z" fill="#FACD5F"/>
<path d="M165.408 170.759C165.408 176.03 156.048 180.303 144.502 180.303C132.956 180.303 123.596 176.03 123.596 170.759C123.596 165.488 132.956 161.215 144.502 161.215C156.048 161.215 165.408 165.488 165.408 170.759Z" fill="#FFD686"/>
<path d="M150.865 168.486C150.865 173.757 141.505 178.03 129.959 178.03C118.413 178.03 109.053 173.757 109.053 168.486C109.053 163.214 118.413 158.941 129.959 158.941C141.505 158.941 150.865 163.214 150.865 168.486Z" fill="#F8B62B"/>
<path d="M109.053 161.668H129.959H150.865V168.031H109.053V161.668Z" fill="#F8B62B"/>
<path d="M150.865 162.579C150.865 167.85 141.505 172.123 129.959 172.123C118.413 172.123 109.053 167.85 109.053 162.579C109.053 157.308 118.413 153.035 129.959 153.035C141.505 153.035 150.865 157.308 150.865 162.579Z" fill="#FFD686"/>
<path d="M309.948 168.943C309.948 174.214 300.588 178.487 289.041 178.487C277.495 178.487 268.135 174.214 268.135 168.943C268.135 163.671 277.495 159.398 289.041 159.398C300.588 159.398 309.948 163.671 309.948 168.943Z" fill="#F8B62B"/>
<path d="M268.135 162.125H289.041H309.948V168.488H268.135V162.125Z" fill="#F8B62B"/>
<path d="M309.948 162.579C309.948 167.85 300.588 172.123 289.041 172.123C277.495 172.123 268.135 167.85 268.135 162.579C268.135 157.308 277.495 153.035 289.041 153.035C300.588 153.035 309.948 157.308 309.948 162.579Z" fill="#FFD686"/>
<path d="M277.407 140.284C278.503 140.225 279.443 140.998 279.508 142.01C279.572 143.023 278.736 143.892 277.64 143.952C275.747 144.055 274.193 144.367 272.926 144.814C276.168 146.822 278.245 149.823 279.036 152.683C279.61 154.764 279.565 157.003 278.499 158.796C277.353 160.722 275.217 161.809 272.476 161.707C269.649 161.603 267.352 160.114 265.846 158.166C264.343 156.221 263.516 153.696 263.614 151.159C263.68 149.445 264.171 147.699 265.184 146.116C262.257 145.825 260.458 146.491 259.365 147.283C258.008 148.265 257.423 149.665 257.307 150.593C257.181 151.601 256.195 152.324 255.105 152.207C254.015 152.091 253.232 151.18 253.358 150.172C253.574 148.448 254.578 146.082 256.914 144.391C259.32 142.649 262.854 141.827 267.668 142.77C267.906 142.817 268.14 142.868 268.37 142.924C270.609 141.437 273.612 140.491 277.407 140.284ZM269.273 147.115C268.17 148.334 267.644 149.799 267.586 151.29C267.519 153.038 268.1 154.761 269.08 156.03C270.058 157.295 271.322 157.988 272.635 158.036C274.034 158.088 274.672 157.606 275.016 157.026C275.441 156.312 275.603 155.108 275.184 153.592C274.51 151.153 272.49 148.51 269.273 147.115Z" fill="#E8737E"/>
<path d="M183.758 199.946C182.638 203.959 178.165 206.384 173.768 205.361C169.371 204.339 166.715 200.257 167.834 196.244L169.433 184.635C170.553 180.621 176.566 178.555 180.963 179.577C185.361 180.599 189.558 185.039 188.438 189.052L183.758 199.946Z" fill="#FFA3AC"/>
<ellipse cx="210.741" cy="161.713" rx="52.668" ry="47.7638" fill="#FFAEB6"/>
<path d="M162.45 163.488L152.534 172.726L175.837 189.848L190.711 172.726L162.45 163.488Z" fill="#FFAEB6"/>
<path d="M192.162 164.156C192.213 166.044 192.001 167.898 190.861 169.525C189.72 171.153 188.013 171.105 187.128 169.362C185.683 166.502 185.874 163.627 187.565 160.924C188.627 159.235 190.303 159.362 191.279 161.081C191.824 162.045 192.111 163.076 192.155 164.174L192.168 164.168L192.162 164.156Z" fill="#771111"/>
<path d="M164.499 160.595C164.443 158.991 164.685 157.197 165.782 155.594C166.894 153.972 168.657 153.96 169.543 155.703C170.988 158.548 170.858 161.448 169.083 164.143C167.973 165.83 166.384 165.674 165.357 163.948C164.783 162.974 164.6 161.928 164.509 160.598L164.503 160.587L164.499 160.595Z" fill="#771111"/>
<ellipse cx="10.8262" cy="9.43669" rx="10.8262" ry="9.43669" transform="matrix(0.999897 0.0143719 -0.017252 0.999851 193.958 172.125)" fill="#F96C79"/>
<path d="M191.157 128.759C190.023 130.119 190.193 132.119 191.539 133.227C192.884 134.335 194.894 134.131 196.029 132.771L193.593 130.765L191.157 128.759ZM215.563 123.942C217.323 123.921 218.756 122.482 218.765 120.728C218.773 118.974 217.353 117.569 215.593 117.59L215.578 120.766L215.563 123.942ZM193.593 130.765C196.029 132.771 196.028 132.772 196.028 132.773C196.027 132.773 196.027 132.774 196.026 132.775C196.025 132.776 196.025 132.777 196.024 132.777C196.023 132.779 196.022 132.78 196.022 132.78C196.021 132.781 196.022 132.779 196.026 132.775C196.032 132.768 196.046 132.751 196.068 132.727C196.112 132.677 196.185 132.595 196.289 132.484C196.495 132.263 196.819 131.929 197.254 131.52C198.127 130.701 199.437 129.59 201.139 128.471C204.549 126.232 209.448 124.016 215.563 123.942L215.578 120.766L215.593 117.59C207.926 117.683 201.833 120.467 197.696 123.185C195.625 124.546 194.022 125.903 192.926 126.932C192.377 127.447 191.953 127.883 191.657 128.2C191.509 128.359 191.393 128.488 191.309 128.582C191.268 128.63 191.234 128.668 191.209 128.698C191.196 128.713 191.186 128.725 191.177 128.735C191.173 128.741 191.169 128.745 191.166 128.749C191.164 128.751 191.163 128.753 191.161 128.754C191.16 128.755 191.16 128.756 191.159 128.757C191.158 128.758 191.157 128.759 193.593 130.765Z" fill="#771111"/>
<path d="M160.255 133.268C159.409 129.2 162.337 125.276 166.795 124.504C171.253 123.732 175.552 126.404 176.398 130.473L180.332 141.609C181.177 145.678 176.687 149.873 172.229 150.645C167.771 151.417 161.909 149.015 161.064 144.946L160.255 133.268Z" fill="#FFAEB6"/>
<path d="M227.692 206.98C228.866 210.98 226.265 215.092 221.882 216.164C217.499 217.236 212.994 214.862 211.82 210.862L206.992 200.022C205.817 196.022 209.954 191.535 214.337 190.463C218.72 189.391 224.761 191.39 225.935 195.39L227.692 206.98Z" fill="#FFAEB6"/>
<path d="M262.145 187.144C263.319 191.145 260.718 195.256 256.335 196.328C251.952 197.4 247.447 195.026 246.273 191.026L241.445 180.187C240.27 176.186 244.407 171.699 248.79 170.627C253.173 169.555 259.214 171.554 260.388 175.554L262.145 187.144Z" fill="#FFAEB6"/>
<path d="M215.307 137.594C217.86 134.17 222.97 133.283 226.721 135.613C230.473 137.942 231.445 142.607 228.892 146.031L223.051 156.446C220.498 159.87 214.073 159.941 210.322 157.611C206.57 155.281 204.284 149.801 206.836 146.377L215.307 137.594Z" fill="#FFAEB6"/>
<path d="M177.402 132.129L174.846 127.422" stroke="#E8737E" stroke-width="0.908962" stroke-linecap="round"/>
<path d="M210.406 146.443L217.109 139.464C220.327 136.095 226.226 135.614 229.444 138.502C233.997 142.588 228.55 150.775 226.226 155.589" stroke="#E8737E" stroke-width="0.908962" stroke-linecap="round"/>
<path d="M174.959 196.664C177.686 199.391 183.595 202.118 183.595 202.118" stroke="#E8737E" stroke-width="0.908962" stroke-linecap="round"/>
<ellipse cx="16.9737" cy="11.1133" rx="16.9737" ry="11.1133" transform="matrix(0.920811 0.390009 -0.45323 0.891394 157.38 163.156)" fill="#F96C79"/>
<path d="M154.962 170.307C156.78 168.943 159.962 166.671 163.143 165.762" stroke="#E8737E" stroke-width="0.908962" stroke-linecap="round"/>
<path d="M169.804 183.104V177.507C169.804 176.793 170.415 176.215 171.168 176.215C171.921 176.215 172.531 176.793 172.531 177.507V183.104C172.531 183.817 171.921 184.396 171.168 184.396C170.415 184.396 169.804 183.817 169.804 183.104Z" fill="#771111"/>
<path d="M160.715 180.373V174.776C160.715 174.063 161.326 173.484 162.079 173.484C162.832 173.484 163.442 174.063 163.442 174.776V180.373C163.442 181.087 162.832 181.665 162.079 181.665C161.326 181.665 160.715 181.087 160.715 180.373Z" fill="#771111"/>
<path d="M255.403 184.394C256.976 182.271 258.464 181.113 260.054 176.41" stroke="#E8737E" stroke-width="0.908962" stroke-linecap="round"/>
<path d="M129.371 256.34H117.029V254.118H129.371V256.34ZM126.511 253.326H119.889V251.104H126.511V253.326ZM128.733 260.718C128.733 261.202 128.579 261.708 128.293 262.192C127.985 262.72 127.589 263.138 127.105 263.446C126.599 263.798 126.027 264.062 125.367 264.216C124.685 264.392 123.959 264.48 123.211 264.48C122.507 264.48 121.803 264.392 121.143 264.216C120.461 264.062 119.867 263.798 119.383 263.446C118.855 263.138 118.481 262.72 118.217 262.192C117.931 261.708 117.799 261.202 117.799 260.718C117.799 260.212 117.931 259.706 118.217 259.2C118.481 258.716 118.855 258.32 119.361 257.968C119.867 257.638 120.461 257.374 121.143 257.154C121.803 256.978 122.507 256.868 123.211 256.868C123.959 256.868 124.685 256.978 125.367 257.154C126.027 257.374 126.599 257.638 127.105 257.968C127.589 258.32 127.985 258.716 128.293 259.2C128.579 259.706 128.733 260.212 128.733 260.718ZM125.983 260.718C125.983 260.3 125.719 259.926 125.235 259.596C124.707 259.288 124.047 259.112 123.211 259.112C122.375 259.112 121.737 259.288 121.275 259.596C120.791 259.926 120.571 260.3 120.571 260.718C120.571 261.136 120.791 261.488 121.275 261.796C121.737 262.104 122.375 262.258 123.211 262.258C124.047 262.258 124.707 262.104 125.235 261.774C125.719 261.466 125.983 261.114 125.983 260.718ZM133.573 266.064H130.845V250.862H133.573V257.352H136.301V259.728H133.573V266.064ZM134.145 270.75H119.889V265.316H122.661V268.44H134.145V270.75ZM149.96 256.758H137.244V254.58H149.96V256.758ZM147.034 253.876H140.17V251.676H147.034V253.876ZM149.278 260.96C149.278 261.444 149.124 261.906 148.838 262.368C148.53 262.852 148.112 263.248 147.628 263.578C147.078 263.886 146.462 264.128 145.802 264.282C145.538 264.348 145.274 264.392 145.01 264.414V265.844C146.66 265.778 148.574 265.646 150.774 265.426V267.736C147.584 268.044 144.526 268.198 141.578 268.198H136.914V265.888H142.326V264.414C142.018 264.392 141.732 264.348 141.468 264.282C140.786 264.128 140.192 263.886 139.664 263.578C139.136 263.248 138.74 262.852 138.476 262.368C138.19 261.906 138.058 261.444 138.058 260.96C138.058 260.476 138.19 259.992 138.476 259.53C138.74 259.09 139.136 258.694 139.664 258.32C140.192 258.012 140.786 257.77 141.49 257.594C142.15 257.44 142.854 257.352 143.602 257.352C144.394 257.352 145.12 257.44 145.802 257.594C146.462 257.77 147.078 258.012 147.628 258.342C148.134 258.694 148.53 259.09 148.838 259.53C149.124 259.992 149.278 260.476 149.278 260.96ZM146.528 260.96C146.528 260.52 146.242 260.146 145.714 259.882C145.164 259.618 144.46 259.486 143.602 259.486C142.788 259.486 142.128 259.618 141.6 259.882C141.072 260.146 140.808 260.52 140.808 260.96C140.808 261.4 141.072 261.752 141.6 261.972C142.128 262.236 142.788 262.346 143.602 262.346C144.46 262.346 145.164 262.236 145.714 261.994C146.242 261.774 146.528 261.422 146.528 260.96ZM153.986 270.75H151.258V250.862H153.986V259.134H156.626V261.554H153.986V270.75ZM161.288 254.096V251.654H164.016V253.854C163.994 255.526 164.412 256.89 165.248 257.946C166.216 259.2 167.294 260.212 168.482 260.982L166.722 262.61C165.578 261.818 164.654 261.026 163.95 260.212C163.378 259.596 162.982 259.09 162.74 258.672C162.564 259.024 162.278 259.442 161.882 259.97C160.914 261.202 159.792 262.28 158.56 263.16L156.69 261.532C158.274 260.344 159.44 259.134 160.232 257.858C160.936 256.758 161.288 255.504 161.288 254.096ZM175.5 263.182H172.816V258.144H171.232V262.654H168.57V251.148H171.232V255.856H172.816V250.862H175.5V263.182ZM168.02 271.234C167.052 271.234 166.084 271.168 165.116 271.014C164.126 270.882 163.29 270.618 162.586 270.222C161.926 269.848 161.398 269.408 161.002 268.902C160.606 268.418 160.408 267.868 160.408 267.252C160.408 266.636 160.584 266.064 160.98 265.536C161.354 265.052 161.882 264.612 162.586 264.238C163.246 263.886 164.082 263.6 165.094 263.424C166.062 263.248 167.052 263.16 168.02 263.16C169.01 263.16 170 263.248 171.012 263.424C171.98 263.6 172.816 263.886 173.52 264.238C174.202 264.612 174.752 265.052 175.148 265.536C175.544 266.064 175.742 266.636 175.742 267.252C175.742 267.868 175.544 268.44 175.148 268.924C174.73 269.43 174.18 269.87 173.52 270.222C172.816 270.574 171.98 270.838 171.012 270.992C170 271.168 169.01 271.234 168.02 271.234ZM168.02 268.968C168.724 268.968 169.428 268.924 170.132 268.836C170.792 268.748 171.342 268.616 171.76 268.44C172.156 268.264 172.442 268.088 172.662 267.868C172.838 267.692 172.948 267.472 172.948 267.252C172.948 266.988 172.838 266.768 172.662 266.57C172.442 266.394 172.156 266.196 171.76 265.998C171.32 265.844 170.792 265.712 170.132 265.58C169.472 265.492 168.768 265.426 168.02 265.426C167.294 265.426 166.612 265.492 165.952 265.58C165.292 265.712 164.742 265.844 164.346 265.998C163.928 266.174 163.642 266.372 163.466 266.548C163.268 266.768 163.18 266.988 163.18 267.252C163.18 267.472 163.268 267.692 163.466 267.868C163.642 268.088 163.928 268.264 164.346 268.44C164.742 268.616 165.292 268.748 165.974 268.836C166.634 268.924 167.316 268.968 168.02 268.968ZM189.16 261.906H178.996V252.16H189.16V253.7H192.592V250.862H195.32V263.182H192.592V260.344H189.16V261.906ZM189.16 255.922V258.122H192.592V255.922H189.16ZM186.41 259.596V254.47H181.746V259.596H186.41ZM193.098 267.098C193.098 266.834 192.988 266.57 192.812 266.35C192.592 266.152 192.284 265.954 191.844 265.778C191.404 265.602 190.876 265.47 190.26 265.338C189.622 265.25 188.984 265.184 188.346 265.184C187.73 265.184 187.092 265.25 186.454 265.338C185.794 265.47 185.266 265.602 184.892 265.778C184.496 265.954 184.21 266.152 184.012 266.35C183.792 266.57 183.682 266.834 183.682 267.098C183.682 267.384 183.77 267.626 183.99 267.846C184.166 268.066 184.474 268.264 184.892 268.44C185.288 268.616 185.794 268.748 186.454 268.814C187.092 268.902 187.73 268.946 188.346 268.946C188.984 268.946 189.622 268.902 190.26 268.814C190.876 268.748 191.404 268.616 191.844 268.44C192.24 268.286 192.57 268.088 192.79 267.846C192.988 267.626 193.098 267.384 193.098 267.098ZM195.87 267.098C195.87 267.736 195.672 268.308 195.298 268.814C194.902 269.342 194.374 269.782 193.736 270.134C193.076 270.53 192.284 270.794 191.316 270.97C190.326 271.146 189.336 271.234 188.346 271.234C187.378 271.234 186.41 271.146 185.442 270.97C184.474 270.794 183.66 270.53 183.022 270.134C182.34 269.782 181.812 269.342 181.46 268.814C181.086 268.308 180.91 267.736 180.91 267.098C180.91 266.482 181.086 265.91 181.46 265.382C181.812 264.876 182.34 264.436 183.022 264.04C183.66 263.688 184.474 263.424 185.442 263.204C186.41 263.028 187.378 262.918 188.346 262.918C189.336 262.918 190.326 263.028 191.316 263.204C192.284 263.424 193.076 263.688 193.736 264.04C194.374 264.436 194.902 264.876 195.298 265.382C195.672 265.91 195.87 266.482 195.87 267.098ZM209.253 269.43V255.306H204.347V252.732H217.063V255.306H212.069V269.43H209.253ZM217.513 269.43V257.616H220.329V259.288C220.549 258.716 220.967 258.254 221.583 257.88C222.199 257.528 222.837 257.33 223.541 257.33C223.717 257.33 223.937 257.352 224.157 257.374V260.146C223.893 260.102 223.651 260.08 223.409 260.08C222.617 260.08 221.957 260.322 221.429 260.762C220.901 261.224 220.549 261.84 220.417 262.61C220.351 262.984 220.329 263.314 220.329 263.6V269.43H217.513ZM236.982 257.616V269.43H234.298V268.066C233.55 269.166 232.296 269.694 230.492 269.694C229.26 269.694 228.204 269.276 227.28 268.44C226.334 267.604 225.872 266.262 225.872 264.392V257.616H228.688V264.04C228.688 266.35 229.546 267.494 231.306 267.494C232.186 267.494 232.89 267.164 233.418 266.504C233.924 265.866 234.188 264.854 234.188 263.49V257.616H236.982ZM238.31 268.286L239.388 266.35C239.96 266.746 240.51 267.032 241.016 267.186C241.5 267.362 241.918 267.45 242.314 267.45C243.018 267.45 243.546 267.362 243.898 267.142C244.25 266.966 244.426 266.68 244.426 266.306C244.426 265.866 244.25 265.536 243.898 265.294C243.546 265.074 242.996 264.854 242.292 264.59C240.004 263.842 238.882 262.676 238.882 261.136C238.882 260.036 239.3 259.134 240.18 258.474C241.038 257.814 242.16 257.484 243.568 257.484C244.844 257.484 245.988 257.858 247 258.606L246.032 260.52C245.086 259.992 244.272 259.706 243.59 259.706C243.062 259.706 242.644 259.816 242.314 259.992C241.962 260.212 241.808 260.498 241.808 260.894C241.808 261.29 241.984 261.576 242.336 261.796C242.688 262.038 243.238 262.302 244.03 262.61C245.24 263.072 246.098 263.556 246.604 264.04C247.088 264.568 247.352 265.228 247.352 266.042C247.352 267.186 246.912 268.088 246.032 268.726C245.152 269.386 243.898 269.694 242.292 269.694C241.654 269.694 240.994 269.584 240.29 269.32C239.564 269.078 238.904 268.726 238.31 268.286ZM250.102 253.986H252.918V257.616H255.866V259.882H252.918V265.118C252.918 265.888 253.05 266.438 253.336 266.746C253.6 267.076 254.018 267.23 254.612 267.23C254.964 267.23 255.382 267.164 255.888 267.01V269.408C255.184 269.606 254.48 269.694 253.754 269.694C252.61 269.694 251.708 269.364 251.048 268.66C250.41 267.956 250.102 266.812 250.102 265.206V259.882H247.726V257.616H250.102V253.986ZM269.536 254.514V251.654H272.308V254.47C272.308 256.054 272.836 257.44 273.936 258.606C274.948 259.706 276.18 260.696 277.632 261.554L275.982 263.336C274.222 262.302 272.77 261.136 271.626 259.838C271.318 259.486 271.098 259.2 270.944 258.958C270.79 259.266 270.526 259.64 270.152 260.08C268.92 261.532 267.49 262.764 265.884 263.732L264.102 261.972C265.664 261.004 266.918 259.97 267.864 258.892C268.964 257.528 269.536 256.076 269.536 254.514ZM281.768 250.862V266.064H279.062V250.862H281.768ZM282.362 270.75H267.82V264.172H270.614V268.418H282.362V270.75ZM297.012 262.192C294.724 262.434 292.348 262.544 289.862 262.544H285.396V252.05H295.384V254.272H288.146V256.032H295.274V258.254H288.146V260.278H290.17C292.392 260.278 294.68 260.168 297.012 259.948V262.192ZM301.28 250.862V255.878H304.008V258.254H301.28V263.314H298.552V250.862H301.28ZM287.464 263.886H301.302V271.168H298.53V266.218H287.464V263.886Z" fill="white"/>
<path d="M96.299 289.328H87.899V288.112H96.299V289.328ZM94.219 287.152H89.979V285.936H94.219V287.152ZM95.835 292.688C95.835 293.024 95.739 293.36 95.547 293.68C95.339 294.032 95.067 294.304 94.747 294.512C94.411 294.768 94.011 294.944 93.563 295.056C93.099 295.184 92.619 295.232 92.107 295.232C91.627 295.232 91.147 295.184 90.699 295.056C90.235 294.944 89.835 294.768 89.515 294.512C89.163 294.304 88.907 294.032 88.731 293.68C88.539 293.36 88.459 293.024 88.459 292.688C88.459 292.352 88.539 292.016 88.731 291.68C88.907 291.36 89.163 291.088 89.515 290.864C89.835 290.64 90.235 290.448 90.699 290.304C91.147 290.176 91.627 290.112 92.107 290.112C92.619 290.112 93.099 290.176 93.563 290.304C94.011 290.448 94.411 290.64 94.747 290.864C95.067 291.088 95.339 291.36 95.547 291.68C95.739 292.016 95.835 292.352 95.835 292.688ZM94.411 292.688C94.411 292.32 94.187 292 93.771 291.712C93.323 291.456 92.779 291.312 92.107 291.312C91.435 291.312 90.891 291.456 90.491 291.712C90.075 292 89.883 292.32 89.883 292.688C89.883 293.072 90.075 293.376 90.491 293.632C90.891 293.904 91.435 294.032 92.107 294.032C92.779 294.032 93.323 293.904 93.771 293.632C94.187 293.376 94.411 293.056 94.411 292.688ZM99.355 296.368H97.947V285.76H99.355V290.464H101.451V291.76H99.355V296.368ZM99.755 299.776H89.979V296.224H91.419V298.56H99.755V299.776ZM111.808 289.216C111.808 290.528 112.08 291.744 112.624 292.832C113.264 294.048 114.032 295.104 114.96 296.016L113.952 296.768C112.928 295.76 112.08 294.592 111.424 293.28L111.152 292.688L110.848 293.296C110.08 294.832 109.248 296.08 108.32 297.056L107.184 296.288C108.112 295.328 108.912 294.192 109.568 292.88C110.112 291.824 110.4 290.64 110.4 289.328V286.816H111.808V289.216ZM120.24 299.776H118.848V285.76H120.24V299.776ZM115.744 286.064H117.12V299.28H115.744V291.856H113.392V290.592H115.744V286.064ZM129.135 296.48C127.967 296.624 126.767 296.688 125.551 296.688H122.959V287.008H128.447V288.256H124.367V295.456H125.535C126.719 295.456 127.919 295.392 129.135 295.232V296.48ZM134.975 299.776H133.599V292.16H131.471V299.28H130.095V286.064H131.471V290.864H133.599V285.76H134.975V299.776ZM138.621 291.44V288.288H147.517V287.232H138.621V286.16H148.941V289.312H140.045V290.384H149.101V291.44H138.621ZM150.685 292.496V293.616H136.877V292.496H150.685ZM149.117 299.776H138.605V296.688H147.501V295.664H138.605V294.64H148.957V297.712H140.061V298.72H149.117V299.776ZM159.218 286.464V291.632H160.178C162.226 291.632 164.05 291.52 165.666 291.28V292.528C164.098 292.752 162.258 292.864 160.178 292.864H157.81V286.464H159.218ZM169.042 285.76V293.696H167.65V289.712H163.426V288.496H167.65V285.76H169.042ZM167.65 295.84H161.186V298.56H167.65V295.84ZM169.042 299.776H159.778V294.608H169.042V299.776ZM172.177 292.032C172.177 290.592 172.529 289.36 173.249 288.304C173.985 287.264 174.865 286.736 175.921 286.736C176.945 286.736 177.841 287.264 178.609 288.304C179.217 289.152 179.585 290.144 179.681 291.296H182.273V285.76H183.665V299.776H182.273V292.544H179.697C179.617 293.76 179.249 294.832 178.609 295.744C177.889 296.768 176.993 297.28 175.921 297.28C174.865 297.28 173.985 296.768 173.249 295.744C172.529 294.72 172.177 293.488 172.177 292.032ZM173.585 292.032C173.585 293.072 173.777 293.984 174.193 294.784C174.673 295.632 175.249 296.048 175.921 296.048C176.593 296.048 177.169 295.632 177.649 294.784C178.081 293.968 178.305 293.056 178.305 292.032C178.305 290.96 178.081 290.048 177.665 289.28C177.153 288.416 176.577 287.968 175.921 287.968C175.217 287.968 174.641 288.416 174.193 289.28C173.777 290.08 173.585 291.008 173.585 292.032ZM191.958 292.032C191.958 290.592 192.31 289.36 193.03 288.304C193.766 287.264 194.646 286.736 195.702 286.736C196.726 286.736 197.622 287.264 198.39 288.304C199.126 289.328 199.494 290.576 199.494 292.032C199.494 293.472 199.126 294.704 198.39 295.744C197.67 296.768 196.774 297.28 195.702 297.28C194.646 297.28 193.766 296.768 193.03 295.744C192.31 294.72 191.958 293.488 191.958 292.032ZM193.366 292.032C193.366 293.072 193.558 293.984 193.974 294.784C194.454 295.632 195.03 296.048 195.702 296.048C196.374 296.048 196.95 295.632 197.43 294.784C197.862 293.968 198.086 293.056 198.086 292.032C198.086 290.96 197.862 290.048 197.446 289.28C196.934 288.416 196.358 287.968 195.702 287.968C194.998 287.968 194.422 288.416 193.974 289.28C193.558 290.08 193.366 291.008 193.366 292.032ZM203.51 285.76V299.776H202.118V285.76H203.51ZM206.692 292.032C206.692 290.592 207.044 289.36 207.764 288.304C208.5 287.264 209.38 286.736 210.436 286.736C211.46 286.736 212.356 287.264 213.124 288.304C213.732 289.152 214.1 290.144 214.196 291.296H216.788V285.76H218.18V299.776H216.788V292.544H214.212C214.132 293.76 213.764 294.832 213.124 295.744C212.404 296.768 211.508 297.28 210.436 297.28C209.38 297.28 208.5 296.768 207.764 295.744C207.044 294.72 206.692 293.488 206.692 292.032ZM208.1 292.032C208.1 293.072 208.292 293.984 208.708 294.784C209.188 295.632 209.764 296.048 210.436 296.048C211.108 296.048 211.684 295.632 212.164 294.784C212.596 293.968 212.82 293.056 212.82 292.032C212.82 290.96 212.596 290.048 212.18 289.28C211.668 288.416 211.092 287.968 210.436 287.968C209.732 287.968 209.156 288.416 208.708 289.28C208.292 290.08 208.1 291.008 208.1 292.032ZM226.163 288.336V289.216C226.163 290.64 226.579 291.968 227.427 293.184C228.035 294.096 228.883 295.04 229.971 296.016L228.979 296.864C227.955 295.968 227.043 294.944 226.243 293.824C226.051 293.552 225.795 293.152 225.475 292.64C225.171 293.184 224.899 293.632 224.675 293.952C223.651 295.408 222.739 296.464 221.907 297.104L220.867 296.304C221.891 295.424 222.755 294.432 223.475 293.328C224.307 292.08 224.739 290.72 224.739 289.216V288.336H221.587V287.088H229.267V288.336H226.163ZM232.979 285.76V299.776H231.587V285.76H232.979ZM237.121 291.552V286.064H238.545V290.336H247.441V291.552H237.121ZM249.185 293.248V294.48H235.377V293.248H249.185ZM247.473 299.776H237.121V295.776H238.545V298.544H247.473V299.776ZM256.902 291.632V286.336H267.222V287.568H258.326V290.416H267.366V291.632H256.902ZM268.966 293.296V294.528H255.158V293.296H268.966ZM267.254 299.776H256.902V295.776H258.326V298.56H267.254V299.776ZM271.637 291.632V286.336H281.957V287.568H273.061V290.416H282.101V291.632H271.637ZM283.701 293.296V294.528H269.893V293.296H283.701ZM281.989 299.776H271.637V295.776H273.061V298.56H281.989V299.776ZM293.299 289.328H284.899V288.112H293.299V289.328ZM291.219 287.152H286.979V285.936H291.219V287.152ZM292.835 292.688C292.835 293.024 292.739 293.36 292.547 293.68C292.339 294.032 292.067 294.304 291.747 294.512C291.411 294.768 291.011 294.944 290.563 295.056C290.099 295.184 289.619 295.232 289.107 295.232C288.627 295.232 288.147 295.184 287.699 295.056C287.235 294.944 286.835 294.768 286.515 294.512C286.163 294.304 285.907 294.032 285.731 293.68C285.539 293.36 285.459 293.024 285.459 292.688C285.459 292.352 285.539 292.016 285.731 291.68C285.907 291.36 286.163 291.088 286.515 290.864C286.835 290.64 287.235 290.448 287.699 290.304C288.147 290.176 288.627 290.112 289.107 290.112C289.619 290.112 290.099 290.176 290.563 290.304C291.011 290.448 291.411 290.64 291.747 290.864C292.067 291.088 292.339 291.36 292.547 291.68C292.739 292.016 292.835 292.352 292.835 292.688ZM291.411 292.688C291.411 292.32 291.187 292 290.771 291.712C290.323 291.456 289.779 291.312 289.107 291.312C288.435 291.312 287.891 291.456 287.491 291.712C287.075 292 286.883 292.32 286.883 292.688C286.883 293.072 287.075 293.376 287.491 293.632C287.891 293.904 288.435 294.032 289.107 294.032C289.779 294.032 290.323 293.904 290.771 293.632C291.187 293.376 291.411 293.056 291.411 292.688ZM296.355 296.368H294.947V285.76H296.355V290.464H298.451V291.76H296.355V296.368ZM296.755 299.776H286.979V296.224H288.419V298.56H296.755V299.776ZM312.296 289.936C312.296 290.416 312.184 290.864 311.976 291.296C311.752 291.744 311.464 292.112 311.128 292.432C310.776 292.752 310.36 293.008 309.912 293.184C309.432 293.376 308.936 293.456 308.392 293.456C307.864 293.456 307.368 293.376 306.904 293.184C306.424 293.008 306.008 292.752 305.656 292.432C305.304 292.112 305.032 291.744 304.84 291.296C304.632 290.88 304.536 290.416 304.536 289.936C304.536 289.456 304.632 288.992 304.84 288.544C305.032 288.112 305.304 287.728 305.656 287.408C306.008 287.088 306.424 286.816 306.904 286.624C307.368 286.448 307.864 286.352 308.392 286.352C308.936 286.352 309.432 286.448 309.912 286.624C310.36 286.816 310.776 287.088 311.128 287.408C311.464 287.728 311.752 288.112 311.976 288.544C312.184 288.992 312.296 289.456 312.296 289.936ZM310.888 289.936C310.888 289.616 310.808 289.312 310.68 289.024C310.536 288.768 310.36 288.528 310.152 288.304C309.928 288.112 309.656 287.936 309.368 287.792C309.048 287.664 308.728 287.6 308.392 287.6C308.04 287.6 307.72 287.664 307.432 287.792C307.112 287.936 306.856 288.112 306.664 288.304C306.424 288.528 306.248 288.768 306.136 289.04C306.008 289.328 305.944 289.616 305.944 289.936C305.944 290.24 306.008 290.528 306.136 290.8C306.248 291.088 306.424 291.328 306.664 291.536C306.856 291.728 307.112 291.888 307.432 292.016C307.736 292.16 308.056 292.224 308.392 292.224C308.712 292.224 309.032 292.16 309.352 292.016C309.656 291.888 309.928 291.728 310.152 291.536C310.36 291.328 310.536 291.088 310.68 290.8C310.808 290.544 310.888 290.256 310.888 289.936ZM316.136 285.76V287.888H318.232V289.168H316.136V291.024H318.232V292.272H316.136V294.112H314.728V285.76H316.136ZM306.68 295.04H316.136V300.064H314.728V296.256H306.68V295.04ZM326.775 286.576C326.775 287.472 327.351 288.352 328.519 289.2C329.367 289.824 330.567 290.304 332.135 290.624L331.319 291.68C329.943 291.456 328.631 290.912 327.367 290.016C326.791 289.6 326.343 289.184 326.023 288.736C325.703 289.216 325.255 289.648 324.679 290.032C323.431 290.896 322.119 291.44 320.743 291.68L319.927 290.624C321.463 290.304 322.679 289.824 323.543 289.2C324.727 288.352 325.319 287.472 325.319 286.576V285.968H326.775V286.576ZM332.951 294.144H319.143V292.912H325.335V290.704H326.759V292.912H332.951V294.144ZM331.207 300.064H329.783V296.8H320.775V295.6H331.207V300.064Z" fill="#F5F5F5"/>
</svg>
