<svg width="420" height="346" viewBox="0 0 420 346" fill="none" xmlns="http://www.w3.org/2000/svg">
<path d="M0 24C0 10.7452 10.7452 0 24 0H396C409.255 0 420 10.7452 420 24V322C420 335.255 409.255 346 396 346H24C10.7452 346 0 335.255 0 322V24Z" fill="#624A38"/>
<path d="M24 42C24 32.0589 32.0589 24 42 24H86C95.9411 24 104 32.0589 104 42C104 51.9411 95.9411 60 86 60H42C32.0589 60 24 51.9411 24 42Z" fill="black" fill-opacity="0.5"/>
<path d="M41.8161 37.544V38.314C41.8161 39.56 42.1801 40.722 42.9221 41.786C43.4541 42.584 44.1961 43.41 45.1481 44.264L44.2801 45.006C43.3841 44.222 42.5861 43.326 41.8861 42.346C41.7181 42.108 41.4941 41.758 41.2141 41.31C40.9481 41.786 40.7101 42.178 40.5141 42.458C39.6181 43.732 38.8201 44.656 38.0921 45.216L37.1821 44.516C38.0781 43.746 38.8341 42.878 39.4641 41.912C40.1921 40.82 40.5701 39.63 40.5701 38.314V37.544H37.8121V36.452H44.5321V37.544H41.8161ZM47.7381 35.29V47.554H46.5201V40.75H43.7061V39.644H46.5201V35.29H47.7381ZM60.4347 38.146H56.5567C56.8507 38.58 57.2707 38.93 57.8027 39.21C58.6147 39.63 59.6647 39.938 60.9387 40.134L60.3647 41.016C59.1047 40.918 57.9287 40.54 56.8367 39.882C56.5147 39.686 56.2067 39.434 55.8987 39.126C55.5907 39.434 55.2967 39.686 54.9887 39.882C53.8827 40.54 52.7067 40.918 51.4607 41.03L50.8867 40.148C52.1187 39.98 53.1687 39.658 54.0367 39.21C54.5687 38.93 54.9747 38.58 55.2687 38.146H51.4047V37.124H60.4347V38.146ZM58.2507 36.298H53.5887V35.262H58.2507V36.298ZM61.9607 41.688V42.724H56.5427V44.026H60.4347V47.806H59.1887V45.062H51.3067V44.026H55.2967V42.724H49.8787V41.688H61.9607ZM64.0033 42.108C63.6859 42.108 63.4106 41.9913 63.1773 41.758C62.9439 41.5247 62.8273 41.2493 62.8273 40.932C62.8273 40.6053 62.9439 40.33 63.1773 40.106C63.4106 39.8727 63.6859 39.756 64.0033 39.756C64.3299 39.756 64.6053 39.8727 64.8293 40.106C65.0626 40.33 65.1793 40.6053 65.1793 40.932C65.1793 41.2493 65.0626 41.5247 64.8293 41.758C64.6053 41.9913 64.3299 42.108 64.0033 42.108ZM73.6987 39.14C73.6987 39.532 73.6147 39.896 73.4607 40.246H76.1907V38.3H73.5587C73.6427 38.566 73.6987 38.846 73.6987 39.14ZM72.8447 41.254C72.7747 41.338 72.7047 41.408 72.6347 41.478C72.3547 41.758 72.0047 41.982 71.5847 42.15C71.1647 42.318 70.7167 42.402 70.2407 42.402C69.7647 42.402 69.3307 42.318 68.9247 42.15C68.5047 41.982 68.1407 41.758 67.8467 41.478C67.5247 41.198 67.2867 40.848 67.1187 40.428C66.9367 40.036 66.8527 39.602 66.8527 39.14C66.8527 38.692 66.9367 38.258 67.1327 37.852C67.3007 37.46 67.5387 37.124 67.8467 36.83C68.1407 36.522 68.5047 36.284 68.9247 36.116C69.3307 35.948 69.7647 35.864 70.2407 35.864C70.7167 35.864 71.1507 35.948 71.5707 36.116C71.9767 36.284 72.3267 36.522 72.6347 36.83C72.7747 36.97 72.9007 37.124 73.0267 37.292H76.1907V35.29H77.4367V44.572H76.1907V41.254H72.8447ZM72.4527 39.14C72.4527 38.846 72.3827 38.566 72.2707 38.3C72.1447 38.048 71.9907 37.81 71.8227 37.6C71.6127 37.418 71.3747 37.264 71.1227 37.124C70.8427 37.012 70.5627 36.942 70.2547 36.942C69.9467 36.942 69.6527 37.012 69.3867 37.124C69.1067 37.264 68.8827 37.418 68.7007 37.6C68.5047 37.81 68.3507 38.048 68.2387 38.3C68.1267 38.566 68.0707 38.846 68.0707 39.14C68.0707 39.448 68.1267 39.728 68.2527 39.98C68.3647 40.246 68.5047 40.484 68.7007 40.68C68.8967 40.89 69.1207 41.044 69.4007 41.156C69.6667 41.268 69.9467 41.324 70.2547 41.324C70.5487 41.324 70.8287 41.268 71.1087 41.142C71.3747 41.03 71.6127 40.876 71.8227 40.68C71.9907 40.484 72.1447 40.26 72.2707 39.98C72.3827 39.728 72.4527 39.448 72.4527 39.14ZM77.7727 47.554H69.0367V43.718H70.2967V46.476H77.7727V47.554ZM89.9933 35.822V37.642C89.9933 38.762 89.8673 39.742 89.6153 40.554H91.5193V41.618H79.4373V40.554H88.4113C88.6353 39.756 88.7613 38.846 88.7613 37.824V36.872H80.9213V35.822H89.9933ZM82.2093 44.278V46.504H88.7473V44.278H82.2093ZM89.9933 43.228V47.554H80.9633V43.228H89.9933Z" fill="white"/>
<ellipse cx="209.178" cy="205.364" rx="90.3578" ry="23.3878" fill="#4D3D32"/>
<path fill-rule="evenodd" clip-rule="evenodd" d="M188.277 115.548L178.323 115.145L176.772 126.59H187.579L188.277 115.548Z" fill="#FFD0C3"/>
<path fill-rule="evenodd" clip-rule="evenodd" d="M193.693 63.8647H186.6C184.623 63.8647 183.116 62.0933 183.434 60.1417L184.846 51.4578L183.642 50.0811C181.921 48.1138 181.15 45.4899 181.535 42.9045C182.01 39.7114 184.175 37.0252 187.195 35.8831L188.148 35.5225C191.054 32.6259 195.144 31.1547 199.234 31.4892C202.565 31.7618 205.742 33.202 208.121 35.5503L208.425 35.8506C211.234 38.623 212.962 42.3055 213.301 46.2372L213.483 48.3461C213.756 51.5194 213.596 54.715 213.008 57.8452L212.163 62.3402C211.997 63.2243 211.224 63.8647 210.325 63.8647H202.261H193.693Z" fill="black"/>
<path fill-rule="evenodd" clip-rule="evenodd" d="M146.045 145.42L139.495 168.586C138.228 173.064 135.537 177.018 131.833 179.842L121.032 188.077C120.179 188.728 119.73 189.781 119.855 190.841C120.047 192.486 121.535 193.647 123.176 193.436L149.272 190.078C152.27 189.693 154.052 186.491 152.793 183.754C151.018 179.898 150.809 175.488 152.207 171.445L160.967 146.127L146.045 145.42Z" fill="#FFD0C3"/>
<mask id="mask0_7755_82928" style="mask-type:luminance" maskUnits="userSpaceOnUse" x="119" y="145" width="42" height="49">
<path fill-rule="evenodd" clip-rule="evenodd" d="M146.045 145.42L139.495 168.586C138.228 173.064 135.537 177.018 131.833 179.842L121.032 188.077C120.179 188.728 119.73 189.781 119.855 190.841C120.047 192.486 121.535 193.647 123.176 193.436L149.272 190.078C152.27 189.693 154.052 186.491 152.793 183.754C151.018 179.898 150.809 175.488 152.207 171.445L160.967 146.127L146.045 145.42Z" fill="white"/>
</mask>
<g mask="url(#mask0_7755_82928)">
<path fill-rule="evenodd" clip-rule="evenodd" d="M130.574 164.861L159.446 171.174L171.989 192.007L124.088 198.17L120.89 181.027L130.574 164.861Z" fill="#E9E6E6"/>
<path fill-rule="evenodd" clip-rule="evenodd" d="M128.359 168.259L157.232 174.572L169.774 195.405L121.873 201.568L118.675 184.426L128.359 168.259Z" fill="#303543"/>
<path fill-rule="evenodd" clip-rule="evenodd" d="M147.596 122.353L167.085 145.603L165.225 170.065L123.396 144.699L130.623 129.07L147.596 122.353Z" fill="#FFBBAD"/>
</g>
<path fill-rule="evenodd" clip-rule="evenodd" d="M179.562 165.457L188.454 186.149C189.515 188.619 188.495 191.489 186.114 192.735L174.087 199.027C173.004 199.594 172.324 200.716 172.324 201.939C172.324 203.755 173.796 205.226 175.611 205.226H203.961C207.347 205.226 209.643 201.782 208.342 198.656L194.219 164.742L179.562 165.457Z" fill="#FFD0C3"/>
<mask id="mask1_7755_82928" style="mask-type:luminance" maskUnits="userSpaceOnUse" x="172" y="164" width="37" height="42">
<path fill-rule="evenodd" clip-rule="evenodd" d="M179.562 165.457L188.454 186.149C189.515 188.619 188.495 191.489 186.114 192.735L174.087 199.027C173.004 199.594 172.324 200.716 172.324 201.939C172.324 203.755 173.796 205.226 175.611 205.226H203.961C207.347 205.226 209.643 201.782 208.342 198.656L194.219 164.742L179.562 165.457Z" fill="white"/>
</mask>
<g mask="url(#mask1_7755_82928)">
<path fill-rule="evenodd" clip-rule="evenodd" d="M170.715 180.426H224.202V209.676H170.715V180.426Z" fill="#E9E6E6"/>
<path fill-rule="evenodd" clip-rule="evenodd" d="M171.117 184.246H224.605V213.496H171.117V184.246Z" fill="#303543"/>
</g>
<path fill-rule="evenodd" clip-rule="evenodd" d="M199.189 81.9883L182.84 84.1079L189.279 119.384H206.031L199.189 81.9883Z" fill="#FFBBAD"/>
<path fill-rule="evenodd" clip-rule="evenodd" d="M227.229 113.379L228.894 120.248C229.718 123.649 228.984 127.24 226.89 130.044C224.672 133.015 221.183 134.765 217.476 134.765H197.501H187.309L199.916 168.77C201.211 172.262 198.628 175.975 194.903 175.975H176.922C174.687 175.975 172.688 174.585 171.91 172.49L164.695 153.062L163.772 156.691C163.014 159.673 159.902 161.401 156.97 160.469L143.07 156.048C140.184 155.13 138.636 152.001 139.658 149.15L142.718 140.609C151.328 116.577 175.728 101.984 200.974 105.768L215.139 107.891L227.229 113.379Z" fill="#1F2637"/>
<mask id="mask2_7755_82928" style="mask-type:luminance" maskUnits="userSpaceOnUse" x="139" y="104" width="91" height="72">
<path fill-rule="evenodd" clip-rule="evenodd" d="M227.787 112.821L229.452 119.689C230.277 123.09 229.542 126.682 227.449 129.486C225.231 132.456 221.741 134.206 218.034 134.206H198.06H187.868L200.475 168.211C201.77 171.703 199.186 175.416 195.462 175.416H177.48C175.245 175.416 173.246 174.026 172.468 171.931L165.253 152.503L164.331 156.132C163.573 159.114 160.461 160.843 157.529 159.91L143.629 155.49C140.743 154.572 139.195 151.442 140.216 148.591L143.276 140.051C151.887 116.018 176.286 101.426 201.533 105.209L215.698 107.332L227.787 112.821Z" fill="white"/>
</mask>
<g mask="url(#mask2_7755_82928)">
<path d="M204.379 135.394C204.379 135.394 189.446 128.532 175.997 122.14C164.009 116.443 156.114 129.4 160.713 141.85L163.931 150.562" stroke="#17181C" stroke-width="1.20639" stroke-linecap="round" stroke-linejoin="round"/>
<path d="M187.32 134.764L185.459 131.008" stroke="#17181C" stroke-width="1.60396" stroke-linecap="round" stroke-linejoin="round"/>
<path d="M221.281 116.731C221.281 116.731 219.422 115.152 218.636 113.813C217.85 112.474 217.345 110.023 217.345 110.023" stroke="#17181C" stroke-width="1.60396" stroke-linecap="round" stroke-linejoin="round"/>
</g>
<path fill-rule="evenodd" clip-rule="evenodd" d="M201.866 53.9766L190.566 53.9766L193.789 64.208C194.112 65.2333 193.454 66.3074 192.394 66.485C185.094 67.7075 180.142 74.5821 181.294 81.8932L182.645 90.4615H187.895L195.934 104.98L227.231 113.377L223.396 95.9242L222.15 94.7006L227.664 92.0729L225.7 80.4943C224.507 73.459 218.914 67.9953 211.853 66.9666C208.398 66.4633 205.502 64.0962 204.322 60.8106L201.866 53.9766Z" fill="#5930FF"/>
<mask id="mask3_7755_82928" style="mask-type:luminance" maskUnits="userSpaceOnUse" x="181" y="53" width="47" height="61">
<path fill-rule="evenodd" clip-rule="evenodd" d="M201.866 53.9766L190.566 53.9766L193.789 64.208C194.112 65.2333 193.454 66.3074 192.394 66.485C185.094 67.7075 180.142 74.5821 181.294 81.8932L182.645 90.4615H187.895L195.934 104.98L227.231 113.377L223.396 95.9242L222.15 94.7006L227.664 92.0729L225.7 80.4943C224.507 73.459 218.914 67.9953 211.853 66.9666C208.398 66.4633 205.502 64.0962 204.322 60.8106L201.866 53.9766Z" fill="white"/>
</mask>
<g mask="url(#mask3_7755_82928)">
<path fill-rule="evenodd" clip-rule="evenodd" d="M206.031 62.4938H190.051V53.1641L205.147 53.1641L206.031 62.4938Z" fill="#FFD0C3"/>
<mask id="mask4_7755_82928" style="mask-type:luminance" maskUnits="userSpaceOnUse" x="190" y="53" width="17" height="10">
<path fill-rule="evenodd" clip-rule="evenodd" d="M206.031 62.4938H190.051V53.1641L205.147 53.1641L206.031 62.4938Z" fill="white"/>
</mask>
<g mask="url(#mask4_7755_82928)">
<path fill-rule="evenodd" clip-rule="evenodd" d="M204.322 58.6302C204.322 58.6302 202.143 60.7674 199.247 62.0059C196.351 63.2444 192.326 63.7603 192.326 63.7603L189.926 55.7703L203.977 56.0544L204.322 58.6302Z" fill="#FFBBAD"/>
</g>
</g>
<path fill-rule="evenodd" clip-rule="evenodd" d="M188.412 37.7899C188.412 37.7899 186.799 38.9979 185.642 41.185C184.485 43.3722 184.563 45.0185 184.824 46.7847C185.084 48.5508 185.7 49.6671 186.142 51.3928C186.585 53.1185 186.921 55.8316 187.522 57.2256C188.123 58.6196 189.173 59.9865 190.83 60.713C192.487 61.4394 195.463 62.2052 199.347 60.329C203.231 58.4527 204.086 53.9654 204.086 53.9654C204.086 53.9654 206.323 53.8369 208.154 52.3718C209.986 50.9066 210.622 47.2992 209.784 44.9124C208.945 42.5256 207.187 40.3735 204.477 41.3699C201.767 42.3664 201.925 45.9235 201.925 45.9235C201.925 45.9235 197.921 46.3035 194.452 43.8691C190.983 41.4347 188.412 37.7899 188.412 37.7899Z" fill="#FFD0C3"/>
<ellipse cx="0.706678" cy="1.27072" rx="0.706678" ry="1.27072" transform="matrix(-0.968891 0.253464 0.230875 0.971575 192.514 48.6289)" fill="black"/>
<ellipse cx="0.706678" cy="1.27072" rx="0.706678" ry="1.27072" transform="matrix(-0.968955 0.253194 0.231121 0.97151 189.159 49.543)" fill="black"/>
<path d="M192.019 54.4589C192.167 54.2616 192.444 54.2199 192.636 54.3655C192.829 54.5112 192.865 54.7892 192.716 54.9865L192.367 54.7227L192.019 54.4589ZM190.558 55.5509C190.338 55.45 190.245 55.187 190.35 54.9636C190.455 54.7401 190.718 54.6408 190.937 54.7417L190.747 55.1463L190.558 55.5509ZM192.367 54.7227C192.716 54.9865 192.716 54.9866 192.716 54.9868C192.716 54.9868 192.716 54.987 192.715 54.9871C192.715 54.9873 192.715 54.9875 192.715 54.9877C192.715 54.9882 192.714 54.9887 192.714 54.9892C192.713 54.9901 192.712 54.9912 192.711 54.9923C192.71 54.9946 192.708 54.9972 192.705 55C192.701 55.0057 192.695 55.0126 192.689 55.0205C192.675 55.0362 192.658 55.0561 192.635 55.079C192.591 55.1248 192.529 55.1834 192.447 55.2458C192.283 55.3712 192.041 55.512 191.715 55.5973L191.613 55.1677L191.511 54.7381C191.707 54.6868 191.842 54.6051 191.925 54.5421C191.966 54.5104 191.995 54.4832 192.01 54.467C192.018 54.4589 192.023 54.4536 192.024 54.4519C192.025 54.4511 192.025 54.4512 192.024 54.4523C192.023 54.4529 192.023 54.4537 192.022 54.4548C192.021 54.4553 192.021 54.4559 192.02 54.4566C192.02 54.4569 192.02 54.4573 192.02 54.4577C192.019 54.4579 192.019 54.4581 192.019 54.4583C192.019 54.4584 192.019 54.4585 192.019 54.4586C192.019 54.4587 192.019 54.4589 192.367 54.7227ZM191.613 55.1677L191.715 55.5973C191.389 55.6825 191.112 55.6773 190.911 55.6475C190.811 55.6326 190.73 55.6117 190.67 55.593C190.64 55.5836 190.616 55.5748 190.597 55.5675C190.588 55.5638 190.58 55.5605 190.573 55.5577C190.57 55.5563 190.567 55.555 190.564 55.5539C190.563 55.5533 190.562 55.5528 190.561 55.5523C190.56 55.5521 190.56 55.5518 190.559 55.5516C190.559 55.5515 190.559 55.5514 190.558 55.5513C190.558 55.5512 190.558 55.5511 190.558 55.5511C190.558 55.551 190.558 55.5509 190.747 55.1463C190.937 54.7417 190.937 54.7416 190.937 54.7416C190.937 54.7415 190.937 54.7415 190.936 54.7414C190.936 54.7413 190.936 54.7412 190.936 54.7411C190.935 54.7409 190.935 54.7407 190.935 54.7406C190.934 54.7402 190.933 54.7399 190.933 54.7396C190.931 54.7391 190.93 54.7387 190.93 54.7384C190.928 54.7379 190.928 54.7378 190.929 54.7382C190.931 54.739 190.938 54.7414 190.948 54.7447C190.969 54.7514 191.006 54.7614 191.057 54.7689C191.158 54.7839 191.315 54.7893 191.511 54.7381L191.613 55.1677Z" fill="#E89E8F"/>
<path fill-rule="evenodd" clip-rule="evenodd" d="M185.97 80.9027C185.21 78.7734 183.194 77.3516 180.934 77.3516H179.147C177.299 77.3516 176.008 79.1818 176.629 80.9225L180.211 90.969C180.97 93.0984 182.986 94.5202 185.247 94.5202H187.033C188.881 94.5202 190.172 92.6899 189.551 90.9492L185.97 80.9027Z" fill="#303543"/>
<path fill-rule="evenodd" clip-rule="evenodd" d="M227.347 92.6065L229.214 106.725C229.642 109.968 228.134 113.161 225.357 114.889C222.76 116.505 219.487 116.568 216.83 115.054L194.973 102.594C192.524 101.198 189.818 100.311 187.017 99.9871L186.471 99.9239C183.409 99.5698 180.805 97.5285 179.73 94.6404L177.666 89.093C177.353 88.2527 177.515 87.3093 178.089 86.6206C180.258 88.6702 183.185 89.7522 186.166 89.6212C187.311 89.5709 188.092 88.4292 187.712 87.3483L187.041 85.4414C188.247 85.4414 189.357 86.0948 189.942 87.1484L191.738 90.3816C192.266 91.3336 193.13 92.0551 194.161 92.406L216.786 100.106L214.89 91.4999L227.347 92.6065Z" fill="#FFD0C3"/>
<path d="M222.891 102.118L218.305 100.316" stroke="#FFBBAD" stroke-width="1.60396" stroke-linecap="round" stroke-linejoin="round"/>
<path d="M215.215 90.0386L212.994 80.4464" stroke="#4824D7" stroke-width="1.60396" stroke-linecap="round" stroke-linejoin="round"/>
<path d="M164.708 58.1016C165.035 63.6322 169.24 68.0481 174.507 68.3911C169.24 68.7341 165.035 73.1501 164.708 78.6807C164.382 73.1501 160.177 68.7341 154.91 68.3911C160.177 68.0481 164.382 63.6322 164.708 58.1016Z" fill="#FFC800"/>
<path fill-rule="evenodd" clip-rule="evenodd" d="M302.873 141.79C303.995 134.051 297.994 127.117 290.174 127.117H221.617C215.242 127.117 209.833 131.798 208.918 138.108L203.135 178.007C201.079 192.194 212.081 204.906 226.417 204.906H281.693C288.6 204.906 294.46 199.835 295.45 192.999L302.873 141.79Z" fill="#BE3B03"/>
<mask id="mask5_7755_82928" style="mask-type:luminance" maskUnits="userSpaceOnUse" x="202" y="127" width="102" height="78">
<path fill-rule="evenodd" clip-rule="evenodd" d="M302.873 141.79C303.995 134.051 297.994 127.117 290.174 127.117H221.617C215.242 127.117 209.833 131.798 208.918 138.108L203.135 178.007C201.079 192.194 212.081 204.906 226.417 204.906H281.693C288.6 204.906 294.46 199.835 295.45 192.999L302.873 141.79Z" fill="white"/>
</mask>
<g mask="url(#mask5_7755_82928)">
</g>
<path fill-rule="evenodd" clip-rule="evenodd" d="M293.293 87.0904C294.041 81.9314 290.04 77.3086 284.827 77.3086H234.675C230.424 77.3086 226.819 80.4293 226.209 84.6357L217.412 145.316C216.664 150.475 220.665 155.097 225.878 155.097H276.03C280.28 155.097 283.886 151.977 284.496 147.77L293.293 87.0904Z" fill="#E5F0FF"/>
<mask id="mask6_7755_82928" style="mask-type:luminance" maskUnits="userSpaceOnUse" x="217" y="77" width="77" height="79">
<path fill-rule="evenodd" clip-rule="evenodd" d="M293.293 87.0904C294.041 81.9314 290.04 77.3086 284.827 77.3086H234.675C230.424 77.3086 226.819 80.4293 226.209 84.6357L217.412 145.316C216.664 150.475 220.665 155.097 225.878 155.097H276.03C280.28 155.097 283.886 151.977 284.496 147.77L293.293 87.0904Z" fill="white"/>
</mask>
<g mask="url(#mask6_7755_82928)">
<path fill-rule="evenodd" clip-rule="evenodd" d="M281.496 88.6278C281.703 87.3287 280.699 86.1523 279.384 86.1523L237.41 86.1523C236.358 86.1523 235.463 86.9162 235.298 87.9542L234.852 90.7486C234.645 92.0477 235.648 93.224 236.964 93.224H278.938C279.989 93.224 280.885 92.4602 281.05 91.4222L281.496 88.6278Z" fill="#CCDCF7"/>
<path fill-rule="evenodd" clip-rule="evenodd" d="M273.82 140.347C274.027 139.047 273.024 137.871 271.708 137.871L229.734 137.871C228.683 137.871 227.787 138.635 227.622 139.673L227.176 142.467C226.969 143.766 227.973 144.943 229.288 144.943H271.262C272.314 144.943 273.209 144.179 273.374 143.141L273.82 140.347Z" fill="#CCDCF7"/>
<path fill-rule="evenodd" clip-rule="evenodd" d="M279.736 101.849C279.919 100.561 278.919 99.4102 277.619 99.4102H234.731C233.666 99.4102 232.763 100.194 232.614 101.249L228.709 128.794C228.526 130.082 229.526 131.233 230.826 131.233H273.714C274.779 131.233 275.682 130.449 275.832 129.394L279.736 101.849Z" fill="#CCDCF7"/>
</g>
<path fill-rule="evenodd" clip-rule="evenodd" d="M286.41 159.249C285.416 153.022 280.044 148.441 273.738 148.441H236.115C232.819 148.441 229.817 146.548 228.396 143.574L226.883 140.407C225.107 136.69 221.354 134.324 217.235 134.324L181.275 134.324L196.607 195.208C198.043 200.91 203.171 204.906 209.05 204.906H278.656C286.55 204.906 292.572 197.847 291.328 190.052L286.41 159.249Z" fill="#FA4B00"/>
<mask id="mask7_7755_82928" style="mask-type:luminance" maskUnits="userSpaceOnUse" x="180" y="134" width="111" height="71">
<path fill-rule="evenodd" clip-rule="evenodd" d="M285.906 158.933C284.912 152.706 279.54 148.124 273.235 148.124H235.611C232.316 148.124 229.313 146.231 227.892 143.258L226.379 140.091C224.603 136.374 220.85 134.008 216.731 134.008L180.771 134.008L196.103 194.892C197.539 200.594 202.667 204.59 208.547 204.59H278.152C286.046 204.59 292.068 197.53 290.824 189.735L285.906 158.933Z" fill="white"/>
</mask>
<g mask="url(#mask7_7755_82928)">
<g filter="url(#filter0_f_7755_82928)">
<path d="M188.281 148.727L179.101 173.881C177.635 177.896 177.772 182.31 179.481 186.197C180.695 188.956 178.859 192.126 175.854 192.457L149.709 195.335C148.063 195.517 146.595 194.329 146.43 192.681C146.323 191.619 146.789 190.574 147.654 189.939L158.59 181.904C162.341 179.148 165.097 175.243 166.438 170.79L173.373 147.747L188.281 148.727Z" fill="#AE5219"/>
</g>
</g>
<path fill-rule="evenodd" clip-rule="evenodd" d="M227.295 113.106L228.96 119.974C229.785 123.375 229.05 126.967 226.957 129.771C224.739 132.742 221.249 134.491 217.542 134.491H197.568H187.376L199.983 168.496C201.278 171.989 198.694 175.701 194.97 175.701H176.988C174.753 175.701 172.754 174.311 171.976 172.216L164.761 152.788L163.839 156.417C163.081 159.399 159.969 161.128 157.037 160.195L143.137 155.775C140.251 154.857 138.702 151.727 139.724 148.876L142.784 140.336C151.395 116.303 175.794 101.711 201.04 105.495L215.205 107.618L227.295 113.106Z" fill="#303543"/>
<mask id="mask8_7755_82928" style="mask-type:luminance" maskUnits="userSpaceOnUse" x="139" y="104" width="91" height="72">
<path fill-rule="evenodd" clip-rule="evenodd" d="M227.295 113.106L228.96 119.974C229.785 123.375 229.05 126.967 226.957 129.771C224.739 132.742 221.249 134.491 217.542 134.491H197.568H187.376L199.983 168.496C201.278 171.989 198.694 175.701 194.97 175.701H176.988C174.753 175.701 172.754 174.311 171.976 172.216L164.761 152.788L163.839 156.417C163.081 159.399 159.969 161.128 157.037 160.195L143.137 155.775C140.251 154.857 138.702 151.727 139.724 148.876L142.784 140.336C151.395 116.303 175.794 101.711 201.04 105.495L215.205 107.618L227.295 113.106Z" fill="white"/>
</mask>
<g mask="url(#mask8_7755_82928)">
</g>
<path d="M116.826 253.7C116.826 255.482 117.376 256.934 118.476 258.078C119.4 259.046 120.632 259.948 122.172 260.806L120.588 262.566C118.828 261.708 117.376 260.674 116.276 259.442C115.946 259.134 115.682 258.826 115.506 258.54C115.308 258.914 115.022 259.31 114.648 259.728C113.35 261.18 111.92 262.302 110.358 263.094L108.664 261.356C110.182 260.52 111.414 259.552 112.382 258.452C113.482 257.242 114.032 255.746 114.032 253.986V251.654H116.826V253.7ZM125.978 263.138H123.25V250.862H125.978V255.724H128.706V258.144H125.978V263.138ZM123.778 267.164C123.778 266.878 123.668 266.636 123.448 266.416C123.228 266.24 122.898 266.042 122.502 265.866C122.084 265.69 121.556 265.558 120.94 265.426C120.28 265.316 119.642 265.25 119.026 265.25C118.366 265.25 117.728 265.316 117.068 265.426C116.408 265.558 115.902 265.69 115.55 265.866C115.154 266.064 114.868 266.262 114.67 266.438C114.45 266.636 114.34 266.878 114.34 267.164C114.34 267.428 114.45 267.67 114.67 267.868C114.868 268.088 115.154 268.286 115.55 268.462C115.946 268.638 116.474 268.77 117.112 268.836C117.728 268.924 118.366 268.968 119.026 268.968C119.642 268.968 120.28 268.924 120.94 268.836C121.578 268.748 122.106 268.638 122.502 268.462C122.92 268.286 123.25 268.088 123.47 267.868C123.668 267.67 123.778 267.428 123.778 267.164ZM126.55 267.164C126.55 267.78 126.352 268.352 125.956 268.836C125.56 269.364 125.032 269.804 124.416 270.178C123.712 270.552 122.898 270.816 121.93 270.97C120.962 271.146 119.994 271.234 119.026 271.234C118.036 271.234 117.068 271.146 116.122 270.97C115.154 270.816 114.34 270.552 113.658 270.178C112.998 269.804 112.492 269.364 112.14 268.836C111.766 268.33 111.59 267.78 111.59 267.164C111.59 266.548 111.766 265.976 112.14 265.448C112.492 264.942 112.998 264.502 113.658 264.128C114.318 263.754 115.154 263.468 116.122 263.27C117.068 263.094 118.036 263.006 119.026 263.006C119.994 263.006 120.962 263.094 121.952 263.27C122.92 263.468 123.734 263.754 124.416 264.128C125.032 264.502 125.56 264.942 125.956 265.448C126.352 265.976 126.55 266.548 126.55 267.164ZM139.396 253.084H132.994V251.082H139.396V253.084ZM142.08 255.526H130.31V253.546H142.08V255.526ZM141.662 258.716C141.662 259.112 141.508 259.486 141.244 259.838C140.958 260.212 140.584 260.52 140.1 260.762C139.572 261.048 138.978 261.224 138.318 261.312C138.076 261.356 137.834 261.4 137.592 261.4V262.28C139.44 262.236 141.266 262.06 143.07 261.796V263.974C140.98 264.282 138.626 264.436 135.986 264.436H129.32V262.258H134.908V261.4C134.644 261.4 134.38 261.356 134.16 261.312C133.478 261.224 132.884 261.026 132.378 260.762C131.872 260.52 131.498 260.212 131.234 259.838C130.97 259.486 130.838 259.112 130.838 258.716C130.838 258.32 130.97 257.924 131.234 257.55C131.498 257.198 131.872 256.912 132.378 256.648C132.884 256.384 133.478 256.186 134.16 256.054C134.82 255.966 135.502 255.9 136.206 255.9C136.954 255.9 137.658 255.966 138.34 256.054C139 256.186 139.572 256.384 140.1 256.648C140.584 256.912 140.958 257.198 141.244 257.55C141.508 257.924 141.662 258.32 141.662 258.716ZM138.912 258.716C138.912 258.474 138.648 258.276 138.142 258.1C137.614 257.946 136.976 257.858 136.206 257.858C135.458 257.858 134.842 257.946 134.336 258.1C133.808 258.276 133.566 258.474 133.566 258.716C133.566 258.958 133.808 259.134 134.336 259.266C134.82 259.42 135.458 259.486 136.206 259.486C136.998 259.486 137.636 259.42 138.164 259.266C138.648 259.134 138.912 258.958 138.912 258.716ZM146.502 265.096H143.796V250.862H146.502V257.044H149.12V259.508H146.502V265.096ZM146.92 268.22C146.92 268.748 146.722 269.21 146.326 269.606C145.93 270.024 145.358 270.376 144.654 270.64C143.466 271.08 141.574 271.278 139.022 271.278C136.47 271.278 134.644 271.08 133.5 270.64C132.796 270.376 132.268 270.046 131.894 269.628C131.498 269.232 131.3 268.748 131.3 268.22C131.3 267.604 131.498 267.098 131.894 266.724C132.268 266.372 132.796 266.042 133.5 265.778C134.688 265.294 136.536 265.03 139.022 265.03C141.486 265.03 143.378 265.294 144.654 265.778C145.358 266.042 145.908 266.35 146.326 266.724C146.722 267.12 146.92 267.626 146.92 268.22ZM144.148 268.22C144.148 267.912 143.708 267.648 142.85 267.406C141.97 267.186 140.694 267.076 139.022 267.076C137.394 267.076 136.184 267.208 135.348 267.45C134.49 267.714 134.072 267.956 134.072 268.22C134.072 268.55 134.468 268.792 135.304 268.968C136.096 269.166 137.35 269.254 139.022 269.21C140.694 269.21 141.97 269.122 142.85 268.924C143.708 268.748 144.148 268.528 144.148 268.22ZM150.283 259.794C150.283 257.682 150.679 255.944 151.471 254.58C152.395 253.018 153.561 252.226 154.991 252.226C156.399 252.226 157.565 253.018 158.489 254.58C159.105 255.636 159.501 256.89 159.655 258.386H161.173V251.28H163.813V270.068H161.173V260.762H159.699C159.567 262.346 159.171 263.776 158.489 265.008C157.631 266.548 156.443 267.318 154.947 267.318C153.605 267.318 152.461 266.57 151.493 265.052C150.679 263.644 150.283 261.906 150.283 259.794ZM152.923 259.794C152.923 261.158 153.121 262.368 153.561 263.446C153.957 264.458 154.419 264.942 154.947 264.942C155.519 264.942 156.003 264.458 156.421 263.446C156.861 262.324 157.081 261.114 157.081 259.794C157.081 258.43 156.861 257.22 156.421 256.142C156.003 255.13 155.519 254.602 154.991 254.602C154.441 254.602 153.957 255.13 153.561 256.142C153.121 257.242 152.923 258.474 152.923 259.794ZM168.015 270.75H165.331V250.862H168.015V270.75ZM188.043 261.554H177.901V252.16H188.043V261.554ZM185.315 259.222V254.47H180.629V259.222H185.315ZM193.697 250.862V255.438H196.425V257.814H193.697V262.61H190.969V250.862H193.697ZM193.939 263.094V265.36H188.241C188.439 265.976 189.099 266.68 190.243 267.428C191.431 268.176 193.015 268.704 194.995 269.056L193.587 271.036C191.805 270.816 189.957 270.068 188.065 268.836C187.493 268.44 187.075 268.088 186.811 267.758C186.503 268.088 186.063 268.44 185.491 268.836C183.555 270.068 181.729 270.794 179.991 271.036L178.517 269.034C180.497 268.682 182.081 268.154 183.313 267.428C184.457 266.702 185.139 266.02 185.359 265.36H179.705V263.094H193.939ZM199.436 259.442V251.28H202.186V257.132H214.418V259.442H199.436ZM216.816 261.158V263.49H197.038V261.158H216.816ZM214.462 270.75H199.436V264.612H202.186V268.418H214.462V270.75ZM227.318 252.556V257.198H228.506V252.556H230.904V266.812H224.854V252.556H227.318ZM227.318 259.464V264.524H228.506V259.464H227.318ZM235.304 252.556H237.768V266.812H231.762V252.556H234.182V257.198H235.304V252.556ZM234.182 259.464V264.524H235.304V259.464H234.182ZM241.64 250.862V257.924H244.016V260.454H241.64V270.75H239.11V250.862H241.64ZM246.895 261.136V255.196H259.127V253.788H246.895V251.522H261.877V257.44H249.645V258.87H262.119V261.136H246.895ZM264.275 262.28V264.59H244.497V262.28H264.275ZM261.921 270.75H246.895V265.47H249.645V268.44H261.921V270.75ZM282.103 266.174C280.277 266.416 278.451 266.526 276.625 266.526H272.819V252.556H281.179V254.91H275.547V264.194H276.999C278.451 264.194 280.167 264.084 282.103 263.842V266.174ZM290.133 270.75H287.449V260.278H285.293V270.068H282.653V251.28H285.293V257.858H287.449V250.862H290.133V270.75ZM301.834 257.11C301.548 257.374 301.13 257.66 300.602 257.946C298.864 258.87 296.862 259.398 294.574 259.53L293.298 257.66C295.718 257.396 297.5 256.956 298.688 256.384C299.348 256.076 299.766 255.812 299.986 255.57H294.354V253.48H309.336V255.57H303.682C303.88 255.812 304.32 256.076 304.98 256.384C306.278 257 308.082 257.418 310.37 257.66L309.094 259.53C306.784 259.398 304.782 258.87 303.066 257.946C302.516 257.66 302.098 257.374 301.834 257.11ZM305.926 252.82H297.764V250.708H305.926V252.82ZM311.734 259.882V262.016H303.22V263.094H309.336V267.846H297.104V268.814H309.578V270.75H294.354V265.976H306.586V265.03H294.354V263.094H300.47V262.016H291.956V259.882H311.734Z" fill="white"/>
<path d="M108.955 289.328H100.555V288.112H108.955V289.328ZM106.875 287.152H102.635V285.936H106.875V287.152ZM108.491 292.688C108.491 293.024 108.395 293.36 108.203 293.68C107.995 294.032 107.723 294.304 107.403 294.512C107.067 294.768 106.667 294.944 106.219 295.056C105.755 295.184 105.275 295.232 104.763 295.232C104.283 295.232 103.803 295.184 103.355 295.056C102.891 294.944 102.491 294.768 102.171 294.512C101.819 294.304 101.563 294.032 101.387 293.68C101.195 293.36 101.115 293.024 101.115 292.688C101.115 292.352 101.195 292.016 101.387 291.68C101.563 291.36 101.819 291.088 102.171 290.864C102.491 290.64 102.891 290.448 103.355 290.304C103.803 290.176 104.283 290.112 104.763 290.112C105.275 290.112 105.755 290.176 106.219 290.304C106.667 290.448 107.067 290.64 107.403 290.864C107.723 291.088 107.995 291.36 108.203 291.68C108.395 292.016 108.491 292.352 108.491 292.688ZM107.067 292.688C107.067 292.32 106.843 292 106.427 291.712C105.979 291.456 105.435 291.312 104.763 291.312C104.091 291.312 103.547 291.456 103.147 291.712C102.731 292 102.539 292.32 102.539 292.688C102.539 293.072 102.731 293.376 103.147 293.632C103.547 293.904 104.091 294.032 104.763 294.032C105.435 294.032 105.979 293.904 106.427 293.632C106.843 293.376 107.067 293.056 107.067 292.688ZM112.011 296.368H110.603V285.76H112.011V290.464H114.107V291.76H112.011V296.368ZM112.411 299.776H102.635V296.224H104.075V298.56H112.411V299.776ZM116.762 294V287.008H127.082V288.24H118.186V292.768H127.226V294H122.618V297.248H128.826V298.496H115.018V297.248H121.226V294H116.762ZM131.56 293.568V291.536H133.56V293.568H131.56ZM148.941 286.368V288.448C148.941 289.728 148.797 290.848 148.509 291.776H150.685V292.992H136.877V291.776H147.133C147.389 290.864 147.533 289.824 147.533 288.656V287.568H138.573V286.368H148.941ZM140.045 296.032V298.576H147.517V296.032H140.045ZM148.941 294.832V299.776H138.621V294.832H148.941ZM160.715 296.768C159.211 296.992 157.483 297.104 155.531 297.104H152.715V291.264H157.691V288.224H152.715V287.008H159.115V292.48H154.123V295.888H155.451C157.435 295.888 159.195 295.792 160.715 295.568V296.768ZM163.947 285.76V299.776H162.555V285.76H163.947ZM168.154 293.568V291.536H170.154V293.568H168.154ZM181.599 287.008V288.512C181.599 290.48 180.879 292.272 179.439 293.872C178.015 295.392 176.511 296.48 174.927 297.12L173.999 296.096C175.727 295.312 177.151 294.304 178.255 293.056C179.471 291.648 180.095 290.288 180.095 289.008V288.256H174.719V287.008H181.599ZM185.823 285.76V299.776H184.431V285.76H185.823ZM195.997 286.624V288.112C195.997 289.6 195.277 290.96 193.869 292.208C192.429 293.424 190.765 294.272 188.845 294.736L188.125 293.68C189.885 293.2 191.373 292.48 192.589 291.536C193.853 290.544 194.493 289.504 194.493 288.384V287.856H189.133V286.624H195.997ZM199.741 285.76V290.24H202.029V291.504H199.741V296.368H198.317V285.76H199.741ZM200.141 299.776H190.541V295.36H191.981V298.544H200.141V299.776ZM207.532 287.008V288.208C207.532 289.84 207.196 291.36 206.54 292.8C205.788 294.432 204.908 295.744 203.9 296.72L202.764 296.064C203.66 295.152 204.476 293.968 205.196 292.528C205.804 291.28 206.124 290.048 206.124 288.816V288.24H203.66V287.008H207.532ZM211.868 287.008V288.288C211.868 290.08 211.516 291.744 210.844 293.264C210.22 294.656 209.372 296.048 208.3 297.456L207.132 296.768C208.156 295.488 208.956 294.176 209.564 292.8C210.156 291.424 210.46 290.112 210.46 288.896V288.24H208.188V287.008H211.868ZM214.828 285.76V290.832H216.844V292.16H214.828V299.776H213.436V285.76H214.828ZM223.194 288.336V289.216C223.194 290.64 223.61 291.968 224.458 293.184C225.066 294.096 225.914 295.04 227.002 296.016L226.01 296.864C224.986 295.968 224.074 294.944 223.274 293.824C223.082 293.552 222.826 293.152 222.506 292.64C222.202 293.184 221.93 293.632 221.706 293.952C220.682 295.408 219.77 296.464 218.938 297.104L217.898 296.304C218.922 295.424 219.786 294.432 220.506 293.328C221.338 292.08 221.77 290.72 221.77 289.216V288.336H218.618V287.088H226.298V288.336H223.194ZM230.01 285.76V299.776H228.618V285.76H230.01ZM246.127 289.328H237.727V288.112H246.127V289.328ZM244.047 287.152H239.807V285.936H244.047V287.152ZM245.663 292.688C245.663 293.024 245.567 293.36 245.375 293.68C245.167 294.032 244.895 294.304 244.575 294.512C244.239 294.768 243.839 294.944 243.391 295.056C242.927 295.184 242.447 295.232 241.935 295.232C241.455 295.232 240.975 295.184 240.527 295.056C240.063 294.944 239.663 294.768 239.343 294.512C238.991 294.304 238.735 294.032 238.559 293.68C238.367 293.36 238.287 293.024 238.287 292.688C238.287 292.352 238.367 292.016 238.559 291.68C238.735 291.36 238.991 291.088 239.343 290.864C239.663 290.64 240.063 290.448 240.527 290.304C240.975 290.176 241.455 290.112 241.935 290.112C242.447 290.112 242.927 290.176 243.391 290.304C243.839 290.448 244.239 290.64 244.575 290.864C244.895 291.088 245.167 291.36 245.375 291.68C245.567 292.016 245.663 292.352 245.663 292.688ZM244.239 292.688C244.239 292.32 244.015 292 243.599 291.712C243.151 291.456 242.607 291.312 241.935 291.312C241.263 291.312 240.719 291.456 240.319 291.712C239.903 292 239.711 292.32 239.711 292.688C239.711 293.072 239.903 293.376 240.319 293.632C240.719 293.904 241.263 294.032 241.935 294.032C242.607 294.032 243.151 293.904 243.599 293.632C244.015 293.376 244.239 293.056 244.239 292.688ZM249.183 296.368H247.775V285.76H249.183V290.464H251.279V291.76H249.183V296.368ZM249.583 299.776H239.807V296.224H241.247V298.56H249.583V299.776ZM259.748 286.4V288.928H263.86V286.4H265.252V289.824H268.26V285.76H269.684V296.368H268.26V291.04H265.252V294.128H258.356V286.4H259.748ZM259.748 290.128V292.896H263.86V290.128H259.748ZM270.068 299.776H260.1V295.52H261.524V298.56H270.068V299.776ZM272.499 292.032C272.499 290.528 272.771 289.296 273.315 288.32C273.923 287.28 274.691 286.752 275.619 286.752C276.531 286.752 277.299 287.28 277.907 288.32C278.371 289.104 278.643 290.08 278.723 291.232H280.387V286.064H281.763V299.28H280.387V292.512H278.739C278.675 293.728 278.403 294.816 277.907 295.744C277.331 296.768 276.547 297.264 275.587 297.264C274.723 297.264 273.971 296.768 273.331 295.776C272.771 294.784 272.499 293.536 272.499 292.032ZM273.811 292.032C273.811 293.056 273.955 293.952 274.275 294.752C274.627 295.584 275.075 296 275.587 296C276.131 296 276.595 295.584 276.963 294.752C277.283 293.92 277.443 293.008 277.443 292.032C277.443 291.024 277.283 290.112 276.963 289.312C276.595 288.448 276.147 288.016 275.619 288.016C275.075 288.016 274.627 288.448 274.275 289.312C273.955 290.144 273.811 291.04 273.811 292.032ZM284.803 299.776H283.427V285.76H284.803V299.776ZM298.488 286.992H294.44V285.904H298.488V286.992ZM300.456 288.816H292.472V287.712H300.456V288.816ZM300.136 291.344C300.136 291.584 300.04 291.824 299.88 292.048C299.688 292.288 299.432 292.496 299.112 292.672C298.776 292.864 298.392 292.992 297.944 293.072C297.704 293.12 297.464 293.152 297.208 293.152V294.176C298.808 294.144 300.168 294.032 301.256 293.872V294.992C299.928 295.2 298.312 295.296 296.424 295.296H291.752V294.16H295.784V293.152C295.528 293.152 295.288 293.12 295.064 293.072C294.6 292.992 294.2 292.864 293.88 292.688C293.544 292.496 293.288 292.288 293.128 292.048C292.952 291.824 292.872 291.584 292.872 291.344C292.872 291.072 292.952 290.816 293.128 290.56C293.288 290.336 293.528 290.128 293.864 289.968C294.2 289.792 294.6 289.648 295.064 289.552C295.512 289.456 295.976 289.408 296.472 289.408C296.984 289.408 297.48 289.456 297.944 289.552C298.392 289.648 298.776 289.792 299.128 289.968C299.448 290.128 299.688 290.336 299.88 290.56C300.04 290.816 300.136 291.072 300.136 291.344ZM298.744 291.344C298.744 291.056 298.52 290.848 298.072 290.688C297.608 290.56 297.08 290.48 296.472 290.48C295.896 290.48 295.384 290.56 294.936 290.704C294.472 290.864 294.248 291.072 294.248 291.344C294.248 291.6 294.472 291.792 294.936 291.92C295.384 292.064 295.896 292.128 296.472 292.128C297.08 292.128 297.608 292.064 298.072 291.92C298.52 291.792 298.744 291.6 298.744 291.344ZM303.688 295.632H302.264V285.76H303.688V290.464H305.656V291.744H303.688V295.632ZM303.688 300.064H302.28V297.6H293.304V296.432H303.688V300.064ZM314.662 290.16C314.662 290.672 314.534 291.168 314.31 291.632C314.054 292.112 313.766 292.512 313.446 292.832C313.126 293.152 312.726 293.408 312.246 293.6C311.766 293.792 311.254 293.888 310.71 293.888C310.166 293.888 309.67 293.792 309.206 293.6C308.726 293.408 308.31 293.152 307.974 292.832C307.606 292.512 307.334 292.112 307.142 291.632C306.934 291.184 306.838 290.688 306.838 290.16C306.838 289.648 306.934 289.152 307.158 288.688C307.35 288.24 307.622 287.856 307.974 287.52C308.31 287.168 308.726 286.896 309.206 286.704C309.67 286.512 310.166 286.416 310.71 286.416C311.254 286.416 311.75 286.512 312.23 286.704C312.694 286.896 313.094 287.168 313.446 287.52C313.798 287.856 314.086 288.256 314.326 288.704C314.55 289.168 314.662 289.648 314.662 290.16ZM313.238 290.16C313.238 289.824 313.158 289.504 313.03 289.2C312.886 288.912 312.71 288.64 312.518 288.4C312.278 288.192 312.006 288.016 311.718 287.856C311.398 287.728 311.078 287.648 310.726 287.648C310.374 287.648 310.038 287.728 309.734 287.856C309.414 288.016 309.158 288.192 308.95 288.4C308.726 288.64 308.55 288.912 308.422 289.2C308.294 289.504 308.23 289.824 308.23 290.16C308.23 290.512 308.294 290.832 308.438 291.12C308.566 291.424 308.726 291.696 308.95 291.92C309.174 292.16 309.43 292.336 309.75 292.464C310.054 292.592 310.374 292.656 310.726 292.656C311.062 292.656 311.382 292.592 311.702 292.448C312.006 292.32 312.278 292.144 312.518 291.92C312.71 291.696 312.886 291.44 313.03 291.12C313.158 290.832 313.238 290.512 313.238 290.16ZM318.758 285.76V296.368H317.366V285.76H318.758ZM319.174 299.776H309.206V295.392H310.63V298.544H319.174V299.776Z" fill="#F5F5F5"/>
<defs>
<filter id="filter0_f_7755_82928" x="139.148" y="140.479" width="56.4001" height="62.1428" filterUnits="userSpaceOnUse" color-interpolation-filters="sRGB">
<feFlood flood-opacity="0" result="BackgroundImageFix"/>
<feBlend mode="normal" in="SourceGraphic" in2="BackgroundImageFix" result="shape"/>
<feGaussianBlur stdDeviation="3.63336" result="effect1_foregroundBlur_7755_82928"/>
</filter>
</defs>
</svg>
