<svg width="109" height="36" viewBox="0 0 109 36" fill="none" xmlns="http://www.w3.org/2000/svg">
<g clip-path="url(#clip0_6611_53982)">
<path fill-rule="evenodd" clip-rule="evenodd" d="M39.333 19.9156C38.739 14.1174 32.1918 9.35374 24.6997 9.2993C17.2076 9.24486 11.6054 13.8997 12.1859 19.6978C12.7798 25.4959 19.327 30.2596 26.8326 30.314C34.3247 30.3821 39.927 25.7273 39.333 19.9156ZM14.5347 18.4592C14.0218 13.7772 18.895 10.0207 25.4017 10.0751C31.9084 10.1295 37.6051 13.9541 38.1181 18.6362C38.631 23.3182 33.7713 27.0747 27.2511 27.0203C20.7444 26.9658 15.0477 23.1413 14.5347 18.4592Z" fill="#FBB584"/>
<path fill-rule="evenodd" clip-rule="evenodd" d="M14.336 17.6558C10.0433 22.1745 9.97576 29.1295 14.174 33.1855C18.3723 37.2414 25.2705 36.8739 29.5633 32.3552C33.8561 27.8365 33.9236 20.8815 29.7253 16.8119C25.527 12.756 18.6288 13.1371 14.336 17.6558ZM28.0109 30.4225C24.3255 34.3151 18.3993 34.6282 14.7815 31.1439C11.1637 27.6596 11.2177 21.6709 14.9165 17.7783C18.6018 13.8856 24.5415 13.5726 28.1458 17.0569C31.7637 20.5412 31.6962 26.5299 28.0109 30.4225Z" fill="#F89B6C"/>
<path fill-rule="evenodd" clip-rule="evenodd" d="M7.59773 5.59662C-0.36687 11.9528 -2.39177 21.1671 3.06196 26.1758C8.52918 31.1845 19.4096 30.0821 27.3877 23.7259C35.3523 17.3698 37.3772 8.15541 31.9235 3.14672C26.4563 -1.86198 15.5623 -0.773131 7.59773 5.59662ZM14.7254 3.10588C22.4065 0.20683 29.9931 3.14672 31.694 9.66619C33.3814 16.1857 28.5217 23.8348 20.8406 26.7339C13.1594 29.6329 5.57283 26.693 3.88542 20.1736C2.198 13.6405 7.05776 6.00494 14.7254 3.10588Z" fill="#F37321"/>
<path fill-rule="evenodd" clip-rule="evenodd" d="M87.2029 18.7575C88.5798 18.7575 89.7003 19.1114 90.5777 19.8192C91.4552 20.5269 91.9006 21.3708 91.9006 22.3643C91.9006 23.3579 91.4552 24.2154 90.5777 24.9367C89.7003 25.6581 88.5663 26.0256 87.2029 26.0256C85.8395 26.0256 84.719 25.6581 83.8416 24.9367C82.9506 24.2154 82.5186 23.3579 82.5186 22.3643C82.5186 21.3708 82.9641 20.5269 83.8416 19.8192C84.719 19.1114 85.8529 18.7575 87.2029 18.7575ZM103.888 18.7575C105.265 18.7575 106.372 19.1114 107.236 19.8328C108.1 20.5541 108.532 21.398 108.532 22.378C108.532 23.3579 108.1 24.2154 107.236 24.9367C106.372 25.6717 105.251 26.0392 103.888 26.0392C102.525 26.0392 101.418 25.6717 100.554 24.9367C99.6897 24.2018 99.2578 23.3443 99.2578 22.378C99.2578 21.4116 99.6897 20.5541 100.554 19.8328C101.418 19.125 102.538 18.7575 103.888 18.7575ZM74.8375 10.7137V15.6952H76.9569V17.342H74.8375V25.5628H72.7991V22.7863C72.1781 23.3443 71.2737 23.6165 70.0588 23.6165H61.4192V22.0105H65.3745V20.4316C64.6455 20.3091 64.0246 20.0233 63.5116 19.6014C62.8096 19.0161 62.4451 18.3084 62.4451 17.4918C62.4451 16.6751 62.8096 15.9674 63.5386 15.3821C64.2675 14.7832 65.2125 14.4974 66.3869 14.4974C67.5614 14.4974 68.5063 14.7969 69.2353 15.3821C69.9643 15.981 70.3287 16.6751 70.3287 17.4918C70.3287 18.3084 69.9778 19.0161 69.2623 19.6014C68.7628 20.0097 68.1418 20.2955 67.4264 20.4316V22.0105H69.7078C71.7597 22.0105 72.7856 21.2074 72.7856 19.615V10.7137H74.824H74.8375ZM48.8378 21.2891V22.7046C48.8378 23.5212 49.2293 23.9296 50.0258 23.9296H57.9904V25.522H49.5263C47.7039 25.522 46.7859 24.6645 46.7859 22.9496V21.2891H48.8378ZM103.902 20.3228C103.119 20.3228 102.484 20.5269 102.012 20.9216C101.539 21.3299 101.296 21.8063 101.296 22.378C101.296 22.9496 101.526 23.426 101.998 23.8479C102.471 24.2562 103.105 24.474 103.902 24.474C104.698 24.474 105.319 24.2698 105.791 23.8615C106.264 23.4532 106.507 22.9632 106.507 22.378C106.507 21.7927 106.264 21.3299 105.791 20.9216C105.305 20.5269 104.685 20.3228 103.902 20.3228ZM87.2164 20.3228C86.4334 20.3228 85.7855 20.5269 85.2995 20.9216C84.8135 21.3299 84.5705 21.8063 84.5705 22.378C84.5705 22.9496 84.8135 23.4396 85.2995 23.8479C85.7855 24.2562 86.4334 24.474 87.2299 24.474C88.0263 24.474 88.6608 24.2698 89.1468 23.8615C89.6328 23.4532 89.8892 22.9632 89.8892 22.378C89.8892 21.7927 89.6463 21.3299 89.1468 20.9216C88.6473 20.5269 88.0128 20.3228 87.2299 20.3228H87.2164ZM57.9229 10.7137V14.511H60.0423V16.1307H57.9229V21.3708H55.8845V10.7137H57.9229ZM49.3238 14.4838C50.4847 14.4838 51.4297 14.7832 52.1722 15.3685C52.9011 15.9674 53.2656 16.6615 53.2656 17.4781C53.2656 18.2948 52.9011 19.0161 52.1722 19.615C51.4432 20.2139 50.4982 20.4997 49.3238 20.4997C48.1494 20.4997 47.2044 20.2003 46.4754 19.615C45.7465 19.0161 45.382 18.3084 45.382 17.4781C45.382 16.6479 45.7465 15.9538 46.4754 15.3685C47.2044 14.7696 48.1494 14.4838 49.3238 14.4838ZM66.4004 15.9401C65.8605 15.9401 65.4015 16.0899 65.0235 16.3893C64.6455 16.6887 64.443 17.0562 64.443 17.4918C64.443 17.9273 64.632 18.3084 65.0235 18.6078C65.4015 18.9073 65.8605 19.057 66.4004 19.057C66.9404 19.057 67.3994 18.9073 67.7774 18.6078C68.1553 18.3084 68.3578 17.9273 68.3578 17.4918C68.3578 17.0562 68.1688 16.6887 67.7774 16.3893C67.3859 16.0899 66.9404 15.9401 66.4004 15.9401ZM49.3238 15.9401C48.7838 15.9401 48.3249 16.0899 47.9469 16.3893C47.5689 16.6887 47.3799 17.0562 47.3799 17.4918C47.3799 17.9273 47.5689 18.3084 47.9469 18.6078C48.3249 18.9073 48.7838 19.057 49.3238 19.057C49.8638 19.057 50.3228 18.9073 50.7007 18.6078C51.0787 18.3084 51.2677 17.9409 51.2677 17.4918C51.2677 17.0426 51.0787 16.6887 50.7007 16.3893C50.3228 16.0899 49.8638 15.9401 49.3238 15.9401ZM108.667 10.7273V18.7303H106.628V16.8657H103.618V18.0906H97.7998C96.2069 18.0906 95.397 17.2468 95.397 15.5727V10.9723H102.511C103.254 10.9723 103.632 11.3534 103.632 12.1156V12.3878H106.642V10.7273H108.68H108.667ZM89.1063 10.7273V13.5719H90.4562V10.7273H92.4676V18.5806H90.4562V15.1916H89.1063V18.2131H87.1354V10.7137H89.1063V10.7273ZM83.1936 10.9314V11.5303C83.1936 13.3677 83.5446 14.7016 84.26 15.5046C84.854 16.1715 85.529 16.5798 86.2849 16.7159V18.3356C84.989 18.1587 83.8685 17.6279 82.9101 16.7432C82.6401 16.4982 82.4106 16.226 82.2081 15.8993C82.0056 16.226 81.7627 16.4982 81.5062 16.7432C80.5477 17.6279 79.4273 18.1587 78.1313 18.3356V16.7159C78.8873 16.5798 79.5623 16.1715 80.1562 15.5046C80.8582 14.7016 81.2227 13.3677 81.2227 11.5303V10.9314H83.2071H83.1936ZM101.607 12.5375H97.4084V15.5454C97.4084 16.1851 97.7053 16.5118 98.2858 16.5118H101.607V12.5375ZM106.628 13.9666H103.618V15.2596H106.628V13.9666ZM53.9271 12.4967V13.9802H44.707V12.4967H53.9271ZM70.9767 12.4967V13.9802H61.7567V12.4967H70.9767ZM68.7628 10.4551V11.9522H64.0381V10.4551H68.7628ZM51.6862 10.4551V11.9522H46.9614V10.4551H51.6862Z" fill="black"/>
</g>
<defs>
<clipPath id="clip0_6611_53982">
<rect width="109" height="36" fill="white"/>
</clipPath>
</defs>
</svg>
