<svg width="364" height="110" viewBox="0 0 364 110" fill="none" xmlns="http://www.w3.org/2000/svg">
<path d="M0 12C0 5.37258 5.37258 0 12 0H352C358.627 0 364 5.37258 364 12V98C364 104.627 358.627 110 352 110H12C5.37258 110 0 104.627 0 98V12Z" fill="#B7B8A5"/>
<path d="M253.105 46.8391C253.105 43.1019 256.034 40.0723 259.646 40.0723H315.898C319.511 40.0723 322.439 43.1019 322.439 46.8391L322.439 82.0265C322.439 85.7637 319.511 88.7933 315.898 88.7933H259.646C256.034 88.7933 253.105 85.7637 253.105 82.0265L253.105 46.8391Z" fill="white"/>
<mask id="mask0_6614_231481" style="mask-type:alpha" maskUnits="userSpaceOnUse" x="253" y="40" width="70" height="49">
<path d="M253.105 46.841C253.105 43.1038 256.034 40.0742 259.646 40.0742H315.898C319.511 40.0742 322.439 43.1038 322.439 46.841L322.439 82.0285C322.439 85.7657 319.511 88.7953 315.898 88.7953H259.646C256.034 88.7953 253.105 85.7657 253.105 82.0285L253.105 46.841Z" fill="white"/>
</mask>
<g mask="url(#mask0_6614_231481)">
<rect x="252.168" y="40.0742" width="70.2708" height="14.0542" fill="#00C73C"/>
<path d="M287.34 44.9395H289.06C289.328 44.9395 289.568 44.9677 289.765 45.0382C289.963 45.1087 290.132 45.2074 290.259 45.3202C290.386 45.4471 290.484 45.5881 290.555 45.7573C290.625 45.9265 290.654 46.1098 290.654 46.3073V46.4483C290.654 46.6457 290.625 46.829 290.555 46.9982C290.484 47.1674 290.386 47.3225 290.245 47.4495C290.118 47.5764 289.949 47.6751 289.751 47.7597C289.554 47.8302 289.328 47.8725 289.06 47.8725H288.003V49.762H287.34V44.9395V44.9395ZM288.003 45.5176V47.3084H288.947C289.638 47.3084 289.991 47.0264 289.991 46.4483V46.3214C289.991 46.0393 289.906 45.8419 289.737 45.715C289.568 45.5881 289.328 45.5176 289.018 45.5176H288.003V45.5176Z" fill="white"/>
<path d="M292.359 49.8206C291.992 49.8206 291.696 49.7359 291.484 49.5526C291.273 49.3693 291.16 49.1155 291.16 48.7912V48.6079C291.16 48.2976 291.259 48.0438 291.47 47.8464C291.682 47.649 292.02 47.5503 292.486 47.5503H293.416V47.3388C293.416 47.099 293.36 46.9157 293.233 46.7888C293.12 46.676 292.923 46.6055 292.655 46.6055C292.443 46.6055 292.26 46.6337 292.091 46.7042C291.936 46.7747 291.766 46.8593 291.597 46.9721L291.273 46.4927C291.456 46.3658 291.654 46.253 291.879 46.1684C292.105 46.0837 292.359 46.0273 292.655 46.0273C292.866 46.0273 293.05 46.0555 293.219 46.0978C293.388 46.1543 293.529 46.2248 293.656 46.3235C293.783 46.4222 293.868 46.5491 293.938 46.6901C294.009 46.8311 294.037 47.0003 294.037 47.1836V49.7642H293.416V49.327C293.374 49.3975 293.332 49.4539 293.275 49.5103C293.219 49.5667 293.148 49.609 293.078 49.6513C292.979 49.7077 292.88 49.75 292.754 49.7783C292.655 49.8065 292.514 49.8206 292.359 49.8206ZM293.416 48.1002H292.5C292.246 48.1002 292.063 48.1425 291.95 48.2412C291.837 48.3399 291.781 48.4809 291.781 48.6502V48.7489C291.781 48.9322 291.837 49.0591 291.964 49.1437C292.091 49.2283 292.232 49.2706 292.415 49.2706C292.57 49.2706 292.711 49.2565 292.838 49.2142C292.951 49.1719 293.064 49.1155 293.162 49.045C293.247 48.9745 293.318 48.904 293.36 48.8194C293.402 48.7348 293.416 48.622 293.416 48.4809V48.1002Z" fill="white"/>
<path d="M296.323 49.0303L297.282 46.1113H297.959L296.055 51.2865L295.463 51.0749L295.943 49.8199L294.617 46.1113H295.322L296.295 49.0303H296.323Z" fill="white"/>
<path d="M285.147 43.1348H276.715V51.5673H285.147V43.1348Z" fill="white"/>
<path d="M281.61 49.2836L280.242 47.2813V49.2836H278.832V45.4199H280.27L281.624 47.4223V45.4199H283.048V49.2836H281.61Z" fill="#00C73C"/>
</g>
<path d="M268.715 63.4141C268.546 63.4141 268.428 63.3814 268.361 63.316C268.297 63.2506 268.266 63.1324 268.266 62.9616L268.266 60.5686C268.266 60.4669 268.299 60.3924 268.366 60.3451C268.437 60.2979 268.516 60.2742 268.604 60.2742C268.696 60.2742 268.775 60.2979 268.842 60.3451C268.912 60.3924 268.948 60.4669 268.948 60.5686L268.948 62.6945C268.948 62.7781 268.988 62.8199 269.069 62.8199C269.136 62.8199 269.212 62.8181 269.297 62.8145C269.385 62.8108 269.475 62.8072 269.566 62.8036C269.661 62.7963 269.757 62.789 269.852 62.7818C269.947 62.7709 270.037 62.76 270.121 62.7491C270.202 62.7381 270.266 62.7581 270.312 62.809C270.358 62.8563 270.384 62.9217 270.391 63.0053C270.398 63.0888 270.387 63.1615 270.359 63.2233C270.331 63.2851 270.278 63.3232 270.201 63.3378C270.088 63.3559 269.905 63.3741 269.651 63.3923C269.401 63.4068 269.089 63.4141 268.715 63.4141ZM271.718 60.1925C271.718 60.098 271.75 60.0289 271.813 59.9853C271.877 59.9417 271.949 59.9199 272.03 59.9199C272.111 59.9199 272.183 59.9417 272.247 59.9853C272.31 60.0289 272.342 60.098 272.342 60.1925L272.342 64.4116C272.342 64.5061 272.31 64.5752 272.247 64.6188C272.183 64.6624 272.111 64.6842 272.03 64.6842C271.949 64.6842 271.877 64.6624 271.813 64.6188C271.75 64.5752 271.718 64.5061 271.718 64.4116L271.718 60.1925ZM270.724 61.975L269.989 61.975C269.908 61.975 269.848 61.9459 269.809 61.8878C269.771 61.8296 269.751 61.7606 269.751 61.6806C269.751 61.597 269.771 61.5262 269.809 61.468C269.848 61.4099 269.908 61.3808 269.989 61.3808L270.724 61.3808L270.724 60.247C270.724 60.1525 270.756 60.0835 270.819 60.0398C270.883 59.9962 270.955 59.9744 271.036 59.9744C271.114 59.9744 271.184 59.9962 271.247 60.0398C271.311 60.0835 271.343 60.1525 271.343 60.247L271.343 64.1827C271.343 64.2772 271.311 64.3462 271.247 64.3898C271.184 64.4334 271.114 64.4553 271.036 64.4553C270.955 64.4553 270.883 64.4334 270.819 64.3898C270.756 64.3462 270.724 64.2772 270.724 64.1827L270.724 61.975Z" fill="#272B2F"/>
<path d="M273.109 61.8551C273.109 61.3136 273.215 60.9029 273.427 60.6231C273.638 60.3397 273.957 60.1979 274.384 60.1979C274.81 60.1979 275.129 60.3397 275.34 60.6231C275.552 60.9029 275.658 61.3136 275.658 61.8551C275.658 62.3965 275.552 62.809 275.34 63.0925C275.129 63.3723 274.81 63.5122 274.384 63.5122C273.957 63.5122 273.638 63.3723 273.427 63.0925C273.215 62.809 273.109 62.3965 273.109 61.8551ZM275.007 61.8551C275.007 61.5098 274.962 61.2482 274.87 61.0701C274.778 60.892 274.616 60.803 274.384 60.803C274.151 60.803 273.989 60.892 273.897 61.0701C273.805 61.2482 273.76 61.5098 273.76 61.8551C273.76 62.2003 273.805 62.462 273.897 62.64C273.989 62.8181 274.151 62.9071 274.384 62.9071C274.616 62.9071 274.778 62.8181 274.87 62.64C274.962 62.462 275.007 62.2003 275.007 61.8551ZM277.001 64.3898C277.001 64.4916 276.965 64.5661 276.895 64.6133C276.828 64.6606 276.749 64.6842 276.657 64.6842C276.569 64.6842 276.489 64.6606 276.419 64.6133C276.352 64.5661 276.319 64.4916 276.319 64.3898L276.319 60.2143C276.319 60.1125 276.352 60.038 276.419 59.9908C276.489 59.9435 276.569 59.9199 276.657 59.9199C276.749 59.9199 276.828 59.9435 276.895 59.9908C276.965 60.038 277.001 60.1125 277.001 60.2143L277.001 64.3898Z" fill="#272B2F"/>
<path d="M278.656 61.3754L279.65 61.3754L279.65 60.5304C279.65 60.4323 279.684 60.3596 279.751 60.3124C279.821 60.2652 279.899 60.2415 279.983 60.2415C280.068 60.2415 280.144 60.2652 280.211 60.3124C280.281 60.3596 280.316 60.4323 280.316 60.5304L280.316 62.9834C280.316 63.1543 280.283 63.2724 280.216 63.3378C280.152 63.4032 280.036 63.4359 279.867 63.4359L278.439 63.4359C278.27 63.4359 278.152 63.4032 278.085 63.3378C278.022 63.2724 277.99 63.1543 277.99 62.9834L277.99 60.5304C277.99 60.4323 278.024 60.3596 278.091 60.3124C278.161 60.2652 278.239 60.2415 278.323 60.2415C278.408 60.2415 278.484 60.2652 278.55 60.3124C278.621 60.3596 278.656 60.4323 278.656 60.5304L278.656 61.3754ZM279.529 62.8526C279.61 62.8526 279.65 62.8108 279.65 62.7272L279.65 61.9586L278.656 61.9586L278.656 62.7272C278.656 62.8108 278.697 62.8526 278.778 62.8526L279.529 62.8526ZM281.173 62.1494L280.004 62.1494L280.004 61.5607L281.173 61.5607L281.173 60.2143C281.173 60.1125 281.206 60.038 281.273 59.9908C281.344 59.9435 281.423 59.9199 281.511 59.9199C281.596 59.9199 281.672 59.9435 281.739 59.9908C281.809 60.038 281.844 60.1125 281.844 60.2143L281.844 64.3898C281.844 64.4916 281.809 64.5661 281.739 64.6133C281.672 64.6606 281.596 64.6842 281.511 64.6842C281.423 64.6842 281.344 64.6606 281.273 64.6133C281.206 64.5661 281.173 64.4916 281.173 64.3898L281.173 62.1494Z" fill="#272B2F"/>
<path d="M282.585 60.6231C282.585 60.5504 282.605 60.485 282.643 60.4269C282.682 60.3687 282.742 60.3397 282.823 60.3397L284.705 60.3397C284.786 60.3397 284.846 60.3687 284.885 60.4269C284.924 60.485 284.943 60.5504 284.943 60.6231C284.943 60.6958 284.924 60.7612 284.885 60.8194C284.846 60.8775 284.786 60.9066 284.705 60.9066L284.573 60.9066L284.573 62.8199C284.601 62.8163 284.63 62.8145 284.658 62.8145C284.69 62.8108 284.719 62.8054 284.748 62.7981C284.829 62.7872 284.892 62.8072 284.938 62.8581C284.984 62.9053 285.01 62.9653 285.017 63.038C285.024 63.1143 285.012 63.1851 284.98 63.2506C284.949 63.316 284.897 63.3523 284.827 63.3596C284.668 63.3777 284.513 63.3923 284.362 63.4032C284.214 63.4141 284.059 63.4232 283.896 63.4304C283.738 63.4341 283.569 63.4359 283.389 63.4359C283.209 63.4359 283.01 63.4359 282.791 63.4359C282.71 63.4359 282.65 63.4068 282.612 63.3487C282.573 63.2905 282.554 63.2251 282.554 63.1524C282.554 63.0798 282.573 63.0143 282.612 62.9562C282.65 62.898 282.71 62.869 282.791 62.869L282.982 62.869L282.982 60.9066L282.823 60.9066C282.742 60.9066 282.682 60.8775 282.643 60.8194C282.605 60.7612 282.585 60.6958 282.585 60.6231ZM283.579 62.869C283.646 62.869 283.711 62.869 283.775 62.869C283.842 62.869 283.909 62.8653 283.976 62.8581L283.976 60.9066L283.579 60.9066L283.579 62.869ZM286.159 60.1925C286.159 60.098 286.191 60.0289 286.254 59.9853C286.318 59.9417 286.388 59.9199 286.466 59.9199C286.547 59.9199 286.619 59.9417 286.683 59.9853C286.746 60.0289 286.778 60.098 286.778 60.1925L286.778 64.4116C286.778 64.5061 286.746 64.5752 286.683 64.6188C286.619 64.6624 286.547 64.6842 286.466 64.6842C286.388 64.6842 286.318 64.6624 286.254 64.6188C286.191 64.5752 286.159 64.5061 286.159 64.4116L286.159 60.1925ZM285.245 62.144L285.001 62.144C284.92 62.144 284.86 62.1149 284.822 62.0568C284.783 61.9986 284.764 61.9296 284.764 61.8496C284.764 61.766 284.783 61.6952 284.822 61.637C284.86 61.5789 284.92 61.5498 285.001 61.5498L285.245 61.5498L285.245 60.247C285.245 60.1525 285.276 60.0835 285.34 60.0398C285.403 59.9962 285.474 59.9744 285.551 59.9744C285.629 59.9744 285.699 59.9962 285.763 60.0398C285.826 60.0835 285.858 60.1525 285.858 60.247L285.858 64.1827C285.858 64.2772 285.826 64.3462 285.763 64.3898C285.699 64.4334 285.629 64.4553 285.551 64.4553C285.474 64.4553 285.403 64.4334 285.34 64.3898C285.276 64.3462 285.245 64.2772 285.245 64.1827L285.245 62.144Z" fill="#272B2F"/>
<path d="M287.545 61.8551C287.545 61.3136 287.651 60.9029 287.863 60.6231C288.074 60.3397 288.393 60.1979 288.819 60.1979C289.246 60.1979 289.565 60.3397 289.776 60.6231C289.988 60.9029 290.094 61.3136 290.094 61.8551C290.094 62.3965 289.988 62.809 289.776 63.0925C289.565 63.3723 289.246 63.5122 288.819 63.5122C288.393 63.5122 288.074 63.3723 287.863 63.0925C287.651 62.809 287.545 62.3965 287.545 61.8551ZM289.443 61.8551C289.443 61.5098 289.398 61.2482 289.306 61.0701C289.214 60.892 289.052 60.803 288.819 60.803C288.587 60.803 288.425 60.892 288.333 61.0701C288.241 61.2482 288.196 61.5098 288.196 61.8551C288.196 62.2003 288.241 62.462 288.333 62.64C288.425 62.8181 288.587 62.9071 288.819 62.9071C289.052 62.9071 289.214 62.8181 289.306 62.64C289.398 62.462 289.443 62.2003 289.443 61.8551ZM291.437 64.3898C291.437 64.4916 291.401 64.5661 291.331 64.6133C291.264 64.6606 291.185 64.6842 291.093 64.6842C291.005 64.6842 290.925 64.6606 290.855 64.6133C290.788 64.5661 290.755 64.4916 290.755 64.3898L290.755 60.2143C290.755 60.1125 290.788 60.038 290.855 59.9908C290.925 59.9435 291.005 59.9199 291.093 59.9199C291.185 59.9199 291.264 59.9435 291.331 59.9908C291.401 60.038 291.437 60.1125 291.437 60.2143L291.437 64.3898Z" fill="#272B2F"/>
<path d="M297.295 60.247C297.376 60.247 297.435 60.2761 297.47 60.3342C297.509 60.3887 297.528 60.4559 297.528 60.5359C297.528 60.6158 297.509 60.6849 297.47 60.743C297.435 60.7976 297.376 60.8248 297.295 60.8248L296.867 60.8248L296.867 62.1821L297.317 62.1821C297.398 62.1821 297.456 62.2112 297.491 62.2694C297.53 62.3239 297.549 62.3911 297.549 62.471C297.549 62.551 297.53 62.62 297.491 62.6782C297.456 62.7327 297.398 62.76 297.317 62.76L294.197 62.76C294.116 62.76 294.056 62.7327 294.017 62.6782C293.982 62.62 293.965 62.551 293.965 62.471C293.965 62.3911 293.982 62.3239 294.017 62.2694C294.056 62.2112 294.116 62.1821 294.197 62.1821L294.647 62.1821L294.647 60.8248L294.218 60.8248C294.137 60.8248 294.077 60.7976 294.039 60.743C294.003 60.6849 293.986 60.6158 293.986 60.5359C293.986 60.4559 294.003 60.3887 294.039 60.3342C294.077 60.2761 294.137 60.247 294.218 60.247L297.295 60.247ZM295.302 62.1821L296.212 62.1821L296.212 60.8248L295.302 60.8248L295.302 62.1821ZM293.758 64.2372C293.677 64.2372 293.617 64.2081 293.579 64.15C293.54 64.0918 293.52 64.0228 293.52 63.9428C293.52 63.8629 293.54 63.7938 293.579 63.7357C293.617 63.6776 293.677 63.6485 293.758 63.6485L295.418 63.6485L295.418 62.4492L296.095 62.4492L296.095 63.6485L297.755 63.6485C297.836 63.6485 297.896 63.6776 297.935 63.7357C297.974 63.7938 297.993 63.8629 297.993 63.9428C297.993 64.0228 297.974 64.0918 297.935 64.15C297.896 64.2081 297.836 64.2372 297.755 64.2372L293.758 64.2372Z" fill="#272B2F"/>
<path d="M298.491 61.4626C298.491 61.2772 298.517 61.1046 298.57 60.9447C298.623 60.7848 298.703 60.6486 298.808 60.5359C298.914 60.4196 299.046 60.3288 299.205 60.2633C299.363 60.1979 299.548 60.1652 299.76 60.1652C299.971 60.1652 300.156 60.1979 300.315 60.2633C300.474 60.3288 300.606 60.4196 300.712 60.5359C300.817 60.6486 300.897 60.7848 300.95 60.9447C301.002 61.1046 301.029 61.2772 301.029 61.4626C301.029 61.6479 301.002 61.8205 300.95 61.9804C300.897 62.1403 300.817 62.2784 300.712 62.3947C300.606 62.5074 300.474 62.5964 300.315 62.6618C300.156 62.7272 299.971 62.76 299.76 62.76C299.548 62.76 299.363 62.7272 299.205 62.6618C299.046 62.5964 298.914 62.5074 298.808 62.3947C298.703 62.2784 298.623 62.1403 298.57 61.9804C298.517 61.8205 298.491 61.6479 298.491 61.4626ZM300.384 61.4626C300.384 61.3645 300.371 61.2718 300.347 61.1846C300.326 61.0974 300.29 61.0229 300.241 60.9611C300.192 60.8957 300.127 60.8448 300.045 60.8085C299.968 60.7685 299.873 60.7485 299.76 60.7485C299.647 60.7485 299.55 60.7685 299.469 60.8085C299.392 60.8448 299.328 60.8957 299.279 60.9611C299.229 61.0229 299.192 61.0974 299.168 61.1846C299.147 61.2718 299.136 61.3645 299.136 61.4626C299.136 61.5607 299.147 61.6534 299.168 61.7406C299.192 61.8278 299.229 61.9041 299.279 61.9695C299.328 62.0313 299.392 62.0822 299.469 62.1222C299.55 62.1585 299.647 62.1767 299.76 62.1767C299.873 62.1767 299.968 62.1585 300.045 62.1222C300.127 62.0822 300.192 62.0313 300.241 61.9695C300.29 61.9041 300.326 61.8278 300.347 61.7406C300.371 61.6534 300.384 61.5607 300.384 61.4626ZM302.382 63.3432C302.382 63.445 302.347 63.5195 302.277 63.5667C302.21 63.614 302.132 63.6376 302.044 63.6376C301.956 63.6376 301.877 63.614 301.806 63.5667C301.739 63.5195 301.706 63.445 301.706 63.3432L301.706 60.2143C301.706 60.1125 301.739 60.038 301.806 59.9908C301.877 59.9435 301.956 59.9199 302.044 59.9199C302.132 59.9199 302.21 59.9435 302.277 59.9908C302.347 60.038 302.382 60.1125 302.382 60.2143L302.382 63.3432ZM299.649 64.9349C299.48 64.9349 299.362 64.9022 299.295 64.8368C299.231 64.7714 299.2 64.6533 299.2 64.4825L299.2 63.4522C299.2 63.3505 299.233 63.276 299.3 63.2287C299.37 63.1815 299.452 63.1579 299.543 63.1579C299.631 63.1579 299.709 63.1815 299.776 63.2287C299.846 63.276 299.882 63.3505 299.882 63.4522L299.882 64.2154C299.882 64.299 299.922 64.3408 300.003 64.3408L302.261 64.3408C302.342 64.3408 302.402 64.3698 302.44 64.428C302.479 64.4861 302.499 64.557 302.499 64.6406C302.499 64.7205 302.479 64.7896 302.44 64.8477C302.402 64.9059 302.342 64.9349 302.261 64.9349L299.649 64.9349Z" fill="#272B2F"/>
<path d="M304.376 61.31L306.74 61.31C306.821 61.31 306.881 61.339 306.919 61.3972C306.958 61.4553 306.978 61.5207 306.978 61.5934C306.978 61.6661 306.958 61.7315 306.919 61.7897C306.881 61.8478 306.821 61.8769 306.74 61.8769L304.376 61.8769L304.376 62.253C304.376 62.3366 304.417 62.3784 304.498 62.3784L306.872 62.3784C306.953 62.3784 307.013 62.4074 307.052 62.4656C307.09 62.5237 307.11 62.5928 307.11 62.6727C307.11 62.7527 307.09 62.8217 307.052 62.8799C307.013 62.938 306.953 62.9671 306.872 62.9671L304.165 62.9671C303.996 62.9671 303.878 62.9344 303.811 62.869C303.747 62.8036 303.715 62.6855 303.715 62.5147L303.715 60.6776C303.715 60.5068 303.747 60.3887 303.811 60.3233C303.878 60.2579 303.996 60.2252 304.165 60.2252L306.792 60.2252C306.874 60.2252 306.933 60.2543 306.972 60.3124C307.011 60.3705 307.03 60.4396 307.03 60.5195C307.03 60.5995 307.011 60.6685 306.972 60.7267C306.933 60.7848 306.874 60.8139 306.792 60.8139L304.498 60.8139C304.417 60.8139 304.376 60.8557 304.376 60.9393L304.376 61.31ZM303.382 64.2372C303.301 64.2372 303.241 64.2081 303.203 64.15C303.164 64.0918 303.144 64.0228 303.144 63.9428C303.144 63.8593 303.164 63.7884 303.203 63.7303C303.241 63.6721 303.301 63.643 303.382 63.643L307.379 63.643C307.46 63.643 307.52 63.6721 307.559 63.7303C307.598 63.7884 307.617 63.8593 307.617 63.9428C307.617 64.0228 307.598 64.0918 307.559 64.15C307.52 64.2081 307.46 64.2372 307.379 64.2372L303.382 64.2372Z" fill="#272B2F"/>
<path d="M270.585 69.9472C270.781 69.9472 270.926 70.0121 271.02 70.142C271.114 70.2719 271.161 70.4261 271.161 70.6047C271.161 70.7914 271.114 70.9497 271.02 71.0796C270.926 71.2014 270.781 71.2623 270.585 71.2623L267.338 71.2623L267.236 73.4663C267.449 73.3445 267.692 73.239 267.964 73.1497C268.237 73.0604 268.565 73.0157 268.949 73.0157C269.392 73.0157 269.784 73.0888 270.125 73.2349C270.466 73.3811 270.752 73.5799 270.982 73.8316C271.22 74.0751 271.399 74.3593 271.519 74.684C271.638 75.0087 271.698 75.3456 271.698 75.6947L271.698 75.8164C271.698 76.1655 271.634 76.5146 271.506 76.8636C271.387 77.2127 271.191 77.5253 270.918 77.8013C270.654 78.0773 270.313 78.3046 269.895 78.4832C269.486 78.6536 268.987 78.7389 268.399 78.7389C267.794 78.7389 267.27 78.6861 266.827 78.5806C266.383 78.4669 265.987 78.3046 265.638 78.0935C265.442 77.9717 265.326 77.8175 265.292 77.6308C265.267 77.436 265.309 77.2533 265.42 77.0828C265.54 76.8961 265.684 76.7825 265.855 76.7419C266.025 76.7013 266.209 76.7378 266.405 76.8515C266.677 77.0057 266.963 77.1234 267.261 77.2046C267.568 77.2858 267.943 77.3264 268.386 77.3264C268.949 77.3264 269.367 77.1884 269.639 76.9123C269.912 76.6282 270.048 76.2589 270.048 75.8043L270.048 75.7312C270.048 75.2603 269.904 74.8991 269.614 74.6474C269.332 74.3958 268.936 74.27 268.425 74.27C268.126 74.27 267.849 74.3146 267.594 74.4039C267.338 74.4932 267.112 74.615 266.916 74.7692C266.788 74.8666 266.677 74.9356 266.584 74.9762C266.498 75.0168 266.383 75.0371 266.238 75.0371C266.042 75.0371 265.885 74.9925 265.765 74.9032C265.646 74.8057 265.591 74.6759 265.599 74.5135L265.804 71.0066C265.812 70.7955 265.834 70.621 265.868 70.483C265.91 70.3449 265.97 70.2394 266.047 70.1664C266.132 70.0852 266.243 70.0283 266.379 69.9959C266.515 69.9634 266.686 69.9472 266.89 69.9472L270.585 69.9472Z" fill="#272B2F"/>
<path d="M274.307 77.3142C274.546 77.3548 274.729 77.4603 274.857 77.6308C274.985 77.7931 275.002 77.992 274.908 78.2275L274.256 79.9079C274.18 80.1027 274.064 80.2326 273.911 80.2975C273.766 80.3625 273.608 80.3787 273.438 80.3462C273.268 80.3138 273.131 80.2448 273.029 80.1392C272.935 80.0337 272.905 79.8957 272.939 79.7252L273.259 77.8743C273.302 77.6308 273.429 77.4684 273.643 77.3872C273.856 77.2979 274.077 77.2736 274.307 77.3142Z" fill="#272B2F"/>
<path d="M279.723 69.8132C280.908 69.8132 281.769 70.1785 282.306 70.9091C282.851 71.6398 283.124 72.6748 283.124 74.0142L283.124 74.5379C283.124 75.8773 282.851 76.9123 282.306 77.643C281.769 78.3736 280.908 78.7389 279.723 78.7389C278.538 78.7389 277.673 78.3736 277.128 77.643C276.591 76.9123 276.322 75.8773 276.322 74.5379L276.322 74.0142C276.322 72.6748 276.591 71.6398 277.128 70.9091C277.673 70.1785 278.538 69.8132 279.723 69.8132ZM279.723 71.2866C279.391 71.2866 279.109 71.3394 278.879 71.4449C278.657 71.5505 278.479 71.7209 278.342 71.9564C278.214 72.1837 278.121 72.4759 278.061 72.8331C278.001 73.1903 277.971 73.6205 277.971 74.1238L277.971 74.4283C277.971 74.9316 278.001 75.3618 278.061 75.719C278.121 76.0762 278.214 76.3725 278.342 76.6079C278.478 76.8352 278.657 77.0016 278.879 77.1072C279.109 77.2127 279.391 77.2655 279.723 77.2655C280.055 77.2655 280.332 77.2127 280.554 77.1072C280.784 77.0016 280.963 76.8352 281.091 76.6079C281.227 76.3725 281.325 76.0762 281.385 75.719C281.445 75.3618 281.474 74.9316 281.474 74.4283L281.474 74.1238C281.474 73.6205 281.445 73.1903 281.385 72.8331C281.325 72.4759 281.227 72.1837 281.091 71.9564C280.963 71.7209 280.784 71.5505 280.554 71.4449C280.332 71.3394 280.055 71.2866 279.723 71.2866Z" fill="#272B2F"/>
<path d="M287.651 69.8132C288.836 69.8132 289.697 70.1785 290.234 70.9091C290.779 71.6398 291.052 72.6748 291.052 74.0142L291.052 74.5379C291.052 75.8773 290.779 76.9123 290.234 77.643C289.697 78.3736 288.836 78.7389 287.651 78.7389C286.466 78.7389 285.601 78.3736 285.056 77.643C284.519 76.9123 284.25 75.8773 284.25 74.5379L284.25 74.0142C284.25 72.6748 284.519 71.6398 285.056 70.9091C285.601 70.1785 286.466 69.8132 287.651 69.8132ZM287.651 71.2866C287.319 71.2866 287.038 71.3394 286.807 71.4449C286.586 71.5505 286.407 71.7209 286.27 71.9564C286.143 72.1837 286.049 72.4759 285.989 72.8331C285.93 73.1903 285.9 73.6205 285.9 74.1238L285.9 74.4283C285.9 74.9316 285.93 75.3618 285.989 75.719C286.049 76.0762 286.143 76.3725 286.27 76.6079C286.407 76.8352 286.586 77.0016 286.807 77.1072C287.038 77.2127 287.319 77.2655 287.651 77.2655C287.984 77.2655 288.261 77.2127 288.482 77.1072C288.712 77.0016 288.891 76.8352 289.019 76.6079C289.156 76.3725 289.254 76.0762 289.313 75.719C289.373 75.3618 289.403 74.9316 289.403 74.4283L289.403 74.1238C289.403 73.6205 289.373 73.1903 289.313 72.8331C289.254 72.4759 289.156 72.1837 289.019 71.9564C288.891 71.7209 288.712 71.5505 288.482 71.4449C288.261 71.3394 287.984 71.2866 287.651 71.2866Z" fill="#272B2F"/>
<path d="M295.58 69.8132C296.764 69.8132 297.625 70.1785 298.162 70.9091C298.708 71.6398 298.98 72.6748 298.98 74.0142L298.98 74.5379C298.98 75.8773 298.708 76.9123 298.162 77.643C297.625 78.3736 296.764 78.7389 295.58 78.7389C294.395 78.7389 293.53 78.3736 292.984 77.643C292.447 76.9123 292.179 75.8773 292.179 74.5379L292.179 74.0142C292.179 72.6748 292.447 71.6398 292.984 70.9091C293.53 70.1785 294.395 69.8132 295.58 69.8132ZM295.58 71.2866C295.247 71.2866 294.966 71.3394 294.736 71.4449C294.514 71.5505 294.335 71.7209 294.199 71.9564C294.071 72.1837 293.977 72.4759 293.917 72.8331C293.858 73.1903 293.828 73.6205 293.828 74.1238L293.828 74.4283C293.828 74.9316 293.858 75.3618 293.917 75.719C293.977 76.0762 294.071 76.3725 294.199 76.6079C294.335 76.8352 294.514 77.0016 294.736 77.1072C294.966 77.2127 295.247 77.2655 295.58 77.2655C295.912 77.2655 296.189 77.2127 296.411 77.1072C296.641 77.0016 296.82 76.8352 296.948 76.6079C297.084 76.3725 297.182 76.0762 297.242 75.719C297.301 75.3618 297.331 74.9316 297.331 74.4283L297.331 74.1238C297.331 73.6205 297.301 73.1903 297.242 72.8331C297.182 72.4759 297.084 72.1837 296.948 71.9564C296.82 71.7209 296.641 71.5505 296.411 71.4449C296.189 71.3394 295.912 71.2866 295.58 71.2866Z" fill="#272B2F"/>
<path d="M303.981 73.515C302.941 73.515 302.161 73.3242 301.641 72.9427C301.121 72.5611 300.861 72.0497 300.861 71.4084C300.861 70.7671 301.121 70.2557 301.641 69.8741C302.161 69.4926 302.941 69.3018 303.981 69.3018C305.021 69.3018 305.801 69.4926 306.321 69.8741C306.841 70.2557 307.101 70.7671 307.101 71.4084C307.101 72.0497 306.841 72.5611 306.321 72.9427C305.801 73.3242 305.021 73.515 303.981 73.515ZM303.981 72.2973C304.526 72.2973 304.927 72.2202 305.183 72.0659C305.438 71.9036 305.566 71.6844 305.566 71.4084C305.566 71.1324 305.438 70.9173 305.183 70.763C304.927 70.6007 304.526 70.5195 303.981 70.5195C303.435 70.5195 303.035 70.6007 302.779 70.763C302.523 70.9173 302.396 71.1324 302.396 71.4084C302.396 71.6844 302.523 71.9036 302.779 72.0659C303.035 72.2202 303.435 72.2973 303.981 72.2973ZM308.353 76.8758L306.627 76.8758C306.44 76.8758 306.299 76.8149 306.206 76.6932C306.12 76.5714 306.078 76.4253 306.078 76.2548C306.078 76.0843 306.12 75.9382 306.206 75.8164C306.299 75.6947 306.44 75.6338 306.627 75.6338L308.353 75.6338L308.353 69.7767C308.353 69.5494 308.434 69.383 308.596 69.2774C308.767 69.1719 308.959 69.1191 309.172 69.1191C309.376 69.1191 309.56 69.1719 309.721 69.2774C309.892 69.383 309.977 69.5494 309.977 69.7767L309.977 77.1315C309.977 77.3588 309.892 77.5253 309.721 77.6308C309.56 77.7363 309.376 77.7891 309.172 77.7891C308.959 77.7891 308.767 77.7363 308.596 77.6308C308.434 77.5253 308.353 77.3588 308.353 77.1315L308.353 76.8758ZM300.657 75.3902C300.461 75.3902 300.316 75.3294 300.222 75.2076C300.137 75.0777 300.094 74.9235 300.094 74.7449C300.094 74.5663 300.137 74.4161 300.222 74.2943C300.316 74.1644 300.461 74.0995 300.657 74.0995C301.688 74.0995 302.771 74.0833 303.904 74.0508C305.038 74.0183 306.146 73.9412 307.228 73.8194C307.424 73.7951 307.574 73.8397 307.676 73.9534C307.778 74.067 307.838 74.2131 307.855 74.3917C307.872 74.5622 307.842 74.7164 307.765 74.8545C307.689 74.9843 307.552 75.0615 307.356 75.0858C306.981 75.1345 306.568 75.1792 306.116 75.2198C305.664 75.2522 305.187 75.2806 304.684 75.305L304.684 76.4862C304.684 76.6972 304.603 76.8515 304.441 76.9489C304.288 77.0382 304.096 77.0828 303.866 77.0828C303.644 77.0828 303.452 77.0382 303.291 76.9489C303.137 76.8515 303.06 76.6972 303.06 76.4862L303.06 75.3659C302.651 75.3821 302.246 75.3902 301.846 75.3902C301.445 75.3902 301.049 75.3902 300.657 75.3902ZM309.683 79.0311C309.879 79.0311 310.024 79.0961 310.118 79.226C310.212 79.3558 310.258 79.5101 310.258 79.6887C310.258 79.8673 310.212 80.0215 310.118 80.1514C310.024 80.2813 309.879 80.3462 309.683 80.3462L302.996 80.3462C302.587 80.3462 302.302 80.2732 302.14 80.127C301.986 79.9809 301.91 79.7171 301.91 79.3355L301.91 77.9109C301.91 77.6835 301.991 77.5171 302.153 77.4116C302.323 77.3061 302.519 77.2533 302.741 77.2533C302.954 77.2533 303.141 77.3061 303.303 77.4116C303.474 77.5171 303.559 77.6835 303.559 77.9109L303.559 78.7511C303.559 78.9378 303.657 79.0311 303.853 79.0311L309.683 79.0311Z" fill="#272B2F"/>
<g opacity="0.5" filter="url(#filter0_f_6614_231481)">
<path d="M247.69 60.7825C244.042 58.3017 241.839 55.1816 242.769 53.8136C243.699 52.4456 247.411 53.3477 251.059 55.8285C254.707 58.3092 256.91 61.4293 255.98 62.7973C255.049 64.1654 251.338 63.2633 247.69 60.7825Z" fill="black" fill-opacity="0.3"/>
</g>
<path d="M248.036 53.0609C244.641 48.4831 243.284 43.7381 245.004 42.4625C246.725 41.1869 250.872 43.8639 254.267 48.4417C257.662 53.0195 259.019 57.7645 257.298 59.0401C255.578 60.3156 251.431 57.6387 248.036 53.0609Z" fill="#EBC154"/>
<path d="M246.559 41.3047L258.857 57.8898L257.298 59.0452L245 42.4601L246.559 41.3047Z" fill="#EBC154"/>
<path d="M249.587 51.9085C246.192 47.3308 244.834 42.5857 246.555 41.3102C248.276 40.0346 252.423 42.7116 255.818 47.2893C259.213 51.8671 260.57 56.6122 258.849 57.8877C257.128 59.1633 252.981 56.4863 249.587 51.9085Z" fill="#FFEA6B"/>
<g opacity="0.5" filter="url(#filter1_f_6614_231481)">
<path d="M323.409 81.3444C320.108 82.9951 316.931 83.3297 316.312 82.0919C315.693 80.854 317.867 78.5124 321.168 76.8618C324.469 75.2112 327.646 74.8765 328.265 76.1144C328.884 77.3522 326.71 79.6938 323.409 81.3444Z" fill="black" fill-opacity="0.2"/>
</g>
<path d="M323.947 74.3487C321.654 77.2378 318.915 78.881 317.83 78.019C316.744 77.157 317.723 74.1162 320.016 71.2271C322.309 68.3381 325.048 66.6949 326.134 67.5569C327.219 68.4189 326.24 71.4597 323.947 74.3487Z" fill="#EBC154"/>
<path d="M316.848 77.2402L325.156 66.7744L326.139 67.5551L317.831 78.0209L316.848 77.2402Z" fill="#EBC154"/>
<path d="M322.971 73.5714C320.678 76.4604 317.939 78.1036 316.853 77.2416C315.768 76.3796 316.746 73.3388 319.039 70.4498C321.333 67.5608 324.071 65.9175 325.157 66.7796C326.243 67.6416 325.264 70.6824 322.971 73.5714Z" fill="#FFEA6B"/>
<path d="M37.44 38.216C37.44 39.512 37.712 40.696 38.256 41.752C38.848 42.936 39.632 44.024 40.592 45.048L39.232 46.104C38.112 44.984 37.232 43.8 36.592 42.552L36.48 42.312L36.448 42.376C35.68 43.928 34.768 45.272 33.712 46.408L32.16 45.32C33.184 44.264 34.016 43.096 34.656 41.8C35.184 40.76 35.456 39.56 35.456 38.216V35.592H37.44V38.216ZM45.872 49H43.904V34.536H45.872V49ZM40.816 34.84H42.736V48.504H40.816V41.096H38.448V39.368H40.816V34.84ZM52.8464 36.6C52.8464 37.896 53.2464 38.952 54.0464 39.784C54.7184 40.488 55.6144 41.144 56.7344 41.768L55.5824 43.048C54.3024 42.424 53.2464 41.672 52.4464 40.776C52.2064 40.552 52.0144 40.328 51.8864 40.12C51.7424 40.392 51.5344 40.68 51.2624 40.984C50.3184 42.04 49.2784 42.856 48.1424 43.432L46.9104 42.168C48.0144 41.56 48.9104 40.856 49.6144 40.056C50.4144 39.176 50.8144 38.088 50.8144 36.808V35.112H52.8464V36.6ZM59.5024 43.464H57.5184V34.536H59.5024V38.072H61.4864V39.832H59.5024V43.464ZM57.9024 46.392C57.9024 46.184 57.8224 46.008 57.6624 45.848C57.5024 45.72 57.2624 45.576 56.9744 45.448C56.6704 45.32 56.2864 45.224 55.8384 45.128C55.3584 45.048 54.8944 45 54.4464 45C53.9664 45 53.5024 45.048 53.0224 45.128C52.5424 45.224 52.1744 45.32 51.9184 45.448C51.6304 45.592 51.4224 45.736 51.2784 45.864C51.1184 46.008 51.0384 46.184 51.0384 46.392C51.0384 46.584 51.1184 46.76 51.2784 46.904C51.4224 47.064 51.6304 47.208 51.9184 47.336C52.2064 47.464 52.5904 47.56 53.0544 47.608C53.5024 47.672 53.9664 47.704 54.4464 47.704C54.8944 47.704 55.3584 47.672 55.8384 47.608C56.3024 47.544 56.6864 47.464 56.9744 47.336C57.2784 47.208 57.5184 47.064 57.6784 46.904C57.8224 46.76 57.9024 46.584 57.9024 46.392ZM59.9184 46.392C59.9184 46.84 59.7744 47.256 59.4864 47.608C59.1984 47.992 58.8144 48.312 58.3664 48.584C57.8544 48.856 57.2624 49.048 56.5584 49.16C55.8544 49.288 55.1504 49.352 54.4464 49.352C53.7264 49.352 53.0224 49.288 52.3344 49.16C51.6304 49.048 51.0384 48.856 50.5424 48.584C50.0624 48.312 49.6944 47.992 49.4384 47.608C49.1664 47.24 49.0384 46.84 49.0384 46.392C49.0384 45.944 49.1664 45.528 49.4384 45.144C49.6944 44.776 50.0624 44.456 50.5424 44.184C51.0224 43.912 51.6304 43.704 52.3344 43.56C53.0224 43.432 53.7264 43.368 54.4464 43.368C55.1504 43.368 55.8544 43.432 56.5744 43.56C57.2784 43.704 57.8704 43.912 58.3664 44.184C58.8144 44.456 59.1984 44.776 59.4864 45.144C59.7744 45.528 59.9184 45.944 59.9184 46.392ZM62.4448 41.032C62.4448 39.496 62.7328 38.232 63.3088 37.24C63.9808 36.104 64.8288 35.528 65.8688 35.528C66.8928 35.528 67.7408 36.104 68.4128 37.24C68.8608 38.008 69.1488 38.92 69.2608 40.008H70.3648V34.84H72.2848V48.504H70.3648V41.736H69.2928C69.1968 42.888 68.9088 43.928 68.4128 44.824C67.7888 45.944 66.9248 46.504 65.8368 46.504C64.8608 46.504 64.0288 45.96 63.3248 44.856C62.7328 43.832 62.4448 42.568 62.4448 41.032ZM64.3648 41.032C64.3648 42.024 64.5088 42.904 64.8288 43.688C65.1168 44.424 65.4528 44.776 65.8368 44.776C66.2528 44.776 66.6048 44.424 66.9088 43.688C67.2288 42.872 67.3888 41.992 67.3888 41.032C67.3888 40.04 67.2288 39.16 66.9088 38.376C66.6048 37.64 66.2528 37.256 65.8688 37.256C65.4688 37.256 65.1168 37.64 64.8288 38.376C64.5088 39.176 64.3648 40.072 64.3648 41.032ZM75.3408 49H73.3888V34.536H75.3408V49ZM91.01 39.288H81.874V37.624H91.01V39.288ZM88.882 36.904H84.002V35.24H88.882V36.904ZM90.594 43.208C90.594 43.656 90.482 44.072 90.29 44.456C90.066 44.872 89.778 45.224 89.41 45.528C89.026 45.848 88.594 46.072 88.098 46.232C87.586 46.392 87.058 46.472 86.498 46.472C85.938 46.472 85.41 46.392 84.914 46.232C84.402 46.072 83.954 45.848 83.586 45.528C83.202 45.224 82.93 44.872 82.738 44.456C82.53 44.072 82.434 43.656 82.434 43.208C82.434 42.76 82.53 42.344 82.738 41.928C82.93 41.528 83.202 41.176 83.586 40.856C83.954 40.568 84.402 40.328 84.914 40.152C85.41 39.992 85.938 39.896 86.498 39.896C87.058 39.896 87.586 39.992 88.098 40.152C88.594 40.328 89.026 40.568 89.41 40.856C89.778 41.176 90.066 41.528 90.29 41.928C90.482 42.344 90.594 42.76 90.594 43.208ZM88.594 43.192C88.594 42.728 88.386 42.328 87.986 41.992C87.57 41.672 87.074 41.512 86.498 41.512C85.906 41.512 85.41 41.672 85.026 41.992C84.61 42.328 84.418 42.728 84.418 43.192C84.418 43.64 84.61 44.024 85.026 44.344C85.41 44.68 85.906 44.84 86.498 44.84C87.074 44.84 87.57 44.68 87.986 44.344C88.386 44.024 88.594 43.64 88.594 43.192ZM93.906 34.536V40.488H96.018V42.216H93.906V49H91.922V34.536H93.906ZM99.2804 35.624V44.088H101.024C102.32 44.088 103.888 43.976 105.712 43.752V45.464C103.936 45.72 102.272 45.832 100.704 45.832H97.2644V35.624H99.2804ZM108.512 34.536V39.784H110.752V41.56H108.512V49H106.544V34.536H108.512ZM112.767 41.336V35.112H114.639V36.632H116.271V35.112H118.063V41.336H112.767ZM116.271 39.656V38.264H114.639V39.656H116.271ZM118.687 41.336V35.112H120.479V36.632H122.111V35.112H123.983V41.336H118.687ZM122.111 39.656V38.264H120.479V39.656H122.111ZM125.567 42.088V43.768H119.439V46.312H117.471V43.768H111.183V42.088H125.567ZM123.855 49H112.927V44.744H114.927V47.32H123.855V49ZM134.653 39.16C134.653 39.704 134.525 40.216 134.301 40.696C134.061 41.192 133.757 41.624 133.389 41.992C133.005 42.344 132.573 42.616 132.061 42.808C131.549 43.032 130.989 43.128 130.413 43.128C129.837 43.128 129.293 43.032 128.781 42.808C128.269 42.616 127.821 42.344 127.453 41.992C127.085 41.624 126.797 41.192 126.573 40.696C126.349 40.216 126.237 39.704 126.237 39.16C126.237 38.616 126.349 38.104 126.573 37.624C126.797 37.144 127.085 36.728 127.453 36.36C127.821 35.992 128.269 35.704 128.781 35.48C129.293 35.288 129.837 35.176 130.413 35.176C130.989 35.176 131.549 35.288 132.061 35.48C132.573 35.704 133.005 35.992 133.389 36.36C133.757 36.728 134.061 37.144 134.301 37.624C134.525 38.104 134.653 38.616 134.653 39.16ZM132.653 39.16C132.653 38.856 132.589 38.568 132.477 38.28C132.349 38.008 132.173 37.768 131.981 37.544C131.789 37.352 131.549 37.192 131.293 37.064C131.005 36.936 130.717 36.872 130.429 36.872C130.141 36.872 129.853 36.936 129.597 37.064C129.309 37.192 129.085 37.352 128.893 37.544C128.685 37.768 128.525 38.008 128.429 38.28C128.301 38.568 128.253 38.856 128.253 39.16C128.253 39.48 128.301 39.784 128.429 40.056C128.525 40.344 128.685 40.568 128.893 40.76C129.085 40.984 129.309 41.144 129.597 41.256C129.853 41.384 130.141 41.432 130.429 41.432C130.717 41.432 131.005 41.384 131.293 41.256C131.549 41.144 131.789 40.984 131.981 40.76C132.173 40.568 132.349 40.344 132.477 40.056C132.589 39.784 132.653 39.48 132.653 39.16ZM138.765 34.536V45.592H136.797V34.536H138.765ZM139.197 49H128.621V44.216H130.653V47.304H139.197V49ZM40.832 62.872C40.832 63.368 40.72 63.848 40.496 64.296C40.272 64.76 39.968 65.16 39.6 65.48C39.216 65.832 38.784 66.104 38.304 66.28C37.808 66.472 37.28 66.568 36.704 66.568C36.144 66.568 35.616 66.472 35.12 66.28C34.608 66.104 34.176 65.832 33.808 65.48C33.44 65.16 33.152 64.76 32.96 64.296C32.736 63.848 32.64 63.368 32.64 62.872C32.64 62.36 32.736 61.88 32.96 61.416C33.152 60.968 33.44 60.568 33.808 60.232C34.176 59.88 34.608 59.608 35.12 59.416C35.616 59.224 36.144 59.128 36.704 59.128C37.28 59.128 37.808 59.224 38.304 59.416C38.784 59.608 39.216 59.88 39.6 60.232C39.968 60.568 40.272 60.968 40.496 61.416C40.72 61.88 40.832 62.36 40.832 62.872ZM38.816 62.872C38.816 62.584 38.752 62.312 38.64 62.056C38.512 61.832 38.352 61.608 38.192 61.416C37.984 61.256 37.76 61.112 37.504 60.984C37.248 60.888 36.976 60.824 36.704 60.824C36.416 60.824 36.16 60.888 35.904 60.984C35.648 61.112 35.424 61.256 35.248 61.416C35.056 61.608 34.896 61.832 34.8 62.056C34.672 62.312 34.624 62.584 34.624 62.872C34.624 63.16 34.672 63.416 34.8 63.64C34.896 63.896 35.056 64.104 35.248 64.28C35.424 64.472 35.648 64.6 35.904 64.696C36.16 64.808 36.416 64.856 36.704 64.856C36.976 64.856 37.248 64.808 37.504 64.696C37.76 64.6 37.984 64.472 38.192 64.28C38.352 64.104 38.512 63.896 38.64 63.64C38.752 63.416 38.816 63.16 38.816 62.872ZM44.768 58.536V61.928H46.752V63.656H44.768V67.08H42.784V58.536H44.768ZM42.768 69.192H36.752V71.32H42.768V69.192ZM44.784 73H34.768V67.512H44.784V73ZM50.9424 59.768V62.2H57.8384V59.768H59.8384V67.688H55.3584V70.024H61.5824V71.72H47.1984V70.024H53.4224V67.688H48.9424V59.768H50.9424ZM50.9424 63.88V66.008H57.8384V63.88H50.9424ZM71.3568 62.296H62.3648V60.728H71.3568V62.296ZM69.2768 60.28H64.4448V58.712H69.2768V60.28ZM70.8767 65.128C70.8767 65.464 70.7648 65.784 70.5408 66.088C70.3168 66.408 70.0288 66.68 69.6768 66.888C69.3088 67.112 68.8768 67.272 68.3968 67.368C67.8848 67.464 67.3728 67.512 66.8448 67.512C66.3328 67.512 65.8208 67.464 65.3408 67.352C64.8288 67.256 64.4128 67.112 64.0608 66.888C63.7088 66.68 63.4208 66.408 63.2288 66.088C63.0048 65.784 62.9088 65.464 62.9088 65.128C62.9088 64.792 63.0048 64.472 63.2128 64.152C63.4048 63.848 63.6928 63.576 64.0608 63.336C64.4128 63.112 64.8448 62.936 65.3408 62.824C65.8208 62.728 66.3328 62.664 66.8448 62.664C67.3728 62.664 67.8848 62.728 68.3808 62.824C68.8608 62.952 69.2928 63.112 69.6768 63.336C70.0288 63.56 70.3328 63.816 70.5568 64.136C70.7648 64.456 70.8767 64.792 70.8767 65.128ZM68.8608 65.128C68.8608 64.872 68.6848 64.664 68.3328 64.488C67.9808 64.328 67.4848 64.232 66.8448 64.232C66.2368 64.232 65.7568 64.312 65.4368 64.472C65.0848 64.648 64.9248 64.872 64.9248 65.128C64.9248 65.352 65.0848 65.544 65.4208 65.704C65.7408 65.864 66.2048 65.944 66.8448 65.944C67.4688 65.944 67.9648 65.864 68.3328 65.704C68.6848 65.544 68.8608 65.352 68.8608 65.128ZM74.9408 58.536V67.688H72.9568V65.112H71.0688V63.384H72.9568V58.536H74.9408ZM72.9408 69.8H66.9088V71.368H72.9408V69.8ZM74.9568 73H64.9088V68.184H74.9568V73ZM89.906 66.936H82.53V59.48H89.906V66.936ZM87.922 65.256V61.16H84.514V65.256H87.922ZM94.018 69.592H92.034V58.536H94.018V62.504H96.002V64.216H94.018V69.592ZM94.434 73H84.226V68.216H86.242V71.304H94.434V73ZM98.1924 63.896V59.032H109.088V60.648H100.192V62.28H109.248V63.896H98.1924ZM110.832 64.584V66.216H96.4484V64.584H110.832ZM109.264 73H98.1924V69.304H107.088V68.52H98.1924V67.048H109.088V70.744H100.192V71.528H109.264V73ZM123.823 59.768V62.888C123.823 64.808 123.567 66.664 123.055 68.488H121.023C121.551 66.872 121.823 65.128 121.823 63.24V61.464H112.863V59.768H123.823ZM125.567 71.72H111.183V70.024H116.479V64.856H118.463V70.024H125.567V71.72ZM137.364 65.352C135.892 66.616 134.116 67.496 132.068 68.008L131.028 66.536C132.98 66.024 134.548 65.272 135.748 64.264C136.964 63.272 137.572 62.344 137.572 61.48V61.096H132.212V59.4H139.668V60.744H141.876V58.536H143.844V67.4H141.876V65.704H138.66V64.088H141.876V62.36H139.46C139.124 63.448 138.42 64.44 137.364 65.352ZM144.196 70.344C144.196 70.824 144.052 71.24 143.796 71.592C143.508 71.96 143.14 72.28 142.66 72.536C142.18 72.824 141.588 73.016 140.9 73.144C140.196 73.288 139.46 73.352 138.708 73.352C137.972 73.352 137.268 73.288 136.58 73.16C135.876 73.032 135.284 72.824 134.804 72.536C134.324 72.28 133.956 71.96 133.7 71.576C133.444 71.224 133.316 70.808 133.316 70.344C133.316 69.896 133.444 69.48 133.7 69.096C133.956 68.744 134.324 68.424 134.804 68.136C135.284 67.88 135.876 67.672 136.58 67.512C137.268 67.384 137.972 67.304 138.708 67.304C139.46 67.304 140.196 67.384 140.9 67.512C141.588 67.672 142.18 67.88 142.66 68.136C143.14 68.424 143.508 68.744 143.796 69.096C144.052 69.464 144.196 69.88 144.196 70.344ZM142.18 70.344C142.18 70.152 142.1 69.976 141.956 69.832C141.796 69.704 141.572 69.56 141.284 69.416C140.964 69.288 140.58 69.176 140.132 69.08C139.652 69 139.188 68.952 138.708 68.952C138.26 68.952 137.796 69 137.348 69.08C136.868 69.176 136.484 69.288 136.196 69.416C135.892 69.544 135.668 69.688 135.54 69.816C135.396 69.976 135.332 70.152 135.332 70.344C135.332 70.552 135.412 70.728 135.572 70.888C135.732 71.064 135.94 71.192 136.196 71.288C136.5 71.4 136.884 71.496 137.348 71.56C137.796 71.656 138.26 71.688 138.708 71.688C139.188 71.688 139.652 71.656 140.132 71.576C140.58 71.512 140.964 71.416 141.284 71.288C141.604 71.176 141.828 71.032 141.972 70.872C142.1 70.728 142.18 70.552 142.18 70.344ZM158.434 60.728H156.562L156.482 62.968H158.754V64.6H147.01V62.968H149.266L149.186 60.728H147.346V59.112H158.434V60.728ZM154.626 60.728H151.122L151.202 62.968H154.53L154.626 60.728ZM160.082 65.432V67.096H153.89V68.232H158.338V73H147.442V68.232H151.89V67.096H145.698V65.432H160.082ZM149.442 69.848V71.384H156.338V69.848H149.442ZM163.201 59.16V61.272H166.721V59.16H168.705V66.424H161.217V59.16H163.201ZM163.201 62.92V64.776H166.721V62.92H163.201ZM172.737 66.984H170.753V58.536H172.737V61.896H174.721V63.624H172.737V66.984ZM162.897 67.576H172.753V69.256H164.881V71.32H172.929V73H162.897V67.576ZM180.943 61.56V62.36C180.943 63.64 181.343 64.888 182.175 66.072C182.783 66.968 183.679 67.96 184.863 69.016L183.455 70.2C182.239 69.144 181.263 68.056 180.495 66.936C180.271 66.616 180.095 66.36 179.983 66.152C179.855 66.376 179.679 66.696 179.423 67.08C178.415 68.552 177.407 69.672 176.399 70.44L174.943 69.304C176.063 68.344 176.991 67.304 177.695 66.216C178.511 65.016 178.927 63.736 178.927 62.36V61.56H175.759V59.848H184.047V61.56H180.943ZM187.231 58.536V64.056H189.471V65.848H187.231V73H185.263V58.536H187.231ZM193.086 58.856V61.704L192.862 69.112H191.23L191.038 61.704V58.856H193.086ZM193.23 72.344H190.878V69.992H193.23V72.344Z" fill="white"/>
<g opacity="0.5">
<circle cx="249" cy="21" r="4" fill="white"/>
</g>
<g opacity="0.5">
<circle cx="265" cy="21" r="4" fill="white"/>
</g>
<g opacity="0.5">
<circle cx="281" cy="21" r="4" fill="white"/>
</g>
<g opacity="0.5">
<circle cx="297" cy="21" r="4" fill="white"/>
</g>
<circle cx="313" cy="21" r="4" fill="white"/>
<path d="M327.869 17.5708C327.706 17.4082 327.462 17.3596 327.249 17.4476C327.037 17.5356 326.898 17.7428 326.898 17.9727V24.0359C326.898 24.2658 327.037 24.473 327.249 24.561C327.462 24.649 327.706 24.6004 327.869 24.4378L330.9 21.4062C331.122 21.1842 331.122 20.8243 330.9 20.6024L327.869 17.5708Z" fill="white"/>
<defs>
<filter id="filter0_f_6614_231481" x="239.201" y="49.8226" width="20.3432" height="16.9662" filterUnits="userSpaceOnUse" color-interpolation-filters="sRGB">
<feFlood flood-opacity="0" result="BackgroundImageFix"/>
<feBlend mode="normal" in="SourceGraphic" in2="BackgroundImageFix" result="shape"/>
<feGaussianBlur stdDeviation="1.67661" result="effect1_foregroundBlur_6614_231481"/>
</filter>
<filter id="filter1_f_6614_231481" x="313.764" y="72.9243" width="17.0498" height="12.3584" filterUnits="userSpaceOnUse" color-interpolation-filters="sRGB">
<feFlood flood-opacity="0" result="BackgroundImageFix"/>
<feBlend mode="normal" in="SourceGraphic" in2="BackgroundImageFix" result="shape"/>
<feGaussianBlur stdDeviation="1.22143" result="effect1_foregroundBlur_6614_231481"/>
</filter>
</defs>
</svg>
