<svg width="1128" height="60" viewBox="0 0 1128 60" fill="none" xmlns="http://www.w3.org/2000/svg">
<rect width="1128" height="60" fill="white"/>
<path d="M693.375 23.322V24.988C693.375 25.996 693.235 26.962 692.983 27.886H691.723C691.989 26.934 692.129 26.052 692.129 25.212V24.4H684.303V23.322H693.375ZM694.901 29.776H682.819V28.698H687.453V26.15H688.685V28.698H694.901V29.776ZM693.585 33.066C693.585 33.416 693.473 33.724 693.249 34.004C693.011 34.298 692.689 34.536 692.297 34.732C691.877 34.956 691.345 35.124 690.729 35.222C690.099 35.334 689.469 35.39 688.839 35.39C688.209 35.39 687.593 35.334 686.977 35.222C686.347 35.124 685.815 34.956 685.395 34.732C685.003 34.536 684.695 34.298 684.485 34.004C684.261 33.724 684.163 33.416 684.163 33.066C684.163 32.73 684.261 32.408 684.485 32.114C684.695 31.834 685.003 31.582 685.395 31.372C685.815 31.148 686.347 30.98 686.977 30.868C687.593 30.77 688.209 30.714 688.839 30.714C689.469 30.714 690.099 30.77 690.729 30.868C691.345 30.98 691.877 31.148 692.297 31.372C692.689 31.582 693.011 31.82 693.249 32.1C693.473 32.394 693.585 32.716 693.585 33.066ZM692.367 33.066C692.367 32.856 692.269 32.674 692.101 32.506C691.905 32.366 691.667 32.226 691.359 32.114C691.079 32.016 690.701 31.932 690.253 31.862C689.777 31.806 689.315 31.764 688.839 31.764C688.391 31.764 687.929 31.792 687.467 31.848C686.991 31.918 686.627 32.002 686.347 32.114C686.053 32.226 685.815 32.352 685.647 32.506C685.465 32.674 685.381 32.856 685.381 33.066C685.381 33.262 685.465 33.444 685.633 33.584C685.787 33.752 686.025 33.878 686.333 33.99C686.641 34.102 687.033 34.186 687.495 34.242C687.943 34.298 688.391 34.326 688.839 34.326C689.315 34.326 689.777 34.298 690.253 34.242C690.701 34.186 691.079 34.116 691.373 34.004C691.667 33.892 691.905 33.766 692.101 33.598C692.269 33.444 692.367 33.262 692.367 33.066ZM700.43 25.478C700.43 26.948 700.766 28.194 701.438 29.23C702.082 30.182 702.852 31.008 703.776 31.68L702.922 32.436C702.026 31.792 701.186 30.896 700.388 29.776C700.192 29.524 699.982 29.202 699.786 28.796C699.59 29.244 699.38 29.622 699.184 29.93C698.526 30.938 697.686 31.862 696.664 32.716L695.74 31.932C696.664 31.246 697.448 30.392 698.12 29.384C698.82 28.334 699.17 26.99 699.17 25.366V23.714H700.43V25.478ZM706.506 22.79V35.054H705.288V22.79H706.506ZM713.322 24.204C713.322 25.128 713.658 25.926 714.358 26.584C714.946 27.144 715.73 27.676 716.724 28.166L715.954 28.964C714.974 28.516 714.134 27.942 713.406 27.242C713.126 26.99 712.902 26.724 712.734 26.458C712.51 26.808 712.258 27.13 711.992 27.41C711.18 28.25 710.354 28.88 709.514 29.286L708.716 28.502C709.654 28.012 710.41 27.452 710.984 26.836C711.698 26.052 712.062 25.212 712.062 24.33V23.224H713.322V24.204ZM719.342 22.79V29.16H718.124V22.79H719.342ZM719.594 35.054H711.096V31.932H718.11V30.826H711.096V29.832H719.356V32.912H712.37V34.046H719.594V35.054Z" fill="#272B2F"/>
<path d="M729.286 24.9998C729.286 24.6053 729.605 24.2855 730 24.2855H735.714C736.109 24.2855 736.428 23.9657 736.428 23.5712C736.428 23.1767 736.109 22.8569 735.714 22.8569H730C728.816 22.8569 727.857 23.8163 727.857 24.9998V34.9998C727.857 36.1833 728.816 37.1426 730 37.1426H740C741.183 37.1426 742.143 36.1833 742.143 34.9998V29.2855C742.143 28.891 741.823 28.5712 741.428 28.5712C741.034 28.5712 740.714 28.891 740.714 29.2855V34.9998C740.714 35.3943 740.394 35.7141 740 35.7141H730C729.605 35.7141 729.286 35.3943 729.286 34.9998V24.9998Z" fill="#272B2F"/>
<path d="M737.857 23.5712C737.857 23.1767 738.177 22.8569 738.571 22.8569H741.428C741.823 22.8569 742.143 23.1767 742.143 23.5712V26.4284C742.143 26.8229 741.823 27.1426 741.428 27.1426C741.034 27.1426 740.714 26.8229 740.714 26.4284V25.2957L736.219 29.7906C735.94 30.0695 735.488 30.0695 735.209 29.7906C734.93 29.5116 734.93 29.0594 735.209 28.7804L739.704 24.2855H738.571C738.177 24.2855 737.857 23.9657 737.857 23.5712Z" fill="#272B2F"/>
<path d="M776.071 23.35V25.114H779.669V23.35H780.887V25.744H783.519V22.79H784.765V29.538H783.519V26.794H780.887V29.076H774.853V23.35H776.071ZM776.071 26.136V28.026H779.669V26.136H776.071ZM783.519 32.38H777.765V34.018H783.519V32.38ZM784.765 35.054H776.533V30.07H777.765V31.358H783.519V30.07H784.765V35.054ZM793.919 26.64C793.919 27.088 793.807 27.522 793.611 27.928C793.387 28.348 793.135 28.698 792.855 28.978C792.575 29.258 792.225 29.482 791.805 29.65C791.385 29.818 790.937 29.902 790.461 29.902C789.985 29.902 789.551 29.818 789.145 29.65C788.725 29.482 788.361 29.258 788.067 28.978C787.745 28.698 787.507 28.348 787.339 27.928C787.157 27.536 787.073 27.102 787.073 26.64C787.073 26.192 787.157 25.758 787.353 25.352C787.521 24.96 787.759 24.624 788.067 24.33C788.361 24.022 788.725 23.784 789.145 23.616C789.551 23.448 789.985 23.364 790.461 23.364C790.937 23.364 791.371 23.448 791.791 23.616C792.197 23.784 792.547 24.022 792.855 24.33C793.163 24.624 793.415 24.974 793.625 25.366C793.821 25.772 793.919 26.192 793.919 26.64ZM792.673 26.64C792.673 26.346 792.603 26.066 792.491 25.8C792.365 25.548 792.211 25.31 792.043 25.1C791.833 24.918 791.595 24.764 791.343 24.624C791.063 24.512 790.783 24.442 790.475 24.442C790.167 24.442 789.873 24.512 789.607 24.624C789.327 24.764 789.103 24.918 788.921 25.1C788.725 25.31 788.571 25.548 788.459 25.8C788.347 26.066 788.291 26.346 788.291 26.64C788.291 26.948 788.347 27.228 788.473 27.48C788.585 27.746 788.725 27.984 788.921 28.18C789.117 28.39 789.341 28.544 789.621 28.656C789.887 28.768 790.167 28.824 790.475 28.824C790.769 28.824 791.049 28.768 791.329 28.642C791.595 28.53 791.833 28.376 792.043 28.18C792.211 27.984 792.365 27.76 792.491 27.48C792.603 27.228 792.673 26.948 792.673 26.64ZM797.503 22.79V32.072H796.285V22.79H797.503ZM797.867 35.054H789.145V31.218H790.391V33.976H797.867V35.054ZM807.806 26.164H800.246V25.142H807.806V26.164ZM805.958 24.344H802.108V23.294H805.958V24.344ZM807.386 29.006C807.386 29.286 807.302 29.566 807.134 29.832C806.952 30.112 806.714 30.336 806.42 30.518C806.112 30.714 805.762 30.854 805.37 30.938C805.146 31.008 804.908 31.05 804.684 31.064V32.324C806.196 32.268 807.554 32.17 808.772 32.016V33.066C806.994 33.304 804.992 33.416 802.766 33.416H799.658V32.352H803.48V31.064C803.228 31.05 802.976 31.008 802.752 30.938C802.346 30.854 801.996 30.714 801.688 30.518C801.38 30.35 801.142 30.112 800.988 29.832C800.82 29.566 800.75 29.286 800.75 29.006C800.75 28.726 800.82 28.446 800.988 28.18C801.142 27.928 801.38 27.69 801.688 27.48C801.996 27.284 802.346 27.144 802.766 27.046C803.158 26.962 803.592 26.906 804.04 26.906C804.516 26.906 804.964 26.962 805.37 27.046C805.762 27.158 806.112 27.298 806.42 27.48C806.728 27.69 806.966 27.928 807.134 28.18C807.302 28.446 807.386 28.726 807.386 29.006ZM806.154 29.006C806.154 28.656 805.944 28.376 805.538 28.18C805.118 27.998 804.628 27.9 804.04 27.9C803.466 27.9 802.976 27.998 802.584 28.18C802.178 28.376 801.982 28.656 801.982 29.006C801.982 29.37 802.178 29.636 802.584 29.818C802.976 30.014 803.466 30.098 804.04 30.098C804.628 30.098 805.118 30.014 805.538 29.818C805.944 29.65 806.154 29.37 806.154 29.006ZM810.844 35.054H809.612V22.79H810.844V35.054ZM820.083 25.408C820.083 25.716 819.985 26.01 819.803 26.29C819.607 26.598 819.369 26.85 819.075 27.06C818.795 27.284 818.459 27.452 818.067 27.536C817.661 27.648 817.227 27.69 816.779 27.69C816.345 27.69 815.939 27.648 815.547 27.536C815.155 27.438 814.805 27.284 814.525 27.06C814.217 26.85 813.979 26.598 813.811 26.29C813.643 26.01 813.559 25.716 813.559 25.408C813.559 25.1 813.643 24.806 813.811 24.498C813.979 24.218 814.217 23.966 814.525 23.742C814.805 23.546 815.155 23.392 815.547 23.266C815.939 23.154 816.345 23.098 816.779 23.098C817.227 23.098 817.661 23.154 818.053 23.266C818.445 23.392 818.781 23.546 819.075 23.742C819.369 23.966 819.607 24.218 819.803 24.498C819.985 24.806 820.083 25.1 820.083 25.408ZM818.809 25.408C818.809 25.058 818.613 24.75 818.221 24.498C817.815 24.26 817.339 24.134 816.779 24.134C816.219 24.134 815.757 24.26 815.393 24.498C815.015 24.75 814.833 25.044 814.833 25.408C814.833 25.772 815.015 26.066 815.407 26.29C815.771 26.528 816.233 26.64 816.779 26.64C817.339 26.64 817.815 26.528 818.221 26.29C818.613 26.066 818.809 25.772 818.809 25.408ZM823.443 22.79V32.646H822.211V31.288H818.837V30.308H822.211V22.79H823.443ZM816.485 28.432C818.277 28.432 819.845 28.348 821.189 28.166V29.216C820.097 29.384 818.725 29.468 817.045 29.496V31.568H815.799V29.482H812.551V28.432H816.485ZM823.723 35.054H814.693V32.184H815.939V33.99H823.723V35.054Z" fill="#272B2F"/>
<path d="M833.286 24.9998C833.286 24.6053 833.605 24.2855 834 24.2855H839.714C840.109 24.2855 840.428 23.9657 840.428 23.5712C840.428 23.1767 840.109 22.8569 839.714 22.8569H834C832.816 22.8569 831.857 23.8163 831.857 24.9998V34.9998C831.857 36.1833 832.816 37.1426 834 37.1426H844C845.183 37.1426 846.143 36.1833 846.143 34.9998V29.2855C846.143 28.891 845.823 28.5712 845.428 28.5712C845.034 28.5712 844.714 28.891 844.714 29.2855V34.9998C844.714 35.3943 844.394 35.7141 844 35.7141H834C833.605 35.7141 833.286 35.3943 833.286 34.9998V24.9998Z" fill="#272B2F"/>
<path d="M841.857 23.5712C841.857 23.1767 842.177 22.8569 842.571 22.8569H845.428C845.823 22.8569 846.143 23.1767 846.143 23.5712V26.4284C846.143 26.8229 845.823 27.1426 845.428 27.1426C845.034 27.1426 844.714 26.8229 844.714 26.4284V25.2957L840.219 29.7906C839.94 30.0695 839.488 30.0695 839.209 29.7906C838.93 29.5116 838.93 29.0594 839.209 28.7804L843.704 24.2855H842.571C842.177 24.2855 841.857 23.9657 841.857 23.5712Z" fill="#272B2F"/>
<path d="M886.021 26.164H878.461V25.142H886.021V26.164ZM884.173 24.344H880.323V23.294H884.173V24.344ZM885.601 29.006C885.601 29.286 885.517 29.566 885.349 29.832C885.167 30.112 884.929 30.336 884.635 30.518C884.327 30.714 883.977 30.854 883.585 30.938C883.361 31.008 883.123 31.05 882.899 31.064V32.324C884.411 32.268 885.769 32.17 886.987 32.016V33.066C885.209 33.304 883.207 33.416 880.981 33.416H877.873V32.352H881.695V31.064C881.443 31.05 881.191 31.008 880.967 30.938C880.561 30.854 880.211 30.714 879.903 30.518C879.595 30.35 879.357 30.112 879.203 29.832C879.035 29.566 878.965 29.286 878.965 29.006C878.965 28.726 879.035 28.446 879.203 28.18C879.357 27.928 879.595 27.69 879.903 27.48C880.211 27.284 880.561 27.144 880.981 27.046C881.373 26.962 881.807 26.906 882.255 26.906C882.731 26.906 883.179 26.962 883.585 27.046C883.977 27.158 884.327 27.298 884.635 27.48C884.943 27.69 885.181 27.928 885.349 28.18C885.517 28.446 885.601 28.726 885.601 29.006ZM884.369 29.006C884.369 28.656 884.159 28.376 883.753 28.18C883.333 27.998 882.843 27.9 882.255 27.9C881.681 27.9 881.191 27.998 880.799 28.18C880.393 28.376 880.197 28.656 880.197 29.006C880.197 29.37 880.393 29.636 880.799 29.818C881.191 30.014 881.681 30.098 882.255 30.098C882.843 30.098 883.333 30.014 883.753 29.818C884.159 29.65 884.369 29.37 884.369 29.006ZM889.059 35.054H887.827V22.79H889.059V35.054ZM895.189 25.478C895.189 26.948 895.525 28.194 896.197 29.23C896.841 30.182 897.611 31.008 898.535 31.68L897.681 32.436C896.813 31.792 895.973 30.896 895.161 29.776C894.965 29.524 894.769 29.202 894.573 28.796C894.349 29.244 894.153 29.622 893.971 29.93C893.299 30.994 892.445 31.918 891.423 32.716L890.499 31.932C891.423 31.246 892.207 30.392 892.879 29.384C893.579 28.334 893.929 26.99 893.929 25.366V23.714H895.189V25.478ZM900.831 22.79V27.256H902.875V28.418H900.831V35.054H899.585V22.79H900.831ZM910.336 24.19C910.336 25.506 910.84 26.626 911.876 27.55C912.688 28.25 913.752 28.852 915.082 29.356L914.326 30.266C913.038 29.846 911.876 29.16 910.84 28.222C910.448 27.872 910.07 27.41 909.692 26.822C909.328 27.41 908.936 27.872 908.53 28.222C907.48 29.146 906.318 29.832 905.044 30.28L904.274 29.328C905.506 28.894 906.584 28.292 907.508 27.508C908.544 26.612 909.062 25.534 909.062 24.302V23.504H910.336V24.19ZM915.74 32.842V33.934H903.658V32.842H909.076V29.65H910.322V32.842H915.74ZM922.403 23.882V25.016C922.403 26.976 921.871 28.586 920.807 29.86C919.771 31.092 918.679 32.044 917.503 32.716L916.649 31.876C917.839 31.19 918.861 30.336 919.701 29.328C920.653 28.138 921.129 26.934 921.129 25.702V24.974H917.349V23.882H922.403ZM927.779 35.054H926.575V28.292H924.825V34.62H923.635V23.056H924.825V27.144H926.575V22.79H927.779V35.054Z" fill="#272B2F"/>
<path d="M937.286 24.9998C937.286 24.6053 937.605 24.2855 938 24.2855H943.714C944.109 24.2855 944.428 23.9657 944.428 23.5712C944.428 23.1767 944.109 22.8569 943.714 22.8569H938C936.816 22.8569 935.857 23.8163 935.857 24.9998V34.9998C935.857 36.1833 936.816 37.1426 938 37.1426H948C949.183 37.1426 950.143 36.1833 950.143 34.9998V29.2855C950.143 28.891 949.823 28.5712 949.428 28.5712C949.034 28.5712 948.714 28.891 948.714 29.2855V34.9998C948.714 35.3943 948.394 35.7141 948 35.7141H938C937.605 35.7141 937.286 35.3943 937.286 34.9998V24.9998Z" fill="#272B2F"/>
<path d="M945.857 23.5712C945.857 23.1767 946.177 22.8569 946.571 22.8569H949.428C949.823 22.8569 950.143 23.1767 950.143 23.5712V26.4284C950.143 26.8229 949.823 27.1426 949.428 27.1426C949.034 27.1426 948.714 26.8229 948.714 26.4284V25.2957L944.219 29.7906C943.94 30.0695 943.488 30.0695 943.209 29.7906C942.93 29.5116 942.93 29.0594 943.209 28.7804L947.704 24.2855H946.571C946.177 24.2855 945.857 23.9657 945.857 23.5712Z" fill="#272B2F"/>
<path d="M985 16.5H1040C1041.93 16.5 1043.5 18.067 1043.5 20V40C1043.5 41.933 1041.93 43.5 1040 43.5H985C983.067 43.5 981.5 41.933 981.5 40V20C981.5 18.067 983.067 16.5 985 16.5Z" stroke="#403F3E"/>
<path d="M999.804 32.586C998.824 32.712 997.816 32.768 996.808 32.768H994.624V24.242H995.856V31.69H996.78C997.76 31.69 998.768 31.634 999.804 31.494V32.586ZM1005.17 35.554H1003.96V28.862H1002.16V35.12H1000.95V23.556H1002.16V27.714H1003.96V23.29H1005.17V35.554ZM1011.7 25.488C1011.7 26.384 1012.07 27.21 1012.79 27.966C1013.35 28.554 1014.07 29.058 1014.96 29.492L1014.22 30.304C1013.35 29.912 1012.54 29.324 1011.79 28.54C1011.56 28.358 1011.34 28.078 1011.09 27.714C1010.93 28.022 1010.67 28.386 1010.27 28.778C1009.52 29.562 1008.73 30.178 1007.91 30.654L1007.08 29.842C1007.96 29.352 1008.69 28.806 1009.25 28.204C1010.04 27.392 1010.44 26.482 1010.44 25.488V25.124H1007.7V24.074H1014.42V25.124H1011.7V25.488ZM1017.76 23.29V30.738H1016.52V27.392H1013.86V26.328H1016.52V23.29H1017.76ZM1016.85 33.412C1016.85 33.202 1016.77 33.006 1016.62 32.838C1016.45 32.684 1016.22 32.544 1015.93 32.404C1015.62 32.292 1015.27 32.194 1014.85 32.124C1014.42 32.068 1013.98 32.026 1013.56 32.026C1013.14 32.026 1012.72 32.068 1012.3 32.124C1011.87 32.194 1011.52 32.292 1011.24 32.404C1010.95 32.544 1010.72 32.684 1010.57 32.838C1010.4 33.006 1010.33 33.202 1010.33 33.412C1010.33 33.636 1010.41 33.832 1010.58 34C1010.74 34.168 1010.96 34.322 1011.24 34.448C1011.52 34.588 1011.88 34.672 1012.33 34.714C1012.77 34.77 1013.17 34.798 1013.56 34.798C1013.98 34.798 1014.42 34.77 1014.84 34.714C1015.26 34.658 1015.62 34.574 1015.93 34.448C1016.22 34.322 1016.45 34.168 1016.62 34C1016.77 33.832 1016.85 33.636 1016.85 33.412ZM1018.09 33.412C1018.09 33.79 1017.97 34.126 1017.75 34.406C1017.53 34.714 1017.22 34.98 1016.84 35.204C1016.45 35.428 1015.96 35.596 1015.37 35.708C1014.78 35.82 1014.18 35.876 1013.56 35.876C1012.96 35.876 1012.37 35.82 1011.79 35.708C1011.2 35.596 1010.71 35.428 1010.33 35.19C1009.94 34.966 1009.63 34.714 1009.42 34.406C1009.2 34.126 1009.1 33.79 1009.1 33.412C1009.1 33.048 1009.2 32.726 1009.42 32.418C1009.63 32.124 1009.94 31.872 1010.33 31.648C1010.71 31.424 1011.2 31.242 1011.79 31.116C1012.37 31.004 1012.96 30.948 1013.56 30.948C1014.18 30.948 1014.78 31.004 1015.37 31.116C1015.96 31.242 1016.45 31.41 1016.84 31.634C1017.23 31.858 1017.54 32.124 1017.76 32.418C1017.97 32.726 1018.09 33.062 1018.09 33.412ZM1022.54 24.382V26.496H1029.08V24.382H1030.32V30.892H1026.42V33.342H1031.85V34.434H1019.77V33.342H1025.2V30.892H1021.29V24.382H1022.54ZM1022.54 27.56V29.828H1029.08V27.56H1022.54Z" fill="#272B2F"/>
<path d="M1056 16.5H1124C1125.93 16.5 1127.5 18.067 1127.5 20V40C1127.5 41.933 1125.93 43.5 1124 43.5H1056C1054.07 43.5 1052.5 41.933 1052.5 40V20C1052.5 18.067 1054.07 16.5 1056 16.5Z" stroke="#272B2F"/>
<path d="M1066.61 31.186V27.238H1074.4V25.432H1066.61V24.368H1075.64V28.288H1067.86V30.108H1075.78V31.186H1071.75V33.342H1077.17V34.434H1065.09V33.342H1070.51V31.186H1066.61ZM1088.54 24.382V26.972C1088.54 29.128 1088.24 31.256 1087.67 33.342H1090.06V34.434H1077.98V33.342H1086.41C1087 31.242 1087.29 29.142 1087.29 27.014V25.46H1079.46V24.382H1088.54ZM1091.28 28.778C1091.28 27.518 1091.59 26.44 1092.22 25.516C1092.86 24.606 1093.63 24.144 1094.55 24.144C1095.45 24.144 1096.22 24.606 1096.89 25.516C1097.54 26.412 1097.86 27.504 1097.86 28.778C1097.86 30.038 1097.54 31.116 1096.89 32.026C1096.26 32.922 1095.48 33.37 1094.55 33.37C1093.63 33.37 1092.86 32.922 1092.22 32.026C1091.59 31.13 1091.28 30.052 1091.28 28.778ZM1092.5 28.778C1092.5 29.688 1092.66 30.486 1093.03 31.186C1093.45 31.928 1093.97 32.292 1094.55 32.292C1095.13 32.292 1095.63 31.928 1096.07 31.186C1096.44 30.472 1096.64 29.674 1096.64 28.778C1096.64 27.84 1096.44 27.042 1096.08 26.37C1095.63 25.614 1095.11 25.222 1094.55 25.222C1093.94 25.222 1093.43 25.614 1093.03 26.37C1092.66 27.07 1092.5 27.882 1092.5 28.778ZM1100.95 23.29V27.784H1102.98V28.946H1100.95V35.554H1099.71V23.29H1100.95ZM1114.35 26.034C1114.35 26.398 1114.22 26.734 1114 27.056C1113.75 27.392 1113.43 27.672 1113.02 27.882C1112.61 28.106 1112.12 28.274 1111.56 28.358C1110.98 28.456 1110.39 28.498 1109.77 28.498C1109.16 28.498 1108.57 28.456 1108.01 28.358C1107.43 28.274 1106.94 28.106 1106.55 27.882C1106.13 27.672 1105.82 27.392 1105.6 27.056C1105.38 26.734 1105.26 26.398 1105.26 26.034C1105.26 25.642 1105.38 25.292 1105.6 24.984C1105.82 24.676 1106.13 24.41 1106.54 24.186C1106.96 23.948 1107.45 23.78 1108.01 23.668C1108.57 23.57 1109.16 23.514 1109.77 23.514C1110.39 23.514 1110.98 23.57 1111.55 23.682C1112.11 23.808 1112.6 23.976 1113.01 24.186C1113.43 24.424 1113.75 24.704 1114 25.012C1114.22 25.348 1114.35 25.684 1114.35 26.034ZM1107.41 27.084C1107.67 27.224 1108.01 27.322 1108.43 27.378C1108.82 27.448 1109.27 27.476 1109.77 27.476C1110.25 27.476 1110.7 27.448 1111.1 27.378C1111.49 27.322 1111.86 27.224 1112.17 27.084C1112.46 26.958 1112.68 26.79 1112.85 26.594C1113.01 26.412 1113.09 26.216 1113.09 26.02C1113.09 25.796 1113.01 25.586 1112.84 25.404C1112.67 25.236 1112.45 25.096 1112.17 24.956C1111.86 24.816 1111.52 24.704 1111.13 24.634C1110.72 24.578 1110.28 24.55 1109.77 24.55C1109.27 24.55 1108.83 24.592 1108.44 24.648C1108.04 24.718 1107.69 24.816 1107.41 24.956C1107.13 25.096 1106.9 25.25 1106.76 25.418C1106.59 25.6 1106.52 25.796 1106.52 26.02C1106.52 26.216 1106.59 26.412 1106.75 26.594C1106.89 26.79 1107.1 26.944 1107.41 27.084ZM1115.85 29.352V30.402H1110.44V31.452H1109.17V30.402H1103.77V29.352H1115.85ZM1110.44 31.956V32.096C1110.44 32.74 1110.93 33.328 1111.91 33.874C1112.77 34.364 1113.78 34.672 1114.95 34.812L1114.34 35.722C1113.24 35.638 1112.17 35.302 1111.12 34.686C1110.63 34.406 1110.19 34.084 1109.8 33.692C1109.41 34.098 1108.96 34.434 1108.48 34.7C1107.42 35.288 1106.34 35.638 1105.24 35.722L1104.62 34.784C1105.77 34.672 1106.78 34.35 1107.66 33.846C1108.67 33.286 1109.17 32.712 1109.17 32.096V31.956H1110.44Z" fill="#272B2F"/>
</svg>
