<svg width="100" height="100" viewBox="0 0 100 100" fill="none" xmlns="http://www.w3.org/2000/svg">
<rect width="100" height="100" rx="20" fill="white"/>
<path d="M35 25.25C35 23.1789 36.6789 21.5 38.75 21.5H61.25C63.3211 21.5 65 23.1789 65 25.25V41.5C65 43.5711 63.3211 45.25 61.25 45.25H38.75C36.6789 45.25 35 43.5711 35 41.5V25.25Z" fill="#4780F0"/>
<path d="M55.625 39.625C55.625 38.9346 56.1846 38.375 56.875 38.375H60.625C61.3154 38.375 61.875 38.9346 61.875 39.625V40.875C61.875 41.5654 61.3154 42.125 60.625 42.125H56.875C56.1846 42.125 55.625 41.5654 55.625 40.875V39.625Z" fill="white"/>
<path d="M35 26.5H65V30.25H35V26.5Z" fill="#E2EEFF"/>
<path d="M26.4673 68.336V69.216C26.4673 70.64 26.8833 71.968 27.7473 73.184C28.3553 74.096 29.1873 75.04 30.2753 76.016L29.2833 76.864C28.2753 75.968 27.3633 74.944 26.5473 73.824C26.3553 73.552 26.0993 73.152 25.7793 72.64C25.4753 73.184 25.2193 73.632 24.9953 73.952C23.9713 75.408 23.0593 76.464 22.2273 77.104L21.1873 76.304C22.1953 75.424 23.0593 74.432 23.7793 73.328C24.6273 72.08 25.0593 70.72 25.0593 69.216V68.336H21.8913V67.088H29.5712V68.336H26.4673ZM32.7873 65.76V71.28H35.1233V72.624H32.7873V79.776H31.3633V65.76H32.7873ZM37.7616 71.264V66.336H48.0816V67.536H39.1856V70.08H48.2256V71.264H43.6336V72.816H49.8256V74.032H36.0176V72.816H42.2096V71.264H37.7616ZM48.3056 77.584C48.3056 78.352 47.8256 78.976 46.8656 79.44C45.9056 79.92 44.5776 80.16 42.8976 80.16C41.2656 80.16 39.9536 79.92 38.9936 79.44C38.0176 78.976 37.5376 78.352 37.5376 77.584C37.5376 76.832 38.0176 76.224 38.9936 75.744C39.9536 75.28 41.2496 75.04 42.8976 75.04C44.5776 75.04 45.9056 75.28 46.8656 75.744C47.8256 76.224 48.3056 76.832 48.3056 77.584ZM42.8976 76.224C41.7136 76.224 40.7536 76.352 40.0496 76.592C39.3136 76.848 38.9616 77.184 38.9616 77.584C38.9616 77.984 39.3136 78.304 40.0336 78.56C40.7376 78.832 41.6976 78.96 42.8976 78.96C44.0976 78.96 45.0576 78.832 45.7936 78.56C46.5136 78.304 46.8816 77.984 46.8816 77.584C46.8816 77.2 46.5136 76.864 45.7936 76.608C45.0576 76.352 44.0976 76.224 42.8976 76.224ZM51.536 72.032C51.536 70.592 51.888 69.36 52.608 68.304C53.344 67.264 54.224 66.736 55.28 66.736C56.304 66.736 57.2 67.264 57.968 68.304C58.704 69.328 59.072 70.576 59.072 72.032C59.072 73.472 58.704 74.704 57.968 75.744C57.248 76.768 56.352 77.28 55.28 77.28C54.224 77.28 53.344 76.768 52.608 75.744C51.888 74.72 51.536 73.488 51.536 72.032ZM52.944 72.032C52.944 73.072 53.136 73.984 53.552 74.784C54.032 75.632 54.608 76.048 55.28 76.048C55.952 76.048 56.528 75.632 57.008 74.784C57.44 73.968 57.664 73.056 57.664 72.032C57.664 70.96 57.44 70.048 57.024 69.28C56.512 68.416 55.936 67.968 55.28 67.968C54.576 67.968 54 68.416 53.552 69.28C53.136 70.08 52.944 71.008 52.944 72.032ZM63.088 65.76V79.776H61.696V65.76H63.088ZM67.3104 66.464H71.2784V67.712H67.3104V66.464ZM70.0304 70.432C70.0304 71.536 70.3344 72.576 70.9424 73.552C71.5664 74.544 72.2864 75.392 73.1184 76.112L72.1744 76.896C71.3264 76.176 70.5104 75.216 69.7424 74C69.5984 73.808 69.4864 73.616 69.4064 73.424C69.3104 73.616 69.1824 73.856 69.0064 74.128C68.1744 75.424 67.2784 76.464 66.3504 77.264L65.3584 76.448C66.2544 75.712 67.0544 74.768 67.7744 73.648C68.3824 72.688 68.6864 71.68 68.6864 70.592V70.256H65.9664V69.008H72.6544V70.256H70.0304V70.432ZM78.3184 79.776H76.9264V65.76H78.3184V79.776ZM74.0304 66.064H75.4064V79.28H74.0304V72.736H72.0784V71.504H74.0304V66.064Z" fill="#272B2F"/>
</svg>
