<svg width="100" height="100" viewBox="0 0 100 100" fill="none" xmlns="http://www.w3.org/2000/svg">
<rect width="100" height="100" rx="20" fill="white"/>
<path d="M48.1236 31.5L43.4031 22.059C42.9875 21.2279 43.5919 20.25 44.5211 20.25L55.4761 20.25C56.4053 20.25 57.0097 21.2279 56.5941 22.059L51.8736 31.5H48.1236Z" fill="#FFC960"/>
<path d="M63.75 38.375C63.75 44.3752 58.75 49 53.75 49H46.25C41.25 49 36.25 44.3752 36.25 38.375C36.25 30.6137 42.4061 25.875 50 25.875C57.5939 25.875 63.75 30.6137 63.75 38.375Z" fill="#FFC960"/>
<path d="M50.0883 33.7148C50.3414 33.7148 50.6018 33.7857 50.8196 33.9485C51.0041 34.0863 51.161 34.2904 51.2513 34.583L52.5015 39.0691L53.7177 34.4478C53.791 34.158 53.9544 33.9618 54.1598 33.8445C54.3739 33.7222 54.642 33.6857 54.9214 33.7445C55.2124 33.8032 55.4196 33.9531 55.5426 34.1522C55.6648 34.35 55.7081 34.6058 55.6354 34.8987L54.9964 37.1694L56.317 37.1695C56.5807 37.1695 56.8195 37.2757 56.9923 37.4473C57.1651 37.6189 57.272 37.856 57.272 38.1178C57.272 38.3797 57.1651 38.6168 56.9923 38.7884C56.8195 38.96 56.5807 39.0661 56.317 39.0661L54.4623 39.066L53.6861 41.8224C53.604 42.1207 53.4542 42.3312 53.2761 42.4757C53.0623 42.6491 52.8031 42.7288 52.5485 42.7361C52.2692 42.7366 52.0032 42.6653 51.7835 42.5014C51.5945 42.3603 51.4358 42.1497 51.3454 41.843L50.0708 37.1201L48.7495 41.8223C48.6653 42.128 48.5076 42.342 48.3201 42.487C48.0947 42.6614 47.8217 42.7367 47.5612 42.7367C47.3009 42.7367 47.038 42.6654 46.8192 42.5013C46.6334 42.3618 46.4759 42.1547 46.3858 41.8557L45.6095 39.066L43.6816 39.0661C43.4178 39.0661 43.1791 38.96 43.0063 38.7884C42.8335 38.6168 42.7266 38.3797 42.7266 38.1178C42.7266 37.856 42.8335 37.6189 43.0063 37.4473C43.1791 37.2757 43.4178 37.1695 43.6815 37.1695L45.082 37.1694L44.4807 35.007C44.3944 34.7024 44.4309 34.4417 44.5449 34.2353C44.6651 34.0175 44.8773 33.8516 45.1685 33.7695C45.4724 33.6955 45.7546 33.6971 45.9809 33.7965C46.1973 33.8915 46.3779 34.0697 46.4715 34.3853L47.6576 39.0646L48.8997 34.6301C48.9845 34.3217 49.1413 34.1069 49.3288 33.9619C49.5509 33.7901 49.821 33.7148 50.0883 33.7148Z" fill="white"/>
<path d="M43.125 25.5341C43.125 25.032 43.532 24.625 44.0341 24.625H55.9659C56.468 24.625 56.875 25.032 56.875 25.5341V26.2159C56.875 26.718 56.468 27.125 55.9659 27.125H44.0341C43.532 27.125 43.125 26.718 43.125 26.2159V25.5341Z" fill="#E2EEFF"/>
<path d="M17.0841 67.008V69.424H24.5561V67.008H25.9801V74.448H21.5161V77.248H27.7241V78.496H13.9161V77.248H20.1241V74.448H15.6601V67.008H17.0841ZM17.0841 70.64V73.232H24.5561V70.64H17.0841ZM37.4824 69.088H29.0984V67.92H37.4824V69.088ZM35.4024 67.104H31.1624V65.936H35.4024V67.104ZM37.0024 72.112C37.0024 72.432 36.9064 72.72 36.7144 72.992C36.5064 73.28 36.2504 73.52 35.9304 73.712C35.5784 73.92 35.1784 74.064 34.7304 74.16C34.2664 74.256 33.7864 74.304 33.2744 74.304C32.7784 74.304 32.2984 74.256 31.8504 74.144C31.3864 74.048 31.0024 73.904 30.6824 73.712C30.3624 73.52 30.1064 73.28 29.9304 72.992C29.7384 72.72 29.6424 72.432 29.6424 72.112C29.6424 71.808 29.7224 71.52 29.9144 71.232C30.0904 70.976 30.3464 70.72 30.6824 70.496C31.0184 70.272 31.4184 70.112 31.8664 70.016C32.3144 69.936 32.7784 69.888 33.2744 69.888C33.7864 69.888 34.2664 69.936 34.7304 70.032C35.1784 70.128 35.5784 70.288 35.9304 70.496C36.2504 70.704 36.5224 70.944 36.7144 71.216C36.9064 71.504 37.0024 71.808 37.0024 72.112ZM35.5944 72.112C35.5944 71.792 35.3704 71.52 34.9544 71.312C34.5224 71.12 33.9624 71.024 33.2744 71.024C32.6024 71.024 32.0584 71.12 31.6584 71.312C31.2424 71.504 31.0504 71.776 31.0504 72.112C31.0504 72.416 31.2424 72.672 31.6424 72.864C32.0264 73.072 32.5704 73.168 33.2744 73.168C33.9464 73.168 34.5064 73.072 34.9544 72.864C35.3704 72.672 35.5944 72.432 35.5944 72.112ZM41.0984 65.76V74.448H39.6744V71.888H37.6584V70.608H39.6744V65.76H41.0984ZM39.6744 76.576H33.0504V78.608H39.6744V76.576ZM41.0984 79.776H31.6264V75.408H41.0984V79.776ZM55.4488 66.368V68.448C55.4488 69.728 55.3048 70.848 55.0168 71.776H57.1928V72.992H43.3848V71.776H53.6408C53.8968 70.864 54.0408 69.824 54.0408 68.656V67.568H45.0808V66.368H55.4488ZM46.5528 76.032V78.576H54.0248V76.032H46.5528ZM55.4488 74.832V79.776H45.1288V74.832H55.4488ZM66.6312 69.376H63.4952C63.5912 70.208 63.9912 70.928 64.6632 71.568C65.3032 72.176 66.1672 72.72 67.2232 73.184L66.4392 74.112C65.4152 73.744 64.4552 73.136 63.5752 72.304C63.2872 72.048 63.0312 71.792 62.8392 71.504C62.5512 71.888 62.2792 72.224 62.0072 72.496C61.1752 73.328 60.2152 74 59.1272 74.496L58.1992 73.568C59.2712 73.056 60.1512 72.48 60.8392 71.808C61.6232 71.04 62.0392 70.224 62.0712 69.376H58.8232V68.176H66.6312V69.376ZM65.1912 67.104H60.3432V65.888H65.1912V67.104ZM70.5672 65.76V74.304H69.1432V71.472H66.6152V70.304H69.1432V65.76H70.5672ZM65.7512 80.144C65.0472 80.144 64.3912 80.096 63.7672 79.968C63.1272 79.872 62.5672 79.696 62.0872 79.44C61.6232 79.216 61.2712 78.944 61.0152 78.608C60.7592 78.288 60.6312 77.904 60.6312 77.488C60.6312 77.072 60.7592 76.72 61.0152 76.4C61.2712 76.096 61.6232 75.808 62.1032 75.536C62.5672 75.28 63.1272 75.088 63.7672 74.96C64.3912 74.864 65.0472 74.8 65.7512 74.8C66.4552 74.8 67.1272 74.864 67.7672 74.96C68.3912 75.088 68.9512 75.264 69.4312 75.52C69.8792 75.76 70.2472 76.048 70.5192 76.368C70.7752 76.704 70.9192 77.072 70.9192 77.488C70.9192 77.904 70.7912 78.288 70.5512 78.624C70.2952 78.976 69.9432 79.248 69.4632 79.472C68.9832 79.696 68.4392 79.872 67.7992 79.968C67.1432 80.096 66.4552 80.144 65.7512 80.144ZM65.7512 78.912C66.2472 78.912 66.7432 78.88 67.2232 78.816C67.7032 78.752 68.1192 78.672 68.4712 78.544C68.7752 78.432 69.0312 78.272 69.2232 78.08C69.3992 77.904 69.4952 77.712 69.4952 77.488C69.4952 77.248 69.3992 77.04 69.2232 76.848C69.0312 76.672 68.7912 76.528 68.4712 76.4C68.1192 76.272 67.7192 76.16 67.2392 76.096C66.7592 76.032 66.2632 76 65.7512 76C65.2552 76 64.7752 76.032 64.3112 76.096C63.8312 76.16 63.4152 76.272 63.0792 76.4C62.7432 76.528 62.4872 76.688 62.3272 76.88C62.1512 77.072 62.0712 77.28 62.0712 77.488C62.0712 77.712 62.1512 77.92 62.3432 78.096C62.5032 78.288 62.7592 78.432 63.0792 78.56C63.4152 78.688 63.8312 78.784 64.3112 78.832C64.7752 78.896 65.2552 78.912 65.7512 78.912ZM84.9176 66.736V68.688C84.9176 70.368 84.6936 71.952 84.2776 73.424H86.6616V74.672H80.3096V79.936H78.9016V74.672H72.8536V73.424H82.8536C83.2696 71.968 83.4936 70.448 83.4936 68.864V67.968H74.5496V66.736H84.9176Z" fill="#272B2F"/>
</svg>
