<svg width="100" height="100" viewBox="0 0 100 100" fill="none" xmlns="http://www.w3.org/2000/svg">
<rect width="100" height="100" rx="20" fill="white"/>
<path d="M41.5513 21.9255C41.5575 21.3829 42.0674 20.9876 42.5946 21.1162C43.836 21.4198 44.9278 22.1138 45.7264 23.0721C47.4028 22.5411 49.2341 22.2466 51.1524 22.2466C56.7246 22.2467 61.5623 24.7141 63.9968 28.333L65.425 28.1922C65.7614 28.1594 66.0412 28.4485 65.9972 28.7838C65.905 29.4874 65.6118 30.138 65.1677 30.6677C65.4959 31.6203 65.6731 32.6216 65.6731 33.6557C65.6731 37.2623 63.541 40.4753 60.2157 42.5661C59.6376 43.6068 59.2111 44.5898 58.9182 45.3515C58.5812 46.2276 57.7551 46.8566 56.8165 46.8566H55.2971C54.7244 46.8566 54.2601 46.3922 54.26 45.8195V44.7995C53.2586 44.9711 52.2193 45.0648 51.1524 45.0649C50.2777 45.0649 49.4385 44.9971 48.6364 44.8684V45.8235C48.6363 46.3961 48.1718 46.8605 47.5992 46.8607H46.0789C45.1402 46.8607 44.3141 46.2317 43.9772 45.3556C43.6665 44.5477 43.2059 43.4911 42.5733 42.3807C41.0689 41.3022 39.8187 39.9676 38.8337 38.5014C37.5777 37.8178 36.4542 37.2848 35.7323 36.9608C35.2055 36.7244 34.7837 36.2957 34.6191 35.7423C34.2543 34.515 33.7425 32.281 34.4257 31.1337C35.1003 30.0013 36.1723 30.6942 37.2749 30.2849C38.0677 28.2677 39.5547 26.4908 41.5148 25.1232L41.5513 21.9255Z" fill="#F1A4B8"/>
<path d="M41.8182 29.456C41.8182 29.958 41.4112 30.3651 40.9091 30.3651C40.407 30.3651 40 29.958 40 29.456C40 28.9539 40.407 28.5469 40.9091 28.5469C41.4112 28.5469 41.8182 28.9539 41.8182 29.456Z" fill="#651359"/>
<path d="M36.3622 32.1825C36.3622 32.6846 36.1587 33.0916 35.9077 33.0916C35.6566 33.0916 35.4531 32.6846 35.4531 32.1825C35.4531 31.6805 35.6566 31.2734 35.9077 31.2734C36.1587 31.2734 36.3622 31.6805 36.3622 32.1825Z" fill="#651359"/>
<path d="M52.0011 23.1025H52.0064C52.6548 23.1401 53.257 23.2741 53.7696 23.4798L53.8681 23.5277C53.9594 23.5813 54.0315 23.6523 54.0777 23.7381C54.1395 23.8533 54.148 23.982 54.1114 24.0985C54.038 24.332 53.7999 24.4926 53.505 24.4927C53.4614 24.4927 53.418 24.488 53.3763 24.4803L53.2547 24.4474C52.8608 24.3053 52.3836 24.2084 51.8546 24.1864L51.6247 24.182C51.0813 24.1821 50.5856 24.2611 50.1687 24.3897L49.9947 24.4474C49.917 24.4755 49.8325 24.4927 49.7452 24.4927C49.4505 24.4926 49.2122 24.332 49.1389 24.0985C49.1024 23.9822 49.1109 23.8541 49.1726 23.739C49.2341 23.6244 49.3413 23.5354 49.4798 23.4798L49.715 23.3928C50.2771 23.2011 50.9301 23.0919 51.6247 23.0918H51.63L52.0011 23.1025Z" fill="#651359"/>
<path d="M22.5633 74.368V66.992H30.0673V68.176H23.9873V70.08H29.9713V71.248H23.9873V73.184H30.2433V74.368H27.0913V76.368C28.9153 76.32 30.4353 76.208 31.6193 76.048V77.248C30.0513 77.488 27.9713 77.6 25.4113 77.6H21.2833V76.384H25.6833V74.368H22.5633ZM34.0673 79.776H32.6593V65.76H34.0673V79.776ZM41.5376 68.256C41.5376 69.36 41.9536 70.32 42.8016 71.12C43.5376 71.84 44.3536 72.416 45.2496 72.848L44.3856 73.744C43.3456 73.216 42.4336 72.56 41.6656 71.76C41.3936 71.52 41.1216 71.2 40.8336 70.8C40.4976 71.312 40.1936 71.712 39.9056 72C38.9776 72.944 38.0816 73.632 37.2176 74.08L36.2896 73.184C37.2176 72.688 38.0336 72.08 38.7376 71.344C39.6336 70.416 40.0976 69.376 40.0976 68.256V67.856H36.9616V66.656H44.6416V67.856H41.5376V68.256ZM48.2896 65.76V74.112H46.8976V65.76H48.2896ZM38.6736 75.04H48.2896V80.064H46.8976V76.256H38.6736V75.04ZM58.928 70.16C58.928 70.608 58.832 71.024 58.656 71.424H61.776V69.2H58.768C58.864 69.504 58.928 69.824 58.928 70.16ZM57.952 72.576C57.872 72.672 57.792 72.752 57.712 72.832C57.392 73.152 56.992 73.408 56.512 73.6C56.032 73.792 55.52 73.888 54.976 73.888C54.432 73.888 53.936 73.792 53.472 73.6C52.992 73.408 52.576 73.152 52.24 72.832C51.872 72.512 51.6 72.112 51.408 71.632C51.2 71.184 51.104 70.688 51.104 70.16C51.104 69.648 51.2 69.152 51.424 68.688C51.616 68.24 51.888 67.856 52.24 67.52C52.576 67.168 52.992 66.896 53.472 66.704C53.936 66.512 54.432 66.416 54.976 66.416C55.52 66.416 56.016 66.512 56.496 66.704C56.96 66.896 57.36 67.168 57.712 67.52C57.872 67.68 58.016 67.856 58.16 68.048H61.776V65.76H63.2V76.368H61.776V72.576H57.952ZM57.504 70.16C57.504 69.824 57.424 69.504 57.296 69.2C57.152 68.912 56.976 68.64 56.784 68.4C56.544 68.192 56.272 68.016 55.984 67.856C55.664 67.728 55.344 67.648 54.992 67.648C54.64 67.648 54.304 67.728 54 67.856C53.68 68.016 53.424 68.192 53.216 68.4C52.992 68.64 52.816 68.912 52.688 69.2C52.56 69.504 52.496 69.824 52.496 70.16C52.496 70.512 52.56 70.832 52.704 71.12C52.832 71.424 52.992 71.696 53.216 71.92C53.44 72.16 53.696 72.336 54.016 72.464C54.32 72.592 54.64 72.656 54.992 72.656C55.328 72.656 55.648 72.592 55.968 72.448C56.272 72.32 56.544 72.144 56.784 71.92C56.976 71.696 57.152 71.44 57.296 71.12C57.424 70.832 57.504 70.512 57.504 70.16ZM63.584 79.776H53.6V75.392H55.04V78.544H63.584V79.776ZM77.5504 66.368V68.448C77.5504 69.728 77.4064 70.848 77.1184 71.776H79.2944V72.992H65.4864V71.776H75.7424C75.9984 70.864 76.1424 69.824 76.1424 68.656V67.568H67.1824V66.368H77.5504ZM68.6544 76.032V78.576H76.1264V76.032H68.6544ZM77.5504 74.832V79.776H67.2304V74.832H77.5504Z" fill="#272B2F"/>
</svg>
