<svg width="100" height="100" viewBox="0 0 100 100" fill="none" xmlns="http://www.w3.org/2000/svg">
<rect width="100" height="100" rx="20" fill="white"/>
<path d="M35.4531 39.7383C35.4531 38.7027 36.2926 37.8633 37.3281 37.8633H42.3281C43.3637 37.8633 44.2031 38.7027 44.2031 39.7383V46.6701C44.2031 47.7056 43.3637 48.5451 42.3281 48.5451H37.3281C36.2926 48.5451 35.4531 47.7056 35.4531 46.6701V39.7383Z" fill="#D3DCE8"/>
<path d="M45.4531 36.7832C45.4531 35.7477 46.2926 34.9082 47.3281 34.9082H52.3281C53.3637 34.9082 54.2031 35.7477 54.2031 36.7832V46.6696C54.2031 47.7051 53.3637 48.5446 52.3281 48.5446H47.3281C46.2926 48.5446 45.4531 47.7051 45.4531 46.6696V36.7832Z" fill="#D3DCE8"/>
<path d="M55.4531 32.0117C55.4531 30.9762 56.2926 30.1367 57.3281 30.1367H62.3281C63.3637 30.1367 64.2031 30.9762 64.2031 32.0117V46.6708C64.2031 47.7063 63.3637 48.5458 62.3281 48.5458H57.3281C56.2926 48.5458 55.4531 47.7063 55.4531 46.6708V32.0117Z" fill="#D3DCE8"/>
<path fill-rule="evenodd" clip-rule="evenodd" d="M61.1795 20.6234C61.6635 21.0229 61.7319 21.7392 61.3323 22.2232C58.1899 26.0294 53.6764 28.6205 49.3819 30.3143C45.0796 32.0113 40.892 32.849 38.2862 33.0859C37.6612 33.1427 37.1084 32.6821 37.0516 32.0571C36.9948 31.4321 37.4554 30.8793 38.0804 30.8225C40.4747 30.6049 44.4505 29.8163 48.548 28.2001C52.6534 26.5808 56.7762 24.1719 59.5797 20.7762C59.9793 20.2922 60.6955 20.2238 61.1795 20.6234Z" fill="#7E8CEC"/>
<path fill-rule="evenodd" clip-rule="evenodd" d="M56.1367 20.5914C56.1367 19.9638 56.6455 19.4551 57.2731 19.4551H61.3642C61.9918 19.4551 62.5006 19.9638 62.5006 20.5914V25.1369C62.5006 25.7645 61.9918 26.2733 61.3642 26.2733C60.7366 26.2733 60.2278 25.7645 60.2278 25.1369V21.7278H57.2731C56.6455 21.7278 56.1367 21.219 56.1367 20.5914Z" fill="#7E8CEC"/>
<path d="M21.8273 72.912H23.3953L23.3153 68.768H24.6753L24.7552 72.912H25.3953C26.0033 72.912 26.6433 72.912 27.2833 72.896L27.3633 68.768H28.7233L28.6433 72.864C29.5712 72.8 30.3233 72.752 30.8993 72.688V73.888C29.3313 74.048 27.5713 74.128 25.5873 74.128H21.8273V72.912ZM21.9073 66.656H30.1153V67.872H21.9073V66.656ZM33.8913 65.76V76.368H32.4993V70.736H30.3713V69.504H32.4993V65.76H33.8913ZM34.3233 79.776H24.2593V75.616H25.6673V78.544H34.3233V79.776ZM37.7616 74.048V67.008H48.0816V68.24H39.1856V72.816H48.2256V74.048H37.7616ZM49.8256 77.248V78.496H36.0176V77.248H49.8256ZM53.264 66.4V68.928H57.376V66.4H58.768V68.304H61.776V65.76H63.2V76.368H61.776V72.576H58.768V74.128H51.872V66.4H53.264ZM58.768 69.488V71.392H61.776V69.488H58.768ZM53.264 70.128V72.896H57.376V70.128H53.264ZM63.584 79.776H53.616V75.52H55.04V78.56H63.584V79.776ZM71.3904 72.208C69.9504 73.424 68.3024 74.272 66.4624 74.736L65.6944 73.664C67.4544 73.2 68.9584 72.464 70.1904 71.44C71.4704 70.384 72.1104 69.344 72.1104 68.336V67.856H66.7344V66.624H73.6144V67.968H76.3984V65.76H77.7904V74.176H76.3984V72.48H73.0544V71.312H76.3984V69.136H73.4544C73.1824 70.24 72.4944 71.264 71.3904 72.208ZM78.1424 77.328C78.1424 77.776 78.0144 78.144 77.7744 78.464C77.5184 78.8 77.1664 79.104 76.7024 79.36C76.2544 79.632 75.7104 79.824 75.0384 79.952C74.3664 80.08 73.6624 80.144 72.9424 80.144C72.2384 80.144 71.5664 80.08 70.9104 79.952C70.2384 79.824 69.6784 79.632 69.2304 79.344C68.7664 79.088 68.4144 78.8 68.1904 78.464C67.9504 78.144 67.8384 77.776 67.8384 77.328C67.8384 76.912 67.9504 76.528 68.1904 76.192C68.4144 75.872 68.7664 75.584 69.2304 75.328C69.6784 75.056 70.2384 74.848 70.9104 74.704C71.5664 74.576 72.2384 74.512 72.9424 74.512C73.6624 74.512 74.3664 74.576 75.0384 74.704C75.7104 74.848 76.2544 75.056 76.7024 75.312C77.1664 75.568 77.5184 75.872 77.7744 76.192C78.0144 76.528 78.1424 76.912 78.1424 77.328ZM76.7024 77.328C76.7024 77.088 76.6064 76.864 76.4144 76.672C76.2064 76.496 75.9504 76.336 75.6624 76.208C75.3104 76.08 74.9104 75.968 74.4304 75.872C73.9344 75.792 73.4384 75.744 72.9424 75.744C72.4624 75.744 71.9824 75.792 71.5024 75.872C70.9904 75.968 70.5904 76.08 70.2864 76.208C69.9824 76.336 69.7424 76.496 69.5664 76.672C69.3744 76.864 69.2784 77.088 69.2784 77.328C69.2784 77.584 69.3744 77.808 69.5824 78C69.7744 78.208 70.0144 78.368 70.3024 78.48C70.6224 78.608 71.0384 78.704 71.5184 78.768C71.9984 78.864 72.4624 78.896 72.9424 78.896C73.4384 78.896 73.9344 78.864 74.4304 78.784C74.9104 78.72 75.3104 78.608 75.6624 78.48C75.9824 78.352 76.2384 78.176 76.4304 77.984C76.6064 77.808 76.7024 77.584 76.7024 77.328Z" fill="#272B2F"/>
</svg>
