<svg width="100" height="100" viewBox="0 0 100 100" fill="none" xmlns="http://www.w3.org/2000/svg">
<rect width="100" height="100" rx="20" fill="white"/>
<path d="M36.25 26.5C36.25 27.8807 37.3693 29 38.75 29H61.25C62.6307 29 63.75 27.8807 63.75 26.5V21.5C63.75 20.1193 62.6307 19 61.25 19H38.75C37.3693 19 36.25 20.1193 36.25 21.5V26.5Z" fill="#7D897A"/>
<path d="M42.5 49C40.4289 49 38.75 47.3211 38.75 45.25L38.75 22.75C38.75 20.6789 40.4289 19 42.5 19L57.5 19C59.5711 19 61.25 20.6789 61.25 22.75V45.25C61.25 47.3211 59.5711 49 57.5 49H42.5Z" fill="#BECCBA"/>
<path d="M38.75 37.75L38.75 22.75C38.75 20.6789 40.4289 19 42.5 19L57.5 19C59.5711 19 61.25 20.6789 61.25 22.75V37.75L38.75 37.75Z" fill="#A0AE9C"/>
<path d="M41.25 37.75L41.25 21.5C41.25 20.8096 41.8096 20.25 42.5 20.25L57.5 20.25C58.1904 20.25 58.75 20.8096 58.75 21.5V37.75L41.25 37.75Z" fill="#ADBBAA"/>
<path d="M57.5 46.5C56.8096 46.5 56.25 45.9404 56.25 45.25L56.25 41.5C56.25 40.8096 56.8096 40.25 57.5 40.25C58.1904 40.25 58.75 40.8096 58.75 41.5L58.75 45.25C58.75 45.9404 58.1904 46.5 57.5 46.5Z" fill="#909E8C"/>
<path d="M49.5323 27.0344C49.7811 26.7516 50.2218 26.7516 50.4706 27.0344L54.0881 31.1449C54.4434 31.5486 54.1567 32.1828 53.6189 32.1828H46.384C45.8462 32.1828 45.5595 31.5486 45.9148 31.1449L49.5323 27.0344Z" fill="#869582"/>
<path d="M47.5 30.25H52.5V34.7393C52.5 35.0845 52.2202 35.3643 51.875 35.3643H48.125C47.7798 35.3643 47.5 35.0845 47.5 34.7393V30.25Z" fill="#869582"/>
<path d="M36.25 24H63.75V21.5C63.75 20.1193 62.6307 19 61.25 19H38.75C37.3693 19 36.25 20.1193 36.25 21.5V24Z" fill="#CFD5CD"/>
<path d="M9.71688 67.008V69.424H17.1889V67.008H18.6129V74.448H14.1489V77.248H20.3569V78.496H6.54888V77.248H12.7569V74.448H8.29288V67.008H9.71688ZM9.71688 70.64V73.232H17.1889V70.64H9.71688ZM30.1153 69.088H21.7313V67.92H30.1153V69.088ZM28.0353 67.104H23.7953V65.936H28.0353V67.104ZM29.6353 72.112C29.6353 72.432 29.5393 72.72 29.3472 72.992C29.1393 73.28 28.8833 73.52 28.5633 73.712C28.2113 73.92 27.8113 74.064 27.3633 74.16C26.8993 74.256 26.4193 74.304 25.9073 74.304C25.4113 74.304 24.9313 74.256 24.4833 74.144C24.0193 74.048 23.6353 73.904 23.3153 73.712C22.9953 73.52 22.7393 73.28 22.5633 72.992C22.3713 72.72 22.2753 72.432 22.2753 72.112C22.2753 71.808 22.3553 71.52 22.5473 71.232C22.7233 70.976 22.9793 70.72 23.3153 70.496C23.6513 70.272 24.0513 70.112 24.4993 70.016C24.9473 69.936 25.4113 69.888 25.9073 69.888C26.4193 69.888 26.8993 69.936 27.3633 70.032C27.8113 70.128 28.2113 70.288 28.5633 70.496C28.8833 70.704 29.1553 70.944 29.3472 71.216C29.5393 71.504 29.6353 71.808 29.6353 72.112ZM28.2273 72.112C28.2273 71.792 28.0033 71.52 27.5873 71.312C27.1553 71.12 26.5953 71.024 25.9073 71.024C25.2352 71.024 24.6913 71.12 24.2913 71.312C23.8753 71.504 23.6833 71.776 23.6833 72.112C23.6833 72.416 23.8753 72.672 24.2753 72.864C24.6593 73.072 25.2033 73.168 25.9073 73.168C26.5793 73.168 27.1393 73.072 27.5873 72.864C28.0033 72.672 28.2273 72.432 28.2273 72.112ZM33.7313 65.76V74.448H32.3073V71.888H30.2913V70.608H32.3073V65.76H33.7313ZM32.3073 76.576H25.6833V78.608H32.3073V76.576ZM33.7313 79.776H24.2593V75.408H33.7313V79.776ZM42.7056 67.008V68.304C42.7056 68.528 42.6896 68.752 42.6896 68.944H44.4656V66.064H45.8256V79.28H44.4656V74.176H42.0976V73.008H44.4656V70.128H42.5616C42.3056 71.584 41.7456 72.832 40.8816 73.872C39.6816 75.28 38.4176 76.368 37.1056 77.104L36.1456 76.16C37.5056 75.392 38.6576 74.416 39.6176 73.248C40.7056 71.888 41.2496 70.496 41.2496 69.088V68.256H36.9296V67.008H42.7056ZM48.8496 79.776H47.4576V65.76H48.8496V79.776ZM58.64 69.936C58.64 70.416 58.528 70.864 58.32 71.296C58.096 71.744 57.808 72.112 57.472 72.432C57.12 72.752 56.704 73.008 56.256 73.184C55.776 73.376 55.28 73.456 54.736 73.456C54.208 73.456 53.712 73.376 53.248 73.184C52.768 73.008 52.352 72.752 52 72.432C51.648 72.112 51.376 71.744 51.184 71.296C50.976 70.88 50.88 70.416 50.88 69.936C50.88 69.456 50.976 68.992 51.184 68.544C51.376 68.112 51.648 67.728 52 67.408C52.352 67.088 52.768 66.816 53.248 66.624C53.712 66.448 54.208 66.352 54.736 66.352C55.28 66.352 55.776 66.448 56.256 66.624C56.704 66.816 57.12 67.088 57.472 67.408C57.808 67.728 58.096 68.112 58.32 68.544C58.528 68.992 58.64 69.456 58.64 69.936ZM57.232 69.936C57.232 69.616 57.152 69.312 57.024 69.024C56.88 68.768 56.704 68.528 56.496 68.304C56.272 68.112 56 67.936 55.712 67.792C55.392 67.664 55.072 67.6 54.736 67.6C54.384 67.6 54.064 67.664 53.776 67.792C53.456 67.936 53.2 68.112 53.008 68.304C52.768 68.528 52.592 68.768 52.48 69.04C52.352 69.328 52.288 69.616 52.288 69.936C52.288 70.24 52.352 70.528 52.48 70.8C52.592 71.088 52.768 71.328 53.008 71.536C53.2 71.728 53.456 71.888 53.776 72.016C54.08 72.16 54.4 72.224 54.736 72.224C55.056 72.224 55.376 72.16 55.696 72.016C56 71.888 56.272 71.728 56.496 71.536C56.704 71.328 56.88 71.088 57.024 70.8C57.152 70.544 57.232 70.256 57.232 69.936ZM62.48 65.76V67.888H64.576V69.168H62.48V71.024H64.576V72.272H62.48V74.112H61.072V65.76H62.48ZM53.024 75.04H62.48V80.064H61.072V76.256H53.024V75.04ZM72.4784 76.48C71.3104 76.624 70.1104 76.688 68.8944 76.688H66.3024V67.008H71.7904V68.256H67.7104V75.456H68.8784C70.0624 75.456 71.2624 75.392 72.4784 75.232V76.48ZM78.3184 79.776H76.9424V72.16H74.8144V79.28H73.4384V66.064H74.8144V70.864H76.9424V65.76H78.3184V79.776ZM87.1008 69.728C86.7488 70.048 86.3808 70.304 86.0288 70.496C84.8448 71.136 83.5008 71.504 82.0128 71.632L81.3728 70.608C82.9728 70.448 84.1727 70.144 84.9888 69.728C85.5168 69.472 85.9808 69.152 86.3808 68.736H81.9648V67.632H92.2848V68.736H87.8528C88.2368 69.136 88.7008 69.456 89.2448 69.712C90.2688 70.192 91.4688 70.496 92.8608 70.624L92.2368 71.632C90.7328 71.52 89.3888 71.136 88.1888 70.496C87.8048 70.304 87.4368 70.048 87.1008 69.728ZM89.7888 66.768H84.4608V65.648H89.7888V66.768ZM94.0288 72.336V73.472H87.8368V74.56H92.3008V77.664H83.4048V78.72H92.4608V79.776H81.9488V76.656H90.8448V75.6H81.9488V74.56H86.4128V73.472H80.2208V72.336H94.0288Z" fill="#272B2F"/>
</svg>
