<svg width="100" height="100" viewBox="0 0 100 100" fill="none" xmlns="http://www.w3.org/2000/svg">
<rect width="100" height="100" rx="20" fill="white"/>
<path d="M37.5039 22.75C37.5039 20.6789 39.1828 19 41.2539 19H56.2539C58.325 19 60.0039 20.6789 60.0039 22.75V45.25C60.0039 47.3211 58.325 49 56.2539 49H41.2539C39.1828 49 37.5039 47.3211 37.5039 45.25V22.75Z" fill="#E2EEFF"/>
<path d="M42.5039 25.25C42.5039 24.5596 43.0636 24 43.7539 24H53.7539C54.4443 24 55.0039 24.5596 55.0039 25.25C55.0039 25.9404 54.4443 26.5 53.7539 26.5H43.7539C43.0636 26.5 42.5039 25.9404 42.5039 25.25Z" fill="#BFD5F2"/>
<path d="M42.5078 30.248C42.5078 29.5577 43.0675 28.998 43.7578 28.998H53.7578C54.4482 28.998 55.0078 29.5577 55.0078 30.248C55.0078 30.9384 54.4482 31.498 53.7578 31.498H43.7578C43.0675 31.498 42.5078 30.9384 42.5078 30.248Z" fill="#BFD5F2"/>
<path d="M42.5078 42.748C42.5078 42.0577 43.0675 41.498 43.7578 41.498H47.5078C48.1982 41.498 48.7578 42.0577 48.7578 42.748C48.7578 43.4384 48.1982 43.998 47.5078 43.998H43.7578C43.0675 43.998 42.5078 43.4384 42.5078 42.748Z" fill="#BFD5F2"/>
<path d="M63.75 48.1533C63.75 48.6209 63.3709 49 62.9033 49H57.0967C56.6291 49 56.25 48.6209 56.25 48.1533L56.25 35.25L63.75 35.25L63.75 48.1533Z" fill="#6396FB"/>
<path d="M63.75 48.1533C63.75 48.6209 63.3709 49 62.9033 49L57.0967 49C56.6291 49 56.25 48.6209 56.25 48.1533L56.25 46.5L63.75 46.5V48.1533Z" fill="#1E5AD2"/>
<path d="M59.5023 30.5226C59.7524 30.159 60.2524 30.1592 60.5023 30.5229L63.75 35.2502L56.25 35.2502L59.5023 30.5226Z" fill="#FDEBE0"/>
<path d="M60.5007 30.5229C60.2508 30.1592 59.7508 30.159 59.5007 30.5226L58.5938 31.841L61.4063 31.841L60.5007 30.5229Z" fill="#566476"/>
<path d="M23.5233 66.848V75.328H25.4113C26.8353 75.328 28.3553 75.232 29.9713 75.008V76.256C28.3713 76.48 26.8353 76.592 25.3633 76.592H22.0993V66.848H23.5233ZM32.7873 65.76V71.008H35.1233V72.32H32.7873V79.776H31.3633V65.76H32.7873ZM44.9136 70.208C44.9136 70.72 44.8016 71.184 44.5936 71.632C44.3696 72.08 44.0656 72.48 43.7136 72.816C43.3616 73.12 42.9296 73.36 42.4496 73.552C41.9376 73.76 41.4256 73.856 40.8816 73.856C40.3376 73.856 39.8416 73.76 39.3616 73.568C38.8656 73.376 38.4496 73.136 38.1136 72.816C37.7296 72.48 37.4416 72.08 37.2496 71.632C37.0416 71.184 36.9456 70.72 36.9456 70.208C36.9456 69.696 37.0416 69.216 37.2496 68.768C37.4416 68.336 37.7456 67.952 38.1296 67.6C38.4496 67.28 38.8656 67.024 39.3616 66.832C39.8416 66.656 40.3376 66.56 40.8816 66.56C41.4256 66.56 41.9376 66.656 42.4496 66.848C42.9296 67.04 43.3456 67.296 43.6976 67.6C44.0656 67.952 44.3696 68.336 44.5936 68.784C44.8016 69.232 44.9136 69.712 44.9136 70.208ZM43.5216 70.208C43.5216 69.888 43.4416 69.584 43.3136 69.296C43.1536 69.008 42.9616 68.752 42.7376 68.528C42.4816 68.336 42.2096 68.16 41.9056 68.016C41.5856 67.888 41.2496 67.824 40.8976 67.824C40.5456 67.824 40.2096 67.888 39.9056 68.016C39.5856 68.16 39.2976 68.336 39.0576 68.528C38.8336 68.752 38.6416 69.008 38.5136 69.296C38.3696 69.6 38.3056 69.904 38.3056 70.208C38.3056 70.528 38.3696 70.832 38.5136 71.12C38.6416 71.424 38.8336 71.68 39.0576 71.888C39.2976 72.112 39.5856 72.272 39.9056 72.4C40.2096 72.528 40.5456 72.592 40.8976 72.592C41.2496 72.592 41.5856 72.528 41.9056 72.4C42.2096 72.272 42.4816 72.112 42.7376 71.888C42.9616 71.68 43.1536 71.424 43.3136 71.136C43.4416 70.848 43.5216 70.544 43.5216 70.208ZM39.7456 76.192C42.1936 76.192 44.4016 76.08 46.3696 75.856V77.088C44.4496 77.328 42.2096 77.44 39.6176 77.44H36.0176V76.192H39.7456ZM48.8016 79.776H47.3936V65.76H48.8016V79.776ZM57.44 67.008V68.304C57.44 68.528 57.424 68.752 57.424 68.944H59.2V66.064H60.56V79.28H59.2V74.176H56.832V73.008H59.2V70.128H57.296C57.04 71.584 56.48 72.832 55.616 73.872C54.416 75.28 53.152 76.368 51.84 77.104L50.88 76.16C52.24 75.392 53.392 74.416 54.352 73.248C55.44 71.888 55.984 70.496 55.984 69.088V68.256H51.664V67.008H57.44ZM63.584 79.776H62.192V65.76H63.584V79.776ZM73.3744 69.936C73.3744 70.416 73.2624 70.864 73.0544 71.296C72.8304 71.744 72.5424 72.112 72.2064 72.432C71.8544 72.752 71.4384 73.008 70.9904 73.184C70.5104 73.376 70.0144 73.456 69.4704 73.456C68.9424 73.456 68.4464 73.376 67.9824 73.184C67.5024 73.008 67.0864 72.752 66.7344 72.432C66.3824 72.112 66.1104 71.744 65.9184 71.296C65.7104 70.88 65.6144 70.416 65.6144 69.936C65.6144 69.456 65.7104 68.992 65.9184 68.544C66.1104 68.112 66.3824 67.728 66.7344 67.408C67.0864 67.088 67.5024 66.816 67.9824 66.624C68.4464 66.448 68.9424 66.352 69.4704 66.352C70.0144 66.352 70.5104 66.448 70.9904 66.624C71.4384 66.816 71.8544 67.088 72.2064 67.408C72.5424 67.728 72.8304 68.112 73.0544 68.544C73.2624 68.992 73.3744 69.456 73.3744 69.936ZM71.9664 69.936C71.9664 69.616 71.8864 69.312 71.7584 69.024C71.6144 68.768 71.4384 68.528 71.2304 68.304C71.0064 68.112 70.7344 67.936 70.4464 67.792C70.1264 67.664 69.8064 67.6 69.4704 67.6C69.1184 67.6 68.7984 67.664 68.5104 67.792C68.1904 67.936 67.9344 68.112 67.7424 68.304C67.5024 68.528 67.3264 68.768 67.2144 69.04C67.0864 69.328 67.0224 69.616 67.0224 69.936C67.0224 70.24 67.0864 70.528 67.2144 70.8C67.3264 71.088 67.5024 71.328 67.7424 71.536C67.9344 71.728 68.1904 71.888 68.5104 72.016C68.8144 72.16 69.1344 72.224 69.4704 72.224C69.7904 72.224 70.1104 72.16 70.4304 72.016C70.7344 71.888 71.0064 71.728 71.2304 71.536C71.4384 71.328 71.6144 71.088 71.7584 70.8C71.8864 70.544 71.9664 70.256 71.9664 69.936ZM77.2144 65.76V67.888H79.3104V69.168H77.2144V71.024H79.3104V72.272H77.2144V74.112H75.8064V65.76H77.2144ZM67.7584 75.04H77.2144V80.064H75.8064V76.256H67.7584V75.04Z" fill="#272B2F"/>
</svg>
