<svg width="100" height="100" viewBox="0 0 100 100" fill="none" xmlns="http://www.w3.org/2000/svg">
<rect width="100" height="100" rx="20" fill="white"/>
<path d="M36.25 26.5C36.25 27.8807 37.3693 29 38.75 29H61.25C62.6307 29 63.75 27.8807 63.75 26.5V21.5C63.75 20.1193 62.6307 19 61.25 19H38.75C37.3693 19 36.25 20.1193 36.25 21.5V26.5Z" fill="#E56C26"/>
<path d="M36.25 26.5C36.25 27.8807 37.3693 29 38.75 29H61.25C62.6307 29 63.75 27.8807 63.75 26.5V24H36.25V26.5Z" fill="#C64700"/>
<path d="M38.75 24H61.25V44C61.25 46.7614 59.0114 49 56.25 49H43.75C40.9886 49 38.75 46.7614 38.75 44V24Z" fill="#FF8F4C"/>
<path d="M50.0871 31.5C50.3294 31.5 50.5787 31.5679 50.7873 31.7237C50.9639 31.8556 51.1142 32.0511 51.2006 32.3312L52.3975 36.6262L53.5618 32.2017C53.6321 31.9243 53.7885 31.7364 53.9851 31.6241C54.1901 31.507 54.4468 31.4721 54.7143 31.5284C54.9929 31.5846 55.1913 31.7281 55.309 31.9187C55.426 32.1081 55.4674 32.353 55.3979 32.6334L54.7861 34.8074L56.0504 34.8075C56.3029 34.8075 56.5315 34.9091 56.6969 35.0734C56.8624 35.2377 56.9647 35.4647 56.9647 35.7154C56.9647 35.9661 56.8624 36.193 56.6969 36.3573C56.5315 36.5216 56.3029 36.6232 56.0504 36.6232L54.2748 36.6231L53.5316 39.2621C53.453 39.5477 53.3096 39.7492 53.139 39.8876C52.9344 40.0536 52.6862 40.1299 52.4425 40.1369C52.1751 40.1373 51.9204 40.0691 51.7101 39.9121C51.5291 39.777 51.3772 39.5754 51.2906 39.2818L50.0704 34.7602L48.8054 39.262C48.7248 39.5547 48.5737 39.7595 48.3942 39.8984C48.1785 40.0653 47.9171 40.1374 47.6677 40.1374C47.4185 40.1374 47.1668 40.0692 46.9573 39.912C46.7794 39.7785 46.6287 39.5802 46.5423 39.294L45.7991 36.6231L43.9534 36.6232C43.7009 36.6232 43.4723 36.5216 43.3069 36.3573C43.1414 36.193 43.0391 35.9661 43.0391 35.7154C43.0391 35.4647 43.1414 35.2377 43.3069 35.0734C43.4723 34.9091 43.7009 34.8075 43.9534 34.8075L45.2942 34.8074L44.7185 32.7371C44.6358 32.4455 44.6708 32.1959 44.7799 31.9983C44.895 31.7898 45.0982 31.6309 45.377 31.5523C45.6679 31.4815 45.9381 31.4831 46.1547 31.5782C46.3619 31.6691 46.5348 31.8397 46.6244 32.1419L47.76 36.6218L48.9492 32.3763C49.0303 32.081 49.1805 31.8754 49.36 31.7365C49.5726 31.572 49.8312 31.5 50.0871 31.5Z" fill="white"/>
<path d="M14.5606 67.008V69.424H22.0326V67.008H23.4566V74.448H18.9926V77.248H25.2006V78.496H11.3926V77.248H17.6006V74.448H13.1366V67.008H14.5606ZM14.5606 70.64V73.232H22.0326V70.64H14.5606ZM34.959 69.088H26.575V67.92H34.959V69.088ZM32.879 67.104H28.639V65.936H32.879V67.104ZM34.479 72.112C34.479 72.432 34.383 72.72 34.191 72.992C33.983 73.28 33.727 73.52 33.407 73.712C33.055 73.92 32.655 74.064 32.207 74.16C31.743 74.256 31.263 74.304 30.751 74.304C30.255 74.304 29.775 74.256 29.327 74.144C28.863 74.048 28.479 73.904 28.159 73.712C27.839 73.52 27.583 73.28 27.407 72.992C27.215 72.72 27.119 72.432 27.119 72.112C27.119 71.808 27.199 71.52 27.391 71.232C27.567 70.976 27.823 70.72 28.159 70.496C28.495 70.272 28.895 70.112 29.343 70.016C29.791 69.936 30.255 69.888 30.751 69.888C31.263 69.888 31.743 69.936 32.207 70.032C32.655 70.128 33.055 70.288 33.407 70.496C33.727 70.704 33.999 70.944 34.191 71.216C34.383 71.504 34.479 71.808 34.479 72.112ZM33.071 72.112C33.071 71.792 32.847 71.52 32.431 71.312C31.999 71.12 31.439 71.024 30.751 71.024C30.079 71.024 29.535 71.12 29.135 71.312C28.719 71.504 28.527 71.776 28.527 72.112C28.527 72.416 28.719 72.672 29.119 72.864C29.503 73.072 30.047 73.168 30.751 73.168C31.423 73.168 31.983 73.072 32.431 72.864C32.847 72.672 33.071 72.432 33.071 72.112ZM38.575 65.76V74.448H37.151V71.888H35.135V70.608H37.151V65.76H38.575ZM37.151 76.576H30.527V78.608H37.151V76.576ZM38.575 79.776H29.103V75.408H38.575V79.776ZM42.6054 74.784V70.272H51.5014V68.208H42.6054V66.992H52.9254V71.472H44.0294V73.552H53.0854V74.784H50.7974V77.248H54.6694V78.496H40.8614V77.248H44.7334V74.784H42.6054ZM49.4054 74.784H46.1094V77.248H49.4054V74.784ZM62.8666 66.464V71.6H63.8426C65.8746 71.6 67.6986 71.488 69.3306 71.264V72.464C67.7466 72.688 65.9226 72.784 63.8426 72.784H61.4586V66.464H62.8666ZM72.2746 65.76V68.832H74.4666V70.096H72.2746V73.344H70.8506V65.76H72.2746ZM70.8826 76.64H64.4186V78.576H70.8826V76.64ZM72.2746 79.776H63.0106V74.032H64.4186V75.472H70.8826V74.032H72.2746V79.776ZM83.169 69.696C83.169 70.144 83.057 70.56 82.865 70.96C82.641 71.376 82.369 71.744 82.049 72.048C81.697 72.336 81.313 72.576 80.865 72.752C80.417 72.944 79.921 73.024 79.409 73.024C78.897 73.024 78.417 72.944 77.969 72.752C77.505 72.576 77.105 72.336 76.769 72.048C76.449 71.744 76.193 71.376 76.001 70.96C75.777 70.56 75.681 70.144 75.681 69.696C75.681 69.248 75.777 68.8 76.001 68.384C76.193 67.968 76.449 67.616 76.769 67.312C77.105 67.008 77.505 66.768 77.969 66.576C78.417 66.416 78.897 66.32 79.409 66.32C79.921 66.32 80.417 66.416 80.865 66.576C81.313 66.768 81.697 67.008 82.049 67.312C82.369 67.616 82.641 67.968 82.865 68.384C83.057 68.8 83.169 69.248 83.169 69.696ZM81.745 69.696C81.745 69.12 81.521 68.608 81.073 68.176C80.609 67.76 80.049 67.552 79.409 67.552C78.753 67.552 78.209 67.76 77.777 68.176C77.329 68.608 77.105 69.12 77.105 69.696C77.105 70.272 77.329 70.752 77.777 71.152C78.209 71.568 78.753 71.776 79.409 71.776C80.049 71.776 80.593 71.568 81.057 71.152C81.505 70.752 81.745 70.272 81.745 69.696ZM87.649 65.76V73.44H86.257V65.76H87.649ZM86.273 76.736H79.649V78.576H86.273V76.736ZM87.649 79.776H78.241V74.224H79.649V75.552H86.273V74.224H87.649V79.776Z" fill="#272B2F"/>
</svg>
