<svg width="24" height="24" viewBox="0 0 24 24" fill="none" xmlns="http://www.w3.org/2000/svg">
<path d="M12.637 4.05141C16.4434 4.05141 19.529 7.13706 19.529 10.9434C19.529 11.5444 20.0162 12.0316 20.6172 12.0316C21.2182 12.0316 21.7054 11.5444 21.7054 10.9434C21.7054 5.93506 17.6454 1.875 12.637 1.875C12.036 1.875 11.5488 2.36221 11.5488 2.96321C11.5488 3.56421 12.036 4.05141 12.637 4.05141Z" fill="#D3DCE8"/>
<path d="M12.637 8.40424C14.0394 8.40424 15.1762 9.54106 15.1762 10.9434C15.1762 11.5444 15.6634 12.0316 16.2644 12.0316C16.8654 12.0316 17.3526 11.5444 17.3526 10.9434C17.3526 8.33906 15.2414 6.22783 12.637 6.22783C12.036 6.22783 11.5488 6.71503 11.5488 7.31603C11.5488 7.91703 12.036 8.40424 12.637 8.40424Z" fill="#D3DCE8"/>
<path fill-rule="evenodd" clip-rule="evenodd" d="M4.07076 7.51561C3.24137 8.77319 2.73948 10.2544 3.14089 11.7064C3.59107 13.3348 4.63528 15.6036 7.05102 17.7036C9.46691 19.8037 11.8589 20.5218 13.534 20.7408C15.0274 20.936 16.424 20.233 17.5537 19.2368L18.5618 18.3479C19.1881 17.7957 19.1846 16.8183 18.5545 16.2705L16.4969 14.4819C15.9714 14.0251 15.1881 14.0311 14.6696 14.4958L13.6812 15.3819C13.5647 15.4863 13.4315 15.5714 13.2774 15.5988C12.796 15.684 11.5873 15.7018 9.99464 14.3173C8.40202 12.9329 8.25134 11.7334 8.2688 11.2448C8.27439 11.0884 8.34014 10.9447 8.42737 10.8147L9.16724 9.71266C9.55531 9.1346 9.45221 8.35802 8.92675 7.90124L6.86867 6.11218C6.23853 5.56441 5.27014 5.69701 4.81046 6.39402L4.07076 7.51561Z" fill="#FF8F4C"/>
</svg>
