<svg width="64" height="64" viewBox="0 0 64 64" fill="none" xmlns="http://www.w3.org/2000/svg">
<path d="M0.792641 18.8375C1.78414 9.17731 9.13336 1.51065 18.8036 0.62272C22.7677 0.258733 27.2545 0 32 0C36.7455 0 41.2323 0.258733 45.1964 0.62272C54.8666 1.51065 62.2159 9.1773 63.2074 18.8374C63.6581 23.2286 64 27.9084 64 32C64 36.0916 63.6581 40.7714 63.2074 45.1625C62.2159 54.8227 54.8666 62.4893 45.1964 63.3773C41.2323 63.7413 36.7455 64 32 64C27.2545 64 22.7677 63.7413 18.8036 63.3773C9.13337 62.4893 1.78414 54.8227 0.792642 45.1626C0.341942 40.7714 0 36.0916 0 32C0 27.9084 0.341942 23.2286 0.792641 18.8375Z" fill="white"/>
<path fill-rule="evenodd" clip-rule="evenodd" d="M25.125 23.75H19.625V43H25.125V23.75ZM29.25 23.75H34.75V43H29.25V23.75ZM38.875 23.75H44.375V43H38.875V23.75Z" fill="#E2E5EA"/>
<path fill-rule="evenodd" clip-rule="evenodd" d="M25.125 23.75H19.625V29.25H25.125V23.75ZM29.25 23.75H34.75V29.25H29.25V23.75ZM38.875 23.75H44.375V29.25H38.875V23.75Z" fill="#D3D8DE"/>
<path d="M16.875 42.3125C16.875 41.5531 17.4906 40.9375 18.25 40.9375H45.75C46.5094 40.9375 47.125 41.5531 47.125 42.3125V45.75C47.125 46.5094 46.5094 47.125 45.75 47.125H18.25C17.4906 47.125 16.875 46.5094 16.875 45.75V42.3125Z" fill="#D3D8DE"/>
<path fill-rule="evenodd" clip-rule="evenodd" d="M16.875 22.0834C16.875 21.005 17.5053 20.0261 18.487 19.5799L30.2931 14.2135C31.3776 13.7205 32.6224 13.7205 33.7069 14.2135L45.513 19.5799C46.4947 20.0261 47.125 21.005 47.125 22.0834V23.3127C47.125 23.934 46.6214 24.4376 46.0001 24.4376H17.9999C17.3786 24.4376 16.875 23.934 16.875 23.3127V22.0834Z" fill="#E2E5EA"/>
<path d="M34.0625 20.3125C34.0625 21.4516 33.1391 22.375 32 22.375C30.8609 22.375 29.9375 21.4516 29.9375 20.3125C29.9375 19.1734 30.8609 18.25 32 18.25C33.1391 18.25 34.0625 19.1734 34.0625 20.3125Z" fill="#C1C7CF"/>
</svg>
