<svg width="64" height="64" viewBox="0 0 64 64" fill="none" xmlns="http://www.w3.org/2000/svg">
<path d="M0.792641 18.8375C1.78414 9.17731 9.13336 1.51065 18.8036 0.62272C22.7677 0.258733 27.2545 0 32 0C36.7455 0 41.2323 0.258733 45.1964 0.62272C54.8666 1.51065 62.2159 9.1773 63.2074 18.8374C63.6581 23.2286 64 27.9084 64 32C64 36.0916 63.6581 40.7714 63.2074 45.1625C62.2159 54.8227 54.8666 62.4893 45.1964 63.3773C41.2323 63.7413 36.7455 64 32 64C27.2545 64 22.7677 63.7413 18.8036 63.3773C9.13337 62.4893 1.78414 54.8227 0.792642 45.1626C0.341942 40.7714 0 36.0916 0 32C0 27.9084 0.341942 23.2286 0.792641 18.8375Z" fill="white"/>
<path d="M46.4197 19.6433C42.7293 15.9528 36.7459 15.9528 33.0555 19.6433L32.7036 19.9951C32.3151 20.3836 31.6853 20.3836 31.2968 19.9951L30.9445 19.6428C27.2541 15.9524 21.2707 15.9524 17.5803 19.6428C13.8899 23.3332 13.8899 29.3166 17.5803 33.007L30.8334 46.2567C31.4778 46.9009 32.5222 46.9009 33.1666 46.2568L46.4197 33.0075C50.1101 29.3171 50.1101 23.3337 46.4197 19.6433Z" fill="#F53F3F"/>
<path fill-rule="evenodd" clip-rule="evenodd" d="M32.1373 24.9883C32.494 24.9883 32.8104 25.2176 32.9214 25.5566L35.1932 32.4955L37.2904 27.5535C37.4295 27.2257 37.7632 27.0241 38.1181 27.0536C38.473 27.0831 38.7689 27.337 38.852 27.6832L39.5252 30.4883H41.6248C42.0804 30.4883 42.4498 30.8576 42.4498 31.3133C42.4498 31.7689 42.0804 32.1383 41.6248 32.1383H38.8748C38.4933 32.1383 38.1616 31.8768 38.0726 31.5058L37.8316 30.5019L35.853 35.1647C35.7187 35.4813 35.4021 35.6813 35.0585 35.6667C34.715 35.6521 34.4165 35.426 34.3095 35.0992L32.1373 28.4647L29.9651 35.0992C29.8581 35.426 29.5596 35.6521 29.2161 35.6667C28.8725 35.6813 28.5559 35.4813 28.4216 35.1647L26.3333 30.2435L25.9106 31.5647C25.8012 31.9064 25.4836 32.1383 25.1248 32.1383H22.3748C21.9192 32.1383 21.5498 31.7689 21.5498 31.3133C21.5498 30.8576 21.9192 30.4883 22.3748 30.4883H24.5226L25.4391 27.6243C25.5442 27.2959 25.8425 27.0674 26.187 27.0516C26.5315 27.0359 26.8495 27.236 26.9843 27.5535L29.0814 32.4955L31.3533 25.5566C31.4643 25.2176 31.7806 24.9883 32.1373 24.9883Z" fill="#FFFBE0"/>
</svg>
