<svg width="64" height="64" viewBox="0 0 64 64" fill="none" xmlns="http://www.w3.org/2000/svg">
<path d="M0.792641 18.8375C1.78414 9.17731 9.13336 1.51065 18.8036 0.62272C22.7677 0.258733 27.2545 0 32 0C36.7455 0 41.2323 0.258733 45.1964 0.62272C54.8666 1.51065 62.2159 9.1773 63.2074 18.8374C63.6581 23.2286 64 27.9084 64 32C64 36.0916 63.6581 40.7714 63.2074 45.1625C62.2159 54.8227 54.8666 62.4893 45.1964 63.3773C41.2323 63.7413 36.7455 64 32 64C27.2545 64 22.7677 63.7413 18.8036 63.3773C9.13337 62.4893 1.78414 54.8227 0.792642 45.1626C0.341942 40.7714 0 36.0916 0 32C0 27.9084 0.341942 23.2286 0.792641 18.8375Z" fill="white"/>
<path d="M30.1006 17.5016C30.1006 16.4522 30.9512 15.6016 32.0006 15.6016C33.0499 15.6016 33.9006 16.4522 33.9006 17.5016V18.6877C35.0202 18.7988 36.1026 19.0087 37.1325 19.3136L37.8958 17.9915C38.4205 17.0828 39.5825 16.7714 40.4913 17.2961C41.4 17.8208 41.7114 18.9828 41.1867 19.8915L40.6365 20.8445C41.273 21.2285 41.8723 21.6599 42.4286 22.1371C42.8058 22.4606 43.1626 22.8048 43.4974 23.1688L44.6069 22.5282C45.5156 22.0036 46.6777 22.3149 47.2023 23.2237C47.727 24.1324 47.4156 25.2945 46.5069 25.8191L45.6042 26.3403C46.1275 27.485 46.4889 28.7422 46.6629 30.1023H47.5006C48.5499 30.1023 49.4006 30.953 49.4006 32.0023C49.4006 33.0517 48.5499 33.9023 47.5006 33.9023H46.6625C46.4883 35.2615 46.127 36.5178 45.604 37.6618L46.5717 38.2205C47.4805 38.7452 47.7918 39.9072 47.2672 40.8159C46.7425 41.7247 45.5805 42.0361 44.6717 41.5114L43.4971 40.8332C43.1624 41.1972 42.8057 41.5412 42.4286 41.8646C41.8723 42.3418 41.273 42.7732 40.6366 43.1572L41.0559 43.8835C41.5805 44.7922 41.2692 45.9542 40.3604 46.4789C39.4517 47.0036 38.2896 46.6922 37.765 45.7835L37.1326 44.6881C36.1026 44.993 35.0202 45.2029 33.9006 45.3141V46.5016C33.9006 47.5509 33.0499 48.4016 32.0006 48.4016C30.9512 48.4016 30.1006 47.5509 30.1006 46.5016V45.3141C28.9815 45.2031 27.8996 44.9934 26.8701 44.6887L26.1078 46.0089C25.5832 46.9177 24.4212 47.229 23.5124 46.7044C22.6036 46.1797 22.2923 45.0177 22.8169 44.1089L23.3658 43.1583C22.7286 42.774 22.1288 42.3423 21.5719 41.8646C21.1946 41.541 20.8377 41.1968 20.5028 40.8326L19.3922 41.4738C18.4834 41.9985 17.3214 41.6871 16.7967 40.7784C16.272 39.8696 16.5834 38.7076 17.4922 38.1829L18.3961 37.661C17.8733 36.5173 17.5121 35.2612 17.338 33.9023H16.5006C15.4512 33.9023 14.6006 33.0517 14.6006 32.0023C14.6006 30.953 15.4512 30.1023 16.5006 30.1023H17.3376C17.5116 28.7425 17.8729 27.4855 18.3959 26.3411L17.4277 25.782C16.5189 25.2574 16.2076 24.0953 16.7322 23.1866C17.2569 22.2778 18.4189 21.9665 19.3277 22.4911L20.5025 23.1694C20.8375 22.8051 21.1945 22.4608 21.5719 22.1371C22.1288 21.6594 22.7287 21.2277 23.3658 20.8434L22.9471 20.1181C22.4224 19.2094 22.7338 18.0473 23.6425 17.5227C24.5513 16.998 25.7133 17.3093 26.238 18.2181L26.8701 19.313C27.8996 19.0083 28.9815 18.7986 30.1006 18.6876V17.5016Z" fill="#FF8F4C"/>
<path d="M42.0005 29C42.0005 30.6568 40.6573 32 39.0005 32C37.3437 32 36.0005 30.6568 36.0005 29C36.0005 27.3432 37.3437 26 39.0005 26C40.6573 26 42.0005 27.3432 42.0005 29Z" fill="#D3540D"/>
<path d="M27.0005 32.5C27.0005 33.8807 25.8812 35 24.5005 35C23.1198 35 22.0005 33.8807 22.0005 32.5C22.0005 31.1194 23.1198 30 24.5005 30C25.8812 30 27.0005 31.1194 27.0005 32.5Z" fill="#D3540D"/>
<path d="M28.5005 40C29.3289 40 30.0005 39.3284 30.0005 38.5C30.0005 37.6716 29.3289 37 28.5005 37C27.6721 37 27.0005 37.6716 27.0005 38.5C27.0005 39.3284 27.6721 40 28.5005 40Z" fill="#D3540D"/>
</svg>
