<svg width="64" height="64" viewBox="0 0 64 64" fill="none" xmlns="http://www.w3.org/2000/svg">
<path d="M0.792641 18.8375C1.78414 9.17731 9.13336 1.51065 18.8036 0.62272C22.7677 0.258733 27.2545 0 32 0C36.7455 0 41.2323 0.258733 45.1964 0.62272C54.8666 1.51065 62.2159 9.1773 63.2074 18.8374C63.6581 23.2286 64 27.9084 64 32C64 36.0916 63.6581 40.7714 63.2074 45.1625C62.2159 54.8227 54.8666 62.4893 45.1964 63.3773C41.2323 63.7413 36.7455 64 32 64C27.2545 64 22.7677 63.7413 18.8036 63.3773C9.13337 62.4893 1.78414 54.8227 0.792642 45.1626C0.341942 40.7714 0 36.0916 0 32C0 27.9084 0.341942 23.2286 0.792641 18.8375Z" fill="white"/>
<path d="M16 38.3125C16 37.1734 16.9234 36.25 18.0625 36.25H23.5625C24.7016 36.25 25.625 37.1734 25.625 38.3125V45.9375C25.625 47.0766 24.7016 48 23.5625 48H18.0625C16.9234 48 16 47.0766 16 45.9375V38.3125Z" fill="#D3DCE8"/>
<path d="M27 35.0625C27 33.9234 27.9234 33 29.0625 33H34.5625C35.7016 33 36.625 33.9234 36.625 35.0625V45.9375C36.625 47.0766 35.7016 48 34.5625 48H29.0625C27.9234 48 27 47.0766 27 45.9375V35.0625Z" fill="#D3DCE8"/>
<path d="M38 29.8125C38 28.6734 38.9234 27.75 40.0625 27.75H45.5625C46.7016 27.75 47.625 28.6734 47.625 29.8125V45.9375C47.625 47.0766 46.7016 48 45.5625 48H40.0625C38.9234 48 38 47.0766 38 45.9375V29.8125Z" fill="#D3DCE8"/>
<path fill-rule="evenodd" clip-rule="evenodd" d="M44.2959 17.2861C44.8283 17.7256 44.9035 18.5135 44.464 19.0459C41.0073 23.2327 36.0424 26.0829 31.3185 27.9462C26.586 29.8128 21.9796 30.7343 19.1132 30.9949C18.4257 31.0574 17.8177 30.5507 17.7552 29.8632C17.6927 29.1757 18.1994 28.5677 18.8869 28.5052C21.5206 28.2657 25.8939 27.3983 30.4012 25.6205C34.9172 23.8393 39.4523 21.1895 42.5361 17.4542C42.9757 16.9218 43.7635 16.8466 44.2959 17.2861Z" fill="#7E8CEC"/>
<path fill-rule="evenodd" clip-rule="evenodd" d="M38.75 17.25C38.75 16.5596 39.3096 16 40 16H44.5002C45.1906 16 45.7502 16.5596 45.7502 17.25V22.25C45.7502 22.9404 45.1906 23.5 44.5002 23.5C43.8099 23.5 43.2502 22.9404 43.2502 22.25V18.5H40C39.3096 18.5 38.75 17.9404 38.75 17.25Z" fill="#7E8CEC"/>
</svg>
