<svg width="64" height="64" viewBox="0 0 64 64" fill="none" xmlns="http://www.w3.org/2000/svg">
<path d="M0.792641 18.8375C1.78414 9.17731 9.13336 1.51065 18.8036 0.62272C22.7677 0.258733 27.2545 0 32 0C36.7455 0 41.2323 0.258733 45.1964 0.62272C54.8666 1.51065 62.2159 9.1773 63.2074 18.8374C63.6581 23.2286 64 27.9084 64 32C64 36.0916 63.6581 40.7714 63.2074 45.1625C62.2159 54.8227 54.8666 62.4893 45.1964 63.3773C41.2323 63.7413 36.7455 64 32 64C27.2545 64 22.7677 63.7413 18.8036 63.3773C9.13337 62.4893 1.78414 54.8227 0.792642 45.1626C0.341942 40.7714 0 36.0916 0 32C0 27.9084 0.341942 23.2286 0.792641 18.8375Z" fill="white"/>
<path d="M32.0002 16.3984C33.657 16.3985 35.0002 17.7416 35.0002 19.3984C35.0002 20.6051 34.2862 21.6419 33.259 22.1182L37.8938 32.7139L44.9368 28.7676C44.6105 28.2875 44.4192 27.7082 44.4192 27.084C44.4192 25.4271 45.7623 24.084 47.4192 24.084C49.076 24.0841 50.4192 25.4272 50.4192 27.084C50.4191 28.7407 49.0759 30.0839 47.4192 30.084C47.3506 30.084 47.2825 30.0807 47.2151 30.0762L45.5295 42.6826H42.2542L42.2698 42.7178H21.6936L21.7092 42.6826H18.5334L16.845 30.0596C16.723 30.0747 16.5989 30.084 16.4729 30.084C14.8161 30.084 13.473 28.7408 13.4729 27.084C13.4729 25.4271 14.816 24.084 16.4729 24.084C18.1298 24.084 19.4729 25.4271 19.4729 27.084C19.4729 27.6784 19.2965 28.2302 18.9983 28.6963L26.0881 32.6689L30.7102 22.1035C29.6998 21.6208 29.0002 20.5929 29.0002 19.3984C29.0002 17.7416 30.3434 16.3984 32.0002 16.3984Z" fill="#FFDE3B"/>
<rect x="15.7754" y="42.6914" width="32.4494" height="4.91011" rx="2.45505" fill="#FFBD3B"/>
</svg>
