<svg width="64" height="64" viewBox="0 0 64 64" fill="none" xmlns="http://www.w3.org/2000/svg">
<path d="M0.792641 18.8375C1.78414 9.17731 9.13336 1.51065 18.8036 0.62272C22.7677 0.258733 27.2545 0 32 0C36.7455 0 41.2323 0.258733 45.1964 0.62272C54.8666 1.51065 62.2159 9.1773 63.2074 18.8374C63.6581 23.2286 64 27.9084 64 32C64 36.0916 63.6581 40.7714 63.2074 45.1625C62.2159 54.8227 54.8666 62.4893 45.1964 63.3773C41.2323 63.7413 36.7455 64 32 64C27.2545 64 22.7677 63.7413 18.8036 63.3773C9.13337 62.4893 1.78414 54.8227 0.792642 45.1626C0.341942 40.7714 0 36.0916 0 32C0 27.9084 0.341942 23.2286 0.792641 18.8375Z" fill="white"/>
<path d="M14.125 23.75C14.125 21.4718 15.9718 19.625 18.25 19.625H45.75C48.0282 19.625 49.875 21.4718 49.875 23.75V40.25C49.875 42.5282 48.0282 44.375 45.75 44.375H18.25C15.9718 44.375 14.125 42.5282 14.125 40.25V23.75Z" fill="#BECCBA"/>
<path d="M26.5 19.625H45.75C48.0282 19.625 49.875 21.4718 49.875 23.75V40.25C49.875 42.5282 48.0282 44.375 45.75 44.375H26.5V19.625Z" fill="#A0AE9C"/>
<path d="M26.5 22.375H45.75C46.5094 22.375 47.125 22.9906 47.125 23.75V40.25C47.125 41.0094 46.5094 41.625 45.75 41.625H26.5V22.375Z" fill="#ADBBAA"/>
<path d="M16.875 40.25C16.875 39.4906 17.4906 38.875 18.25 38.875H22.375C23.1344 38.875 23.75 39.4906 23.75 40.25C23.75 41.0094 23.1344 41.625 22.375 41.625H18.25C17.4906 41.625 16.875 41.0094 16.875 40.25Z" fill="#909E8C"/>
<path opacity="0.8" d="M40.25 30.625C40.25 32.1438 39.0188 33.375 37.5 33.375C35.9812 33.375 34.75 32.1438 34.75 30.625C34.75 29.1062 35.9812 27.875 37.5 27.875C39.0188 27.875 40.25 29.1062 40.25 30.625Z" fill="#7C8B78"/>
<path opacity="0.8" d="M44.375 41.625C44.375 40.7222 44.1972 39.8282 43.8517 38.9941C43.5062 38.1599 42.9998 37.402 42.3614 36.7636C41.723 36.1252 40.9651 35.6188 40.1309 35.2733C39.2968 34.9278 38.4028 34.75 37.5 34.75C36.5972 34.75 35.7032 34.9278 34.8691 35.2733C34.0349 35.6188 33.277 36.1252 32.6386 36.7636C32.0002 37.402 31.4938 38.1599 31.1483 38.9941C30.8028 39.8282 30.625 40.7222 30.625 41.625L44.375 41.625Z" fill="#7C8B78"/>
</svg>
