<svg width="64" height="64" viewBox="0 0 64 64" fill="none" xmlns="http://www.w3.org/2000/svg">
<path d="M0.792641 18.8375C1.78414 9.17731 9.13336 1.51065 18.8036 0.62272C22.7677 0.258733 27.2545 0 32 0C36.7455 0 41.2323 0.258733 45.1964 0.62272C54.8666 1.51065 62.2159 9.1773 63.2074 18.8374C63.6581 23.2286 64 27.9084 64 32C64 36.0916 63.6581 40.7714 63.2074 45.1625C62.2159 54.8227 54.8666 62.4893 45.1964 63.3773C41.2323 63.7413 36.7455 64 32 64C27.2545 64 22.7677 63.7413 18.8036 63.3773C9.13337 62.4893 1.78414 54.8227 0.792642 45.1626C0.341942 40.7714 0 36.0916 0 32C0 27.9084 0.341942 23.2286 0.792641 18.8375Z" fill="white"/>
<path d="M22.7076 18.7179C22.7144 18.121 23.2753 17.6861 23.8552 17.8277C25.2208 18.1615 26.4217 18.925 27.3002 19.9791C29.1442 19.395 31.1587 19.0711 33.2688 19.0711C39.3983 19.0712 44.7197 21.7853 47.3977 25.7661L48.9686 25.6113C49.3387 25.5751 49.6465 25.8932 49.5981 26.2619C49.4967 27.036 49.1741 27.7516 48.6856 28.3343C49.0466 29.3821 49.2416 30.4836 49.2416 31.6211C49.2416 35.5883 46.8963 39.1227 43.2385 41.4225C42.6025 42.5672 42.1334 43.6485 41.8112 44.4865C41.4405 45.4501 40.5318 46.1421 39.4993 46.1421H37.828C37.198 46.1421 36.6873 45.6312 36.6871 45.0012V43.8792C35.5856 44.068 34.4424 44.1711 33.2688 44.1711C32.3067 44.1711 31.3836 44.0966 30.5012 43.955V45.0057C30.5011 45.6355 29.9901 46.1463 29.3603 46.1466H27.688C26.6554 46.1466 25.7467 45.4546 25.3761 44.4909C25.0344 43.6023 24.5277 42.44 23.8318 41.2186C22.177 40.0322 20.8017 38.5641 19.7183 36.9513C18.3366 36.1994 17.1008 35.6131 16.3067 35.2567C15.7273 34.9966 15.2632 34.5251 15.0822 33.9163C14.6809 32.5663 14.118 30.1089 14.8694 28.8468C15.6115 27.6012 16.7907 28.3634 18.0036 27.9132C18.8757 25.6943 20.5114 23.7397 22.6675 22.2353L22.7076 18.7179Z" fill="#F1A4B8"/>
<path d="M23 27C23 27.5523 22.5523 28 22 28C21.4477 28 21 27.5523 21 27C21 26.4477 21.4477 26 22 26C22.5523 26 23 26.4477 23 27Z" fill="#651359"/>
<path d="M17 30C17 30.5523 16.7761 31 16.5 31C16.2239 31 16 30.5523 16 30C16 29.4477 16.2239 29 16.5 29C16.7761 29 17 29.4477 17 30Z" fill="#651359"/>
<path d="M34.2026 20.0117H34.2085C34.9216 20.0531 35.5841 20.2006 36.1479 20.4268L36.2563 20.4795C36.3567 20.5385 36.436 20.6166 36.4868 20.7109C36.5549 20.8377 36.5641 20.9793 36.5239 21.1074C36.4432 21.3643 36.1812 21.5409 35.8569 21.541C35.8089 21.541 35.7611 21.5358 35.7153 21.5273L35.5815 21.4912C35.1482 21.3348 34.6234 21.2282 34.0415 21.2041L33.7885 21.1992C33.1908 21.1993 32.6455 21.2862 32.1869 21.4277L31.9955 21.4912C31.91 21.522 31.8171 21.541 31.7211 21.541C31.3969 21.5408 31.1348 21.3642 31.0541 21.1074C31.014 20.9794 31.0233 20.8385 31.0912 20.7119C31.1589 20.5859 31.2768 20.488 31.4291 20.4268L31.6879 20.3311C32.3062 20.1203 33.0245 20.0001 33.7885 20H33.7944L34.2026 20.0117Z" fill="#651359"/>
</svg>
