<svg width="64" height="64" viewBox="0 0 64 64" fill="none" xmlns="http://www.w3.org/2000/svg">
<path d="M0.792641 18.8375C1.78414 9.17731 9.13336 1.51065 18.8036 0.62272C22.7677 0.258733 27.2545 0 32 0C36.7455 0 41.2323 0.258733 45.1964 0.62272C54.8666 1.51065 62.2159 9.1773 63.2074 18.8374C63.6581 23.2286 64 27.9084 64 32C64 36.0916 63.6581 40.7714 63.2074 45.1625C62.2159 54.8227 54.8666 62.4893 45.1964 63.3773C41.2323 63.7413 36.7455 64 32 64C27.2545 64 22.7677 63.7413 18.8036 63.3773C9.13337 62.4893 1.78414 54.8227 0.792642 45.1626C0.341942 40.7714 0 36.0916 0 32C0 27.9084 0.341942 23.2286 0.792641 18.8375Z" fill="white"/>
<path d="M29.8415 16.3059C31.0799 15.2314 32.9201 15.2314 34.1585 16.3059L34.6087 16.6964C35.3729 17.3594 36.3993 17.6344 37.3926 17.4424L37.9777 17.3292C39.5875 17.0179 41.1811 17.938 41.7164 19.4877L41.911 20.0511C42.2413 21.0073 42.9927 21.7587 43.9489 22.089L44.5123 22.2836C46.062 22.8189 46.9821 24.4125 46.6708 26.0223L46.5576 26.6074C46.3656 27.6007 46.6406 28.6271 47.3036 29.3913L47.6941 29.8415C48.7686 31.0799 48.7686 32.9201 47.6941 34.1585L47.3036 34.6087C46.6406 35.3729 46.3656 36.3993 46.5576 37.3926L46.6708 37.9777C46.9821 39.5875 46.062 41.1811 44.5123 41.7164L43.9489 41.911C42.9927 42.2413 42.2413 42.9927 41.911 43.9489L41.7164 44.5123C41.1811 46.062 39.5875 46.9821 37.9777 46.6708L37.3926 46.5576C36.3993 46.3656 35.3729 46.6406 34.6087 47.3036L34.1585 47.6941C32.9201 48.7686 31.0799 48.7686 29.8415 47.6941L29.3913 47.3036C28.6271 46.6406 27.6007 46.3656 26.6074 46.5576L26.0223 46.6708C24.4125 46.9821 22.8189 46.062 22.2836 44.5123L22.089 43.9489C21.7587 42.9927 21.0073 42.2413 20.0511 41.911L19.4877 41.7164C17.938 41.1811 17.0179 39.5875 17.3292 37.9777L17.4424 37.3926C17.6344 36.3993 17.3594 35.3729 16.6964 34.6087L16.3059 34.1585C15.2314 32.9201 15.2314 31.0799 16.3059 29.8415L16.6964 29.3913C17.3594 28.6271 17.6344 27.6007 17.4424 26.6074L17.3292 26.0223C17.0179 24.4125 17.938 22.8189 19.4877 22.2836L20.0511 22.089C21.0073 21.7587 21.7587 21.0073 22.089 20.0511L22.2836 19.4877C22.8189 17.938 24.4125 17.0179 26.0223 17.3292L26.6074 17.4424C27.6007 17.6344 28.6271 17.3594 29.3913 16.6964L29.8415 16.3059Z" fill="#6396FB"/>
<path fill-rule="evenodd" clip-rule="evenodd" d="M37.3839 28.6161C37.872 29.1043 37.872 29.8957 37.3839 30.3839L31.8839 35.8839C31.3957 36.372 30.6043 36.372 30.1161 35.8839L26.6161 32.3839C26.128 31.8957 26.128 31.1043 26.6161 30.6161C27.1043 30.128 27.8957 30.128 28.3839 30.6161L31 33.2322L35.6161 28.6161C36.1043 28.128 36.8957 28.128 37.3839 28.6161Z" fill="white"/>
</svg>
