<svg width="677" height="48" viewBox="0 0 677 48" fill="none" xmlns="http://www.w3.org/2000/svg">
<path d="M0 22C0 9.84974 9.84974 0 22 0H400C412.15 0 422 9.84974 422 22V22C422 34.1503 412.15 44 400 44H22C9.84975 44 0 34.1503 0 22V22Z" fill="#403F3E"/>
<path d="M28.77 16.382V17.586C28.77 19.462 28.154 21.1 26.95 22.5C25.704 23.858 24.374 24.768 22.974 25.244L22.162 24.334C23.744 23.69 24.99 22.864 25.9 21.828C26.124 21.534 26.334 21.24 26.53 20.946H22.526V19.91H27.062C27.3 19.308 27.426 18.706 27.426 18.104V17.474H22.75V16.382H28.77ZM32.466 15.29V27.554H31.248V15.29H32.466ZM42.1386 18.44C42.1386 18.804 42.0406 19.14 41.8726 19.448C41.6906 19.756 41.4386 20.036 41.1306 20.288C40.8226 20.54 40.4726 20.708 40.0666 20.82C39.6466 20.946 39.1986 21.002 38.7226 21.002C38.2466 21.002 37.8126 20.946 37.4066 20.82C36.9866 20.708 36.6366 20.54 36.3286 20.288C36.0066 20.036 35.7686 19.756 35.6006 19.448C35.4326 19.14 35.3486 18.804 35.3486 18.44C35.3486 18.076 35.4326 17.74 35.6006 17.432C35.7686 17.124 36.0066 16.844 36.3286 16.592C36.6366 16.354 36.9866 16.172 37.4066 16.032C37.8126 15.92 38.2466 15.85 38.7226 15.85C39.1986 15.85 39.6326 15.92 40.0526 16.032C40.4586 16.172 40.8226 16.354 41.1306 16.592C41.4386 16.844 41.6906 17.124 41.8726 17.432C42.0406 17.74 42.1386 18.076 42.1386 18.44ZM40.8926 18.44C40.8926 17.992 40.6826 17.628 40.2626 17.334C39.8286 17.054 39.3106 16.9 38.7226 16.9C38.1346 16.9 37.6306 17.054 37.2106 17.334C36.7906 17.628 36.5806 17.992 36.5806 18.44C36.5806 18.888 36.7906 19.238 37.2106 19.518C37.6306 19.812 38.1346 19.952 38.7226 19.952C39.3106 19.952 39.8286 19.812 40.2626 19.518C40.6826 19.238 40.8926 18.888 40.8926 18.44ZM45.5966 15.29V27.554H44.3646V25.65H41.0326V24.614H44.3646V15.29H45.5966ZM38.6806 22.332C40.4166 22.332 42.0266 22.234 43.5106 22.024V23.13C42.0546 23.34 40.5986 23.438 39.1146 23.438V27.358H37.8826V23.424H34.5506V22.332H38.6806ZM48.9692 22.542V16.382H57.9992V17.46H50.2152V21.464H58.1252V22.542H48.9692ZM59.5252 25.342V26.434H47.4432V25.342H59.5252ZM71.8638 16.046V17.236C71.8638 18.524 71.1778 19.658 69.8058 20.624C68.5318 21.576 67.1318 22.206 65.6058 22.5L64.9758 21.59C66.3338 21.31 67.5798 20.792 68.7138 20.05C69.9318 19.266 70.5478 18.426 70.5478 17.544V17.124H65.8438V16.046H71.8638ZM75.5178 15.29V22.36H74.2998V19.532H71.9898V18.482H74.2998V15.29H75.5178ZM74.2998 24.194H68.6438V26.49H74.2998V24.194ZM75.5178 27.554H67.3978V23.13H75.5178V27.554ZM80.2623 17.306V15.794H81.4943V17.026C81.4943 18.076 81.7743 18.972 82.3343 19.7C82.9083 20.456 83.5523 21.058 84.2523 21.52L83.4403 22.262C82.8523 21.87 82.3343 21.408 81.8583 20.862C81.4943 20.498 81.1863 20.078 80.9063 19.616C80.6543 20.092 80.4023 20.47 80.1643 20.764C79.5623 21.52 78.9323 22.122 78.2883 22.598L77.4063 21.856C78.3443 21.17 79.0723 20.4 79.5903 19.546C80.0383 18.832 80.2623 18.09 80.2623 17.306ZM87.5983 15.29H88.8023V22.696H87.5983V19.49H86.0863V22.696H84.8963V15.486H86.0863V18.426H87.5983V15.29ZM79.8423 23.438H88.8023V27.806H87.5983V24.53H79.8423V23.438ZM92.1189 22.122V20.344H93.8689V22.122H92.1189ZM104.317 22.01C102.973 22.15 101.573 22.22 100.117 22.22H97.4293V16.046H103.267V17.054H98.6753V18.566H103.197V19.56H98.6753V21.212H100.061C101.545 21.212 102.973 21.142 104.317 21.002V22.01ZM107.033 22.71H105.801V15.29H107.033V18.482H108.867V19.574H107.033V22.71ZM105.801 24.46H100.019V26.518H105.801V24.46ZM107.033 27.554H98.7873V23.41H107.033V27.554ZM112.282 17.306V15.794H113.514V17.026C113.514 18.076 113.794 18.972 114.354 19.7C114.928 20.456 115.572 21.058 116.272 21.52L115.46 22.262C114.872 21.87 114.354 21.408 113.878 20.862C113.514 20.498 113.206 20.078 112.926 19.616C112.674 20.092 112.422 20.47 112.184 20.764C111.582 21.52 110.952 22.122 110.308 22.598L109.426 21.856C110.364 21.17 111.092 20.4 111.61 19.546C112.058 18.832 112.282 18.09 112.282 17.306ZM119.618 15.29H120.822V22.696H119.618V19.49H118.106V22.696H116.916V15.486H118.106V18.426H119.618V15.29ZM111.862 23.438H120.822V27.806H119.618V24.53H111.862V23.438ZM124.138 22.122V20.344H125.888V22.122H124.138ZM133.215 17.068C133.215 18.132 133.579 19.056 134.307 19.84C134.923 20.512 135.665 21.058 136.533 21.492L135.791 22.304C134.951 21.912 134.139 21.31 133.355 20.498C133.103 20.246 132.865 19.952 132.655 19.63C132.417 20.022 132.165 20.372 131.913 20.652C131.101 21.548 130.261 22.22 129.407 22.654L128.581 21.828C129.449 21.38 130.205 20.792 130.849 20.064C131.577 19.266 131.955 18.328 131.955 17.236V15.794H133.215V17.068ZM139.053 22.71H137.821V15.29H139.053V18.398H140.887V19.518H139.053V22.71ZM138.157 25.454C138.157 25.258 138.059 25.062 137.891 24.88C137.695 24.712 137.471 24.572 137.219 24.46C136.939 24.348 136.575 24.264 136.155 24.18C135.721 24.11 135.301 24.068 134.881 24.068C134.447 24.068 134.013 24.11 133.579 24.18C133.131 24.264 132.781 24.348 132.543 24.46C132.263 24.6 132.053 24.74 131.899 24.908C131.731 25.076 131.647 25.258 131.647 25.454C131.647 25.65 131.717 25.832 131.885 26.014C132.025 26.21 132.249 26.35 132.543 26.462C132.851 26.574 133.201 26.658 133.621 26.714C134.027 26.77 134.447 26.798 134.881 26.798C135.301 26.798 135.721 26.77 136.141 26.714C136.547 26.658 136.911 26.574 137.219 26.462C137.499 26.35 137.737 26.21 137.905 26.014C138.073 25.832 138.157 25.65 138.157 25.454ZM139.403 25.454C139.403 25.818 139.291 26.154 139.067 26.434C138.843 26.728 138.535 26.98 138.143 27.204C137.751 27.442 137.261 27.61 136.673 27.708C136.071 27.82 135.469 27.876 134.881 27.876C134.265 27.876 133.677 27.82 133.103 27.708C132.515 27.61 132.025 27.442 131.633 27.218C131.241 26.994 130.933 26.728 130.723 26.434C130.499 26.154 130.401 25.818 130.401 25.454C130.401 25.09 130.499 24.754 130.723 24.46C130.933 24.18 131.241 23.914 131.633 23.69C132.025 23.466 132.515 23.284 133.103 23.172C133.677 23.06 134.265 23.004 134.881 23.004C135.469 23.004 136.071 23.06 136.673 23.172C137.261 23.284 137.751 23.466 138.143 23.69C138.521 23.914 138.829 24.18 139.067 24.46C139.291 24.768 139.403 25.09 139.403 25.454ZM149.495 21.548C148.151 21.674 146.751 21.73 145.281 21.73H142.397V16.074H148.417V17.138H143.643V20.666H145.197C146.751 20.666 148.179 20.61 149.495 20.484V21.548ZM151.945 15.29V18.202H153.779V19.322H151.945V22.36H150.713V15.29H151.945ZM150.713 24.222H144.931V26.49H150.713V24.222ZM151.945 27.554H143.699V23.158H151.945V27.554ZM165.16 19.756C165.16 20.204 165.034 20.624 164.796 21.044C164.544 21.478 164.194 21.856 163.774 22.164C163.354 22.472 162.878 22.71 162.346 22.85C161.8 23.004 161.212 23.074 160.582 23.074C159.966 23.074 159.392 23.004 158.86 22.85C158.314 22.71 157.838 22.472 157.418 22.164C156.984 21.856 156.648 21.478 156.424 21.044C156.186 20.624 156.074 20.204 156.074 19.756C156.074 19.294 156.186 18.846 156.41 18.426C156.62 18.006 156.956 17.642 157.418 17.334C157.838 17.04 158.314 16.816 158.86 16.648C159.392 16.508 159.966 16.424 160.582 16.424C161.212 16.424 161.8 16.508 162.346 16.648C162.878 16.816 163.354 17.04 163.774 17.334C164.222 17.656 164.558 18.02 164.81 18.426C165.034 18.846 165.16 19.294 165.16 19.756ZM163.9 19.756C163.9 19.434 163.802 19.126 163.634 18.846C163.438 18.58 163.2 18.342 162.906 18.132C162.598 17.936 162.262 17.768 161.884 17.656C161.492 17.558 161.058 17.502 160.582 17.502C160.106 17.502 159.686 17.558 159.322 17.67C158.93 17.796 158.594 17.95 158.3 18.132C157.978 18.356 157.74 18.608 157.586 18.86C157.418 19.14 157.334 19.434 157.334 19.756C157.334 20.078 157.418 20.372 157.614 20.652C157.796 20.946 158.02 21.184 158.3 21.352C158.594 21.562 158.93 21.716 159.322 21.814C159.686 21.926 160.106 21.982 160.582 21.982C161.058 21.982 161.492 21.926 161.884 21.814C162.248 21.716 162.584 21.562 162.892 21.352C163.2 21.156 163.452 20.918 163.634 20.638C163.802 20.372 163.9 20.078 163.9 19.756ZM166.658 25.342V26.434H154.576V25.342H166.658ZM168.995 23.186V19.238H176.779V17.432H168.995V16.368H178.025V20.288H170.241V22.108H178.165V23.186H174.133V25.342H179.551V26.434H167.469V25.342H172.887V23.186H168.995ZM192.309 17.908C192.309 18.216 192.211 18.51 192.029 18.79C191.833 19.098 191.595 19.35 191.301 19.56C191.021 19.784 190.685 19.952 190.293 20.036C189.887 20.148 189.453 20.19 189.005 20.19C188.571 20.19 188.165 20.148 187.773 20.036C187.381 19.938 187.031 19.784 186.751 19.56C186.443 19.35 186.205 19.098 186.037 18.79C185.869 18.51 185.785 18.216 185.785 17.908C185.785 17.6 185.869 17.306 186.037 16.998C186.205 16.718 186.443 16.466 186.751 16.242C187.031 16.046 187.381 15.892 187.773 15.766C188.165 15.654 188.571 15.598 189.005 15.598C189.453 15.598 189.887 15.654 190.279 15.766C190.671 15.892 191.007 16.046 191.301 16.242C191.595 16.466 191.833 16.718 192.029 16.998C192.211 17.306 192.309 17.6 192.309 17.908ZM191.035 17.908C191.035 17.558 190.839 17.25 190.447 16.998C190.041 16.76 189.565 16.634 189.005 16.634C188.445 16.634 187.983 16.76 187.619 16.998C187.241 17.25 187.059 17.544 187.059 17.908C187.059 18.272 187.241 18.566 187.633 18.79C187.997 19.028 188.459 19.14 189.005 19.14C189.565 19.14 190.041 19.028 190.447 18.79C190.839 18.566 191.035 18.272 191.035 17.908ZM195.669 15.29V25.146H194.437V23.788H191.063V22.808H194.437V15.29H195.669ZM188.711 20.932C190.503 20.932 192.071 20.848 193.415 20.666V21.716C192.323 21.884 190.951 21.968 189.271 21.996V24.068H188.025V21.982H184.777V20.932H188.711ZM195.949 27.554H186.919V24.684H188.165V26.49H195.949V27.554ZM205.3 19.07H197.81V17.964H205.3V19.07ZM203.438 17.012H199.672V15.906H203.438V17.012ZM204.922 22.668C204.922 23.032 204.838 23.382 204.67 23.704C204.502 24.04 204.264 24.334 203.97 24.572C203.662 24.824 203.298 25.006 202.892 25.132C202.472 25.272 202.052 25.342 201.604 25.342C201.156 25.342 200.722 25.272 200.316 25.132C199.896 25.006 199.546 24.824 199.238 24.572C198.93 24.334 198.706 24.04 198.552 23.704C198.384 23.382 198.3 23.032 198.3 22.668C198.3 22.304 198.384 21.954 198.552 21.618C198.706 21.296 198.93 21.016 199.238 20.764C199.546 20.512 199.896 20.316 200.316 20.176C200.722 20.036 201.156 19.966 201.604 19.966C202.052 19.966 202.472 20.036 202.892 20.176C203.298 20.316 203.662 20.512 203.97 20.764C204.264 21.016 204.502 21.296 204.67 21.618C204.838 21.954 204.922 22.304 204.922 22.668ZM203.69 22.654C203.69 22.206 203.48 21.828 203.088 21.492C202.668 21.17 202.178 21.002 201.604 21.002C201.016 21.002 200.526 21.17 200.134 21.492C199.728 21.828 199.532 22.206 199.532 22.654C199.532 23.102 199.728 23.48 200.134 23.802C200.526 24.138 201.016 24.292 201.604 24.292C202.178 24.292 202.668 24.138 203.088 23.802C203.48 23.48 203.69 23.102 203.69 22.654ZM207.834 15.29V20.484H209.78V21.632H207.834V27.554H206.588V15.29H207.834ZM212.088 20.358V15.556H213.334V19.294H221.118V20.358H212.088ZM222.644 21.842V22.92H210.562V21.842H222.644ZM221.146 27.554H212.088V24.054H213.334V26.476H221.146V27.554ZM232.295 17.068C232.295 18.132 232.659 19.056 233.387 19.84C234.003 20.512 234.745 21.058 235.613 21.492L234.871 22.304C234.031 21.912 233.219 21.31 232.435 20.498C232.183 20.246 231.945 19.952 231.735 19.63C231.497 20.022 231.245 20.372 230.993 20.652C230.181 21.548 229.341 22.22 228.487 22.654L227.661 21.828C228.529 21.38 229.285 20.792 229.929 20.064C230.657 19.266 231.035 18.328 231.035 17.236V15.794H232.295V17.068ZM238.133 22.71H236.901V15.29H238.133V18.398H239.967V19.518H238.133V22.71ZM237.237 25.454C237.237 25.258 237.139 25.062 236.971 24.88C236.775 24.712 236.551 24.572 236.299 24.46C236.019 24.348 235.655 24.264 235.235 24.18C234.801 24.11 234.381 24.068 233.961 24.068C233.527 24.068 233.093 24.11 232.659 24.18C232.211 24.264 231.861 24.348 231.623 24.46C231.343 24.6 231.133 24.74 230.979 24.908C230.811 25.076 230.727 25.258 230.727 25.454C230.727 25.65 230.797 25.832 230.965 26.014C231.105 26.21 231.329 26.35 231.623 26.462C231.931 26.574 232.281 26.658 232.701 26.714C233.107 26.77 233.527 26.798 233.961 26.798C234.381 26.798 234.801 26.77 235.221 26.714C235.627 26.658 235.991 26.574 236.299 26.462C236.579 26.35 236.817 26.21 236.985 26.014C237.153 25.832 237.237 25.65 237.237 25.454ZM238.483 25.454C238.483 25.818 238.371 26.154 238.147 26.434C237.923 26.728 237.615 26.98 237.223 27.204C236.831 27.442 236.341 27.61 235.753 27.708C235.151 27.82 234.549 27.876 233.961 27.876C233.345 27.876 232.757 27.82 232.183 27.708C231.595 27.61 231.105 27.442 230.713 27.218C230.321 26.994 230.013 26.728 229.803 26.434C229.579 26.154 229.481 25.818 229.481 25.454C229.481 25.09 229.579 24.754 229.803 24.46C230.013 24.18 230.321 23.914 230.713 23.69C231.105 23.466 231.595 23.284 232.183 23.172C232.757 23.06 233.345 23.004 233.961 23.004C234.549 23.004 235.151 23.06 235.753 23.172C236.341 23.284 236.831 23.466 237.223 23.69C237.601 23.914 237.909 24.18 238.147 24.46C238.371 24.768 238.483 25.09 238.483 25.454ZM251.389 16.816H249.765L249.681 19.168H251.683V20.204H241.911V19.168H243.885L243.815 16.816H242.219V15.794H251.389V16.816ZM248.575 16.816H245.005L245.075 19.168H248.505L248.575 16.816ZM252.845 21.324V22.374H247.427V23.774H251.319V27.554H242.289V23.774H246.181V22.374H240.763V21.324H252.845ZM243.535 24.782V26.546H250.073V24.782H243.535ZM264.254 17.684C264.254 18.356 263.848 18.888 263.05 19.266C262.238 19.658 261.118 19.84 259.676 19.84C258.248 19.84 257.128 19.658 256.344 19.266C255.532 18.888 255.14 18.356 255.14 17.684C255.14 17.012 255.532 16.466 256.33 16.06C257.114 15.668 258.234 15.472 259.676 15.472C261.104 15.472 262.224 15.668 263.036 16.06C263.848 16.452 264.254 16.998 264.254 17.684ZM259.676 16.48C258.598 16.48 257.786 16.592 257.24 16.816C256.68 17.054 256.4 17.348 256.4 17.684C256.4 18.034 256.68 18.314 257.24 18.51C257.8 18.734 258.612 18.832 259.676 18.832C260.754 18.832 261.58 18.734 262.154 18.51C262.714 18.314 262.994 18.034 262.994 17.684C262.994 17.334 262.714 17.04 262.154 16.816C261.594 16.592 260.768 16.48 259.676 16.48ZM265.738 20.582V21.618H253.656V20.582H265.738ZM264.366 27.554H255.168V24.628H262.952V23.634H255.168V22.668H264.226V25.58H256.442V26.574H264.366V27.554ZM272.421 16.382V19.336H273.695V16.382H274.703V25.048H271.371V16.382H272.421ZM272.421 20.372V23.984H273.695V20.372H272.421ZM278.021 16.382H279.071V25.048H275.767V16.382H276.775V19.336H278.021V16.382ZM276.775 20.372V23.984H278.021V20.372H276.775ZM281.549 15.29V19.798H283.131V20.988H281.549V27.554H280.429V15.29H281.549ZM285.383 23.214V19.252H293.167V17.46H285.383V16.396H294.413V20.316H286.629V22.136H294.553V23.214H285.383ZM295.939 25.342V26.434H283.857V25.342H295.939ZM302.602 16.382V17.516C302.602 19.49 302.07 21.114 301.006 22.388C299.956 23.62 298.85 24.572 297.702 25.216L296.862 24.39C298.052 23.718 299.06 22.864 299.9 21.842C300.852 20.652 301.328 19.434 301.328 18.202V17.474H297.548V16.382H302.602ZM307.978 27.554H306.76V15.29H307.978V27.554ZM304.086 15.556H305.29V27.12H304.086V21.142H302.504V19.966H304.086V15.556ZM321.296 18.426H318.524C318.608 19.126 318.944 19.714 319.518 20.218C320.176 20.778 320.932 21.254 321.772 21.632L321.058 22.444C320.26 22.136 319.448 21.618 318.608 20.89C318.384 20.694 318.16 20.456 317.936 20.19C317.684 20.526 317.432 20.806 317.208 21.016C316.396 21.828 315.542 22.402 314.674 22.738L313.862 21.94C314.772 21.534 315.556 21.03 316.2 20.428C316.844 19.826 317.208 19.154 317.306 18.426H314.464V17.404H321.296V18.426ZM320.022 16.466H315.78V15.43H320.022V16.466ZM324.32 22.654H323.088V15.29H324.32V18.552H326.154V19.644H324.32V22.654ZM324.474 23.326V24.334H320.764C320.946 24.964 321.436 25.496 322.22 25.944C323.004 26.392 323.914 26.7 324.978 26.868L324.348 27.708C323.284 27.596 322.234 27.19 321.184 26.518C320.736 26.238 320.4 25.944 320.176 25.636C319.896 25.972 319.546 26.266 319.126 26.532C318.146 27.176 317.096 27.568 315.976 27.708L315.332 26.84C316.424 26.658 317.334 26.364 318.09 25.944C318.874 25.496 319.364 24.95 319.56 24.334H315.934V23.326H324.474ZM327.357 20.778C327.357 19.518 327.665 18.44 328.295 17.516C328.939 16.606 329.709 16.144 330.633 16.144C331.529 16.144 332.299 16.606 332.971 17.516C333.615 18.412 333.937 19.504 333.937 20.778C333.937 22.038 333.615 23.116 332.971 24.026C332.341 24.922 331.557 25.37 330.633 25.37C329.709 25.37 328.939 24.922 328.295 24.026C327.665 23.13 327.357 22.052 327.357 20.778ZM328.575 20.778C328.575 21.688 328.743 22.486 329.107 23.186C329.527 23.928 330.045 24.292 330.633 24.292C331.207 24.292 331.711 23.928 332.145 23.186C332.523 22.472 332.719 21.674 332.719 20.778C332.719 19.84 332.523 19.042 332.159 18.37C331.711 17.614 331.193 17.222 330.633 17.222C330.017 17.222 329.513 17.614 329.107 18.37C328.743 19.07 328.575 19.882 328.575 20.778ZM337.031 15.29V19.784H339.061V20.946H337.031V27.554H335.785V15.29H337.031ZM342.616 16.382V18.496H349.154V16.382H350.4V22.892H346.494V25.342H351.926V26.434H339.844V25.342H345.276V22.892H341.37V16.382H342.616ZM342.616 19.56V21.828H349.154V19.56H342.616ZM356.586 18.314C356.586 19.462 356.824 20.526 357.3 21.478C357.86 22.542 358.532 23.466 359.344 24.264L358.462 24.922C357.566 24.04 356.824 23.018 356.25 21.87L356.012 21.352L355.746 21.884C355.074 23.228 354.346 24.32 353.534 25.174L352.54 24.502C353.352 23.662 354.052 22.668 354.626 21.52C355.102 20.596 355.354 19.56 355.354 18.412V16.214H356.586V18.314ZM363.964 27.554H362.746V15.29H363.964V27.554ZM360.03 15.556H361.234V27.12H360.03V20.624H357.972V19.518H360.03V15.556ZM376.213 19.462C376.213 19.91 376.087 20.344 375.849 20.75C375.597 21.17 375.247 21.534 374.813 21.842C374.393 22.15 373.917 22.36 373.399 22.486C372.867 22.626 372.279 22.682 371.635 22.682C371.005 22.682 370.431 22.612 369.927 22.472C369.395 22.346 368.919 22.136 368.485 21.842C368.065 21.562 367.729 21.212 367.491 20.778C367.239 20.358 367.127 19.91 367.127 19.462C367.127 19.014 367.239 18.58 367.463 18.16C367.687 17.768 368.023 17.404 368.485 17.096C368.905 16.816 369.381 16.592 369.913 16.438C370.431 16.298 371.005 16.228 371.635 16.228C372.279 16.228 372.867 16.298 373.399 16.438C373.917 16.592 374.393 16.816 374.813 17.096C375.261 17.404 375.597 17.768 375.849 18.16C376.087 18.58 376.213 19.014 376.213 19.462ZM374.953 19.462C374.953 19.182 374.855 18.888 374.687 18.608C374.505 18.342 374.267 18.104 373.973 17.894C373.651 17.684 373.301 17.53 372.923 17.432C372.531 17.348 372.111 17.306 371.635 17.306C371.131 17.306 370.711 17.348 370.347 17.432C369.983 17.53 369.633 17.684 369.325 17.894C369.017 18.104 368.793 18.342 368.639 18.594C368.471 18.874 368.387 19.154 368.387 19.462C368.387 19.77 368.471 20.064 368.639 20.33C368.793 20.61 369.031 20.848 369.339 21.03C369.647 21.226 369.983 21.366 370.361 21.45C370.725 21.548 371.145 21.59 371.635 21.59C372.111 21.59 372.545 21.548 372.937 21.45C373.329 21.366 373.665 21.226 373.959 21.03C374.253 20.834 374.491 20.61 374.687 20.33C374.855 20.064 374.953 19.77 374.953 19.462ZM377.711 25.342V26.434H365.629V25.342H368.303V22.99H369.521V25.342H373.819V22.99H375.023V25.342H377.711Z" fill="white"/>
<path d="M394.707 16.2929C394.317 15.9024 393.683 15.9024 393.293 16.2929C392.902 16.6834 392.902 17.3166 393.293 17.7071L397.586 22L393.293 26.2929C392.902 26.6834 392.902 27.3166 393.293 27.7071C393.683 28.0976 394.317 28.0976 394.707 27.7071L399 23.4142L403.293 27.7071C403.683 28.0976 404.317 28.0976 404.707 27.7071C405.098 27.3166 405.098 26.6834 404.707 26.2929L400.414 22L404.707 17.7071C405.098 17.3166 405.098 16.6834 404.707 16.2929C404.317 15.9024 403.683 15.9024 403.293 16.2929L399 20.5858L394.707 16.2929Z" fill="#908F8E"/>
<path d="M372.252 47.6602L369 43.9989L377 43.9989L373.748 47.6602C373.35 48.1081 372.65 48.1081 372.252 47.6602Z" fill="#403F3E"/>
</svg>
