<svg width="26" height="26" viewBox="0 0 26 26" fill="none" xmlns="http://www.w3.org/2000/svg">
<path d="M3.25 7.3125C3.25 5.96631 4.34131 4.875 5.6875 4.875H20.3125C21.6587 4.875 22.75 5.96631 22.75 7.3125V17.875C22.75 19.2212 21.6587 20.3125 20.3125 20.3125H5.6875C4.34131 20.3125 3.25 19.2212 3.25 17.875V7.3125Z" fill="#4780F0"/>
<path d="M16.6562 16.6562C16.6562 16.2075 17.02 15.8438 17.4688 15.8438H19.9062C20.355 15.8438 20.7188 16.2075 20.7188 16.6562V17.4688C20.7188 17.9175 20.355 18.2812 19.9062 18.2812H17.4687C17.02 18.2812 16.6562 17.9175 16.6562 17.4688V16.6562Z" fill="white"/>
<path d="M3.25 8.125H22.75V10.5625H3.25V8.125Z" fill="#1E4DA9"/>
<path d="M24.375 17.0625C24.375 19.7549 22.1924 21.9375 19.5 21.9375C16.8076 21.9375 14.625 19.7549 14.625 17.0625C14.625 14.3701 16.8076 12.1875 19.5 12.1875C22.1924 12.1875 24.375 14.3701 24.375 17.0625Z" fill="#FFC960"/>
<path d="M20.0183 15.7453L19.9665 15.7612L20.0187 15.7467L20.4306 17.2247L20.8326 15.6974C20.8635 15.5754 20.9335 15.4902 21.0228 15.4392C21.1155 15.3862 21.2291 15.3718 21.3442 15.396C21.4659 15.4205 21.5564 15.4845 21.6107 15.5724C21.6646 15.6597 21.6819 15.7702 21.6517 15.8918L21.5992 15.8788L21.6513 15.8935L21.4327 16.6703L21.853 16.6703C21.966 16.6703 22.0685 16.7159 22.1426 16.7895C22.2168 16.8631 22.2628 16.965 22.2628 17.0776C22.2628 17.1902 22.2168 17.2921 22.1426 17.3657C22.0685 17.4394 21.966 17.4849 21.853 17.4849L21.2033 17.4849L20.9254 18.4717C20.8919 18.5933 20.83 18.6814 20.7547 18.7425C20.6645 18.8157 20.556 18.8486 20.4512 18.8516L20.4497 18.8516C20.3364 18.8518 20.2253 18.8228 20.1323 18.7534C20.0522 18.6936 19.9865 18.6051 19.9496 18.4802L20.0015 18.4649L19.9493 18.479L19.5259 16.9101L19.0871 18.4717C19.0526 18.5966 18.9872 18.6863 18.9081 18.7475C18.8133 18.8209 18.6995 18.8518 18.5924 18.8518C18.4857 18.8518 18.3759 18.8226 18.2835 18.7533C18.2048 18.6943 18.1396 18.6073 18.1028 18.4852L18.1546 18.4696L18.1024 18.4841L17.8244 17.4849L17.1476 17.4849C17.0346 17.4849 16.9321 17.4394 16.858 17.3657C16.7838 17.2921 16.7378 17.1902 16.7378 17.0776C16.7378 16.965 16.7838 16.8631 16.858 16.7895C16.9321 16.7159 17.0346 16.6703 17.1476 16.6703L17.5978 16.6703L17.3931 15.9338C17.3574 15.808 17.3717 15.6961 17.4217 15.6056C17.4743 15.5103 17.5661 15.4402 17.6866 15.4062L17.6885 15.4057C17.8083 15.3765 17.9266 15.3753 18.0256 15.4188C18.1211 15.4607 18.1992 15.5397 18.2385 15.6722L18.1866 15.6876L18.2391 15.6743L18.6309 17.22L19.0386 15.7643C19.0732 15.6385 19.1381 15.5485 19.2175 15.4871C19.3111 15.4146 19.4239 15.3838 19.5334 15.3838C19.6376 15.3838 19.7464 15.413 19.8382 15.4816C19.9162 15.5399 19.9814 15.6255 20.0183 15.7453Z" fill="#E59119"/>
</svg>
