<svg width="26" height="26" viewBox="0 0 26 26" fill="none" xmlns="http://www.w3.org/2000/svg">
<path d="M11.7806 11.375L8.71231 5.23836C8.4422 4.69813 8.83504 4.0625 9.43904 4.0625L16.5597 4.0625C17.1637 4.0625 17.5566 4.69813 17.2865 5.23836L14.2181 11.375H11.7806Z" fill="#FF8F4C"/>
<path d="M21.9375 15.8437C21.9375 19.7439 18.6875 22.75 15.4375 22.75H10.5625C7.3125 22.75 4.0625 19.7439 4.0625 15.8437C4.0625 10.7989 8.06395 7.71875 13 7.71875C17.936 7.71875 21.9375 10.7989 21.9375 15.8437Z" fill="#FF8F4C"/>
<path d="M13.0581 12.8154C13.2226 12.8154 13.3918 12.8615 13.5334 12.9673C13.6533 13.0569 13.7554 13.1896 13.8141 13.3797L14.6266 16.2957L15.4172 13.2918C15.4649 13.1035 15.5711 12.976 15.7046 12.8997C15.8437 12.8202 16.018 12.7965 16.1996 12.8347C16.3888 12.8728 16.5235 12.9703 16.6034 13.0997C16.6828 13.2283 16.7109 13.3945 16.6637 13.5849L16.2483 15.0609L17.1067 15.061C17.2782 15.061 17.4333 15.13 17.5457 15.2415C17.658 15.3531 17.7275 15.5072 17.7275 15.6774C17.7275 15.8476 17.658 16.0017 17.5457 16.1132C17.4333 16.2248 17.2782 16.2937 17.1067 16.2937L15.9012 16.2937L15.3967 18.0853C15.3433 18.2792 15.2459 18.4161 15.1301 18.51C14.9911 18.6227 14.8227 18.6745 14.6572 18.6793C14.4756 18.6796 14.3027 18.6332 14.16 18.5267C14.0371 18.435 13.934 18.2981 13.8752 18.0987L13.0467 15.0289L12.1879 18.0853C12.1332 18.284 12.0306 18.4231 11.9087 18.5174C11.7623 18.6307 11.5848 18.6796 11.4155 18.6796C11.2463 18.6796 11.0754 18.6333 10.9332 18.5266C10.8124 18.4359 10.7101 18.3013 10.6514 18.107L10.1468 16.2937L8.8937 16.2937C8.72229 16.2937 8.5671 16.2248 8.45476 16.1132C8.34243 16.0017 8.27295 15.8476 8.27295 15.6774C8.27295 15.5072 8.34243 15.3531 8.45476 15.2415C8.5671 15.13 8.72229 15.061 8.89369 15.061L9.80401 15.0609L9.41315 13.6554C9.35704 13.4574 9.38079 13.2879 9.45488 13.1537C9.53303 13.0122 9.67094 12.9043 9.86024 12.8509C10.0578 12.8029 10.2412 12.8039 10.3883 12.8685C10.5289 12.9303 10.6463 13.0461 10.7072 13.2513L11.4781 16.2928L12.2855 13.4104C12.3406 13.2099 12.4425 13.0703 12.5644 12.976C12.7087 12.8643 12.8843 12.8154 13.0581 12.8154Z" fill="white"/>
<path d="M8.53125 7.49716C8.53125 7.17081 8.79581 6.90625 9.12216 6.90625H16.8778C17.2042 6.90625 17.4687 7.17081 17.4687 7.49716V7.94034C17.4687 8.26669 17.2042 8.53125 16.8778 8.53125H9.12216C8.79581 8.53125 8.53125 8.26669 8.53125 7.94034V7.49716Z" fill="#D3540D"/>
</svg>
