<svg width="26" height="26" viewBox="0 0 26 26" fill="none" xmlns="http://www.w3.org/2000/svg">
<path d="M21.1552 6.52387C19.196 4.56463 16.0194 4.56463 14.0602 6.52387L13.8734 6.71068C13.6671 6.91691 13.3328 6.91691 13.1265 6.71068L12.9395 6.52363C10.9802 4.56439 7.80367 4.56439 5.84443 6.52363C3.88519 8.48287 3.88519 11.6594 5.84443 13.6187L12.9765 20.7489C13.2656 21.0379 13.7341 21.0379 14.0231 20.7489L21.1552 13.6189C23.1145 11.6597 23.1145 8.48311 21.1552 6.52387Z" fill="#EE6474"/>
<path d="M6.96179 15.6712L5.37305 17.2783V21.2725H15.4578C16.2655 21.2725 17.0382 20.9428 17.5971 20.3597L22.2913 15.4626C22.8109 14.9572 22.5349 14.1343 22.0153 13.6289C21.4957 13.1236 21.053 13.2173 20.4061 13.6289L16.6894 15.981C16.6897 15.9697 16.6898 15.9583 16.6898 15.9469C16.6898 15.2115 16.0828 14.6156 15.3337 14.6156H9.56104C8.58592 14.6156 7.65277 14.996 6.96179 15.6712Z" fill="#FFD0C3"/>
<path d="M11.3027 17.2777H15.3329C15.5868 17.2777 15.7412 17.2438 15.8115 17.2152C15.8818 17.1865 16.0181 17.1848 16.3279 16.9537C16.6377 16.7227 16.7354 15.9337 16.6886 15.9805C16.356 16.3132 15.726 16.6121 15.3329 16.6121H11.9684C11.6008 16.6121 11.3027 16.9101 11.3027 17.2777Z" fill="#F4AEA0"/>
<path d="M6.03826 15.125H4.04117C3.67353 15.125 3.37549 15.423 3.37549 15.7907V20.6064C3.37549 20.9741 3.67353 21.2721 4.04117 21.2721H6.03826C6.40591 21.2721 6.70394 20.9741 6.70394 20.6064V15.7907C6.70394 15.423 6.40591 15.125 6.03826 15.125Z" fill="#FF8F4C"/>
</svg>
