<svg width="26" height="26" viewBox="0 0 26 26" fill="none" xmlns="http://www.w3.org/2000/svg">
<path d="M2.4375 8.125C2.4375 6.77881 3.52881 5.6875 4.875 5.6875H21.125C22.4712 5.6875 23.5625 6.77881 23.5625 8.125V17.875C23.5625 19.2212 22.4712 20.3125 21.125 20.3125H4.875C3.52881 20.3125 2.4375 19.2212 2.4375 17.875V8.125Z" fill="#BECCBA"/>
<path d="M9.75 5.6875H21.125C22.4712 5.6875 23.5625 6.77881 23.5625 8.125V17.875C23.5625 19.2212 22.4712 20.3125 21.125 20.3125H9.75V5.6875Z" fill="#A0AE9C"/>
<path d="M9.75 7.3125H21.125C21.5737 7.3125 21.9375 7.67627 21.9375 8.125V17.875C21.9375 18.3237 21.5737 18.6875 21.125 18.6875H9.75V7.3125Z" fill="#ADBBAA"/>
<path d="M4.0625 17.875C4.0625 17.4263 4.42627 17.0625 4.875 17.0625H7.3125C7.76123 17.0625 8.125 17.4263 8.125 17.875C8.125 18.3237 7.76123 18.6875 7.3125 18.6875H4.875C4.42627 18.6875 4.0625 18.3237 4.0625 17.875Z" fill="#909E8C"/>
<path opacity="0.8" d="M17.875 12.1875C17.875 13.085 17.1475 13.8125 16.25 13.8125C15.3525 13.8125 14.625 13.085 14.625 12.1875C14.625 11.29 15.3525 10.5625 16.25 10.5625C17.1475 10.5625 17.875 11.29 17.875 12.1875Z" fill="#7C8B78"/>
<path opacity="0.8" d="M20.3125 18.6875C20.3125 18.154 20.2074 17.6257 20.0033 17.1328C19.7991 16.64 19.4999 16.1921 19.1226 15.8149C18.7454 15.4376 18.2975 15.1384 17.8047 14.9342C17.3118 14.7301 16.7835 14.625 16.25 14.625C15.7165 14.625 15.1882 14.7301 14.6953 14.9342C14.2025 15.1384 13.7546 15.4376 13.3774 15.8149C13.0001 16.1921 12.7009 16.64 12.4967 17.1328C12.2926 17.6257 12.1875 18.154 12.1875 18.6875L20.3125 18.6875Z" fill="#7C8B78"/>
</svg>
