<svg width="26" height="26" viewBox="0 0 26 26" fill="none" xmlns="http://www.w3.org/2000/svg">
<path fill-rule="evenodd" clip-rule="evenodd" d="M13 4.67188C13.5609 4.67188 14.0156 5.12659 14.0156 5.6875V20.7188C14.0156 21.2797 14.4703 21.7344 15.0312 21.7344C15.5922 21.7344 16.0469 21.2797 16.0469 20.7188V20.3125C16.0469 19.7516 16.5016 19.2969 17.0625 19.2969C17.6234 19.2969 18.0781 19.7516 18.0781 20.3125V20.7188C18.0781 22.4015 16.714 23.7656 15.0312 23.7656C13.3485 23.7656 11.9844 22.4015 11.9844 20.7188V5.6875C11.9844 5.12659 12.4391 4.67188 13 4.67188Z" fill="#C1C7CF"/>
<path fill-rule="evenodd" clip-rule="evenodd" d="M13 3.04688C13.5609 3.04688 14.0156 3.50159 14.0156 4.0625V5.6875C14.0156 6.24841 13.5609 6.70312 13 6.70312C12.4391 6.70312 11.9844 6.24841 11.9844 5.6875V4.0625C11.9844 3.50159 12.4391 3.04688 13 3.04688Z" fill="#485059"/>
<path d="M4.0625 15.0312H21.9375C21.7047 9.37523 18.6604 4.875 12.989 4.875C7.31763 4.875 4.29534 9.37523 4.0625 15.0312Z" fill="#6C7CEA"/>
<path d="M16.5447 15.0312C16.5452 14.946 16.5455 14.8598 16.5455 14.7727C16.5455 9.77214 15.1056 6.37149 13.9918 4.92389C13.6673 4.89155 13.3331 4.875 12.9892 4.875C12.6535 4.875 12.3271 4.89076 12.0101 4.9216C10.896 6.3679 9.45459 9.7695 9.45459 14.7727C9.45459 14.8598 9.45485 14.946 9.45537 15.0312H16.5447Z" fill="#394BC6"/>
</svg>
