<svg width="28" height="28" viewBox="0 0 28 28" fill="none" xmlns="http://www.w3.org/2000/svg">
<path d="M4.66797 7H23.3346" stroke="#272B2F" stroke-width="1.8" stroke-linecap="round"/>
<path d="M4.66797 14H23.3346" stroke="#272B2F" stroke-width="1.8" stroke-linecap="round"/>
<path d="M4.66797 21H23.3346" stroke="#272B2F" stroke-width="1.8" stroke-linecap="round"/>
<path d="M10.5013 9.33268C11.79 9.33268 12.8346 8.28801 12.8346 6.99935C12.8346 5.71068 11.79 4.66602 10.5013 4.66602C9.21264 4.66602 8.16797 5.71068 8.16797 6.99935C8.16797 8.28801 9.21264 9.33268 10.5013 9.33268Z" fill="white" stroke="#272B2F" stroke-width="1.8"/>
<path d="M17.5013 16.3327C18.79 16.3327 19.8346 15.288 19.8346 13.9993C19.8346 12.7107 18.79 11.666 17.5013 11.666C16.2126 11.666 15.168 12.7107 15.168 13.9993C15.168 15.288 16.2126 16.3327 17.5013 16.3327Z" fill="white" stroke="#272B2F" stroke-width="1.8"/>
<path d="M10.5013 23.3327C11.79 23.3327 12.8346 22.288 12.8346 20.9993C12.8346 19.7107 11.79 18.666 10.5013 18.666C9.21264 18.666 8.16797 19.7107 8.16797 20.9993C8.16797 22.288 9.21264 23.3327 10.5013 23.3327Z" fill="white" stroke="#272B2F" stroke-width="1.8"/>
</svg>
