<svg width="28" height="28" viewBox="0 0 28 28" fill="none" xmlns="http://www.w3.org/2000/svg">
<ellipse cx="11.5815" cy="12.505" rx="1.06977" ry="1.60465" fill="#272B2F"/>
<ellipse cx="16.4213" cy="12.505" rx="1.06977" ry="1.60465" fill="#272B2F"/>
<path fill-rule="evenodd" clip-rule="evenodd" d="M11.9228 16.6195C11.5475 16.388 11.0553 16.5028 10.8213 16.8772C10.5864 17.253 10.7007 17.748 11.0764 17.9828L11.0784 17.984L11.0808 17.9855L11.0866 17.9891L11.1029 17.9989C11.1157 18.0065 11.1324 18.0163 11.1531 18.0279C11.1943 18.0512 11.251 18.0819 11.3222 18.1176C11.4645 18.1887 11.6659 18.2799 11.9182 18.37C12.4218 18.5499 13.138 18.7288 13.9978 18.7288C14.8576 18.7288 15.5738 18.5499 16.0773 18.37C16.3297 18.2799 16.531 18.1887 16.6733 18.1176C16.7445 18.0819 16.8013 18.0512 16.8425 18.0279C16.8631 18.0163 16.8799 18.0065 16.8927 17.9989L16.9089 17.9891L16.9148 17.9855L16.9171 17.984L16.9182 17.9834C16.9182 17.9834 16.9148 17.9855 16.9191 17.9828C17.2949 17.748 17.4091 17.253 17.1743 16.8772C16.9395 16.5016 16.4448 16.3873 16.0691 16.6218L16.0703 16.6211L16.0716 16.6203L16.0537 16.6306C16.0344 16.6414 16.0015 16.6594 15.9557 16.6823C15.8639 16.7282 15.7221 16.793 15.5376 16.8589C15.1675 16.991 14.6357 17.1241 13.9978 17.1241C13.3599 17.1241 12.828 16.991 12.4579 16.8589C12.2735 16.793 12.1316 16.7282 12.0399 16.6823C11.9941 16.6594 11.9611 16.6414 11.9419 16.6306L11.9228 16.6195Z" fill="#272B2F"/>
<path fill-rule="evenodd" clip-rule="evenodd" d="M0.0507812 13.45C0.0507812 10.6598 2.14747 8.35941 4.85122 8.03831C5.03489 8.01649 5.19741 7.90518 5.27891 7.73913C6.87399 4.48929 10.2534 2.25 14.0015 2.25C17.7519 2.25 21.1323 4.49204 22.7258 7.74498C22.8065 7.90976 22.967 8.02084 23.149 8.0439C25.8569 8.38698 27.9508 10.699 27.9508 13.5V14.81C27.9508 17.6179 25.8466 19.9344 23.1291 20.2686C22.9473 20.2909 22.7866 20.4011 22.7051 20.5652C21.1693 23.6593 18.0109 25.8239 14.4658 25.9988C13.9142 26.026 13.4449 25.6009 13.4177 25.0493C13.3905 24.4977 13.8156 24.0284 14.3672 24.0012C18.3381 23.8053 21.6908 20.4481 21.6908 16.37V11.9C21.6908 7.69348 18.1257 4.25 14.0015 4.25C9.87705 4.25 6.31078 7.69369 6.31078 11.9V19.31C6.31078 19.8623 5.86306 20.31 5.31078 20.31C5.29233 20.31 5.274 20.3095 5.25579 20.3085C5.23758 20.3095 5.21924 20.31 5.20078 20.31C2.35651 20.31 0.0507812 18.0043 0.0507812 15.16V13.45ZM4.31078 11.9C4.31078 11.3042 4.36669 10.7212 4.47326 10.1556C3.0697 10.5929 2.05078 11.9025 2.05078 13.45V15.16C2.05078 16.5906 3.00447 17.7985 4.31078 18.1825V11.9ZM23.5229 18.1427C24.9315 17.6899 25.9508 16.369 25.9508 14.81V13.5C25.9508 11.944 24.9354 10.6251 23.531 10.1699C23.6358 10.731 23.6908 11.3092 23.6908 11.9V16.37C23.6908 16.9759 23.633 17.5684 23.5229 18.1427Z" fill="#272B2F"/>
</svg>
