<svg width="28" height="28" viewBox="0 0 28 28" fill="none" xmlns="http://www.w3.org/2000/svg">
<g clip-path="url(#clip0_6674_69289)">
<path d="M9.42743 19.4228C9.20045 19.4228 8.98633 19.3346 8.82643 19.1738C4.90154 15.2489 3.53687 11.6539 3.08199 9.32799C2.74656 7.60677 3.45784 5.82214 4.8951 4.78095L6.69995 3.47419C7.12818 3.16358 7.63178 3 8.15559 3C8.8154 3 9.43754 3.25915 9.90713 3.72966L12.4609 6.28346C13.106 6.92857 13.447 7.82181 13.3955 8.73342C13.3441 9.64503 12.9048 10.4942 12.1908 11.063L11.4271 11.6713C11.3839 11.7063 11.3361 11.7366 11.2865 11.7623C11.0944 11.8616 10.9649 12.0408 10.9318 12.254C10.8987 12.4681 10.9667 12.6776 11.1202 12.8311L13.1446 14.8556C13.3055 15.0164 13.3937 15.2296 13.3937 15.4566C13.3937 15.6835 13.3055 15.8977 13.1446 16.0585C12.9838 16.2193 12.7706 16.3075 12.5436 16.3075C12.3167 16.3075 12.1025 16.2193 11.9426 16.0585L9.91816 14.034C9.37689 13.4927 9.13428 12.7484 9.25191 11.9921C9.36494 11.2698 9.79226 10.6522 10.4273 10.2938L11.1321 9.73233C11.4721 9.46124 11.6734 9.07252 11.6982 8.63785C11.723 8.20318 11.5668 7.79424 11.2589 7.48638L8.70513 4.93258C8.55717 4.78463 8.36235 4.70376 8.15559 4.70376C7.99109 4.70376 7.83303 4.75522 7.69794 4.85263L5.8931 6.1594C4.99067 6.81278 4.54314 7.92841 4.75266 9.00267C5.1616 11.0952 6.40864 14.3501 10.0294 17.9708C10.1902 18.1317 10.2784 18.3449 10.2784 18.5718C10.2784 18.7988 10.1902 19.013 10.0294 19.1738C9.86854 19.3346 9.65534 19.4228 9.42835 19.4228H9.42743Z" fill="#272B2F"/>
<path d="M19.5209 24.9994C19.2351 24.9994 18.9484 24.9718 18.669 24.9167C16.3441 24.4627 12.7482 23.0981 8.82326 19.1732C8.66244 19.0124 8.57422 18.7992 8.57422 18.5722C8.57422 18.3452 8.66244 18.1311 8.82326 17.9703C8.98408 17.8094 9.19728 17.7212 9.42426 17.7212C9.65125 17.7212 9.86536 17.8094 10.0253 17.9703C13.6469 21.5919 16.901 22.8389 18.9934 23.2469C19.1671 23.2809 19.3445 23.2975 19.5209 23.2975C20.4307 23.2975 21.2964 22.8518 21.8367 22.1065L23.1435 20.3017C23.3695 19.9901 23.3355 19.5665 23.0635 19.2945L20.5097 16.7407C20.2248 16.4558 19.8462 16.2987 19.4446 16.2987C19.4162 16.2987 19.3868 16.2987 19.3573 16.3014C18.9227 16.3262 18.534 16.5266 18.2629 16.8675L17.7014 17.5723C17.3439 18.2064 16.7254 18.6347 16.004 18.7477C15.88 18.767 15.7541 18.7771 15.63 18.7771C15.0033 18.7771 14.4106 18.5299 13.9621 18.0814L11.9376 16.057C11.7768 15.8962 11.6886 15.683 11.6886 15.456C11.6886 15.229 11.7768 15.0149 11.9376 14.854C12.0984 14.6932 12.3116 14.605 12.5386 14.605C12.7656 14.605 12.9797 14.6932 13.1396 14.854L15.1641 16.8785C15.2909 17.0053 15.4582 17.0752 15.6346 17.0752C15.6695 17.0752 15.7054 17.0724 15.7412 17.0669C15.9544 17.0338 16.1336 16.9043 16.2329 16.7122C16.2586 16.6626 16.2889 16.6148 16.3238 16.5716L16.9322 15.8079C17.501 15.0939 18.3502 14.6546 19.2618 14.6032C19.3215 14.5995 19.3822 14.5977 19.4419 14.5977C20.2873 14.5977 21.1144 14.9404 21.7117 15.5378L24.2655 18.0916C25.1321 18.9581 25.2387 20.3072 24.521 21.2987L23.2142 23.1036C22.355 24.29 20.9738 24.9985 19.5191 24.9985L19.5209 24.9994Z" fill="#272B2F"/>
<path d="M6.80664 3.62305C7.7256 2.95772 8.97509 3.05712 9.77734 3.85938L12.3311 6.41309C12.9392 7.02142 13.2606 7.86354 13.2119 8.72266C13.1631 9.58174 12.7497 10.3824 12.0771 10.9189L11.3135 11.5273C11.2795 11.5549 11.2426 11.5784 11.2031 11.5986C10.9578 11.7245 10.7932 11.9536 10.751 12.2256C10.7088 12.4975 10.7964 12.7662 10.9912 12.9609L13.0156 14.9854C13.0186 14.9883 13.0206 14.9921 13.0234 14.9951L15.0371 17.0088C15.2319 17.2036 15.5005 17.2912 15.7725 17.249C16.0445 17.2068 16.2735 17.0413 16.3994 16.7969C16.4196 16.7583 16.4432 16.7205 16.4707 16.6865L17.0791 15.9229C17.6157 15.2502 18.4163 14.8359 19.2754 14.7881C20.1336 14.7394 20.9767 15.0607 21.5859 15.6689L24.1396 18.2227C24.9419 19.0249 25.0413 20.2744 24.376 21.1934L23.0693 22.998C22.2349 24.1504 20.9018 24.8164 19.5225 24.8164L19.5244 24.8145C19.2526 24.8144 18.9799 24.7886 18.708 24.7354C16.4098 24.2864 12.8556 22.9368 8.9668 19.0527C8.96323 19.0493 8.95859 19.0465 8.95508 19.043C5.06349 15.1513 3.71207 11.5931 3.2627 9.29297C2.94014 7.64159 3.6226 5.9286 5.00195 4.92969L6.80664 3.62305ZM8.83496 4.80176C8.49862 4.46553 7.97582 4.42471 7.59082 4.70312L5.78613 6.00977C4.82591 6.70443 4.35009 7.89304 4.57324 9.03613C4.98678 11.1534 6.24659 14.4458 9.90039 18.0996C9.90153 18.1008 9.90219 18.1024 9.90332 18.1035C13.5554 21.7542 16.8453 23.0133 18.9619 23.4268C20.106 23.6501 21.2945 23.1742 21.9893 22.2139L23.2959 20.4092C23.5743 20.0242 23.5334 19.5005 23.1973 19.165L20.6436 16.6113C20.298 16.2658 19.8367 16.0915 19.3506 16.1182C18.8628 16.1458 18.4271 16.3717 18.1221 16.7539L17.5518 17.4707C17.2228 18.0633 16.6529 18.4607 15.9785 18.5664C15.2802 18.6757 14.5937 18.4519 14.0947 17.9521L12.0703 15.9277C12.0668 15.9242 12.064 15.9196 12.0605 15.916L10.0479 13.9033C9.54894 13.4043 9.32516 12.717 9.43359 12.0195C9.53927 11.3451 9.9367 10.7762 10.5293 10.4463L11.2461 9.87598C11.6284 9.5718 11.8543 9.13451 11.8818 8.64746C11.9093 8.15964 11.7332 7.7009 11.3887 7.35547L8.83496 4.80176Z" fill="#272B2F"/>
</g>
<defs>
<clipPath id="clip0_6674_69289">
<rect width="22" height="22" fill="white" transform="translate(3 3)"/>
</clipPath>
</defs>
</svg>
