<svg width="36" height="36" viewBox="0 0 36 36" fill="none" xmlns="http://www.w3.org/2000/svg">
<path fill-rule="evenodd" clip-rule="evenodd" d="M16.0698 3.85742C9.32399 3.85742 3.85547 9.32594 3.85547 16.0717C3.85547 22.8175 9.32399 28.286 16.0698 28.286C18.9795 28.286 21.6515 27.2686 23.7496 25.57L29.9463 31.7668C30.4484 32.2689 31.2625 32.2689 31.7646 31.7668C32.2667 31.2647 32.2667 30.4506 31.7646 29.9485L25.5679 23.7518C27.2665 21.6537 28.284 18.9815 28.284 16.0717C28.284 9.32594 22.8155 3.85742 16.0698 3.85742ZM6.4269 16.0717C6.4269 10.7461 10.7442 6.42885 16.0698 6.42885C21.3954 6.42885 25.7126 10.7461 25.7126 16.0717C25.7126 21.3973 21.3954 25.7146 16.0698 25.7146C10.7442 25.7146 6.4269 21.3973 6.4269 16.0717Z" fill="#272B2F"/>
</svg>
