<svg width="390" height="52" viewBox="0 0 390 52" fill="none" xmlns="http://www.w3.org/2000/svg">
<path fill-rule="evenodd" clip-rule="evenodd" d="M274.5 15C269.253 15 265 19.2533 265 24.5C265 29.7467 269.253 34 274.5 34C276.763 34 278.841 33.2087 280.473 31.8876L285.293 36.7073C285.683 37.0978 286.317 37.0978 286.707 36.7073C287.098 36.3167 287.098 35.6836 286.707 35.293L281.887 30.4734C283.209 28.8415 284 26.7632 284 24.5C284 19.2533 279.747 15 274.5 15ZM267 24.5C267 20.3579 270.358 17 274.5 17C278.642 17 282 20.3579 282 24.5C282 28.6421 278.642 32 274.5 32C270.358 32 267 28.6421 267 24.5Z" fill="#272B2F"/>
<path fill-rule="evenodd" clip-rule="evenodd" d="M316 15C311.582 15 308 18.5817 308 23V28.5858L306.879 29.7071C306.316 30.2697 306 31.0328 306 31.8284V32C306 33.6569 307.343 35 309 35H323C324.657 35 326 33.6569 326 32V31.8284C326 31.0328 325.684 30.2697 325.121 29.7071L324 28.5858V23C324 18.5817 320.418 15 316 15ZM310 23C310 19.6863 312.686 17 316 17C319.314 17 322 19.6863 322 23V28.9019C322 29.2299 322.13 29.5445 322.362 29.7764L323.707 31.1213C323.895 31.3089 324 31.5632 324 31.8284V32C324 32.5523 323.552 33 323 33H309C308.448 33 308 32.5523 308 32V31.8284C308 31.5632 308.105 31.3089 308.293 31.1213L309.638 29.7764C309.87 29.5445 310 29.2299 310 28.9019V23Z" fill="#272B2F"/>
<path d="M313 37C313 36.4477 313.448 36 314 36H318C318.552 36 319 36.4477 319 37C319 37.5523 318.552 38 318 38H314C313.448 38 313 37.5523 313 37Z" fill="#272B2F"/>
<ellipse cx="353.581" cy="24.5031" rx="1.06977" ry="1.60465" fill="#272B2F"/>
<ellipse cx="358.419" cy="24.5031" rx="1.06977" ry="1.60465" fill="#272B2F"/>
<path fill-rule="evenodd" clip-rule="evenodd" d="M353.923 28.6195C353.548 28.388 353.056 28.5028 352.822 28.8772C352.587 29.253 352.701 29.748 353.077 29.9828L353.079 29.984L353.081 29.9855L353.087 29.9891L353.103 29.9989C353.116 30.0065 353.133 30.0163 353.154 30.0279C353.195 30.0512 353.252 30.0819 353.323 30.1176C353.465 30.1887 353.666 30.2799 353.919 30.37C354.422 30.5499 355.138 30.7288 355.998 30.7288C356.858 30.7288 357.574 30.5499 358.078 30.37C358.33 30.2799 358.532 30.1887 358.674 30.1176C358.745 30.0819 358.802 30.0512 358.843 30.0279C358.864 30.0163 358.88 30.0065 358.893 29.9989L358.909 29.9891L358.915 29.9855L358.918 29.984L358.919 29.9834C358.919 29.9834 358.915 29.9855 358.92 29.9828C359.295 29.748 359.41 29.253 359.175 28.8772C358.94 28.5016 358.445 28.3873 358.07 28.6218L358.071 28.6211L358.072 28.6203L358.054 28.6306C358.035 28.6414 358.002 28.6594 357.956 28.6823C357.864 28.7282 357.723 28.793 357.538 28.8589C357.168 28.991 356.636 29.1241 355.998 29.1241C355.36 29.1241 354.829 28.991 354.458 28.8589C354.274 28.793 354.132 28.7282 354.04 28.6823C353.995 28.6594 353.962 28.6414 353.942 28.6306L353.923 28.6195Z" fill="#272B2F"/>
<path fill-rule="evenodd" clip-rule="evenodd" d="M342.05 25.45C342.05 22.6598 344.146 20.3594 346.85 20.0383C347.034 20.0165 347.196 19.9052 347.278 19.7391C348.873 16.4893 352.252 14.25 356 14.25C359.751 14.25 363.131 16.492 364.725 19.745C364.805 19.9098 364.966 20.0208 365.148 20.0439C367.856 20.387 369.95 22.699 369.95 25.5V26.81C369.95 29.6179 367.846 31.9344 365.128 32.2686C364.946 32.2909 364.786 32.4011 364.704 32.5652C363.168 35.6593 360.01 37.8239 356.465 37.9988C355.913 38.026 355.444 37.6009 355.417 37.0493C355.39 36.4977 355.815 36.0284 356.366 36.0012C360.337 35.8053 363.69 32.4481 363.69 28.37V23.9C363.69 19.6935 360.125 16.25 356 16.25C351.876 16.25 348.31 19.6937 348.31 23.9V31.31C348.31 31.8623 347.862 32.31 347.31 32.31C347.291 32.31 347.273 32.3095 347.255 32.3085C347.237 32.3095 347.218 32.31 347.2 32.31C344.356 32.31 342.05 30.0043 342.05 27.16V25.45ZM346.31 23.9C346.31 23.3042 346.366 22.7212 346.472 22.1556C345.069 22.5929 344.05 23.9025 344.05 25.45V27.16C344.05 28.5906 345.003 29.7985 346.31 30.1825V23.9ZM365.522 30.1427C366.93 29.6899 367.95 28.369 367.95 26.81V25.5C367.95 23.944 366.934 22.6251 365.53 22.1699C365.635 22.731 365.69 23.3092 365.69 23.9V28.37C365.69 28.9759 365.632 29.5684 365.522 30.1427Z" fill="#272B2F"/>
</svg>
