<svg width="24" height="24" viewBox="0 0 24 24" fill="none" xmlns="http://www.w3.org/2000/svg">
<path opacity="0.2" fill-rule="evenodd" clip-rule="evenodd" d="M22.8002 11.9992C22.8002 17.9639 17.9649 22.7992 12.0002 22.7992C6.03552 22.7992 1.2002 17.9639 1.2002 11.9992C1.2002 6.03454 6.03552 1.19922 12.0002 1.19922C17.9649 1.19922 22.8002 6.03454 22.8002 11.9992ZM15.2247 16.4964C15.5761 16.8479 16.146 16.8479 16.4975 16.4964C16.8489 16.1449 16.8489 15.5751 16.4975 15.2236L13.2731 11.9992L16.4975 8.7748C16.849 8.42333 16.849 7.85348 16.4975 7.50201C16.146 7.15054 15.5762 7.15054 15.2247 7.50201L12.0003 10.7264L8.77585 7.50201C8.42438 7.15054 7.85453 7.15054 7.50306 7.50201C7.15159 7.85348 7.15159 8.42333 7.50306 8.7748L10.7275 11.9992L7.50308 15.2236C7.15161 15.5751 7.15161 16.1449 7.50308 16.4964C7.85455 16.8479 8.4244 16.8479 8.77587 16.4964L12.0003 13.272L15.2247 16.4964Z" fill="black" fill-opacity="0.5"/>
</svg>
